999
FreeCAD v0.19 26118 (Git)
  0
SECTION
  2
HEADER
  9
$ACADVER
  1
AC1014
  9
$ACADMAINTVER
 70
     9
  9
$DWGCODEPAGE
  3
ANSI_1252
  9
$TEXTSTYLE
  7
STANDARD
  9
$DIMSTYLE
  2
STANDARD
  9
$DIMTXSTY
  7
STANDARD
  9
$CMLSTYLE
  2
STANDARD
  9
$PEXTMAX
 10
50
 20
50
 30
50
  9
$PEXTMIN
 10
0
 20
0
 30
0
  9
$HANDSEED
  5
FFFF
  0
ENDSEC
  0
SECTION
  2
CLASSES
  0
CLASS
  1
ACDBDICTIONARYWDFLT
  2
AcDbDictionaryWithDefault
  3
ObjectDBX Classes
 90
        0
280
     0
281
     0
  0
CLASS
  1
XRECORD
  2
AcDbXrecord
  3
ObjectDBX Classes
 90
        0
280
     0
281
     0
  0
CLASS
  1
LWPOLYLINE
  2
AcDbPolyline
  3
ObjectDBX Classes
 90
        0
280
     0
281
     1
  0
ENDSEC
  0
SECTION
  2
TABLES
  0
TABLE
  2
VPORT
  5
20
330
0
100
AcDbSymbolTable
 70
     1
  0
VPORT
  5
21
330
20
100
AcDbSymbolTableRecord
100
AcDbViewportTableRecord
  2
*ACTIVE
 70
     0
  0
ENDTAB
  0
TABLE
  2
LTYPE
  5
22
330
0
100
AcDbSymbolTable
 70
     1
  0
LTYPE
  5
23
330
21
100
AcDbSymbolTableRecord
100
AcDbLinetypeTableRecord
  2
BYBLOCK
 70
     0
  3

 72
    65
 73
     0
 40
0.0
  0
LTYPE
  5
24
330
21
100
AcDbSymbolTableRecord
100
AcDbLinetypeTableRecord
  2
BYLAYER
 70
     0
  3

 72
    65
 73
     0
 40
0.0
  0
LTYPE
  5
25
330
21
100
AcDbSymbolTableRecord
100
AcDbLinetypeTableRecord
  2
CONTINUOUS
 70
     0
  3
Solid line
 72
    65
 73
     0
 40
0.0
  0
ENDTAB
  0
TABLE
  2
LAYER
  5
F4E
330
0
100
AcDbSymbolTable
 70
3
  0
LAYER
  5
F4F
330
F4E
100
AcDbSymbolTableRecord
100
AcDbLayerTableRecord
  2
0
 70
   0
 62
   7
  6
CONTINUOUS
  0
LAYER
  5
F50
330
F4E
100
AcDbSymbolTableRecord
100
AcDbLayerTableRecord
  2
none
 70
    0
 62
    7
  6
CONTINUOUS
  0
LAYER
  5
F51
330
F4E
100
AcDbSymbolTableRecord
100
AcDbLayerTableRecord
  2
Fusion008
 70
    0
 62
    7
  6
CONTINUOUS
  0
ENDTAB
  0
TABLE
  2
STYLE
  5
70
330
0
100
AcDbSymbolTable
 70
     2
  0
STYLE
  5
71
330
70
100
AcDbSymbolTableRecord
100
AcDbTextStyleTableRecord
  2
STANDARD
 70
     0
 40
0.0
 41
1.0
 50
0.0
 71
     0
 42
2.5
  3
arial.ttf
  4

  0
STYLE
  5
72
330
70
100
AcDbSymbolTableRecord
100
AcDbTextStyleTableRecord
  2
ANNOTATIVE
 70
     0
 40
0.0
 41
1.0
 50
0.0
 71
     0
 42
2.5
  3
arial.ttf
  4

  0
ENDTAB
  0
TABLE
  2
VIEW
  5
73
330
0
100
AcDbSymbolTable
 70
     0
  0
ENDTAB
  0
TABLE
  2
UCS
  5
74
330
0
100
AcDbSymbolTable
 70
     0
  0
ENDTAB
  0
TABLE
  2
APPID
  5
75
330
0
100
AcDbSymbolTable
 70
     2
  0
APPID
  5
76
330
75
100
AcDbSymbolTableRecord
100
AcDbRegAppTableRecord
  2
ACAD
 70
     0
  0
APPID
  5
77
330
75
100
AcDbSymbolTableRecord
100
AcDbRegAppTableRecord
  2
ACADANNOTATIVE
 70
     0
  0
ENDTAB
  0
TABLE
  2
DIMSTYLE
  5
78
330
0
100
AcDbSymbolTable
 70
     2
  0
DIMSTYLE
105
79
330
78
100
AcDbSymbolTableRecord
100
AcDbDimStyleTableRecord
  2
STANDARD
 70
     0
  3

  4

  5

  6

  7

 40
0.0
 41
2.5
 42
0.625
 43
3.75
 44
1.25
 45
0.0
 46
0.0
 47
0.0
 48
0.0
140
2.5
141
2.5
142
0.0
143
0.03937007874016
144
1.0
145
0.0
146
1.0
147
0.625
 71
     0
 72
     0
 73
     0
 74
     0
 75
     0
 76
     0
 77
     1
 78
     8
170
     0
171
     3
172
     1
173
     0
174
     0
175
     0
176
     0
177
     0
178
     0
270
     2
271
     2
272
     2
273
     2
274
     3
340
71
275
     0
280
     0
281
     0
282
     0
283
     0
284
     8
285
     0
286
     0
287
     3
288
     0
  0
ENDTAB
  0
TABLE
  2
BLOCK_RECORD
  5
A01
330
0
100
AcDbSymbolTable
  70
5
  0
BLOCK_RECORD
  5
A02
330
A01
100
AcDbSymbolTableRecord
100
AcDbBlockTableRecord
  2
*MODEL_SPACE
  0
BLOCK_RECORD
  5
A03
330
A01
100
AcDbSymbolTableRecord
100
AcDbBlockTableRecord
  2
*PAPER_SPACE
  0
ENDTAB
  0
ENDSEC
  0
SECTION
  2
BLOCKS
  0
BLOCK
  5
A04
330
A02
100
AcDbEntity
  8
0
100
AcDbBlockBegin
  2
*MODEL_SPACE
 70
   0
 10
0
 20
0
 30
0
  3
*MODEL_SPACE
  1
 
  0
ENDBLK
  5
A05
330
A02
100
AcDbEntity
  8
0
100
AcDbBlockEnd
  0
BLOCK
  5
A06
330
A03
100
AcDbEntity
 67
1
  8
0
100
AcDbBlockBegin
  2
*PAPER_SPACE
 70
   0
 10
0
 20
0
 30
0
  3
*PAPER_SPACE
  1
 
  0
ENDBLK
  5
A07
330
A03
100
AcDbEntity
 67
    1
  8
0
100
AcDbBlockEnd
  0
ENDSEC
  0
SECTION
  2
ENTITIES
  0
LINE
  5
A08
330
A02
100
AcDbEntity
  8
Fusion008
100
AcDbLine
 10
-3
 20
-103.327
 30
-7
 11
-3
 21
-103.327
 31
-9
  0
LINE
  5
A09
330
A02
100
AcDbEntity
  8
Fusion008
100
AcDbLine
 10
-0.506514
 20
-105.82
 30
-7
 11
-0.506514
 21
-105.82
 31
-9
  0
ARC
  5
A0A
330
A02
100
AcDbEntity
  8
Fusion008
100
AcDbCircle
 10
-0.506514
 20
-103.327
 30
-7
 40
2.49349
100
AcDbArc
 50
180
 51
-90
  0
ARC
  5
A0B
330
A02
100
AcDbEntity
  8
Fusion008
100
AcDbCircle
 10
-0.506514
 20
-103.327
 30
-9
 40
2.49349
100
AcDbArc
 50
180
 51
-90
  0
LINE
  5
A0C
330
A02
100
AcDbEntity
  8
Fusion008
100
AcDbLine
 10
-0.506514
 20
-105.82
 30
-7
 11
-0.506514
 21
-105.82
 31
-9
  0
LINE
  5
A0D
330
A02
100
AcDbEntity
  8
Fusion008
100
AcDbLine
 10
132.507
 20
-105.82
 30
-7
 11
132.507
 21
-105.82
 31
-9
  0
LINE
  5
A0E
330
A02
100
AcDbEntity
  8
Fusion008
100
AcDbLine
 10
-0.506514
 20
-105.82
 30
-7
 11
132.507
 21
-105.82
 31
-7
  0
LINE
  5
A0F
330
A02
100
AcDbEntity
  8
Fusion008
100
AcDbLine
 10
-0.506514
 20
-105.82
 30
-9
 11
132.507
 21
-105.82
 31
-9
  0
LINE
  5
A10
330
A02
100
AcDbEntity
  8
Fusion008
100
AcDbLine
 10
132.507
 20
-105.82
 30
-7
 11
132.507
 21
-105.82
 31
-9
  0
LINE
  5
A11
330
A02
100
AcDbEntity
  8
Fusion008
100
AcDbLine
 10
135
 20
-103.327
 30
-7
 11
135
 21
-103.327
 31
-9
  0
ARC
  5
A12
330
A02
100
AcDbEntity
  8
Fusion008
100
AcDbCircle
 10
132.507
 20
-103.327
 30
-7
 40
2.49349
100
AcDbArc
 50
-90
 51
0
  0
ARC
  5
A13
330
A02
100
AcDbEntity
  8
Fusion008
100
AcDbCircle
 10
132.507
 20
-103.327
 30
-9
 40
2.49349
100
AcDbArc
 50
-90
 51
0
  0
LINE
  5
A14
330
A02
100
AcDbEntity
  8
Fusion008
100
AcDbLine
 10
135
 20
-103.327
 30
-7
 11
135
 21
-103.327
 31
-9
  0
LINE
  5
A15
330
A02
100
AcDbEntity
  8
Fusion008
100
AcDbLine
 10
135
 20
-72.5
 30
-7
 11
135
 21
-72.5
 31
-9
  0
LINE
  5
A16
330
A02
100
AcDbEntity
  8
Fusion008
100
AcDbLine
 10
135
 20
-103.327
 30
-7
 11
135
 21
-72.5
 31
-7
  0
LINE
  5
A17
330
A02
100
AcDbEntity
  8
Fusion008
100
AcDbLine
 10
135
 20
-103.327
 30
-9
 11
135
 21
-72.5
 31
-9
  0
LINE
  5
A18
330
A02
100
AcDbEntity
  8
Fusion008
100
AcDbLine
 10
135
 20
-72.5
 30
-7
 11
135
 21
-72.5
 31
-9
  0
LINE
  5
A19
330
A02
100
AcDbEntity
  8
Fusion008
100
AcDbLine
 10
132.5
 20
-70
 30
-7
 11
132.5
 21
-70
 31
-9
  0
ARC
  5
A1A
330
A02
100
AcDbEntity
  8
Fusion008
100
AcDbCircle
 10
132.5
 20
-72.5
 30
-7
 40
2.5
100
AcDbArc
 50
0
 51
90
  0
ARC
  5
A1B
330
A02
100
AcDbEntity
  8
Fusion008
100
AcDbCircle
 10
132.5
 20
-72.5
 30
-9
 40
2.5
100
AcDbArc
 50
0
 51
90
  0
LINE
  5
A1C
330
A02
100
AcDbEntity
  8
Fusion008
100
AcDbLine
 10
132.5
 20
-70
 30
-7
 11
132.5
 21
-70
 31
-9
  0
LINE
  5
A1D
330
A02
100
AcDbEntity
  8
Fusion008
100
AcDbLine
 10
108.419
 20
-70
 30
-7
 11
108.419
 21
-70
 31
-9
  0
LINE
  5
A1E
330
A02
100
AcDbEntity
  8
Fusion008
100
AcDbLine
 10
132.5
 20
-70
 30
-7
 11
108.419
 21
-70
 31
-7
  0
LINE
  5
A1F
330
A02
100
AcDbEntity
  8
Fusion008
100
AcDbLine
 10
132.5
 20
-70
 30
-9
 11
108.419
 21
-70
 31
-9
  0
LINE
  5
A20
330
A02
100
AcDbEntity
  8
Fusion008
100
AcDbLine
 10
102.239
 20
-66.91
 30
-7
 11
102.239
 21
-66.91
 31
-9
  0
LINE
  5
A21
330
A02
100
AcDbEntity
  8
Fusion008
100
AcDbLine
 10
108.419
 20
-70
 30
-7
 11
108.419
 21
-70
 31
-9
  0
ARC
  5
A22
330
A02
100
AcDbEntity
  8
Fusion008
100
AcDbCircle
 10
108.419
 20
-62.275
 30
-7
 40
7.725
100
AcDbArc
 50
-143.13
 51
-90
  0
ARC
  5
A23
330
A02
100
AcDbEntity
  8
Fusion008
100
AcDbCircle
 10
108.419
 20
-62.275
 30
-9
 40
7.725
100
AcDbArc
 50
-143.13
 51
-90
  0
LINE
  5
A24
330
A02
100
AcDbEntity
  8
Fusion008
100
AcDbLine
 10
102.239
 20
-66.91
 30
-7
 11
102.239
 21
-66.91
 31
-9
  0
LINE
  5
A25
330
A02
100
AcDbEntity
  8
Fusion008
100
AcDbLine
 10
96.0586
 20
-63.82
 30
-7
 11
96.0586
 21
-63.82
 31
-9
  0
ARC
  5
A26
330
A02
100
AcDbEntity
  8
Fusion008
100
AcDbCircle
 10
96.0586
 20
-71.545
 30
-7
 40
7.725
100
AcDbArc
 50
36.8699
 51
90
  0
ARC
  5
A27
330
A02
100
AcDbEntity
  8
Fusion008
100
AcDbCircle
 10
96.0586
 20
-71.545
 30
-9
 40
7.725
100
AcDbArc
 50
36.8699
 51
90
  0
LINE
  5
A28
330
A02
100
AcDbEntity
  8
Fusion008
100
AcDbLine
 10
96.0586
 20
-63.82
 30
-7
 11
96.0586
 21
-63.82
 31
-9
  0
LINE
  5
A29
330
A02
100
AcDbEntity
  8
Fusion008
100
AcDbLine
 10
56.9766
 20
-63.82
 30
-7
 11
56.9766
 21
-63.82
 31
-9
  0
LINE
  5
A2A
330
A02
100
AcDbEntity
  8
Fusion008
100
AcDbLine
 10
96.0586
 20
-63.82
 30
-7
 11
56.9766
 21
-63.82
 31
-7
  0
LINE
  5
A2B
330
A02
100
AcDbEntity
  8
Fusion008
100
AcDbLine
 10
96.0586
 20
-63.82
 30
-9
 11
56.9766
 21
-63.82
 31
-9
  0
LINE
  5
A2C
330
A02
100
AcDbEntity
  8
Fusion008
100
AcDbLine
 10
56.9766
 20
-63.82
 30
-7
 11
56.9766
 21
-63.82
 31
-9
  0
LINE
  5
A2D
330
A02
100
AcDbEntity
  8
Fusion008
100
AcDbLine
 10
54.9505
 20
-64.0274
 30
-7
 11
54.9505
 21
-64.0274
 31
-9
  0
ARC
  5
A2E
330
A02
100
AcDbEntity
  8
Fusion008
100
AcDbCircle
 10
56.9766
 20
-73.82
 30
-7
 40
10
100
AcDbArc
 50
90
 51
101.689
  0
ARC
  5
A2F
330
A02
100
AcDbEntity
  8
Fusion008
100
AcDbCircle
 10
56.9766
 20
-73.82
 30
-9
 40
10
100
AcDbArc
 50
90
 51
101.689
  0
LINE
  5
A30
330
A02
100
AcDbEntity
  8
Fusion008
100
AcDbLine
 10
54.9505
 20
-64.0274
 30
-7
 11
54.9505
 21
-64.0274
 31
-9
  0
LINE
  5
A31
330
A02
100
AcDbEntity
  8
Fusion008
100
AcDbLine
 10
-1.01171
 20
-75.6058
 30
-7
 11
-1.01171
 21
-75.6058
 31
-9
  0
LINE
  5
A32
330
A02
100
AcDbEntity
  8
Fusion008
100
AcDbLine
 10
54.9505
 20
-64.0274
 30
-7
 11
-1.01171
 21
-75.6058
 31
-7
  0
LINE
  5
A33
330
A02
100
AcDbEntity
  8
Fusion008
100
AcDbLine
 10
54.9505
 20
-64.0274
 30
-9
 11
-1.01171
 21
-75.6058
 31
-9
  0
LINE
  5
A34
330
A02
100
AcDbEntity
  8
Fusion008
100
AcDbLine
 10
-1.01171
 20
-75.6058
 30
-7
 11
-1.01171
 21
-75.6058
 31
-9
  0
LINE
  5
A35
330
A02
100
AcDbEntity
  8
Fusion008
100
AcDbLine
 10
-3
 20
-78.0476
 30
-7
 11
-3
 21
-78.0476
 31
-9
  0
ARC
  5
A36
330
A02
100
AcDbEntity
  8
Fusion008
100
AcDbCircle
 10
-0.506514
 20
-78.0476
 30
-7
 40
2.49349
100
AcDbArc
 50
101.689
 51
180
  0
ARC
  5
A37
330
A02
100
AcDbEntity
  8
Fusion008
100
AcDbCircle
 10
-0.506514
 20
-78.0476
 30
-9
 40
2.49349
100
AcDbArc
 50
101.689
 51
180
  0
LINE
  5
A38
330
A02
100
AcDbEntity
  8
Fusion008
100
AcDbLine
 10
-3
 20
-103.327
 30
-7
 11
-3
 21
-103.327
 31
-9
  0
LINE
  5
A39
330
A02
100
AcDbEntity
  8
Fusion008
100
AcDbLine
 10
-3
 20
-78.0476
 30
-7
 11
-3
 21
-78.0476
 31
-9
  0
LINE
  5
A3A
330
A02
100
AcDbEntity
  8
Fusion008
100
AcDbLine
 10
-3
 20
-103.327
 30
-7
 11
-3
 21
-78.0476
 31
-7
  0
LINE
  5
A3B
330
A02
100
AcDbEntity
  8
Fusion008
100
AcDbLine
 10
-3
 20
-103.327
 30
-9
 11
-3
 21
-78.0476
 31
-9
  0
LINE
  5
A3C
330
A02
100
AcDbEntity
  8
Fusion008
100
AcDbLine
 10
115.021
 20
-94.8485
 30
-7
 11
115.021
 21
-94.8485
 31
-9
  0
LINE
  5
A3D
330
A02
100
AcDbEntity
  8
Fusion008
100
AcDbLine
 10
115.021
 20
-94.8485
 30
-7
 11
115.021
 21
-94.8485
 31
-9
  0
CIRCLE
  5
A3E
330
A02
100
AcDbEntity
  8
Fusion008
100
AcDbCircle
 10
113.521
 20
-94.8485
 40
1.5
  0
CIRCLE
  5
A3F
330
A02
100
AcDbEntity
  8
Fusion008
100
AcDbCircle
 10
113.521
 20
-94.8485
 40
1.5
  0
LINE
  5
A40
330
A02
100
AcDbEntity
  8
Fusion008
100
AcDbLine
 10
19.771
 20
-97.3885
 30
-7
 11
19.771
 21
-97.3885
 31
-9
  0
LINE
  5
A41
330
A02
100
AcDbEntity
  8
Fusion008
100
AcDbLine
 10
19.771
 20
-97.3885
 30
-7
 11
19.771
 21
-97.3885
 31
-9
  0
CIRCLE
  5
A42
330
A02
100
AcDbEntity
  8
Fusion008
100
AcDbCircle
 10
18.271
 20
-97.3885
 40
1.5
  0
CIRCLE
  5
A43
330
A02
100
AcDbEntity
  8
Fusion008
100
AcDbCircle
 10
18.271
 20
-97.3885
 40
1.5
  0
LINE
  5
A44
330
A02
100
AcDbEntity
  8
Fusion008
100
AcDbLine
 10
51.648
 20
-72.496
 30
-7
 11
51.648
 21
-72.496
 31
-9
  0
LINE
  5
A45
330
A02
100
AcDbEntity
  8
Fusion008
100
AcDbLine
 10
51.648
 20
-72.496
 30
-7
 11
51.648
 21
-72.496
 31
-9
  0
CIRCLE
  5
A46
330
A02
100
AcDbEntity
  8
Fusion008
100
AcDbCircle
 10
50.148
 20
-72.496
 40
1.5
  0
CIRCLE
  5
A47
330
A02
100
AcDbEntity
  8
Fusion008
100
AcDbCircle
 10
50.148
 20
-72.496
 40
1.5
  0
ARC
  5
A48
330
A02
100
AcDbEntity
  8
Fusion008
100
AcDbCircle
 10
-0.506514
 20
-103.327
 30
-7
 40
2.49349
100
AcDbArc
 50
180
 51
-90
  0
LINE
  5
A49
330
A02
100
AcDbEntity
  8
Fusion008
100
AcDbLine
 10
-0.506514
 20
-105.82
 30
-7
 11
132.507
 21
-105.82
 31
-7
  0
ARC
  5
A4A
330
A02
100
AcDbEntity
  8
Fusion008
100
AcDbCircle
 10
132.507
 20
-103.327
 30
-7
 40
2.49349
100
AcDbArc
 50
-90
 51
0
  0
LINE
  5
A4B
330
A02
100
AcDbEntity
  8
Fusion008
100
AcDbLine
 10
135
 20
-103.327
 30
-7
 11
135
 21
-72.5
 31
-7
  0
ARC
  5
A4C
330
A02
100
AcDbEntity
  8
Fusion008
100
AcDbCircle
 10
132.5
 20
-72.5
 30
-7
 40
2.5
100
AcDbArc
 50
0
 51
90
  0
LINE
  5
A4D
330
A02
100
AcDbEntity
  8
Fusion008
100
AcDbLine
 10
132.5
 20
-70
 30
-7
 11
108.419
 21
-70
 31
-7
  0
ARC
  5
A4E
330
A02
100
AcDbEntity
  8
Fusion008
100
AcDbCircle
 10
108.419
 20
-62.275
 30
-7
 40
7.725
100
AcDbArc
 50
-143.13
 51
-90
  0
ARC
  5
A4F
330
A02
100
AcDbEntity
  8
Fusion008
100
AcDbCircle
 10
96.0586
 20
-71.545
 30
-7
 40
7.725
100
AcDbArc
 50
36.8699
 51
90
  0
LINE
  5
A50
330
A02
100
AcDbEntity
  8
Fusion008
100
AcDbLine
 10
96.0586
 20
-63.82
 30
-7
 11
56.9766
 21
-63.82
 31
-7
  0
ARC
  5
A51
330
A02
100
AcDbEntity
  8
Fusion008
100
AcDbCircle
 10
56.9766
 20
-73.82
 30
-7
 40
10
100
AcDbArc
 50
90
 51
101.689
  0
LINE
  5
A52
330
A02
100
AcDbEntity
  8
Fusion008
100
AcDbLine
 10
54.9505
 20
-64.0274
 30
-7
 11
-1.01171
 21
-75.6058
 31
-7
  0
ARC
  5
A53
330
A02
100
AcDbEntity
  8
Fusion008
100
AcDbCircle
 10
-0.506514
 20
-78.0476
 30
-7
 40
2.49349
100
AcDbArc
 50
101.689
 51
180
  0
LINE
  5
A54
330
A02
100
AcDbEntity
  8
Fusion008
100
AcDbLine
 10
-3
 20
-103.327
 30
-7
 11
-3
 21
-78.0476
 31
-7
  0
CIRCLE
  5
A55
330
A02
100
AcDbEntity
  8
Fusion008
100
AcDbCircle
 10
113.521
 20
-94.8485
 40
1.5
  0
CIRCLE
  5
A56
330
A02
100
AcDbEntity
  8
Fusion008
100
AcDbCircle
 10
18.271
 20
-97.3885
 40
1.5
  0
CIRCLE
  5
A57
330
A02
100
AcDbEntity
  8
Fusion008
100
AcDbCircle
 10
50.148
 20
-72.496
 40
1.5
  0
ARC
  5
A58
330
A02
100
AcDbEntity
  8
Fusion008
100
AcDbCircle
 10
-0.506514
 20
-103.327
 30
-9
 40
2.49349
100
AcDbArc
 50
180
 51
-90
  0
LINE
  5
A59
330
A02
100
AcDbEntity
  8
Fusion008
100
AcDbLine
 10
-0.506514
 20
-105.82
 30
-9
 11
132.507
 21
-105.82
 31
-9
  0
ARC
  5
A5A
330
A02
100
AcDbEntity
  8
Fusion008
100
AcDbCircle
 10
132.507
 20
-103.327
 30
-9
 40
2.49349
100
AcDbArc
 50
-90
 51
0
  0
LINE
  5
A5B
330
A02
100
AcDbEntity
  8
Fusion008
100
AcDbLine
 10
135
 20
-103.327
 30
-9
 11
135
 21
-72.5
 31
-9
  0
ARC
  5
A5C
330
A02
100
AcDbEntity
  8
Fusion008
100
AcDbCircle
 10
132.5
 20
-72.5
 30
-9
 40
2.5
100
AcDbArc
 50
0
 51
90
  0
LINE
  5
A5D
330
A02
100
AcDbEntity
  8
Fusion008
100
AcDbLine
 10
132.5
 20
-70
 30
-9
 11
108.419
 21
-70
 31
-9
  0
ARC
  5
A5E
330
A02
100
AcDbEntity
  8
Fusion008
100
AcDbCircle
 10
108.419
 20
-62.275
 30
-9
 40
7.725
100
AcDbArc
 50
-143.13
 51
-90
  0
ARC
  5
A5F
330
A02
100
AcDbEntity
  8
Fusion008
100
AcDbCircle
 10
96.0586
 20
-71.545
 30
-9
 40
7.725
100
AcDbArc
 50
36.8699
 51
90
  0
LINE
  5
A60
330
A02
100
AcDbEntity
  8
Fusion008
100
AcDbLine
 10
96.0586
 20
-63.82
 30
-9
 11
56.9766
 21
-63.82
 31
-9
  0
ARC
  5
A61
330
A02
100
AcDbEntity
  8
Fusion008
100
AcDbCircle
 10
56.9766
 20
-73.82
 30
-9
 40
10
100
AcDbArc
 50
90
 51
101.689
  0
LINE
  5
A62
330
A02
100
AcDbEntity
  8
Fusion008
100
AcDbLine
 10
54.9505
 20
-64.0274
 30
-9
 11
-1.01171
 21
-75.6058
 31
-9
  0
ARC
  5
A63
330
A02
100
AcDbEntity
  8
Fusion008
100
AcDbCircle
 10
-0.506514
 20
-78.0476
 30
-9
 40
2.49349
100
AcDbArc
 50
101.689
 51
180
  0
LINE
  5
A64
330
A02
100
AcDbEntity
  8
Fusion008
100
AcDbLine
 10
-3
 20
-103.327
 30
-9
 11
-3
 21
-78.0476
 31
-9
  0
CIRCLE
  5
A65
330
A02
100
AcDbEntity
  8
Fusion008
100
AcDbCircle
 10
113.521
 20
-94.8485
 40
1.5
  0
CIRCLE
  5
A66
330
A02
100
AcDbEntity
  8
Fusion008
100
AcDbCircle
 10
18.271
 20
-97.3885
 40
1.5
  0
CIRCLE
  5
A67
330
A02
100
AcDbEntity
  8
Fusion008
100
AcDbCircle
 10
50.148
 20
-72.496
 40
1.5
  0
LINE
  5
A68
330
A02
100
AcDbEntity
  8
Fusion008
100
AcDbLine
 10
152
 20
-255.5
 30
3
 11
152
 21
-255.5
 31
5
  0
LINE
  5
A69
330
A02
100
AcDbEntity
  8
Fusion008
100
AcDbLine
 10
152
 20
-350.952
 30
3
 11
152
 21
-350.952
 31
5
  0
LINE
  5
A6A
330
A02
100
AcDbEntity
  8
Fusion008
100
AcDbLine
 10
152
 20
-255.5
 30
3
 11
152
 21
-350.952
 31
3
  0
LINE
  5
A6B
330
A02
100
AcDbEntity
  8
Fusion008
100
AcDbLine
 10
152
 20
-255.5
 30
5
 11
152
 21
-350.952
 31
5
  0
LINE
  5
A6C
330
A02
100
AcDbEntity
  8
Fusion008
100
AcDbLine
 10
150.012
 20
-353.394
 30
3
 11
150.012
 21
-353.394
 31
5
  0
LINE
  5
A6D
330
A02
100
AcDbEntity
  8
Fusion008
100
AcDbLine
 10
152
 20
-350.952
 30
3
 11
152
 21
-350.952
 31
5
  0
ARC
  5
A6E
330
A02
100
AcDbEntity
  8
Fusion008
100
AcDbCircle
 10
149.507
 20
-350.952
 30
3
 40
2.49349
100
AcDbArc
 50
-78.3106
 51
5.00896e-06
  0
ARC
  5
A6F
330
A02
100
AcDbEntity
  8
Fusion008
100
AcDbCircle
 10
149.507
 20
-350.952
 30
5
 40
2.49349
100
AcDbArc
 50
-78.3106
 51
5.00896e-06
  0
LINE
  5
A70
330
A02
100
AcDbEntity
  8
Fusion008
100
AcDbLine
 10
94.0495
 20
-364.973
 30
3
 11
94.0495
 21
-364.973
 31
5
  0
LINE
  5
A71
330
A02
100
AcDbEntity
  8
Fusion008
100
AcDbLine
 10
150.012
 20
-353.394
 30
3
 11
150.012
 21
-353.394
 31
5
  0
LINE
  5
A72
330
A02
100
AcDbEntity
  8
Fusion008
100
AcDbLine
 10
94.0495
 20
-364.973
 30
3
 11
150.012
 21
-353.394
 31
3
  0
LINE
  5
A73
330
A02
100
AcDbEntity
  8
Fusion008
100
AcDbLine
 10
94.0495
 20
-364.973
 30
5
 11
150.012
 21
-353.394
 31
5
  0
LINE
  5
A74
330
A02
100
AcDbEntity
  8
Fusion008
100
AcDbLine
 10
92.0235
 20
-365.18
 30
3
 11
92.0235
 21
-365.18
 31
5
  0
LINE
  5
A75
330
A02
100
AcDbEntity
  8
Fusion008
100
AcDbLine
 10
94.0495
 20
-364.973
 30
3
 11
94.0495
 21
-364.973
 31
5
  0
ARC
  5
A76
330
A02
100
AcDbEntity
  8
Fusion008
100
AcDbCircle
 10
92.0235
 20
-355.18
 30
3
 40
10
100
AcDbArc
 50
-90
 51
-78.3106
  0
ARC
  5
A77
330
A02
100
AcDbEntity
  8
Fusion008
100
AcDbCircle
 10
92.0235
 20
-355.18
 30
5
 40
10
100
AcDbArc
 50
-90
 51
-78.3106
  0
LINE
  5
A78
330
A02
100
AcDbEntity
  8
Fusion008
100
AcDbLine
 10
52.9414
 20
-365.18
 30
3
 11
52.9414
 21
-365.18
 31
5
  0
LINE
  5
A79
330
A02
100
AcDbEntity
  8
Fusion008
100
AcDbLine
 10
92.0235
 20
-365.18
 30
3
 11
92.0235
 21
-365.18
 31
5
  0
LINE
  5
A7A
330
A02
100
AcDbEntity
  8
Fusion008
100
AcDbLine
 10
52.9414
 20
-365.18
 30
3
 11
92.0235
 21
-365.18
 31
3
  0
LINE
  5
A7B
330
A02
100
AcDbEntity
  8
Fusion008
100
AcDbLine
 10
52.9414
 20
-365.18
 30
5
 11
92.0235
 21
-365.18
 31
5
  0
LINE
  5
A7C
330
A02
100
AcDbEntity
  8
Fusion008
100
AcDbLine
 10
46.7614
 20
-362.09
 30
3
 11
46.7614
 21
-362.09
 31
5
  0
LINE
  5
A7D
330
A02
100
AcDbEntity
  8
Fusion008
100
AcDbLine
 10
52.9414
 20
-365.18
 30
3
 11
52.9414
 21
-365.18
 31
5
  0
ARC
  5
A7E
330
A02
100
AcDbEntity
  8
Fusion008
100
AcDbCircle
 10
52.9414
 20
-357.455
 30
3
 40
7.725
100
AcDbArc
 50
-143.13
 51
-90
  0
ARC
  5
A7F
330
A02
100
AcDbEntity
  8
Fusion008
100
AcDbCircle
 10
52.9414
 20
-357.455
 30
5
 40
7.725
100
AcDbArc
 50
-143.13
 51
-90
  0
LINE
  5
A80
330
A02
100
AcDbEntity
  8
Fusion008
100
AcDbLine
 10
46.7614
 20
-362.09
 30
3
 11
46.7614
 21
-362.09
 31
5
  0
LINE
  5
A81
330
A02
100
AcDbEntity
  8
Fusion008
100
AcDbLine
 10
40.5814
 20
-359
 30
3
 11
40.5814
 21
-359
 31
5
  0
ARC
  5
A82
330
A02
100
AcDbEntity
  8
Fusion008
100
AcDbCircle
 10
40.5814
 20
-366.725
 30
3
 40
7.725
100
AcDbArc
 50
36.8699
 51
90
  0
ARC
  5
A83
330
A02
100
AcDbEntity
  8
Fusion008
100
AcDbCircle
 10
40.5814
 20
-366.725
 30
5
 40
7.725
100
AcDbArc
 50
36.8699
 51
90
  0
LINE
  5
A84
330
A02
100
AcDbEntity
  8
Fusion008
100
AcDbLine
 10
16.5
 20
-359
 30
3
 11
16.5
 21
-359
 31
5
  0
LINE
  5
A85
330
A02
100
AcDbEntity
  8
Fusion008
100
AcDbLine
 10
40.5814
 20
-359
 30
3
 11
40.5814
 21
-359
 31
5
  0
LINE
  5
A86
330
A02
100
AcDbEntity
  8
Fusion008
100
AcDbLine
 10
16.5
 20
-359
 30
3
 11
40.5814
 21
-359
 31
3
  0
LINE
  5
A87
330
A02
100
AcDbEntity
  8
Fusion008
100
AcDbLine
 10
16.5
 20
-359
 30
5
 11
40.5814
 21
-359
 31
5
  0
LINE
  5
A88
330
A02
100
AcDbEntity
  8
Fusion008
100
AcDbLine
 10
14
 20
-356.5
 30
3
 11
14
 21
-356.5
 31
5
  0
LINE
  5
A89
330
A02
100
AcDbEntity
  8
Fusion008
100
AcDbLine
 10
16.5
 20
-359
 30
3
 11
16.5
 21
-359
 31
5
  0
ARC
  5
A8A
330
A02
100
AcDbEntity
  8
Fusion008
100
AcDbCircle
 10
16.5
 20
-356.5
 30
3
 40
2.5
100
AcDbArc
 50
-180
 51
-90
  0
ARC
  5
A8B
330
A02
100
AcDbEntity
  8
Fusion008
100
AcDbCircle
 10
16.5
 20
-356.5
 30
5
 40
2.5
100
AcDbArc
 50
-180
 51
-90
  0
LINE
  5
A8C
330
A02
100
AcDbEntity
  8
Fusion008
100
AcDbLine
 10
14
 20
-278.944
 30
3
 11
14
 21
-278.944
 31
5
  0
LINE
  5
A8D
330
A02
100
AcDbEntity
  8
Fusion008
100
AcDbLine
 10
14
 20
-356.5
 30
3
 11
14
 21
-356.5
 31
5
  0
LINE
  5
A8E
330
A02
100
AcDbEntity
  8
Fusion008
100
AcDbLine
 10
14
 20
-278.944
 30
3
 11
14
 21
-356.5
 31
3
  0
LINE
  5
A8F
330
A02
100
AcDbEntity
  8
Fusion008
100
AcDbLine
 10
14
 20
-278.944
 30
5
 11
14
 21
-356.5
 31
5
  0
LINE
  5
A90
330
A02
100
AcDbEntity
  8
Fusion008
100
AcDbLine
 10
14
 20
-278.944
 30
3
 11
14
 21
-278.944
 31
5
  0
LINE
  5
A91
330
A02
100
AcDbEntity
  8
Fusion008
100
AcDbLine
 10
13.15
 20
-277.472
 30
3
 11
13.15
 21
-277.472
 31
5
  0
ARC
  5
A92
330
A02
100
AcDbEntity
  8
Fusion008
100
AcDbCircle
 10
12.3
 20
-278.944
 30
3
 40
1.7
100
AcDbArc
 50
5.00896e-06
 51
60
  0
ARC
  5
A93
330
A02
100
AcDbEntity
  8
Fusion008
100
AcDbCircle
 10
12.3
 20
-278.944
 30
5
 40
1.7
100
AcDbArc
 50
5.00896e-06
 51
60
  0
LINE
  5
A94
330
A02
100
AcDbEntity
  8
Fusion008
100
AcDbLine
 10
13.15
 20
-277.472
 30
3
 11
13.15
 21
-277.472
 31
5
  0
LINE
  5
A95
330
A02
100
AcDbEntity
  8
Fusion008
100
AcDbLine
 10
-2.79904
 20
-268.263
 30
3
 11
-2.79904
 21
-268.263
 31
5
  0
LINE
  5
A96
330
A02
100
AcDbEntity
  8
Fusion008
100
AcDbLine
 10
13.15
 20
-277.472
 30
3
 11
-2.79904
 21
-268.263
 31
3
  0
LINE
  5
A97
330
A02
100
AcDbEntity
  8
Fusion008
100
AcDbLine
 10
13.15
 20
-277.472
 30
5
 11
-2.79904
 21
-268.263
 31
5
  0
LINE
  5
A98
330
A02
100
AcDbEntity
  8
Fusion008
100
AcDbLine
 10
-3.7141
 20
-264.848
 30
3
 11
-3.7141
 21
-264.848
 31
5
  0
LINE
  5
A99
330
A02
100
AcDbEntity
  8
Fusion008
100
AcDbLine
 10
-2.79904
 20
-268.263
 30
3
 11
-2.79904
 21
-268.263
 31
5
  0
ARC
  5
A9A
330
A02
100
AcDbEntity
  8
Fusion008
100
AcDbCircle
 10
-1.54904
 20
-266.098
 30
3
 40
2.5
100
AcDbArc
 50
150
 51
-120
  0
ARC
  5
A9B
330
A02
100
AcDbEntity
  8
Fusion008
100
AcDbCircle
 10
-1.54904
 20
-266.098
 30
5
 40
2.5
100
AcDbArc
 50
150
 51
-120
  0
LINE
  5
A9C
330
A02
100
AcDbEntity
  8
Fusion008
100
AcDbLine
 10
15.0459
 20
-232.355
 30
3
 11
15.0459
 21
-232.355
 31
5
  0
LINE
  5
A9D
330
A02
100
AcDbEntity
  8
Fusion008
100
AcDbLine
 10
-3.7141
 20
-264.848
 30
3
 11
-3.7141
 21
-264.848
 31
5
  0
LINE
  5
A9E
330
A02
100
AcDbEntity
  8
Fusion008
100
AcDbLine
 10
15.0459
 20
-232.355
 30
3
 11
-3.7141
 21
-264.848
 31
3
  0
LINE
  5
A9F
330
A02
100
AcDbEntity
  8
Fusion008
100
AcDbLine
 10
15.0459
 20
-232.355
 30
5
 11
-3.7141
 21
-264.848
 31
5
  0
LINE
  5
AA0
330
A02
100
AcDbEntity
  8
Fusion008
100
AcDbLine
 10
18.461
 20
-231.44
 30
3
 11
18.461
 21
-231.44
 31
5
  0
LINE
  5
AA1
330
A02
100
AcDbEntity
  8
Fusion008
100
AcDbLine
 10
15.0459
 20
-232.355
 30
3
 11
15.0459
 21
-232.355
 31
5
  0
ARC
  5
AA2
330
A02
100
AcDbEntity
  8
Fusion008
100
AcDbCircle
 10
17.211
 20
-233.605
 30
3
 40
2.5
100
AcDbArc
 50
60
 51
150
  0
ARC
  5
AA3
330
A02
100
AcDbEntity
  8
Fusion008
100
AcDbCircle
 10
17.211
 20
-233.605
 30
5
 40
2.5
100
AcDbArc
 50
60
 51
150
  0
LINE
  5
AA4
330
A02
100
AcDbEntity
  8
Fusion008
100
AcDbLine
 10
54.813
 20
-252.428
 30
3
 11
54.813
 21
-252.428
 31
5
  0
LINE
  5
AA5
330
A02
100
AcDbEntity
  8
Fusion008
100
AcDbLine
 10
18.461
 20
-231.44
 30
3
 11
18.461
 21
-231.44
 31
5
  0
LINE
  5
AA6
330
A02
100
AcDbEntity
  8
Fusion008
100
AcDbLine
 10
54.813
 20
-252.428
 30
3
 11
18.461
 21
-231.44
 31
3
  0
LINE
  5
AA7
330
A02
100
AcDbEntity
  8
Fusion008
100
AcDbLine
 10
54.813
 20
-252.428
 30
5
 11
18.461
 21
-231.44
 31
5
  0
LINE
  5
AA8
330
A02
100
AcDbEntity
  8
Fusion008
100
AcDbLine
 10
54.813
 20
-252.428
 30
3
 11
54.813
 21
-252.428
 31
5
  0
LINE
  5
AA9
330
A02
100
AcDbEntity
  8
Fusion008
100
AcDbLine
 10
56.948
 20
-253
 30
3
 11
56.948
 21
-253
 31
5
  0
ARC
  5
AAA
330
A02
100
AcDbEntity
  8
Fusion008
100
AcDbCircle
 10
56.948
 20
-248.73
 30
3
 40
4.27
100
AcDbArc
 50
-120
 51
-90
  0
ARC
  5
AAB
330
A02
100
AcDbEntity
  8
Fusion008
100
AcDbCircle
 10
56.948
 20
-248.73
 30
5
 40
4.27
100
AcDbArc
 50
-120
 51
-90
  0
LINE
  5
AAC
330
A02
100
AcDbEntity
  8
Fusion008
100
AcDbLine
 10
149.5
 20
-253
 30
3
 11
149.5
 21
-253
 31
5
  0
LINE
  5
AAD
330
A02
100
AcDbEntity
  8
Fusion008
100
AcDbLine
 10
56.948
 20
-253
 30
3
 11
56.948
 21
-253
 31
5
  0
LINE
  5
AAE
330
A02
100
AcDbEntity
  8
Fusion008
100
AcDbLine
 10
149.5
 20
-253
 30
3
 11
56.948
 21
-253
 31
3
  0
LINE
  5
AAF
330
A02
100
AcDbEntity
  8
Fusion008
100
AcDbLine
 10
149.5
 20
-253
 30
5
 11
56.948
 21
-253
 31
5
  0
LINE
  5
AB0
330
A02
100
AcDbEntity
  8
Fusion008
100
AcDbLine
 10
152
 20
-255.5
 30
3
 11
152
 21
-255.5
 31
5
  0
LINE
  5
AB1
330
A02
100
AcDbEntity
  8
Fusion008
100
AcDbLine
 10
149.5
 20
-253
 30
3
 11
149.5
 21
-253
 31
5
  0
ARC
  5
AB2
330
A02
100
AcDbEntity
  8
Fusion008
100
AcDbCircle
 10
149.5
 20
-255.5
 30
3
 40
2.5
100
AcDbArc
 50
5.00896e-06
 51
90
  0
ARC
  5
AB3
330
A02
100
AcDbEntity
  8
Fusion008
100
AcDbCircle
 10
149.5
 20
-255.5
 30
5
 40
2.5
100
AcDbArc
 50
5.00896e-06
 51
90
  0
LINE
  5
AB4
330
A02
100
AcDbEntity
  8
Fusion008
100
AcDbLine
 10
30.026
 20
-241.176
 30
3
 11
30.026
 21
-241.176
 31
5
  0
LINE
  5
AB5
330
A02
100
AcDbEntity
  8
Fusion008
100
AcDbLine
 10
19.634
 20
-235.176
 30
3
 11
19.634
 21
-235.176
 31
5
  0
LINE
  5
AB6
330
A02
100
AcDbEntity
  8
Fusion008
100
AcDbLine
 10
30.026
 20
-241.176
 30
3
 11
19.634
 21
-235.176
 31
3
  0
LINE
  5
AB7
330
A02
100
AcDbEntity
  8
Fusion008
100
AcDbLine
 10
30.026
 20
-241.176
 30
5
 11
19.634
 21
-235.176
 31
5
  0
LINE
  5
AB8
330
A02
100
AcDbEntity
  8
Fusion008
100
AcDbLine
 10
19.634
 20
-235.176
 30
3
 11
19.634
 21
-235.176
 31
5
  0
LINE
  5
AB9
330
A02
100
AcDbEntity
  8
Fusion008
100
AcDbLine
 10
16.534
 20
-240.545
 30
3
 11
16.534
 21
-240.545
 31
5
  0
LINE
  5
ABA
330
A02
100
AcDbEntity
  8
Fusion008
100
AcDbLine
 10
19.634
 20
-235.176
 30
3
 11
16.534
 21
-240.545
 31
3
  0
LINE
  5
ABB
330
A02
100
AcDbEntity
  8
Fusion008
100
AcDbLine
 10
19.634
 20
-235.176
 30
5
 11
16.534
 21
-240.545
 31
5
  0
LINE
  5
ABC
330
A02
100
AcDbEntity
  8
Fusion008
100
AcDbLine
 10
16.534
 20
-240.545
 30
3
 11
16.534
 21
-240.545
 31
5
  0
LINE
  5
ABD
330
A02
100
AcDbEntity
  8
Fusion008
100
AcDbLine
 10
14.369
 20
-239.295
 30
3
 11
14.369
 21
-239.295
 31
5
  0
LINE
  5
ABE
330
A02
100
AcDbEntity
  8
Fusion008
100
AcDbLine
 10
16.534
 20
-240.545
 30
3
 11
14.369
 21
-239.295
 31
3
  0
LINE
  5
ABF
330
A02
100
AcDbEntity
  8
Fusion008
100
AcDbLine
 10
16.534
 20
-240.545
 30
5
 11
14.369
 21
-239.295
 31
5
  0
LINE
  5
AC0
330
A02
100
AcDbEntity
  8
Fusion008
100
AcDbLine
 10
14.369
 20
-239.295
 30
3
 11
14.369
 21
-239.295
 31
5
  0
LINE
  5
AC1
330
A02
100
AcDbEntity
  8
Fusion008
100
AcDbLine
 10
0.219001
 20
-263.804
 30
3
 11
0.219001
 21
-263.804
 31
5
  0
LINE
  5
AC2
330
A02
100
AcDbEntity
  8
Fusion008
100
AcDbLine
 10
14.369
 20
-239.295
 30
3
 11
0.219001
 21
-263.804
 31
3
  0
LINE
  5
AC3
330
A02
100
AcDbEntity
  8
Fusion008
100
AcDbLine
 10
14.369
 20
-239.295
 30
5
 11
0.219001
 21
-263.804
 31
5
  0
LINE
  5
AC4
330
A02
100
AcDbEntity
  8
Fusion008
100
AcDbLine
 10
0.219001
 20
-263.804
 30
3
 11
0.219001
 21
-263.804
 31
5
  0
LINE
  5
AC5
330
A02
100
AcDbEntity
  8
Fusion008
100
AcDbLine
 10
14.941
 20
-272.304
 30
3
 11
14.941
 21
-272.304
 31
5
  0
LINE
  5
AC6
330
A02
100
AcDbEntity
  8
Fusion008
100
AcDbLine
 10
0.219001
 20
-263.804
 30
3
 11
14.941
 21
-272.304
 31
3
  0
LINE
  5
AC7
330
A02
100
AcDbEntity
  8
Fusion008
100
AcDbLine
 10
0.219001
 20
-263.804
 30
5
 11
14.941
 21
-272.304
 31
5
  0
LINE
  5
AC8
330
A02
100
AcDbEntity
  8
Fusion008
100
AcDbLine
 10
14.941
 20
-272.304
 30
3
 11
14.941
 21
-272.304
 31
5
  0
LINE
  5
AC9
330
A02
100
AcDbEntity
  8
Fusion008
100
AcDbLine
 10
29.091
 20
-247.795
 30
3
 11
29.091
 21
-247.795
 31
5
  0
LINE
  5
ACA
330
A02
100
AcDbEntity
  8
Fusion008
100
AcDbLine
 10
14.941
 20
-272.304
 30
3
 11
29.091
 21
-247.795
 31
3
  0
LINE
  5
ACB
330
A02
100
AcDbEntity
  8
Fusion008
100
AcDbLine
 10
14.941
 20
-272.304
 30
5
 11
29.091
 21
-247.795
 31
5
  0
LINE
  5
ACC
330
A02
100
AcDbEntity
  8
Fusion008
100
AcDbLine
 10
29.091
 20
-247.795
 30
3
 11
29.091
 21
-247.795
 31
5
  0
LINE
  5
ACD
330
A02
100
AcDbEntity
  8
Fusion008
100
AcDbLine
 10
26.926
 20
-246.545
 30
3
 11
26.926
 21
-246.545
 31
5
  0
LINE
  5
ACE
330
A02
100
AcDbEntity
  8
Fusion008
100
AcDbLine
 10
29.091
 20
-247.795
 30
3
 11
26.926
 21
-246.545
 31
3
  0
LINE
  5
ACF
330
A02
100
AcDbEntity
  8
Fusion008
100
AcDbLine
 10
29.091
 20
-247.795
 30
5
 11
26.926
 21
-246.545
 31
5
  0
LINE
  5
AD0
330
A02
100
AcDbEntity
  8
Fusion008
100
AcDbLine
 10
26.926
 20
-246.545
 30
3
 11
26.926
 21
-246.545
 31
5
  0
LINE
  5
AD1
330
A02
100
AcDbEntity
  8
Fusion008
100
AcDbLine
 10
30.026
 20
-241.176
 30
3
 11
30.026
 21
-241.176
 31
5
  0
LINE
  5
AD2
330
A02
100
AcDbEntity
  8
Fusion008
100
AcDbLine
 10
26.926
 20
-246.545
 30
3
 11
30.026
 21
-241.176
 31
3
  0
LINE
  5
AD3
330
A02
100
AcDbEntity
  8
Fusion008
100
AcDbLine
 10
26.926
 20
-246.545
 30
5
 11
30.026
 21
-241.176
 31
5
  0
LINE
  5
AD4
330
A02
100
AcDbEntity
  8
Fusion008
100
AcDbLine
 10
76.104
 20
-276.763
 30
3
 11
76.104
 21
-276.763
 31
5
  0
LINE
  5
AD5
330
A02
100
AcDbEntity
  8
Fusion008
100
AcDbLine
 10
68.484
 20
-276.763
 30
3
 11
68.484
 21
-276.763
 31
5
  0
LINE
  5
AD6
330
A02
100
AcDbEntity
  8
Fusion008
100
AcDbLine
 10
76.104
 20
-276.763
 30
3
 11
68.484
 21
-276.763
 31
3
  0
LINE
  5
AD7
330
A02
100
AcDbEntity
  8
Fusion008
100
AcDbLine
 10
76.104
 20
-276.763
 30
5
 11
68.484
 21
-276.763
 31
5
  0
LINE
  5
AD8
330
A02
100
AcDbEntity
  8
Fusion008
100
AcDbLine
 10
68.484
 20
-276.763
 30
3
 11
68.484
 21
-276.763
 31
5
  0
LINE
  5
AD9
330
A02
100
AcDbEntity
  8
Fusion008
100
AcDbLine
 10
68.484
 20
-262.763
 30
3
 11
68.484
 21
-262.763
 31
5
  0
LINE
  5
ADA
330
A02
100
AcDbEntity
  8
Fusion008
100
AcDbLine
 10
68.484
 20
-276.763
 30
3
 11
68.484
 21
-262.763
 31
3
  0
LINE
  5
ADB
330
A02
100
AcDbEntity
  8
Fusion008
100
AcDbLine
 10
68.484
 20
-276.763
 30
5
 11
68.484
 21
-262.763
 31
5
  0
LINE
  5
ADC
330
A02
100
AcDbEntity
  8
Fusion008
100
AcDbLine
 10
68.484
 20
-262.763
 30
3
 11
68.484
 21
-262.763
 31
5
  0
LINE
  5
ADD
330
A02
100
AcDbEntity
  8
Fusion008
100
AcDbLine
 10
82.484
 20
-262.763
 30
3
 11
82.484
 21
-262.763
 31
5
  0
LINE
  5
ADE
330
A02
100
AcDbEntity
  8
Fusion008
100
AcDbLine
 10
68.484
 20
-262.763
 30
3
 11
82.484
 21
-262.763
 31
3
  0
LINE
  5
ADF
330
A02
100
AcDbEntity
  8
Fusion008
100
AcDbLine
 10
68.484
 20
-262.763
 30
5
 11
82.484
 21
-262.763
 31
5
  0
LINE
  5
AE0
330
A02
100
AcDbEntity
  8
Fusion008
100
AcDbLine
 10
82.484
 20
-262.763
 30
3
 11
82.484
 21
-262.763
 31
5
  0
LINE
  5
AE1
330
A02
100
AcDbEntity
  8
Fusion008
100
AcDbLine
 10
82.484
 20
-265.144
 30
3
 11
82.484
 21
-265.144
 31
5
  0
LINE
  5
AE2
330
A02
100
AcDbEntity
  8
Fusion008
100
AcDbLine
 10
82.484
 20
-262.763
 30
3
 11
82.484
 21
-265.144
 31
3
  0
LINE
  5
AE3
330
A02
100
AcDbEntity
  8
Fusion008
100
AcDbLine
 10
82.484
 20
-262.763
 30
5
 11
82.484
 21
-265.144
 31
5
  0
LINE
  5
AE4
330
A02
100
AcDbEntity
  8
Fusion008
100
AcDbLine
 10
90.104
 20
-265.144
 30
3
 11
90.104
 21
-265.144
 31
5
  0
LINE
  5
AE5
330
A02
100
AcDbEntity
  8
Fusion008
100
AcDbLine
 10
82.484
 20
-265.144
 30
3
 11
82.484
 21
-265.144
 31
5
  0
LINE
  5
AE6
330
A02
100
AcDbEntity
  8
Fusion008
100
AcDbLine
 10
90.104
 20
-265.144
 30
3
 11
82.484
 21
-265.144
 31
3
  0
LINE
  5
AE7
330
A02
100
AcDbEntity
  8
Fusion008
100
AcDbLine
 10
90.104
 20
-265.144
 30
5
 11
82.484
 21
-265.144
 31
5
  0
LINE
  5
AE8
330
A02
100
AcDbEntity
  8
Fusion008
100
AcDbLine
 10
90.104
 20
-279.144
 30
3
 11
90.104
 21
-279.144
 31
5
  0
LINE
  5
AE9
330
A02
100
AcDbEntity
  8
Fusion008
100
AcDbLine
 10
90.104
 20
-265.144
 30
3
 11
90.104
 21
-265.144
 31
5
  0
LINE
  5
AEA
330
A02
100
AcDbEntity
  8
Fusion008
100
AcDbLine
 10
90.104
 20
-279.144
 30
3
 11
90.104
 21
-265.144
 31
3
  0
LINE
  5
AEB
330
A02
100
AcDbEntity
  8
Fusion008
100
AcDbLine
 10
90.104
 20
-279.144
 30
5
 11
90.104
 21
-265.144
 31
5
  0
LINE
  5
AEC
330
A02
100
AcDbEntity
  8
Fusion008
100
AcDbLine
 10
76.104
 20
-279.144
 30
3
 11
76.104
 21
-279.144
 31
5
  0
LINE
  5
AED
330
A02
100
AcDbEntity
  8
Fusion008
100
AcDbLine
 10
90.104
 20
-279.144
 30
3
 11
90.104
 21
-279.144
 31
5
  0
LINE
  5
AEE
330
A02
100
AcDbEntity
  8
Fusion008
100
AcDbLine
 10
76.104
 20
-279.144
 30
3
 11
90.104
 21
-279.144
 31
3
  0
LINE
  5
AEF
330
A02
100
AcDbEntity
  8
Fusion008
100
AcDbLine
 10
76.104
 20
-279.144
 30
5
 11
90.104
 21
-279.144
 31
5
  0
LINE
  5
AF0
330
A02
100
AcDbEntity
  8
Fusion008
100
AcDbLine
 10
76.104
 20
-276.763
 30
3
 11
76.104
 21
-276.763
 31
5
  0
LINE
  5
AF1
330
A02
100
AcDbEntity
  8
Fusion008
100
AcDbLine
 10
76.104
 20
-279.144
 30
3
 11
76.104
 21
-279.144
 31
5
  0
LINE
  5
AF2
330
A02
100
AcDbEntity
  8
Fusion008
100
AcDbLine
 10
76.104
 20
-276.763
 30
3
 11
76.104
 21
-279.144
 31
3
  0
LINE
  5
AF3
330
A02
100
AcDbEntity
  8
Fusion008
100
AcDbLine
 10
76.104
 20
-276.763
 30
5
 11
76.104
 21
-279.144
 31
5
  0
LINE
  5
AF4
330
A02
100
AcDbEntity
  8
Fusion008
100
AcDbLine
 10
43.395
 20
-267.562
 30
3
 11
43.395
 21
-267.562
 31
5
  0
LINE
  5
AF5
330
A02
100
AcDbEntity
  8
Fusion008
100
AcDbLine
 10
50.3948
 20
-255.438
 30
3
 11
50.3948
 21
-255.438
 31
5
  0
LINE
  5
AF6
330
A02
100
AcDbEntity
  8
Fusion008
100
AcDbLine
 10
43.395
 20
-267.562
 30
3
 11
50.3948
 21
-255.438
 31
3
  0
LINE
  5
AF7
330
A02
100
AcDbEntity
  8
Fusion008
100
AcDbLine
 10
43.395
 20
-267.562
 30
5
 11
50.3948
 21
-255.438
 31
5
  0
LINE
  5
AF8
330
A02
100
AcDbEntity
  8
Fusion008
100
AcDbLine
 10
50.3948
 20
-255.438
 30
3
 11
50.3948
 21
-255.438
 31
5
  0
LINE
  5
AF9
330
A02
100
AcDbEntity
  8
Fusion008
100
AcDbLine
 10
62.5192
 20
-262.438
 30
3
 11
62.5192
 21
-262.438
 31
5
  0
LINE
  5
AFA
330
A02
100
AcDbEntity
  8
Fusion008
100
AcDbLine
 10
50.3948
 20
-255.438
 30
3
 11
62.5192
 21
-262.438
 31
3
  0
LINE
  5
AFB
330
A02
100
AcDbEntity
  8
Fusion008
100
AcDbLine
 10
50.3948
 20
-255.438
 30
5
 11
62.5192
 21
-262.438
 31
5
  0
LINE
  5
AFC
330
A02
100
AcDbEntity
  8
Fusion008
100
AcDbLine
 10
62.5192
 20
-262.438
 30
3
 11
62.5192
 21
-262.438
 31
5
  0
LINE
  5
AFD
330
A02
100
AcDbEntity
  8
Fusion008
100
AcDbLine
 10
55.5192
 20
-274.562
 30
3
 11
55.5192
 21
-274.562
 31
5
  0
LINE
  5
AFE
330
A02
100
AcDbEntity
  8
Fusion008
100
AcDbLine
 10
62.5192
 20
-262.438
 30
3
 11
55.5192
 21
-274.562
 31
3
  0
LINE
  5
AFF
330
A02
100
AcDbEntity
  8
Fusion008
100
AcDbLine
 10
62.5192
 20
-262.438
 30
5
 11
55.5192
 21
-274.562
 31
5
  0
LINE
  5
B00
330
A02
100
AcDbEntity
  8
Fusion008
100
AcDbLine
 10
55.5192
 20
-274.562
 30
3
 11
55.5192
 21
-274.562
 31
5
  0
LINE
  5
B01
330
A02
100
AcDbEntity
  8
Fusion008
100
AcDbLine
 10
43.395
 20
-267.562
 30
3
 11
43.395
 21
-267.562
 31
5
  0
LINE
  5
B02
330
A02
100
AcDbEntity
  8
Fusion008
100
AcDbLine
 10
55.5192
 20
-274.562
 30
3
 11
43.395
 21
-267.562
 31
3
  0
LINE
  5
B03
330
A02
100
AcDbEntity
  8
Fusion008
100
AcDbLine
 10
55.5192
 20
-274.562
 30
5
 11
43.395
 21
-267.562
 31
5
  0
LINE
  5
B04
330
A02
100
AcDbEntity
  8
Fusion008
100
AcDbLine
 10
46.021
 20
-252.913
 30
3
 11
46.021
 21
-252.913
 31
5
  0
LINE
  5
B05
330
A02
100
AcDbEntity
  8
Fusion008
100
AcDbLine
 10
39.021
 20
-265.037
 30
3
 11
39.021
 21
-265.037
 31
5
  0
LINE
  5
B06
330
A02
100
AcDbEntity
  8
Fusion008
100
AcDbLine
 10
46.021
 20
-252.913
 30
3
 11
39.021
 21
-265.037
 31
3
  0
LINE
  5
B07
330
A02
100
AcDbEntity
  8
Fusion008
100
AcDbLine
 10
46.021
 20
-252.913
 30
5
 11
39.021
 21
-265.037
 31
5
  0
LINE
  5
B08
330
A02
100
AcDbEntity
  8
Fusion008
100
AcDbLine
 10
39.021
 20
-265.037
 30
3
 11
39.021
 21
-265.037
 31
5
  0
LINE
  5
B09
330
A02
100
AcDbEntity
  8
Fusion008
100
AcDbLine
 10
26.897
 20
-258.037
 30
3
 11
26.897
 21
-258.037
 31
5
  0
LINE
  5
B0A
330
A02
100
AcDbEntity
  8
Fusion008
100
AcDbLine
 10
39.021
 20
-265.037
 30
3
 11
26.897
 21
-258.037
 31
3
  0
LINE
  5
B0B
330
A02
100
AcDbEntity
  8
Fusion008
100
AcDbLine
 10
39.021
 20
-265.037
 30
5
 11
26.897
 21
-258.037
 31
5
  0
LINE
  5
B0C
330
A02
100
AcDbEntity
  8
Fusion008
100
AcDbLine
 10
26.897
 20
-258.037
 30
3
 11
26.897
 21
-258.037
 31
5
  0
LINE
  5
B0D
330
A02
100
AcDbEntity
  8
Fusion008
100
AcDbLine
 10
33.897
 20
-245.913
 30
3
 11
33.897
 21
-245.913
 31
5
  0
LINE
  5
B0E
330
A02
100
AcDbEntity
  8
Fusion008
100
AcDbLine
 10
26.897
 20
-258.037
 30
3
 11
33.897
 21
-245.913
 31
3
  0
LINE
  5
B0F
330
A02
100
AcDbEntity
  8
Fusion008
100
AcDbLine
 10
26.897
 20
-258.037
 30
5
 11
33.897
 21
-245.913
 31
5
  0
LINE
  5
B10
330
A02
100
AcDbEntity
  8
Fusion008
100
AcDbLine
 10
33.897
 20
-245.913
 30
3
 11
33.897
 21
-245.913
 31
5
  0
LINE
  5
B11
330
A02
100
AcDbEntity
  8
Fusion008
100
AcDbLine
 10
46.021
 20
-252.913
 30
3
 11
46.021
 21
-252.913
 31
5
  0
LINE
  5
B12
330
A02
100
AcDbEntity
  8
Fusion008
100
AcDbLine
 10
33.897
 20
-245.913
 30
3
 11
46.021
 21
-252.913
 31
3
  0
LINE
  5
B13
330
A02
100
AcDbEntity
  8
Fusion008
100
AcDbLine
 10
33.897
 20
-245.913
 30
5
 11
46.021
 21
-252.913
 31
5
  0
LINE
  5
B14
330
A02
100
AcDbEntity
  8
Fusion008
100
AcDbLine
 10
36.496
 20
-269.411
 30
3
 11
36.496
 21
-269.411
 31
5
  0
LINE
  5
B15
330
A02
100
AcDbEntity
  8
Fusion008
100
AcDbLine
 10
29.496
 20
-281.535
 30
3
 11
29.496
 21
-281.535
 31
5
  0
LINE
  5
B16
330
A02
100
AcDbEntity
  8
Fusion008
100
AcDbLine
 10
36.496
 20
-269.411
 30
3
 11
29.496
 21
-281.535
 31
3
  0
LINE
  5
B17
330
A02
100
AcDbEntity
  8
Fusion008
100
AcDbLine
 10
36.496
 20
-269.411
 30
5
 11
29.496
 21
-281.535
 31
5
  0
LINE
  5
B18
330
A02
100
AcDbEntity
  8
Fusion008
100
AcDbLine
 10
29.496
 20
-281.535
 30
3
 11
29.496
 21
-281.535
 31
5
  0
LINE
  5
B19
330
A02
100
AcDbEntity
  8
Fusion008
100
AcDbLine
 10
17.372
 20
-274.535
 30
3
 11
17.372
 21
-274.535
 31
5
  0
LINE
  5
B1A
330
A02
100
AcDbEntity
  8
Fusion008
100
AcDbLine
 10
29.496
 20
-281.535
 30
3
 11
17.372
 21
-274.535
 31
3
  0
LINE
  5
B1B
330
A02
100
AcDbEntity
  8
Fusion008
100
AcDbLine
 10
29.496
 20
-281.535
 30
5
 11
17.372
 21
-274.535
 31
5
  0
LINE
  5
B1C
330
A02
100
AcDbEntity
  8
Fusion008
100
AcDbLine
 10
17.372
 20
-274.535
 30
3
 11
17.372
 21
-274.535
 31
5
  0
LINE
  5
B1D
330
A02
100
AcDbEntity
  8
Fusion008
100
AcDbLine
 10
24.372
 20
-262.411
 30
3
 11
24.372
 21
-262.411
 31
5
  0
LINE
  5
B1E
330
A02
100
AcDbEntity
  8
Fusion008
100
AcDbLine
 10
17.372
 20
-274.535
 30
3
 11
24.372
 21
-262.411
 31
3
  0
LINE
  5
B1F
330
A02
100
AcDbEntity
  8
Fusion008
100
AcDbLine
 10
17.372
 20
-274.535
 30
5
 11
24.372
 21
-262.411
 31
5
  0
LINE
  5
B20
330
A02
100
AcDbEntity
  8
Fusion008
100
AcDbLine
 10
24.372
 20
-262.411
 30
3
 11
24.372
 21
-262.411
 31
5
  0
LINE
  5
B21
330
A02
100
AcDbEntity
  8
Fusion008
100
AcDbLine
 10
36.496
 20
-269.411
 30
3
 11
36.496
 21
-269.411
 31
5
  0
LINE
  5
B22
330
A02
100
AcDbEntity
  8
Fusion008
100
AcDbLine
 10
24.372
 20
-262.411
 30
3
 11
36.496
 21
-269.411
 31
3
  0
LINE
  5
B23
330
A02
100
AcDbEntity
  8
Fusion008
100
AcDbLine
 10
24.372
 20
-262.411
 30
5
 11
36.496
 21
-269.411
 31
5
  0
LINE
  5
B24
330
A02
100
AcDbEntity
  8
Fusion008
100
AcDbLine
 10
76.104
 20
-284.194
 30
3
 11
76.104
 21
-284.194
 31
5
  0
LINE
  5
B25
330
A02
100
AcDbEntity
  8
Fusion008
100
AcDbLine
 10
90.104
 20
-284.194
 30
3
 11
90.104
 21
-284.194
 31
5
  0
LINE
  5
B26
330
A02
100
AcDbEntity
  8
Fusion008
100
AcDbLine
 10
76.104
 20
-284.194
 30
3
 11
90.104
 21
-284.194
 31
3
  0
LINE
  5
B27
330
A02
100
AcDbEntity
  8
Fusion008
100
AcDbLine
 10
76.104
 20
-284.194
 30
5
 11
90.104
 21
-284.194
 31
5
  0
LINE
  5
B28
330
A02
100
AcDbEntity
  8
Fusion008
100
AcDbLine
 10
90.104
 20
-284.194
 30
3
 11
90.104
 21
-284.194
 31
5
  0
LINE
  5
B29
330
A02
100
AcDbEntity
  8
Fusion008
100
AcDbLine
 10
90.104
 20
-298.194
 30
3
 11
90.104
 21
-298.194
 31
5
  0
LINE
  5
B2A
330
A02
100
AcDbEntity
  8
Fusion008
100
AcDbLine
 10
90.104
 20
-284.194
 30
3
 11
90.104
 21
-298.194
 31
3
  0
LINE
  5
B2B
330
A02
100
AcDbEntity
  8
Fusion008
100
AcDbLine
 10
90.104
 20
-284.194
 30
5
 11
90.104
 21
-298.194
 31
5
  0
LINE
  5
B2C
330
A02
100
AcDbEntity
  8
Fusion008
100
AcDbLine
 10
90.104
 20
-298.194
 30
3
 11
90.104
 21
-298.194
 31
5
  0
LINE
  5
B2D
330
A02
100
AcDbEntity
  8
Fusion008
100
AcDbLine
 10
76.104
 20
-298.194
 30
3
 11
76.104
 21
-298.194
 31
5
  0
LINE
  5
B2E
330
A02
100
AcDbEntity
  8
Fusion008
100
AcDbLine
 10
90.104
 20
-298.194
 30
3
 11
76.104
 21
-298.194
 31
3
  0
LINE
  5
B2F
330
A02
100
AcDbEntity
  8
Fusion008
100
AcDbLine
 10
90.104
 20
-298.194
 30
5
 11
76.104
 21
-298.194
 31
5
  0
LINE
  5
B30
330
A02
100
AcDbEntity
  8
Fusion008
100
AcDbLine
 10
76.104
 20
-298.194
 30
3
 11
76.104
 21
-298.194
 31
5
  0
LINE
  5
B31
330
A02
100
AcDbEntity
  8
Fusion008
100
AcDbLine
 10
76.104
 20
-284.194
 30
3
 11
76.104
 21
-284.194
 31
5
  0
LINE
  5
B32
330
A02
100
AcDbEntity
  8
Fusion008
100
AcDbLine
 10
76.104
 20
-298.194
 30
3
 11
76.104
 21
-284.194
 31
3
  0
LINE
  5
B33
330
A02
100
AcDbEntity
  8
Fusion008
100
AcDbLine
 10
76.104
 20
-298.194
 30
5
 11
76.104
 21
-284.194
 31
5
  0
LINE
  5
B34
330
A02
100
AcDbEntity
  8
Fusion008
100
AcDbLine
 10
133.254
 20
-315.15
 30
3
 11
133.254
 21
-315.15
 31
5
  0
LINE
  5
B35
330
A02
100
AcDbEntity
  8
Fusion008
100
AcDbLine
 10
133.254
 20
-329.15
 30
3
 11
133.254
 21
-329.15
 31
5
  0
LINE
  5
B36
330
A02
100
AcDbEntity
  8
Fusion008
100
AcDbLine
 10
133.254
 20
-315.15
 30
3
 11
133.254
 21
-329.15
 31
3
  0
LINE
  5
B37
330
A02
100
AcDbEntity
  8
Fusion008
100
AcDbLine
 10
133.254
 20
-315.15
 30
5
 11
133.254
 21
-329.15
 31
5
  0
LINE
  5
B38
330
A02
100
AcDbEntity
  8
Fusion008
100
AcDbLine
 10
133.254
 20
-329.15
 30
3
 11
133.254
 21
-329.15
 31
5
  0
LINE
  5
B39
330
A02
100
AcDbEntity
  8
Fusion008
100
AcDbLine
 10
147.254
 20
-329.15
 30
3
 11
147.254
 21
-329.15
 31
5
  0
LINE
  5
B3A
330
A02
100
AcDbEntity
  8
Fusion008
100
AcDbLine
 10
133.254
 20
-329.15
 30
3
 11
147.254
 21
-329.15
 31
3
  0
LINE
  5
B3B
330
A02
100
AcDbEntity
  8
Fusion008
100
AcDbLine
 10
133.254
 20
-329.15
 30
5
 11
147.254
 21
-329.15
 31
5
  0
LINE
  5
B3C
330
A02
100
AcDbEntity
  8
Fusion008
100
AcDbLine
 10
147.254
 20
-329.15
 30
3
 11
147.254
 21
-329.15
 31
5
  0
LINE
  5
B3D
330
A02
100
AcDbEntity
  8
Fusion008
100
AcDbLine
 10
147.254
 20
-315.15
 30
3
 11
147.254
 21
-315.15
 31
5
  0
LINE
  5
B3E
330
A02
100
AcDbEntity
  8
Fusion008
100
AcDbLine
 10
147.254
 20
-329.15
 30
3
 11
147.254
 21
-315.15
 31
3
  0
LINE
  5
B3F
330
A02
100
AcDbEntity
  8
Fusion008
100
AcDbLine
 10
147.254
 20
-329.15
 30
5
 11
147.254
 21
-315.15
 31
5
  0
LINE
  5
B40
330
A02
100
AcDbEntity
  8
Fusion008
100
AcDbLine
 10
147.254
 20
-315.15
 30
3
 11
147.254
 21
-315.15
 31
5
  0
LINE
  5
B41
330
A02
100
AcDbEntity
  8
Fusion008
100
AcDbLine
 10
133.254
 20
-315.15
 30
3
 11
133.254
 21
-315.15
 31
5
  0
LINE
  5
B42
330
A02
100
AcDbEntity
  8
Fusion008
100
AcDbLine
 10
147.254
 20
-315.15
 30
3
 11
133.254
 21
-315.15
 31
3
  0
LINE
  5
B43
330
A02
100
AcDbEntity
  8
Fusion008
100
AcDbLine
 10
147.254
 20
-315.15
 30
5
 11
133.254
 21
-315.15
 31
5
  0
LINE
  5
B44
330
A02
100
AcDbEntity
  8
Fusion008
100
AcDbLine
 10
114.204
 20
-315.15
 30
3
 11
114.204
 21
-315.15
 31
5
  0
LINE
  5
B45
330
A02
100
AcDbEntity
  8
Fusion008
100
AcDbLine
 10
128.204
 20
-315.15
 30
3
 11
128.204
 21
-315.15
 31
5
  0
LINE
  5
B46
330
A02
100
AcDbEntity
  8
Fusion008
100
AcDbLine
 10
114.204
 20
-315.15
 30
3
 11
128.204
 21
-315.15
 31
3
  0
LINE
  5
B47
330
A02
100
AcDbEntity
  8
Fusion008
100
AcDbLine
 10
114.204
 20
-315.15
 30
5
 11
128.204
 21
-315.15
 31
5
  0
LINE
  5
B48
330
A02
100
AcDbEntity
  8
Fusion008
100
AcDbLine
 10
128.204
 20
-315.15
 30
3
 11
128.204
 21
-315.15
 31
5
  0
LINE
  5
B49
330
A02
100
AcDbEntity
  8
Fusion008
100
AcDbLine
 10
128.204
 20
-329.15
 30
3
 11
128.204
 21
-329.15
 31
5
  0
LINE
  5
B4A
330
A02
100
AcDbEntity
  8
Fusion008
100
AcDbLine
 10
128.204
 20
-315.15
 30
3
 11
128.204
 21
-329.15
 31
3
  0
LINE
  5
B4B
330
A02
100
AcDbEntity
  8
Fusion008
100
AcDbLine
 10
128.204
 20
-315.15
 30
5
 11
128.204
 21
-329.15
 31
5
  0
LINE
  5
B4C
330
A02
100
AcDbEntity
  8
Fusion008
100
AcDbLine
 10
128.204
 20
-329.15
 30
3
 11
128.204
 21
-329.15
 31
5
  0
LINE
  5
B4D
330
A02
100
AcDbEntity
  8
Fusion008
100
AcDbLine
 10
114.204
 20
-329.15
 30
3
 11
114.204
 21
-329.15
 31
5
  0
LINE
  5
B4E
330
A02
100
AcDbEntity
  8
Fusion008
100
AcDbLine
 10
128.204
 20
-329.15
 30
3
 11
114.204
 21
-329.15
 31
3
  0
LINE
  5
B4F
330
A02
100
AcDbEntity
  8
Fusion008
100
AcDbLine
 10
128.204
 20
-329.15
 30
5
 11
114.204
 21
-329.15
 31
5
  0
LINE
  5
B50
330
A02
100
AcDbEntity
  8
Fusion008
100
AcDbLine
 10
114.204
 20
-329.15
 30
3
 11
114.204
 21
-329.15
 31
5
  0
LINE
  5
B51
330
A02
100
AcDbEntity
  8
Fusion008
100
AcDbLine
 10
114.204
 20
-315.15
 30
3
 11
114.204
 21
-315.15
 31
5
  0
LINE
  5
B52
330
A02
100
AcDbEntity
  8
Fusion008
100
AcDbLine
 10
114.204
 20
-329.15
 30
3
 11
114.204
 21
-315.15
 31
3
  0
LINE
  5
B53
330
A02
100
AcDbEntity
  8
Fusion008
100
AcDbLine
 10
114.204
 20
-329.15
 30
5
 11
114.204
 21
-315.15
 31
5
  0
LINE
  5
B54
330
A02
100
AcDbEntity
  8
Fusion008
100
AcDbLine
 10
95.154
 20
-262.763
 30
3
 11
95.154
 21
-262.763
 31
5
  0
LINE
  5
B55
330
A02
100
AcDbEntity
  8
Fusion008
100
AcDbLine
 10
95.154
 20
-276.763
 30
3
 11
95.154
 21
-276.763
 31
5
  0
LINE
  5
B56
330
A02
100
AcDbEntity
  8
Fusion008
100
AcDbLine
 10
95.154
 20
-262.763
 30
3
 11
95.154
 21
-276.763
 31
3
  0
LINE
  5
B57
330
A02
100
AcDbEntity
  8
Fusion008
100
AcDbLine
 10
95.154
 20
-262.763
 30
5
 11
95.154
 21
-276.763
 31
5
  0
LINE
  5
B58
330
A02
100
AcDbEntity
  8
Fusion008
100
AcDbLine
 10
95.154
 20
-276.763
 30
3
 11
95.154
 21
-276.763
 31
5
  0
LINE
  5
B59
330
A02
100
AcDbEntity
  8
Fusion008
100
AcDbLine
 10
109.154
 20
-276.763
 30
3
 11
109.154
 21
-276.763
 31
5
  0
LINE
  5
B5A
330
A02
100
AcDbEntity
  8
Fusion008
100
AcDbLine
 10
95.154
 20
-276.763
 30
3
 11
109.154
 21
-276.763
 31
3
  0
LINE
  5
B5B
330
A02
100
AcDbEntity
  8
Fusion008
100
AcDbLine
 10
95.154
 20
-276.763
 30
5
 11
109.154
 21
-276.763
 31
5
  0
LINE
  5
B5C
330
A02
100
AcDbEntity
  8
Fusion008
100
AcDbLine
 10
109.154
 20
-276.763
 30
3
 11
109.154
 21
-276.763
 31
5
  0
LINE
  5
B5D
330
A02
100
AcDbEntity
  8
Fusion008
100
AcDbLine
 10
109.154
 20
-262.763
 30
3
 11
109.154
 21
-262.763
 31
5
  0
LINE
  5
B5E
330
A02
100
AcDbEntity
  8
Fusion008
100
AcDbLine
 10
109.154
 20
-276.763
 30
3
 11
109.154
 21
-262.763
 31
3
  0
LINE
  5
B5F
330
A02
100
AcDbEntity
  8
Fusion008
100
AcDbLine
 10
109.154
 20
-276.763
 30
5
 11
109.154
 21
-262.763
 31
5
  0
LINE
  5
B60
330
A02
100
AcDbEntity
  8
Fusion008
100
AcDbLine
 10
109.154
 20
-262.763
 30
3
 11
109.154
 21
-262.763
 31
5
  0
LINE
  5
B61
330
A02
100
AcDbEntity
  8
Fusion008
100
AcDbLine
 10
95.154
 20
-262.763
 30
3
 11
95.154
 21
-262.763
 31
5
  0
LINE
  5
B62
330
A02
100
AcDbEntity
  8
Fusion008
100
AcDbLine
 10
109.154
 20
-262.763
 30
3
 11
95.154
 21
-262.763
 31
3
  0
LINE
  5
B63
330
A02
100
AcDbEntity
  8
Fusion008
100
AcDbLine
 10
109.154
 20
-262.763
 30
5
 11
95.154
 21
-262.763
 31
5
  0
LINE
  5
B64
330
A02
100
AcDbEntity
  8
Fusion008
100
AcDbLine
 10
133.254
 20
-258
 30
3
 11
133.254
 21
-258
 31
5
  0
LINE
  5
B65
330
A02
100
AcDbEntity
  8
Fusion008
100
AcDbLine
 10
133.254
 20
-272
 30
3
 11
133.254
 21
-272
 31
5
  0
LINE
  5
B66
330
A02
100
AcDbEntity
  8
Fusion008
100
AcDbLine
 10
133.254
 20
-258
 30
3
 11
133.254
 21
-272
 31
3
  0
LINE
  5
B67
330
A02
100
AcDbEntity
  8
Fusion008
100
AcDbLine
 10
133.254
 20
-258
 30
5
 11
133.254
 21
-272
 31
5
  0
LINE
  5
B68
330
A02
100
AcDbEntity
  8
Fusion008
100
AcDbLine
 10
133.254
 20
-272
 30
3
 11
133.254
 21
-272
 31
5
  0
LINE
  5
B69
330
A02
100
AcDbEntity
  8
Fusion008
100
AcDbLine
 10
147.254
 20
-272
 30
3
 11
147.254
 21
-272
 31
5
  0
LINE
  5
B6A
330
A02
100
AcDbEntity
  8
Fusion008
100
AcDbLine
 10
133.254
 20
-272
 30
3
 11
147.254
 21
-272
 31
3
  0
LINE
  5
B6B
330
A02
100
AcDbEntity
  8
Fusion008
100
AcDbLine
 10
133.254
 20
-272
 30
5
 11
147.254
 21
-272
 31
5
  0
LINE
  5
B6C
330
A02
100
AcDbEntity
  8
Fusion008
100
AcDbLine
 10
147.254
 20
-272
 30
3
 11
147.254
 21
-272
 31
5
  0
LINE
  5
B6D
330
A02
100
AcDbEntity
  8
Fusion008
100
AcDbLine
 10
147.254
 20
-258
 30
3
 11
147.254
 21
-258
 31
5
  0
LINE
  5
B6E
330
A02
100
AcDbEntity
  8
Fusion008
100
AcDbLine
 10
147.254
 20
-272
 30
3
 11
147.254
 21
-258
 31
3
  0
LINE
  5
B6F
330
A02
100
AcDbEntity
  8
Fusion008
100
AcDbLine
 10
147.254
 20
-272
 30
5
 11
147.254
 21
-258
 31
5
  0
LINE
  5
B70
330
A02
100
AcDbEntity
  8
Fusion008
100
AcDbLine
 10
147.254
 20
-258
 30
3
 11
147.254
 21
-258
 31
5
  0
LINE
  5
B71
330
A02
100
AcDbEntity
  8
Fusion008
100
AcDbLine
 10
133.254
 20
-258
 30
3
 11
133.254
 21
-258
 31
5
  0
LINE
  5
B72
330
A02
100
AcDbEntity
  8
Fusion008
100
AcDbLine
 10
147.254
 20
-258
 30
3
 11
133.254
 21
-258
 31
3
  0
LINE
  5
B73
330
A02
100
AcDbEntity
  8
Fusion008
100
AcDbLine
 10
147.254
 20
-258
 30
5
 11
133.254
 21
-258
 31
5
  0
LINE
  5
B74
330
A02
100
AcDbEntity
  8
Fusion008
100
AcDbLine
 10
38.004
 20
-298.481
 30
3
 11
38.004
 21
-298.481
 31
5
  0
LINE
  5
B75
330
A02
100
AcDbEntity
  8
Fusion008
100
AcDbLine
 10
38.004
 20
-312.481
 30
3
 11
38.004
 21
-312.481
 31
5
  0
LINE
  5
B76
330
A02
100
AcDbEntity
  8
Fusion008
100
AcDbLine
 10
38.004
 20
-298.481
 30
3
 11
38.004
 21
-312.481
 31
3
  0
LINE
  5
B77
330
A02
100
AcDbEntity
  8
Fusion008
100
AcDbLine
 10
38.004
 20
-298.481
 30
5
 11
38.004
 21
-312.481
 31
5
  0
LINE
  5
B78
330
A02
100
AcDbEntity
  8
Fusion008
100
AcDbLine
 10
38.004
 20
-312.481
 30
3
 11
38.004
 21
-312.481
 31
5
  0
LINE
  5
B79
330
A02
100
AcDbEntity
  8
Fusion008
100
AcDbLine
 10
52.004
 20
-312.481
 30
3
 11
52.004
 21
-312.481
 31
5
  0
LINE
  5
B7A
330
A02
100
AcDbEntity
  8
Fusion008
100
AcDbLine
 10
38.004
 20
-312.481
 30
3
 11
52.004
 21
-312.481
 31
3
  0
LINE
  5
B7B
330
A02
100
AcDbEntity
  8
Fusion008
100
AcDbLine
 10
38.004
 20
-312.481
 30
5
 11
52.004
 21
-312.481
 31
5
  0
LINE
  5
B7C
330
A02
100
AcDbEntity
  8
Fusion008
100
AcDbLine
 10
52.004
 20
-312.481
 30
3
 11
52.004
 21
-312.481
 31
5
  0
LINE
  5
B7D
330
A02
100
AcDbEntity
  8
Fusion008
100
AcDbLine
 10
52.004
 20
-298.481
 30
3
 11
52.004
 21
-298.481
 31
5
  0
LINE
  5
B7E
330
A02
100
AcDbEntity
  8
Fusion008
100
AcDbLine
 10
52.004
 20
-312.481
 30
3
 11
52.004
 21
-298.481
 31
3
  0
LINE
  5
B7F
330
A02
100
AcDbEntity
  8
Fusion008
100
AcDbLine
 10
52.004
 20
-312.481
 30
5
 11
52.004
 21
-298.481
 31
5
  0
LINE
  5
B80
330
A02
100
AcDbEntity
  8
Fusion008
100
AcDbLine
 10
52.004
 20
-298.481
 30
3
 11
52.004
 21
-298.481
 31
5
  0
LINE
  5
B81
330
A02
100
AcDbEntity
  8
Fusion008
100
AcDbLine
 10
38.004
 20
-298.481
 30
3
 11
38.004
 21
-298.481
 31
5
  0
LINE
  5
B82
330
A02
100
AcDbEntity
  8
Fusion008
100
AcDbLine
 10
52.004
 20
-298.481
 30
3
 11
38.004
 21
-298.481
 31
3
  0
LINE
  5
B83
330
A02
100
AcDbEntity
  8
Fusion008
100
AcDbLine
 10
52.004
 20
-298.481
 30
5
 11
38.004
 21
-298.481
 31
5
  0
LINE
  5
B84
330
A02
100
AcDbEntity
  8
Fusion008
100
AcDbLine
 10
38.004
 20
-317.531
 30
3
 11
38.004
 21
-317.531
 31
5
  0
LINE
  5
B85
330
A02
100
AcDbEntity
  8
Fusion008
100
AcDbLine
 10
38.004
 20
-331.531
 30
3
 11
38.004
 21
-331.531
 31
5
  0
LINE
  5
B86
330
A02
100
AcDbEntity
  8
Fusion008
100
AcDbLine
 10
38.004
 20
-317.531
 30
3
 11
38.004
 21
-331.531
 31
3
  0
LINE
  5
B87
330
A02
100
AcDbEntity
  8
Fusion008
100
AcDbLine
 10
38.004
 20
-317.531
 30
5
 11
38.004
 21
-331.531
 31
5
  0
LINE
  5
B88
330
A02
100
AcDbEntity
  8
Fusion008
100
AcDbLine
 10
38.004
 20
-331.531
 30
3
 11
38.004
 21
-331.531
 31
5
  0
LINE
  5
B89
330
A02
100
AcDbEntity
  8
Fusion008
100
AcDbLine
 10
52.004
 20
-331.531
 30
3
 11
52.004
 21
-331.531
 31
5
  0
LINE
  5
B8A
330
A02
100
AcDbEntity
  8
Fusion008
100
AcDbLine
 10
38.004
 20
-331.531
 30
3
 11
52.004
 21
-331.531
 31
3
  0
LINE
  5
B8B
330
A02
100
AcDbEntity
  8
Fusion008
100
AcDbLine
 10
38.004
 20
-331.531
 30
5
 11
52.004
 21
-331.531
 31
5
  0
LINE
  5
B8C
330
A02
100
AcDbEntity
  8
Fusion008
100
AcDbLine
 10
52.004
 20
-331.531
 30
3
 11
52.004
 21
-331.531
 31
5
  0
LINE
  5
B8D
330
A02
100
AcDbEntity
  8
Fusion008
100
AcDbLine
 10
52.004
 20
-317.531
 30
3
 11
52.004
 21
-317.531
 31
5
  0
LINE
  5
B8E
330
A02
100
AcDbEntity
  8
Fusion008
100
AcDbLine
 10
52.004
 20
-331.531
 30
3
 11
52.004
 21
-317.531
 31
3
  0
LINE
  5
B8F
330
A02
100
AcDbEntity
  8
Fusion008
100
AcDbLine
 10
52.004
 20
-331.531
 30
5
 11
52.004
 21
-317.531
 31
5
  0
LINE
  5
B90
330
A02
100
AcDbEntity
  8
Fusion008
100
AcDbLine
 10
52.004
 20
-317.531
 30
3
 11
52.004
 21
-317.531
 31
5
  0
LINE
  5
B91
330
A02
100
AcDbEntity
  8
Fusion008
100
AcDbLine
 10
38.004
 20
-317.531
 30
3
 11
38.004
 21
-317.531
 31
5
  0
LINE
  5
B92
330
A02
100
AcDbEntity
  8
Fusion008
100
AcDbLine
 10
52.004
 20
-317.531
 30
3
 11
38.004
 21
-317.531
 31
3
  0
LINE
  5
B93
330
A02
100
AcDbEntity
  8
Fusion008
100
AcDbLine
 10
52.004
 20
-317.531
 30
5
 11
38.004
 21
-317.531
 31
5
  0
LINE
  5
B94
330
A02
100
AcDbEntity
  8
Fusion008
100
AcDbLine
 10
95.154
 20
-300.863
 30
3
 11
95.154
 21
-300.863
 31
5
  0
LINE
  5
B95
330
A02
100
AcDbEntity
  8
Fusion008
100
AcDbLine
 10
95.154
 20
-314.863
 30
3
 11
95.154
 21
-314.863
 31
5
  0
LINE
  5
B96
330
A02
100
AcDbEntity
  8
Fusion008
100
AcDbLine
 10
95.154
 20
-300.863
 30
3
 11
95.154
 21
-314.863
 31
3
  0
LINE
  5
B97
330
A02
100
AcDbEntity
  8
Fusion008
100
AcDbLine
 10
95.154
 20
-300.863
 30
5
 11
95.154
 21
-314.863
 31
5
  0
LINE
  5
B98
330
A02
100
AcDbEntity
  8
Fusion008
100
AcDbLine
 10
95.154
 20
-314.863
 30
3
 11
95.154
 21
-314.863
 31
5
  0
LINE
  5
B99
330
A02
100
AcDbEntity
  8
Fusion008
100
AcDbLine
 10
109.154
 20
-314.863
 30
3
 11
109.154
 21
-314.863
 31
5
  0
LINE
  5
B9A
330
A02
100
AcDbEntity
  8
Fusion008
100
AcDbLine
 10
95.154
 20
-314.863
 30
3
 11
109.154
 21
-314.863
 31
3
  0
LINE
  5
B9B
330
A02
100
AcDbEntity
  8
Fusion008
100
AcDbLine
 10
95.154
 20
-314.863
 30
5
 11
109.154
 21
-314.863
 31
5
  0
LINE
  5
B9C
330
A02
100
AcDbEntity
  8
Fusion008
100
AcDbLine
 10
109.154
 20
-314.863
 30
3
 11
109.154
 21
-314.863
 31
5
  0
LINE
  5
B9D
330
A02
100
AcDbEntity
  8
Fusion008
100
AcDbLine
 10
109.154
 20
-300.863
 30
3
 11
109.154
 21
-300.863
 31
5
  0
LINE
  5
B9E
330
A02
100
AcDbEntity
  8
Fusion008
100
AcDbLine
 10
109.154
 20
-314.863
 30
3
 11
109.154
 21
-300.863
 31
3
  0
LINE
  5
B9F
330
A02
100
AcDbEntity
  8
Fusion008
100
AcDbLine
 10
109.154
 20
-314.863
 30
5
 11
109.154
 21
-300.863
 31
5
  0
LINE
  5
BA0
330
A02
100
AcDbEntity
  8
Fusion008
100
AcDbLine
 10
109.154
 20
-300.863
 30
3
 11
109.154
 21
-300.863
 31
5
  0
LINE
  5
BA1
330
A02
100
AcDbEntity
  8
Fusion008
100
AcDbLine
 10
95.154
 20
-300.863
 30
3
 11
95.154
 21
-300.863
 31
5
  0
LINE
  5
BA2
330
A02
100
AcDbEntity
  8
Fusion008
100
AcDbLine
 10
109.154
 20
-300.863
 30
3
 11
95.154
 21
-300.863
 31
3
  0
LINE
  5
BA3
330
A02
100
AcDbEntity
  8
Fusion008
100
AcDbLine
 10
109.154
 20
-300.863
 30
5
 11
95.154
 21
-300.863
 31
5
  0
LINE
  5
BA4
330
A02
100
AcDbEntity
  8
Fusion008
100
AcDbLine
 10
95.154
 20
-338.963
 30
3
 11
95.154
 21
-338.963
 31
5
  0
LINE
  5
BA5
330
A02
100
AcDbEntity
  8
Fusion008
100
AcDbLine
 10
95.154
 20
-352.963
 30
3
 11
95.154
 21
-352.963
 31
5
  0
LINE
  5
BA6
330
A02
100
AcDbEntity
  8
Fusion008
100
AcDbLine
 10
95.154
 20
-338.963
 30
3
 11
95.154
 21
-352.963
 31
3
  0
LINE
  5
BA7
330
A02
100
AcDbEntity
  8
Fusion008
100
AcDbLine
 10
95.154
 20
-338.963
 30
5
 11
95.154
 21
-352.963
 31
5
  0
LINE
  5
BA8
330
A02
100
AcDbEntity
  8
Fusion008
100
AcDbLine
 10
95.154
 20
-352.963
 30
3
 11
95.154
 21
-352.963
 31
5
  0
LINE
  5
BA9
330
A02
100
AcDbEntity
  8
Fusion008
100
AcDbLine
 10
109.154
 20
-352.963
 30
3
 11
109.154
 21
-352.963
 31
5
  0
LINE
  5
BAA
330
A02
100
AcDbEntity
  8
Fusion008
100
AcDbLine
 10
95.154
 20
-352.963
 30
3
 11
109.154
 21
-352.963
 31
3
  0
LINE
  5
BAB
330
A02
100
AcDbEntity
  8
Fusion008
100
AcDbLine
 10
95.154
 20
-352.963
 30
5
 11
109.154
 21
-352.963
 31
5
  0
LINE
  5
BAC
330
A02
100
AcDbEntity
  8
Fusion008
100
AcDbLine
 10
109.154
 20
-352.963
 30
3
 11
109.154
 21
-352.963
 31
5
  0
LINE
  5
BAD
330
A02
100
AcDbEntity
  8
Fusion008
100
AcDbLine
 10
109.154
 20
-338.963
 30
3
 11
109.154
 21
-338.963
 31
5
  0
LINE
  5
BAE
330
A02
100
AcDbEntity
  8
Fusion008
100
AcDbLine
 10
109.154
 20
-352.963
 30
3
 11
109.154
 21
-338.963
 31
3
  0
LINE
  5
BAF
330
A02
100
AcDbEntity
  8
Fusion008
100
AcDbLine
 10
109.154
 20
-352.963
 30
5
 11
109.154
 21
-338.963
 31
5
  0
LINE
  5
BB0
330
A02
100
AcDbEntity
  8
Fusion008
100
AcDbLine
 10
109.154
 20
-338.963
 30
3
 11
109.154
 21
-338.963
 31
5
  0
LINE
  5
BB1
330
A02
100
AcDbEntity
  8
Fusion008
100
AcDbLine
 10
95.154
 20
-338.963
 30
3
 11
95.154
 21
-338.963
 31
5
  0
LINE
  5
BB2
330
A02
100
AcDbEntity
  8
Fusion008
100
AcDbLine
 10
109.154
 20
-338.963
 30
3
 11
95.154
 21
-338.963
 31
3
  0
LINE
  5
BB3
330
A02
100
AcDbEntity
  8
Fusion008
100
AcDbLine
 10
109.154
 20
-338.963
 30
5
 11
95.154
 21
-338.963
 31
5
  0
LINE
  5
BB4
330
A02
100
AcDbEntity
  8
Fusion008
100
AcDbLine
 10
133.254
 20
-296.1
 30
3
 11
133.254
 21
-296.1
 31
5
  0
LINE
  5
BB5
330
A02
100
AcDbEntity
  8
Fusion008
100
AcDbLine
 10
133.254
 20
-310.1
 30
3
 11
133.254
 21
-310.1
 31
5
  0
LINE
  5
BB6
330
A02
100
AcDbEntity
  8
Fusion008
100
AcDbLine
 10
133.254
 20
-296.1
 30
3
 11
133.254
 21
-310.1
 31
3
  0
LINE
  5
BB7
330
A02
100
AcDbEntity
  8
Fusion008
100
AcDbLine
 10
133.254
 20
-296.1
 30
5
 11
133.254
 21
-310.1
 31
5
  0
LINE
  5
BB8
330
A02
100
AcDbEntity
  8
Fusion008
100
AcDbLine
 10
133.254
 20
-310.1
 30
3
 11
133.254
 21
-310.1
 31
5
  0
LINE
  5
BB9
330
A02
100
AcDbEntity
  8
Fusion008
100
AcDbLine
 10
147.254
 20
-310.1
 30
3
 11
147.254
 21
-310.1
 31
5
  0
LINE
  5
BBA
330
A02
100
AcDbEntity
  8
Fusion008
100
AcDbLine
 10
133.254
 20
-310.1
 30
3
 11
147.254
 21
-310.1
 31
3
  0
LINE
  5
BBB
330
A02
100
AcDbEntity
  8
Fusion008
100
AcDbLine
 10
133.254
 20
-310.1
 30
5
 11
147.254
 21
-310.1
 31
5
  0
LINE
  5
BBC
330
A02
100
AcDbEntity
  8
Fusion008
100
AcDbLine
 10
147.254
 20
-310.1
 30
3
 11
147.254
 21
-310.1
 31
5
  0
LINE
  5
BBD
330
A02
100
AcDbEntity
  8
Fusion008
100
AcDbLine
 10
147.254
 20
-296.1
 30
3
 11
147.254
 21
-296.1
 31
5
  0
LINE
  5
BBE
330
A02
100
AcDbEntity
  8
Fusion008
100
AcDbLine
 10
147.254
 20
-310.1
 30
3
 11
147.254
 21
-296.1
 31
3
  0
LINE
  5
BBF
330
A02
100
AcDbEntity
  8
Fusion008
100
AcDbLine
 10
147.254
 20
-310.1
 30
5
 11
147.254
 21
-296.1
 31
5
  0
LINE
  5
BC0
330
A02
100
AcDbEntity
  8
Fusion008
100
AcDbLine
 10
147.254
 20
-296.1
 30
3
 11
147.254
 21
-296.1
 31
5
  0
LINE
  5
BC1
330
A02
100
AcDbEntity
  8
Fusion008
100
AcDbLine
 10
133.254
 20
-296.1
 30
3
 11
133.254
 21
-296.1
 31
5
  0
LINE
  5
BC2
330
A02
100
AcDbEntity
  8
Fusion008
100
AcDbLine
 10
147.254
 20
-296.1
 30
3
 11
133.254
 21
-296.1
 31
3
  0
LINE
  5
BC3
330
A02
100
AcDbEntity
  8
Fusion008
100
AcDbLine
 10
147.254
 20
-296.1
 30
5
 11
133.254
 21
-296.1
 31
5
  0
LINE
  5
BC4
330
A02
100
AcDbEntity
  8
Fusion008
100
AcDbLine
 10
114.204
 20
-258
 30
3
 11
114.204
 21
-258
 31
5
  0
LINE
  5
BC5
330
A02
100
AcDbEntity
  8
Fusion008
100
AcDbLine
 10
128.204
 20
-258
 30
3
 11
128.204
 21
-258
 31
5
  0
LINE
  5
BC6
330
A02
100
AcDbEntity
  8
Fusion008
100
AcDbLine
 10
114.204
 20
-258
 30
3
 11
128.204
 21
-258
 31
3
  0
LINE
  5
BC7
330
A02
100
AcDbEntity
  8
Fusion008
100
AcDbLine
 10
114.204
 20
-258
 30
5
 11
128.204
 21
-258
 31
5
  0
LINE
  5
BC8
330
A02
100
AcDbEntity
  8
Fusion008
100
AcDbLine
 10
128.204
 20
-258
 30
3
 11
128.204
 21
-258
 31
5
  0
LINE
  5
BC9
330
A02
100
AcDbEntity
  8
Fusion008
100
AcDbLine
 10
128.204
 20
-272
 30
3
 11
128.204
 21
-272
 31
5
  0
LINE
  5
BCA
330
A02
100
AcDbEntity
  8
Fusion008
100
AcDbLine
 10
128.204
 20
-258
 30
3
 11
128.204
 21
-272
 31
3
  0
LINE
  5
BCB
330
A02
100
AcDbEntity
  8
Fusion008
100
AcDbLine
 10
128.204
 20
-258
 30
5
 11
128.204
 21
-272
 31
5
  0
LINE
  5
BCC
330
A02
100
AcDbEntity
  8
Fusion008
100
AcDbLine
 10
128.204
 20
-272
 30
3
 11
128.204
 21
-272
 31
5
  0
LINE
  5
BCD
330
A02
100
AcDbEntity
  8
Fusion008
100
AcDbLine
 10
114.204
 20
-272
 30
3
 11
114.204
 21
-272
 31
5
  0
LINE
  5
BCE
330
A02
100
AcDbEntity
  8
Fusion008
100
AcDbLine
 10
128.204
 20
-272
 30
3
 11
114.204
 21
-272
 31
3
  0
LINE
  5
BCF
330
A02
100
AcDbEntity
  8
Fusion008
100
AcDbLine
 10
128.204
 20
-272
 30
5
 11
114.204
 21
-272
 31
5
  0
LINE
  5
BD0
330
A02
100
AcDbEntity
  8
Fusion008
100
AcDbLine
 10
114.204
 20
-272
 30
3
 11
114.204
 21
-272
 31
5
  0
LINE
  5
BD1
330
A02
100
AcDbEntity
  8
Fusion008
100
AcDbLine
 10
114.204
 20
-258
 30
3
 11
114.204
 21
-258
 31
5
  0
LINE
  5
BD2
330
A02
100
AcDbEntity
  8
Fusion008
100
AcDbLine
 10
114.204
 20
-272
 30
3
 11
114.204
 21
-258
 31
3
  0
LINE
  5
BD3
330
A02
100
AcDbEntity
  8
Fusion008
100
AcDbLine
 10
114.204
 20
-272
 30
5
 11
114.204
 21
-258
 31
5
  0
LINE
  5
BD4
330
A02
100
AcDbEntity
  8
Fusion008
100
AcDbLine
 10
57.054
 20
-281.813
 30
3
 11
57.054
 21
-281.813
 31
5
  0
LINE
  5
BD5
330
A02
100
AcDbEntity
  8
Fusion008
100
AcDbLine
 10
71.054
 20
-281.813
 30
3
 11
71.054
 21
-281.813
 31
5
  0
LINE
  5
BD6
330
A02
100
AcDbEntity
  8
Fusion008
100
AcDbLine
 10
57.054
 20
-281.813
 30
3
 11
71.054
 21
-281.813
 31
3
  0
LINE
  5
BD7
330
A02
100
AcDbEntity
  8
Fusion008
100
AcDbLine
 10
57.054
 20
-281.813
 30
5
 11
71.054
 21
-281.813
 31
5
  0
LINE
  5
BD8
330
A02
100
AcDbEntity
  8
Fusion008
100
AcDbLine
 10
71.054
 20
-281.813
 30
3
 11
71.054
 21
-281.813
 31
5
  0
LINE
  5
BD9
330
A02
100
AcDbEntity
  8
Fusion008
100
AcDbLine
 10
71.054
 20
-295.813
 30
3
 11
71.054
 21
-295.813
 31
5
  0
LINE
  5
BDA
330
A02
100
AcDbEntity
  8
Fusion008
100
AcDbLine
 10
71.054
 20
-281.813
 30
3
 11
71.054
 21
-295.813
 31
3
  0
LINE
  5
BDB
330
A02
100
AcDbEntity
  8
Fusion008
100
AcDbLine
 10
71.054
 20
-281.813
 30
5
 11
71.054
 21
-295.813
 31
5
  0
LINE
  5
BDC
330
A02
100
AcDbEntity
  8
Fusion008
100
AcDbLine
 10
71.054
 20
-295.813
 30
3
 11
71.054
 21
-295.813
 31
5
  0
LINE
  5
BDD
330
A02
100
AcDbEntity
  8
Fusion008
100
AcDbLine
 10
57.054
 20
-295.813
 30
3
 11
57.054
 21
-295.813
 31
5
  0
LINE
  5
BDE
330
A02
100
AcDbEntity
  8
Fusion008
100
AcDbLine
 10
71.054
 20
-295.813
 30
3
 11
57.054
 21
-295.813
 31
3
  0
LINE
  5
BDF
330
A02
100
AcDbEntity
  8
Fusion008
100
AcDbLine
 10
71.054
 20
-295.813
 30
5
 11
57.054
 21
-295.813
 31
5
  0
LINE
  5
BE0
330
A02
100
AcDbEntity
  8
Fusion008
100
AcDbLine
 10
57.054
 20
-295.813
 30
3
 11
57.054
 21
-295.813
 31
5
  0
LINE
  5
BE1
330
A02
100
AcDbEntity
  8
Fusion008
100
AcDbLine
 10
57.054
 20
-281.813
 30
3
 11
57.054
 21
-281.813
 31
5
  0
LINE
  5
BE2
330
A02
100
AcDbEntity
  8
Fusion008
100
AcDbLine
 10
57.054
 20
-295.813
 30
3
 11
57.054
 21
-281.813
 31
3
  0
LINE
  5
BE3
330
A02
100
AcDbEntity
  8
Fusion008
100
AcDbLine
 10
57.054
 20
-295.813
 30
5
 11
57.054
 21
-281.813
 31
5
  0
LINE
  5
BE4
330
A02
100
AcDbEntity
  8
Fusion008
100
AcDbLine
 10
76.104
 20
-303.244
 30
3
 11
76.104
 21
-303.244
 31
5
  0
LINE
  5
BE5
330
A02
100
AcDbEntity
  8
Fusion008
100
AcDbLine
 10
90.104
 20
-303.244
 30
3
 11
90.104
 21
-303.244
 31
5
  0
LINE
  5
BE6
330
A02
100
AcDbEntity
  8
Fusion008
100
AcDbLine
 10
76.104
 20
-303.244
 30
3
 11
90.104
 21
-303.244
 31
3
  0
LINE
  5
BE7
330
A02
100
AcDbEntity
  8
Fusion008
100
AcDbLine
 10
76.104
 20
-303.244
 30
5
 11
90.104
 21
-303.244
 31
5
  0
LINE
  5
BE8
330
A02
100
AcDbEntity
  8
Fusion008
100
AcDbLine
 10
90.104
 20
-303.244
 30
3
 11
90.104
 21
-303.244
 31
5
  0
LINE
  5
BE9
330
A02
100
AcDbEntity
  8
Fusion008
100
AcDbLine
 10
90.104
 20
-317.244
 30
3
 11
90.104
 21
-317.244
 31
5
  0
LINE
  5
BEA
330
A02
100
AcDbEntity
  8
Fusion008
100
AcDbLine
 10
90.104
 20
-303.244
 30
3
 11
90.104
 21
-317.244
 31
3
  0
LINE
  5
BEB
330
A02
100
AcDbEntity
  8
Fusion008
100
AcDbLine
 10
90.104
 20
-303.244
 30
5
 11
90.104
 21
-317.244
 31
5
  0
LINE
  5
BEC
330
A02
100
AcDbEntity
  8
Fusion008
100
AcDbLine
 10
90.104
 20
-317.244
 30
3
 11
90.104
 21
-317.244
 31
5
  0
LINE
  5
BED
330
A02
100
AcDbEntity
  8
Fusion008
100
AcDbLine
 10
76.104
 20
-317.244
 30
3
 11
76.104
 21
-317.244
 31
5
  0
LINE
  5
BEE
330
A02
100
AcDbEntity
  8
Fusion008
100
AcDbLine
 10
90.104
 20
-317.244
 30
3
 11
76.104
 21
-317.244
 31
3
  0
LINE
  5
BEF
330
A02
100
AcDbEntity
  8
Fusion008
100
AcDbLine
 10
90.104
 20
-317.244
 30
5
 11
76.104
 21
-317.244
 31
5
  0
LINE
  5
BF0
330
A02
100
AcDbEntity
  8
Fusion008
100
AcDbLine
 10
76.104
 20
-317.244
 30
3
 11
76.104
 21
-317.244
 31
5
  0
LINE
  5
BF1
330
A02
100
AcDbEntity
  8
Fusion008
100
AcDbLine
 10
76.104
 20
-303.244
 30
3
 11
76.104
 21
-303.244
 31
5
  0
LINE
  5
BF2
330
A02
100
AcDbEntity
  8
Fusion008
100
AcDbLine
 10
76.104
 20
-317.244
 30
3
 11
76.104
 21
-303.244
 31
3
  0
LINE
  5
BF3
330
A02
100
AcDbEntity
  8
Fusion008
100
AcDbLine
 10
76.104
 20
-317.244
 30
5
 11
76.104
 21
-303.244
 31
5
  0
LINE
  5
BF4
330
A02
100
AcDbEntity
  8
Fusion008
100
AcDbLine
 10
76.104
 20
-322.294
 30
3
 11
76.104
 21
-322.294
 31
5
  0
LINE
  5
BF5
330
A02
100
AcDbEntity
  8
Fusion008
100
AcDbLine
 10
90.104
 20
-322.294
 30
3
 11
90.104
 21
-322.294
 31
5
  0
LINE
  5
BF6
330
A02
100
AcDbEntity
  8
Fusion008
100
AcDbLine
 10
76.104
 20
-322.294
 30
3
 11
90.104
 21
-322.294
 31
3
  0
LINE
  5
BF7
330
A02
100
AcDbEntity
  8
Fusion008
100
AcDbLine
 10
76.104
 20
-322.294
 30
5
 11
90.104
 21
-322.294
 31
5
  0
LINE
  5
BF8
330
A02
100
AcDbEntity
  8
Fusion008
100
AcDbLine
 10
90.104
 20
-322.294
 30
3
 11
90.104
 21
-322.294
 31
5
  0
LINE
  5
BF9
330
A02
100
AcDbEntity
  8
Fusion008
100
AcDbLine
 10
90.104
 20
-336.294
 30
3
 11
90.104
 21
-336.294
 31
5
  0
LINE
  5
BFA
330
A02
100
AcDbEntity
  8
Fusion008
100
AcDbLine
 10
90.104
 20
-322.294
 30
3
 11
90.104
 21
-336.294
 31
3
  0
LINE
  5
BFB
330
A02
100
AcDbEntity
  8
Fusion008
100
AcDbLine
 10
90.104
 20
-322.294
 30
5
 11
90.104
 21
-336.294
 31
5
  0
LINE
  5
BFC
330
A02
100
AcDbEntity
  8
Fusion008
100
AcDbLine
 10
90.104
 20
-336.294
 30
3
 11
90.104
 21
-336.294
 31
5
  0
LINE
  5
BFD
330
A02
100
AcDbEntity
  8
Fusion008
100
AcDbLine
 10
76.104
 20
-336.294
 30
3
 11
76.104
 21
-336.294
 31
5
  0
LINE
  5
BFE
330
A02
100
AcDbEntity
  8
Fusion008
100
AcDbLine
 10
90.104
 20
-336.294
 30
3
 11
76.104
 21
-336.294
 31
3
  0
LINE
  5
BFF
330
A02
100
AcDbEntity
  8
Fusion008
100
AcDbLine
 10
90.104
 20
-336.294
 30
5
 11
76.104
 21
-336.294
 31
5
  0
LINE
  5
C00
330
A02
100
AcDbEntity
  8
Fusion008
100
AcDbLine
 10
76.104
 20
-336.294
 30
3
 11
76.104
 21
-336.294
 31
5
  0
LINE
  5
C01
330
A02
100
AcDbEntity
  8
Fusion008
100
AcDbLine
 10
76.104
 20
-322.294
 30
3
 11
76.104
 21
-322.294
 31
5
  0
LINE
  5
C02
330
A02
100
AcDbEntity
  8
Fusion008
100
AcDbLine
 10
76.104
 20
-336.294
 30
3
 11
76.104
 21
-322.294
 31
3
  0
LINE
  5
C03
330
A02
100
AcDbEntity
  8
Fusion008
100
AcDbLine
 10
76.104
 20
-336.294
 30
5
 11
76.104
 21
-322.294
 31
5
  0
LINE
  5
C04
330
A02
100
AcDbEntity
  8
Fusion008
100
AcDbLine
 10
76.104
 20
-341.344
 30
3
 11
76.104
 21
-341.344
 31
5
  0
LINE
  5
C05
330
A02
100
AcDbEntity
  8
Fusion008
100
AcDbLine
 10
90.104
 20
-341.344
 30
3
 11
90.104
 21
-341.344
 31
5
  0
LINE
  5
C06
330
A02
100
AcDbEntity
  8
Fusion008
100
AcDbLine
 10
76.104
 20
-341.344
 30
3
 11
90.104
 21
-341.344
 31
3
  0
LINE
  5
C07
330
A02
100
AcDbEntity
  8
Fusion008
100
AcDbLine
 10
76.104
 20
-341.344
 30
5
 11
90.104
 21
-341.344
 31
5
  0
LINE
  5
C08
330
A02
100
AcDbEntity
  8
Fusion008
100
AcDbLine
 10
90.104
 20
-341.344
 30
3
 11
90.104
 21
-341.344
 31
5
  0
LINE
  5
C09
330
A02
100
AcDbEntity
  8
Fusion008
100
AcDbLine
 10
90.104
 20
-355.344
 30
3
 11
90.104
 21
-355.344
 31
5
  0
LINE
  5
C0A
330
A02
100
AcDbEntity
  8
Fusion008
100
AcDbLine
 10
90.104
 20
-341.344
 30
3
 11
90.104
 21
-355.344
 31
3
  0
LINE
  5
C0B
330
A02
100
AcDbEntity
  8
Fusion008
100
AcDbLine
 10
90.104
 20
-341.344
 30
5
 11
90.104
 21
-355.344
 31
5
  0
LINE
  5
C0C
330
A02
100
AcDbEntity
  8
Fusion008
100
AcDbLine
 10
90.104
 20
-355.344
 30
3
 11
90.104
 21
-355.344
 31
5
  0
LINE
  5
C0D
330
A02
100
AcDbEntity
  8
Fusion008
100
AcDbLine
 10
76.104
 20
-355.344
 30
3
 11
76.104
 21
-355.344
 31
5
  0
LINE
  5
C0E
330
A02
100
AcDbEntity
  8
Fusion008
100
AcDbLine
 10
90.104
 20
-355.344
 30
3
 11
76.104
 21
-355.344
 31
3
  0
LINE
  5
C0F
330
A02
100
AcDbEntity
  8
Fusion008
100
AcDbLine
 10
90.104
 20
-355.344
 30
5
 11
76.104
 21
-355.344
 31
5
  0
LINE
  5
C10
330
A02
100
AcDbEntity
  8
Fusion008
100
AcDbLine
 10
76.104
 20
-355.344
 30
3
 11
76.104
 21
-355.344
 31
5
  0
LINE
  5
C11
330
A02
100
AcDbEntity
  8
Fusion008
100
AcDbLine
 10
76.104
 20
-341.344
 30
3
 11
76.104
 21
-341.344
 31
5
  0
LINE
  5
C12
330
A02
100
AcDbEntity
  8
Fusion008
100
AcDbLine
 10
76.104
 20
-355.344
 30
3
 11
76.104
 21
-341.344
 31
3
  0
LINE
  5
C13
330
A02
100
AcDbEntity
  8
Fusion008
100
AcDbLine
 10
76.104
 20
-355.344
 30
5
 11
76.104
 21
-341.344
 31
5
  0
LINE
  5
C14
330
A02
100
AcDbEntity
  8
Fusion008
100
AcDbLine
 10
95.154
 20
-281.813
 30
3
 11
95.154
 21
-281.813
 31
5
  0
LINE
  5
C15
330
A02
100
AcDbEntity
  8
Fusion008
100
AcDbLine
 10
109.154
 20
-281.813
 30
3
 11
109.154
 21
-281.813
 31
5
  0
LINE
  5
C16
330
A02
100
AcDbEntity
  8
Fusion008
100
AcDbLine
 10
95.154
 20
-281.813
 30
3
 11
109.154
 21
-281.813
 31
3
  0
LINE
  5
C17
330
A02
100
AcDbEntity
  8
Fusion008
100
AcDbLine
 10
95.154
 20
-281.813
 30
5
 11
109.154
 21
-281.813
 31
5
  0
LINE
  5
C18
330
A02
100
AcDbEntity
  8
Fusion008
100
AcDbLine
 10
109.154
 20
-281.813
 30
3
 11
109.154
 21
-281.813
 31
5
  0
LINE
  5
C19
330
A02
100
AcDbEntity
  8
Fusion008
100
AcDbLine
 10
109.154
 20
-295.813
 30
3
 11
109.154
 21
-295.813
 31
5
  0
LINE
  5
C1A
330
A02
100
AcDbEntity
  8
Fusion008
100
AcDbLine
 10
109.154
 20
-281.813
 30
3
 11
109.154
 21
-295.813
 31
3
  0
LINE
  5
C1B
330
A02
100
AcDbEntity
  8
Fusion008
100
AcDbLine
 10
109.154
 20
-281.813
 30
5
 11
109.154
 21
-295.813
 31
5
  0
LINE
  5
C1C
330
A02
100
AcDbEntity
  8
Fusion008
100
AcDbLine
 10
109.154
 20
-295.813
 30
3
 11
109.154
 21
-295.813
 31
5
  0
LINE
  5
C1D
330
A02
100
AcDbEntity
  8
Fusion008
100
AcDbLine
 10
95.154
 20
-295.813
 30
3
 11
95.154
 21
-295.813
 31
5
  0
LINE
  5
C1E
330
A02
100
AcDbEntity
  8
Fusion008
100
AcDbLine
 10
109.154
 20
-295.813
 30
3
 11
95.154
 21
-295.813
 31
3
  0
LINE
  5
C1F
330
A02
100
AcDbEntity
  8
Fusion008
100
AcDbLine
 10
109.154
 20
-295.813
 30
5
 11
95.154
 21
-295.813
 31
5
  0
LINE
  5
C20
330
A02
100
AcDbEntity
  8
Fusion008
100
AcDbLine
 10
95.154
 20
-295.813
 30
3
 11
95.154
 21
-295.813
 31
5
  0
LINE
  5
C21
330
A02
100
AcDbEntity
  8
Fusion008
100
AcDbLine
 10
95.154
 20
-281.813
 30
3
 11
95.154
 21
-281.813
 31
5
  0
LINE
  5
C22
330
A02
100
AcDbEntity
  8
Fusion008
100
AcDbLine
 10
95.154
 20
-295.813
 30
3
 11
95.154
 21
-281.813
 31
3
  0
LINE
  5
C23
330
A02
100
AcDbEntity
  8
Fusion008
100
AcDbLine
 10
95.154
 20
-295.813
 30
5
 11
95.154
 21
-281.813
 31
5
  0
LINE
  5
C24
330
A02
100
AcDbEntity
  8
Fusion008
100
AcDbLine
 10
114.204
 20
-296.1
 30
3
 11
114.204
 21
-296.1
 31
5
  0
LINE
  5
C25
330
A02
100
AcDbEntity
  8
Fusion008
100
AcDbLine
 10
128.204
 20
-296.1
 30
3
 11
128.204
 21
-296.1
 31
5
  0
LINE
  5
C26
330
A02
100
AcDbEntity
  8
Fusion008
100
AcDbLine
 10
114.204
 20
-296.1
 30
3
 11
128.204
 21
-296.1
 31
3
  0
LINE
  5
C27
330
A02
100
AcDbEntity
  8
Fusion008
100
AcDbLine
 10
114.204
 20
-296.1
 30
5
 11
128.204
 21
-296.1
 31
5
  0
LINE
  5
C28
330
A02
100
AcDbEntity
  8
Fusion008
100
AcDbLine
 10
128.204
 20
-296.1
 30
3
 11
128.204
 21
-296.1
 31
5
  0
LINE
  5
C29
330
A02
100
AcDbEntity
  8
Fusion008
100
AcDbLine
 10
128.204
 20
-310.1
 30
3
 11
128.204
 21
-310.1
 31
5
  0
LINE
  5
C2A
330
A02
100
AcDbEntity
  8
Fusion008
100
AcDbLine
 10
128.204
 20
-296.1
 30
3
 11
128.204
 21
-310.1
 31
3
  0
LINE
  5
C2B
330
A02
100
AcDbEntity
  8
Fusion008
100
AcDbLine
 10
128.204
 20
-296.1
 30
5
 11
128.204
 21
-310.1
 31
5
  0
LINE
  5
C2C
330
A02
100
AcDbEntity
  8
Fusion008
100
AcDbLine
 10
128.204
 20
-310.1
 30
3
 11
128.204
 21
-310.1
 31
5
  0
LINE
  5
C2D
330
A02
100
AcDbEntity
  8
Fusion008
100
AcDbLine
 10
114.204
 20
-310.1
 30
3
 11
114.204
 21
-310.1
 31
5
  0
LINE
  5
C2E
330
A02
100
AcDbEntity
  8
Fusion008
100
AcDbLine
 10
128.204
 20
-310.1
 30
3
 11
114.204
 21
-310.1
 31
3
  0
LINE
  5
C2F
330
A02
100
AcDbEntity
  8
Fusion008
100
AcDbLine
 10
128.204
 20
-310.1
 30
5
 11
114.204
 21
-310.1
 31
5
  0
LINE
  5
C30
330
A02
100
AcDbEntity
  8
Fusion008
100
AcDbLine
 10
114.204
 20
-310.1
 30
3
 11
114.204
 21
-310.1
 31
5
  0
LINE
  5
C31
330
A02
100
AcDbEntity
  8
Fusion008
100
AcDbLine
 10
114.204
 20
-296.1
 30
3
 11
114.204
 21
-296.1
 31
5
  0
LINE
  5
C32
330
A02
100
AcDbEntity
  8
Fusion008
100
AcDbLine
 10
114.204
 20
-310.1
 30
3
 11
114.204
 21
-296.1
 31
3
  0
LINE
  5
C33
330
A02
100
AcDbEntity
  8
Fusion008
100
AcDbLine
 10
114.204
 20
-310.1
 30
5
 11
114.204
 21
-296.1
 31
5
  0
LINE
  5
C34
330
A02
100
AcDbEntity
  8
Fusion008
100
AcDbLine
 10
114.204
 20
-334.2
 30
3
 11
114.204
 21
-334.2
 31
5
  0
LINE
  5
C35
330
A02
100
AcDbEntity
  8
Fusion008
100
AcDbLine
 10
128.204
 20
-334.2
 30
3
 11
128.204
 21
-334.2
 31
5
  0
LINE
  5
C36
330
A02
100
AcDbEntity
  8
Fusion008
100
AcDbLine
 10
114.204
 20
-334.2
 30
3
 11
128.204
 21
-334.2
 31
3
  0
LINE
  5
C37
330
A02
100
AcDbEntity
  8
Fusion008
100
AcDbLine
 10
114.204
 20
-334.2
 30
5
 11
128.204
 21
-334.2
 31
5
  0
LINE
  5
C38
330
A02
100
AcDbEntity
  8
Fusion008
100
AcDbLine
 10
128.204
 20
-334.2
 30
3
 11
128.204
 21
-334.2
 31
5
  0
LINE
  5
C39
330
A02
100
AcDbEntity
  8
Fusion008
100
AcDbLine
 10
128.204
 20
-348.2
 30
3
 11
128.204
 21
-348.2
 31
5
  0
LINE
  5
C3A
330
A02
100
AcDbEntity
  8
Fusion008
100
AcDbLine
 10
128.204
 20
-334.2
 30
3
 11
128.204
 21
-348.2
 31
3
  0
LINE
  5
C3B
330
A02
100
AcDbEntity
  8
Fusion008
100
AcDbLine
 10
128.204
 20
-334.2
 30
5
 11
128.204
 21
-348.2
 31
5
  0
LINE
  5
C3C
330
A02
100
AcDbEntity
  8
Fusion008
100
AcDbLine
 10
128.204
 20
-348.2
 30
3
 11
128.204
 21
-348.2
 31
5
  0
LINE
  5
C3D
330
A02
100
AcDbEntity
  8
Fusion008
100
AcDbLine
 10
114.204
 20
-348.2
 30
3
 11
114.204
 21
-348.2
 31
5
  0
LINE
  5
C3E
330
A02
100
AcDbEntity
  8
Fusion008
100
AcDbLine
 10
128.204
 20
-348.2
 30
3
 11
114.204
 21
-348.2
 31
3
  0
LINE
  5
C3F
330
A02
100
AcDbEntity
  8
Fusion008
100
AcDbLine
 10
128.204
 20
-348.2
 30
5
 11
114.204
 21
-348.2
 31
5
  0
LINE
  5
C40
330
A02
100
AcDbEntity
  8
Fusion008
100
AcDbLine
 10
114.204
 20
-348.2
 30
3
 11
114.204
 21
-348.2
 31
5
  0
LINE
  5
C41
330
A02
100
AcDbEntity
  8
Fusion008
100
AcDbLine
 10
114.204
 20
-334.2
 30
3
 11
114.204
 21
-334.2
 31
5
  0
LINE
  5
C42
330
A02
100
AcDbEntity
  8
Fusion008
100
AcDbLine
 10
114.204
 20
-348.2
 30
3
 11
114.204
 21
-334.2
 31
3
  0
LINE
  5
C43
330
A02
100
AcDbEntity
  8
Fusion008
100
AcDbLine
 10
114.204
 20
-348.2
 30
5
 11
114.204
 21
-334.2
 31
5
  0
LINE
  5
C44
330
A02
100
AcDbEntity
  8
Fusion008
100
AcDbLine
 10
52.004
 20
-336.581
 30
3
 11
52.004
 21
-336.581
 31
5
  0
LINE
  5
C45
330
A02
100
AcDbEntity
  8
Fusion008
100
AcDbLine
 10
52.004
 20
-350.581
 30
3
 11
52.004
 21
-350.581
 31
5
  0
LINE
  5
C46
330
A02
100
AcDbEntity
  8
Fusion008
100
AcDbLine
 10
52.004
 20
-336.581
 30
3
 11
52.004
 21
-350.581
 31
3
  0
LINE
  5
C47
330
A02
100
AcDbEntity
  8
Fusion008
100
AcDbLine
 10
52.004
 20
-336.581
 30
5
 11
52.004
 21
-350.581
 31
5
  0
LINE
  5
C48
330
A02
100
AcDbEntity
  8
Fusion008
100
AcDbLine
 10
52.004
 20
-350.581
 30
3
 11
52.004
 21
-350.581
 31
5
  0
LINE
  5
C49
330
A02
100
AcDbEntity
  8
Fusion008
100
AcDbLine
 10
38.004
 20
-350.581
 30
3
 11
38.004
 21
-350.581
 31
5
  0
LINE
  5
C4A
330
A02
100
AcDbEntity
  8
Fusion008
100
AcDbLine
 10
52.004
 20
-350.581
 30
3
 11
38.004
 21
-350.581
 31
3
  0
LINE
  5
C4B
330
A02
100
AcDbEntity
  8
Fusion008
100
AcDbLine
 10
52.004
 20
-350.581
 30
5
 11
38.004
 21
-350.581
 31
5
  0
LINE
  5
C4C
330
A02
100
AcDbEntity
  8
Fusion008
100
AcDbLine
 10
38.004
 20
-350.581
 30
3
 11
38.004
 21
-350.581
 31
5
  0
LINE
  5
C4D
330
A02
100
AcDbEntity
  8
Fusion008
100
AcDbLine
 10
38.004
 20
-336.581
 30
3
 11
38.004
 21
-336.581
 31
5
  0
LINE
  5
C4E
330
A02
100
AcDbEntity
  8
Fusion008
100
AcDbLine
 10
38.004
 20
-350.581
 30
3
 11
38.004
 21
-336.581
 31
3
  0
LINE
  5
C4F
330
A02
100
AcDbEntity
  8
Fusion008
100
AcDbLine
 10
38.004
 20
-350.581
 30
5
 11
38.004
 21
-336.581
 31
5
  0
LINE
  5
C50
330
A02
100
AcDbEntity
  8
Fusion008
100
AcDbLine
 10
38.004
 20
-336.581
 30
3
 11
38.004
 21
-336.581
 31
5
  0
LINE
  5
C51
330
A02
100
AcDbEntity
  8
Fusion008
100
AcDbLine
 10
52.004
 20
-336.581
 30
3
 11
52.004
 21
-336.581
 31
5
  0
LINE
  5
C52
330
A02
100
AcDbEntity
  8
Fusion008
100
AcDbLine
 10
38.004
 20
-336.581
 30
3
 11
52.004
 21
-336.581
 31
3
  0
LINE
  5
C53
330
A02
100
AcDbEntity
  8
Fusion008
100
AcDbLine
 10
38.004
 20
-336.581
 30
5
 11
52.004
 21
-336.581
 31
5
  0
LINE
  5
C54
330
A02
100
AcDbEntity
  8
Fusion008
100
AcDbLine
 10
57.054
 20
-352.963
 30
3
 11
57.054
 21
-352.963
 31
5
  0
LINE
  5
C55
330
A02
100
AcDbEntity
  8
Fusion008
100
AcDbLine
 10
57.054
 20
-338.963
 30
3
 11
57.054
 21
-338.963
 31
5
  0
LINE
  5
C56
330
A02
100
AcDbEntity
  8
Fusion008
100
AcDbLine
 10
57.054
 20
-352.963
 30
3
 11
57.054
 21
-338.963
 31
3
  0
LINE
  5
C57
330
A02
100
AcDbEntity
  8
Fusion008
100
AcDbLine
 10
57.054
 20
-352.963
 30
5
 11
57.054
 21
-338.963
 31
5
  0
LINE
  5
C58
330
A02
100
AcDbEntity
  8
Fusion008
100
AcDbLine
 10
57.054
 20
-338.963
 30
3
 11
57.054
 21
-338.963
 31
5
  0
LINE
  5
C59
330
A02
100
AcDbEntity
  8
Fusion008
100
AcDbLine
 10
71.054
 20
-338.963
 30
3
 11
71.054
 21
-338.963
 31
5
  0
LINE
  5
C5A
330
A02
100
AcDbEntity
  8
Fusion008
100
AcDbLine
 10
57.054
 20
-338.963
 30
3
 11
71.054
 21
-338.963
 31
3
  0
LINE
  5
C5B
330
A02
100
AcDbEntity
  8
Fusion008
100
AcDbLine
 10
57.054
 20
-338.963
 30
5
 11
71.054
 21
-338.963
 31
5
  0
LINE
  5
C5C
330
A02
100
AcDbEntity
  8
Fusion008
100
AcDbLine
 10
71.054
 20
-338.963
 30
3
 11
71.054
 21
-338.963
 31
5
  0
LINE
  5
C5D
330
A02
100
AcDbEntity
  8
Fusion008
100
AcDbLine
 10
71.054
 20
-352.963
 30
3
 11
71.054
 21
-352.963
 31
5
  0
LINE
  5
C5E
330
A02
100
AcDbEntity
  8
Fusion008
100
AcDbLine
 10
71.054
 20
-338.963
 30
3
 11
71.054
 21
-352.963
 31
3
  0
LINE
  5
C5F
330
A02
100
AcDbEntity
  8
Fusion008
100
AcDbLine
 10
71.054
 20
-338.963
 30
5
 11
71.054
 21
-352.963
 31
5
  0
LINE
  5
C60
330
A02
100
AcDbEntity
  8
Fusion008
100
AcDbLine
 10
71.054
 20
-352.963
 30
3
 11
71.054
 21
-352.963
 31
5
  0
LINE
  5
C61
330
A02
100
AcDbEntity
  8
Fusion008
100
AcDbLine
 10
57.054
 20
-352.963
 30
3
 11
57.054
 21
-352.963
 31
5
  0
LINE
  5
C62
330
A02
100
AcDbEntity
  8
Fusion008
100
AcDbLine
 10
71.054
 20
-352.963
 30
3
 11
57.054
 21
-352.963
 31
3
  0
LINE
  5
C63
330
A02
100
AcDbEntity
  8
Fusion008
100
AcDbLine
 10
71.054
 20
-352.963
 30
5
 11
57.054
 21
-352.963
 31
5
  0
LINE
  5
C64
330
A02
100
AcDbEntity
  8
Fusion008
100
AcDbLine
 10
57.054
 20
-314.863
 30
3
 11
57.054
 21
-314.863
 31
5
  0
LINE
  5
C65
330
A02
100
AcDbEntity
  8
Fusion008
100
AcDbLine
 10
57.054
 20
-300.863
 30
3
 11
57.054
 21
-300.863
 31
5
  0
LINE
  5
C66
330
A02
100
AcDbEntity
  8
Fusion008
100
AcDbLine
 10
57.054
 20
-314.863
 30
3
 11
57.054
 21
-300.863
 31
3
  0
LINE
  5
C67
330
A02
100
AcDbEntity
  8
Fusion008
100
AcDbLine
 10
57.054
 20
-314.863
 30
5
 11
57.054
 21
-300.863
 31
5
  0
LINE
  5
C68
330
A02
100
AcDbEntity
  8
Fusion008
100
AcDbLine
 10
57.054
 20
-300.863
 30
3
 11
57.054
 21
-300.863
 31
5
  0
LINE
  5
C69
330
A02
100
AcDbEntity
  8
Fusion008
100
AcDbLine
 10
71.054
 20
-300.863
 30
3
 11
71.054
 21
-300.863
 31
5
  0
LINE
  5
C6A
330
A02
100
AcDbEntity
  8
Fusion008
100
AcDbLine
 10
57.054
 20
-300.863
 30
3
 11
71.054
 21
-300.863
 31
3
  0
LINE
  5
C6B
330
A02
100
AcDbEntity
  8
Fusion008
100
AcDbLine
 10
57.054
 20
-300.863
 30
5
 11
71.054
 21
-300.863
 31
5
  0
LINE
  5
C6C
330
A02
100
AcDbEntity
  8
Fusion008
100
AcDbLine
 10
71.054
 20
-300.863
 30
3
 11
71.054
 21
-300.863
 31
5
  0
LINE
  5
C6D
330
A02
100
AcDbEntity
  8
Fusion008
100
AcDbLine
 10
71.054
 20
-314.863
 30
3
 11
71.054
 21
-314.863
 31
5
  0
LINE
  5
C6E
330
A02
100
AcDbEntity
  8
Fusion008
100
AcDbLine
 10
71.054
 20
-300.863
 30
3
 11
71.054
 21
-314.863
 31
3
  0
LINE
  5
C6F
330
A02
100
AcDbEntity
  8
Fusion008
100
AcDbLine
 10
71.054
 20
-300.863
 30
5
 11
71.054
 21
-314.863
 31
5
  0
LINE
  5
C70
330
A02
100
AcDbEntity
  8
Fusion008
100
AcDbLine
 10
71.054
 20
-314.863
 30
3
 11
71.054
 21
-314.863
 31
5
  0
LINE
  5
C71
330
A02
100
AcDbEntity
  8
Fusion008
100
AcDbLine
 10
57.054
 20
-314.863
 30
3
 11
57.054
 21
-314.863
 31
5
  0
LINE
  5
C72
330
A02
100
AcDbEntity
  8
Fusion008
100
AcDbLine
 10
71.054
 20
-314.863
 30
3
 11
57.054
 21
-314.863
 31
3
  0
LINE
  5
C73
330
A02
100
AcDbEntity
  8
Fusion008
100
AcDbLine
 10
71.054
 20
-314.863
 30
5
 11
57.054
 21
-314.863
 31
5
  0
LINE
  5
C74
330
A02
100
AcDbEntity
  8
Fusion008
100
AcDbLine
 10
133.254
 20
-334.2
 30
3
 11
133.254
 21
-334.2
 31
5
  0
LINE
  5
C75
330
A02
100
AcDbEntity
  8
Fusion008
100
AcDbLine
 10
133.254
 20
-348.2
 30
3
 11
133.254
 21
-348.2
 31
5
  0
LINE
  5
C76
330
A02
100
AcDbEntity
  8
Fusion008
100
AcDbLine
 10
133.254
 20
-334.2
 30
3
 11
133.254
 21
-348.2
 31
3
  0
LINE
  5
C77
330
A02
100
AcDbEntity
  8
Fusion008
100
AcDbLine
 10
133.254
 20
-334.2
 30
5
 11
133.254
 21
-348.2
 31
5
  0
LINE
  5
C78
330
A02
100
AcDbEntity
  8
Fusion008
100
AcDbLine
 10
133.254
 20
-348.2
 30
3
 11
133.254
 21
-348.2
 31
5
  0
LINE
  5
C79
330
A02
100
AcDbEntity
  8
Fusion008
100
AcDbLine
 10
147.254
 20
-348.2
 30
3
 11
147.254
 21
-348.2
 31
5
  0
LINE
  5
C7A
330
A02
100
AcDbEntity
  8
Fusion008
100
AcDbLine
 10
133.254
 20
-348.2
 30
3
 11
147.254
 21
-348.2
 31
3
  0
LINE
  5
C7B
330
A02
100
AcDbEntity
  8
Fusion008
100
AcDbLine
 10
133.254
 20
-348.2
 30
5
 11
147.254
 21
-348.2
 31
5
  0
LINE
  5
C7C
330
A02
100
AcDbEntity
  8
Fusion008
100
AcDbLine
 10
147.254
 20
-348.2
 30
3
 11
147.254
 21
-348.2
 31
5
  0
LINE
  5
C7D
330
A02
100
AcDbEntity
  8
Fusion008
100
AcDbLine
 10
147.254
 20
-334.2
 30
3
 11
147.254
 21
-334.2
 31
5
  0
LINE
  5
C7E
330
A02
100
AcDbEntity
  8
Fusion008
100
AcDbLine
 10
147.254
 20
-348.2
 30
3
 11
147.254
 21
-334.2
 31
3
  0
LINE
  5
C7F
330
A02
100
AcDbEntity
  8
Fusion008
100
AcDbLine
 10
147.254
 20
-348.2
 30
5
 11
147.254
 21
-334.2
 31
5
  0
LINE
  5
C80
330
A02
100
AcDbEntity
  8
Fusion008
100
AcDbLine
 10
147.254
 20
-334.2
 30
3
 11
147.254
 21
-334.2
 31
5
  0
LINE
  5
C81
330
A02
100
AcDbEntity
  8
Fusion008
100
AcDbLine
 10
133.254
 20
-334.2
 30
3
 11
133.254
 21
-334.2
 31
5
  0
LINE
  5
C82
330
A02
100
AcDbEntity
  8
Fusion008
100
AcDbLine
 10
147.254
 20
-334.2
 30
3
 11
133.254
 21
-334.2
 31
3
  0
LINE
  5
C83
330
A02
100
AcDbEntity
  8
Fusion008
100
AcDbLine
 10
147.254
 20
-334.2
 30
5
 11
133.254
 21
-334.2
 31
5
  0
LINE
  5
C84
330
A02
100
AcDbEntity
  8
Fusion008
100
AcDbLine
 10
38.004
 20
-279.431
 30
3
 11
38.004
 21
-279.431
 31
5
  0
LINE
  5
C85
330
A02
100
AcDbEntity
  8
Fusion008
100
AcDbLine
 10
38.004
 20
-293.431
 30
3
 11
38.004
 21
-293.431
 31
5
  0
LINE
  5
C86
330
A02
100
AcDbEntity
  8
Fusion008
100
AcDbLine
 10
38.004
 20
-279.431
 30
3
 11
38.004
 21
-293.431
 31
3
  0
LINE
  5
C87
330
A02
100
AcDbEntity
  8
Fusion008
100
AcDbLine
 10
38.004
 20
-279.431
 30
5
 11
38.004
 21
-293.431
 31
5
  0
LINE
  5
C88
330
A02
100
AcDbEntity
  8
Fusion008
100
AcDbLine
 10
38.004
 20
-293.431
 30
3
 11
38.004
 21
-293.431
 31
5
  0
LINE
  5
C89
330
A02
100
AcDbEntity
  8
Fusion008
100
AcDbLine
 10
52.004
 20
-293.431
 30
3
 11
52.004
 21
-293.431
 31
5
  0
LINE
  5
C8A
330
A02
100
AcDbEntity
  8
Fusion008
100
AcDbLine
 10
38.004
 20
-293.431
 30
3
 11
52.004
 21
-293.431
 31
3
  0
LINE
  5
C8B
330
A02
100
AcDbEntity
  8
Fusion008
100
AcDbLine
 10
38.004
 20
-293.431
 30
5
 11
52.004
 21
-293.431
 31
5
  0
LINE
  5
C8C
330
A02
100
AcDbEntity
  8
Fusion008
100
AcDbLine
 10
52.004
 20
-293.431
 30
3
 11
52.004
 21
-293.431
 31
5
  0
LINE
  5
C8D
330
A02
100
AcDbEntity
  8
Fusion008
100
AcDbLine
 10
52.004
 20
-279.431
 30
3
 11
52.004
 21
-279.431
 31
5
  0
LINE
  5
C8E
330
A02
100
AcDbEntity
  8
Fusion008
100
AcDbLine
 10
52.004
 20
-293.431
 30
3
 11
52.004
 21
-279.431
 31
3
  0
LINE
  5
C8F
330
A02
100
AcDbEntity
  8
Fusion008
100
AcDbLine
 10
52.004
 20
-293.431
 30
5
 11
52.004
 21
-279.431
 31
5
  0
LINE
  5
C90
330
A02
100
AcDbEntity
  8
Fusion008
100
AcDbLine
 10
52.004
 20
-279.431
 30
3
 11
52.004
 21
-279.431
 31
5
  0
LINE
  5
C91
330
A02
100
AcDbEntity
  8
Fusion008
100
AcDbLine
 10
38.004
 20
-279.431
 30
3
 11
38.004
 21
-279.431
 31
5
  0
LINE
  5
C92
330
A02
100
AcDbEntity
  8
Fusion008
100
AcDbLine
 10
52.004
 20
-279.431
 30
3
 11
38.004
 21
-279.431
 31
3
  0
LINE
  5
C93
330
A02
100
AcDbEntity
  8
Fusion008
100
AcDbLine
 10
52.004
 20
-279.431
 30
5
 11
38.004
 21
-279.431
 31
5
  0
LINE
  5
C94
330
A02
100
AcDbEntity
  8
Fusion008
100
AcDbLine
 10
133.254
 20
-277.05
 30
3
 11
133.254
 21
-277.05
 31
5
  0
LINE
  5
C95
330
A02
100
AcDbEntity
  8
Fusion008
100
AcDbLine
 10
133.254
 20
-291.05
 30
3
 11
133.254
 21
-291.05
 31
5
  0
LINE
  5
C96
330
A02
100
AcDbEntity
  8
Fusion008
100
AcDbLine
 10
133.254
 20
-277.05
 30
3
 11
133.254
 21
-291.05
 31
3
  0
LINE
  5
C97
330
A02
100
AcDbEntity
  8
Fusion008
100
AcDbLine
 10
133.254
 20
-277.05
 30
5
 11
133.254
 21
-291.05
 31
5
  0
LINE
  5
C98
330
A02
100
AcDbEntity
  8
Fusion008
100
AcDbLine
 10
133.254
 20
-291.05
 30
3
 11
133.254
 21
-291.05
 31
5
  0
LINE
  5
C99
330
A02
100
AcDbEntity
  8
Fusion008
100
AcDbLine
 10
147.254
 20
-291.05
 30
3
 11
147.254
 21
-291.05
 31
5
  0
LINE
  5
C9A
330
A02
100
AcDbEntity
  8
Fusion008
100
AcDbLine
 10
133.254
 20
-291.05
 30
3
 11
147.254
 21
-291.05
 31
3
  0
LINE
  5
C9B
330
A02
100
AcDbEntity
  8
Fusion008
100
AcDbLine
 10
133.254
 20
-291.05
 30
5
 11
147.254
 21
-291.05
 31
5
  0
LINE
  5
C9C
330
A02
100
AcDbEntity
  8
Fusion008
100
AcDbLine
 10
147.254
 20
-291.05
 30
3
 11
147.254
 21
-291.05
 31
5
  0
LINE
  5
C9D
330
A02
100
AcDbEntity
  8
Fusion008
100
AcDbLine
 10
147.254
 20
-277.05
 30
3
 11
147.254
 21
-277.05
 31
5
  0
LINE
  5
C9E
330
A02
100
AcDbEntity
  8
Fusion008
100
AcDbLine
 10
147.254
 20
-291.05
 30
3
 11
147.254
 21
-277.05
 31
3
  0
LINE
  5
C9F
330
A02
100
AcDbEntity
  8
Fusion008
100
AcDbLine
 10
147.254
 20
-291.05
 30
5
 11
147.254
 21
-277.05
 31
5
  0
LINE
  5
CA0
330
A02
100
AcDbEntity
  8
Fusion008
100
AcDbLine
 10
147.254
 20
-277.05
 30
3
 11
147.254
 21
-277.05
 31
5
  0
LINE
  5
CA1
330
A02
100
AcDbEntity
  8
Fusion008
100
AcDbLine
 10
133.254
 20
-277.05
 30
3
 11
133.254
 21
-277.05
 31
5
  0
LINE
  5
CA2
330
A02
100
AcDbEntity
  8
Fusion008
100
AcDbLine
 10
147.254
 20
-277.05
 30
3
 11
133.254
 21
-277.05
 31
3
  0
LINE
  5
CA3
330
A02
100
AcDbEntity
  8
Fusion008
100
AcDbLine
 10
147.254
 20
-277.05
 30
5
 11
133.254
 21
-277.05
 31
5
  0
LINE
  5
CA4
330
A02
100
AcDbEntity
  8
Fusion008
100
AcDbLine
 10
114.204
 20
-277.05
 30
3
 11
114.204
 21
-277.05
 31
5
  0
LINE
  5
CA5
330
A02
100
AcDbEntity
  8
Fusion008
100
AcDbLine
 10
128.204
 20
-277.05
 30
3
 11
128.204
 21
-277.05
 31
5
  0
LINE
  5
CA6
330
A02
100
AcDbEntity
  8
Fusion008
100
AcDbLine
 10
114.204
 20
-277.05
 30
3
 11
128.204
 21
-277.05
 31
3
  0
LINE
  5
CA7
330
A02
100
AcDbEntity
  8
Fusion008
100
AcDbLine
 10
114.204
 20
-277.05
 30
5
 11
128.204
 21
-277.05
 31
5
  0
LINE
  5
CA8
330
A02
100
AcDbEntity
  8
Fusion008
100
AcDbLine
 10
128.204
 20
-277.05
 30
3
 11
128.204
 21
-277.05
 31
5
  0
LINE
  5
CA9
330
A02
100
AcDbEntity
  8
Fusion008
100
AcDbLine
 10
128.204
 20
-291.05
 30
3
 11
128.204
 21
-291.05
 31
5
  0
LINE
  5
CAA
330
A02
100
AcDbEntity
  8
Fusion008
100
AcDbLine
 10
128.204
 20
-277.05
 30
3
 11
128.204
 21
-291.05
 31
3
  0
LINE
  5
CAB
330
A02
100
AcDbEntity
  8
Fusion008
100
AcDbLine
 10
128.204
 20
-277.05
 30
5
 11
128.204
 21
-291.05
 31
5
  0
LINE
  5
CAC
330
A02
100
AcDbEntity
  8
Fusion008
100
AcDbLine
 10
128.204
 20
-291.05
 30
3
 11
128.204
 21
-291.05
 31
5
  0
LINE
  5
CAD
330
A02
100
AcDbEntity
  8
Fusion008
100
AcDbLine
 10
114.204
 20
-291.05
 30
3
 11
114.204
 21
-291.05
 31
5
  0
LINE
  5
CAE
330
A02
100
AcDbEntity
  8
Fusion008
100
AcDbLine
 10
128.204
 20
-291.05
 30
3
 11
114.204
 21
-291.05
 31
3
  0
LINE
  5
CAF
330
A02
100
AcDbEntity
  8
Fusion008
100
AcDbLine
 10
128.204
 20
-291.05
 30
5
 11
114.204
 21
-291.05
 31
5
  0
LINE
  5
CB0
330
A02
100
AcDbEntity
  8
Fusion008
100
AcDbLine
 10
114.204
 20
-291.05
 30
3
 11
114.204
 21
-291.05
 31
5
  0
LINE
  5
CB1
330
A02
100
AcDbEntity
  8
Fusion008
100
AcDbLine
 10
114.204
 20
-277.05
 30
3
 11
114.204
 21
-277.05
 31
5
  0
LINE
  5
CB2
330
A02
100
AcDbEntity
  8
Fusion008
100
AcDbLine
 10
114.204
 20
-291.05
 30
3
 11
114.204
 21
-277.05
 31
3
  0
LINE
  5
CB3
330
A02
100
AcDbEntity
  8
Fusion008
100
AcDbLine
 10
114.204
 20
-291.05
 30
5
 11
114.204
 21
-277.05
 31
5
  0
LINE
  5
CB4
330
A02
100
AcDbEntity
  8
Fusion008
100
AcDbLine
 10
95.154
 20
-319.913
 30
3
 11
95.154
 21
-319.913
 31
5
  0
LINE
  5
CB5
330
A02
100
AcDbEntity
  8
Fusion008
100
AcDbLine
 10
95.154
 20
-333.913
 30
3
 11
95.154
 21
-333.913
 31
5
  0
LINE
  5
CB6
330
A02
100
AcDbEntity
  8
Fusion008
100
AcDbLine
 10
95.154
 20
-319.913
 30
3
 11
95.154
 21
-333.913
 31
3
  0
LINE
  5
CB7
330
A02
100
AcDbEntity
  8
Fusion008
100
AcDbLine
 10
95.154
 20
-319.913
 30
5
 11
95.154
 21
-333.913
 31
5
  0
LINE
  5
CB8
330
A02
100
AcDbEntity
  8
Fusion008
100
AcDbLine
 10
95.154
 20
-333.913
 30
3
 11
95.154
 21
-333.913
 31
5
  0
LINE
  5
CB9
330
A02
100
AcDbEntity
  8
Fusion008
100
AcDbLine
 10
109.154
 20
-333.913
 30
3
 11
109.154
 21
-333.913
 31
5
  0
LINE
  5
CBA
330
A02
100
AcDbEntity
  8
Fusion008
100
AcDbLine
 10
95.154
 20
-333.913
 30
3
 11
109.154
 21
-333.913
 31
3
  0
LINE
  5
CBB
330
A02
100
AcDbEntity
  8
Fusion008
100
AcDbLine
 10
95.154
 20
-333.913
 30
5
 11
109.154
 21
-333.913
 31
5
  0
LINE
  5
CBC
330
A02
100
AcDbEntity
  8
Fusion008
100
AcDbLine
 10
109.154
 20
-333.913
 30
3
 11
109.154
 21
-333.913
 31
5
  0
LINE
  5
CBD
330
A02
100
AcDbEntity
  8
Fusion008
100
AcDbLine
 10
109.154
 20
-319.913
 30
3
 11
109.154
 21
-319.913
 31
5
  0
LINE
  5
CBE
330
A02
100
AcDbEntity
  8
Fusion008
100
AcDbLine
 10
109.154
 20
-333.913
 30
3
 11
109.154
 21
-319.913
 31
3
  0
LINE
  5
CBF
330
A02
100
AcDbEntity
  8
Fusion008
100
AcDbLine
 10
109.154
 20
-333.913
 30
5
 11
109.154
 21
-319.913
 31
5
  0
LINE
  5
CC0
330
A02
100
AcDbEntity
  8
Fusion008
100
AcDbLine
 10
109.154
 20
-319.913
 30
3
 11
109.154
 21
-319.913
 31
5
  0
LINE
  5
CC1
330
A02
100
AcDbEntity
  8
Fusion008
100
AcDbLine
 10
95.154
 20
-319.913
 30
3
 11
95.154
 21
-319.913
 31
5
  0
LINE
  5
CC2
330
A02
100
AcDbEntity
  8
Fusion008
100
AcDbLine
 10
109.154
 20
-319.913
 30
3
 11
95.154
 21
-319.913
 31
3
  0
LINE
  5
CC3
330
A02
100
AcDbEntity
  8
Fusion008
100
AcDbLine
 10
109.154
 20
-319.913
 30
5
 11
95.154
 21
-319.913
 31
5
  0
LINE
  5
CC4
330
A02
100
AcDbEntity
  8
Fusion008
100
AcDbLine
 10
18.954
 20
-308.006
 30
3
 11
18.954
 21
-308.006
 31
5
  0
LINE
  5
CC5
330
A02
100
AcDbEntity
  8
Fusion008
100
AcDbLine
 10
32.954
 20
-308.006
 30
3
 11
32.954
 21
-308.006
 31
5
  0
LINE
  5
CC6
330
A02
100
AcDbEntity
  8
Fusion008
100
AcDbLine
 10
18.954
 20
-308.006
 30
3
 11
32.954
 21
-308.006
 31
3
  0
LINE
  5
CC7
330
A02
100
AcDbEntity
  8
Fusion008
100
AcDbLine
 10
18.954
 20
-308.006
 30
5
 11
32.954
 21
-308.006
 31
5
  0
LINE
  5
CC8
330
A02
100
AcDbEntity
  8
Fusion008
100
AcDbLine
 10
32.954
 20
-308.006
 30
3
 11
32.954
 21
-308.006
 31
5
  0
LINE
  5
CC9
330
A02
100
AcDbEntity
  8
Fusion008
100
AcDbLine
 10
32.954
 20
-322.006
 30
3
 11
32.954
 21
-322.006
 31
5
  0
LINE
  5
CCA
330
A02
100
AcDbEntity
  8
Fusion008
100
AcDbLine
 10
32.954
 20
-308.006
 30
3
 11
32.954
 21
-322.006
 31
3
  0
LINE
  5
CCB
330
A02
100
AcDbEntity
  8
Fusion008
100
AcDbLine
 10
32.954
 20
-308.006
 30
5
 11
32.954
 21
-322.006
 31
5
  0
LINE
  5
CCC
330
A02
100
AcDbEntity
  8
Fusion008
100
AcDbLine
 10
32.954
 20
-322.006
 30
3
 11
32.954
 21
-322.006
 31
5
  0
LINE
  5
CCD
330
A02
100
AcDbEntity
  8
Fusion008
100
AcDbLine
 10
18.954
 20
-322.006
 30
3
 11
18.954
 21
-322.006
 31
5
  0
LINE
  5
CCE
330
A02
100
AcDbEntity
  8
Fusion008
100
AcDbLine
 10
32.954
 20
-322.006
 30
3
 11
18.954
 21
-322.006
 31
3
  0
LINE
  5
CCF
330
A02
100
AcDbEntity
  8
Fusion008
100
AcDbLine
 10
32.954
 20
-322.006
 30
5
 11
18.954
 21
-322.006
 31
5
  0
LINE
  5
CD0
330
A02
100
AcDbEntity
  8
Fusion008
100
AcDbLine
 10
18.954
 20
-322.006
 30
3
 11
18.954
 21
-322.006
 31
5
  0
LINE
  5
CD1
330
A02
100
AcDbEntity
  8
Fusion008
100
AcDbLine
 10
18.954
 20
-308.006
 30
3
 11
18.954
 21
-308.006
 31
5
  0
LINE
  5
CD2
330
A02
100
AcDbEntity
  8
Fusion008
100
AcDbLine
 10
18.954
 20
-322.006
 30
3
 11
18.954
 21
-308.006
 31
3
  0
LINE
  5
CD3
330
A02
100
AcDbEntity
  8
Fusion008
100
AcDbLine
 10
18.954
 20
-322.006
 30
5
 11
18.954
 21
-308.006
 31
5
  0
LINE
  5
CD4
330
A02
100
AcDbEntity
  8
Fusion008
100
AcDbLine
 10
57.054
 20
-319.913
 30
3
 11
57.054
 21
-319.913
 31
5
  0
LINE
  5
CD5
330
A02
100
AcDbEntity
  8
Fusion008
100
AcDbLine
 10
71.054
 20
-319.913
 30
3
 11
71.054
 21
-319.913
 31
5
  0
LINE
  5
CD6
330
A02
100
AcDbEntity
  8
Fusion008
100
AcDbLine
 10
57.054
 20
-319.913
 30
3
 11
71.054
 21
-319.913
 31
3
  0
LINE
  5
CD7
330
A02
100
AcDbEntity
  8
Fusion008
100
AcDbLine
 10
57.054
 20
-319.913
 30
5
 11
71.054
 21
-319.913
 31
5
  0
LINE
  5
CD8
330
A02
100
AcDbEntity
  8
Fusion008
100
AcDbLine
 10
71.054
 20
-319.913
 30
3
 11
71.054
 21
-319.913
 31
5
  0
LINE
  5
CD9
330
A02
100
AcDbEntity
  8
Fusion008
100
AcDbLine
 10
71.054
 20
-333.913
 30
3
 11
71.054
 21
-333.913
 31
5
  0
LINE
  5
CDA
330
A02
100
AcDbEntity
  8
Fusion008
100
AcDbLine
 10
71.054
 20
-319.913
 30
3
 11
71.054
 21
-333.913
 31
3
  0
LINE
  5
CDB
330
A02
100
AcDbEntity
  8
Fusion008
100
AcDbLine
 10
71.054
 20
-319.913
 30
5
 11
71.054
 21
-333.913
 31
5
  0
LINE
  5
CDC
330
A02
100
AcDbEntity
  8
Fusion008
100
AcDbLine
 10
71.054
 20
-333.913
 30
3
 11
71.054
 21
-333.913
 31
5
  0
LINE
  5
CDD
330
A02
100
AcDbEntity
  8
Fusion008
100
AcDbLine
 10
57.054
 20
-333.913
 30
3
 11
57.054
 21
-333.913
 31
5
  0
LINE
  5
CDE
330
A02
100
AcDbEntity
  8
Fusion008
100
AcDbLine
 10
71.054
 20
-333.913
 30
3
 11
57.054
 21
-333.913
 31
3
  0
LINE
  5
CDF
330
A02
100
AcDbEntity
  8
Fusion008
100
AcDbLine
 10
71.054
 20
-333.913
 30
5
 11
57.054
 21
-333.913
 31
5
  0
LINE
  5
CE0
330
A02
100
AcDbEntity
  8
Fusion008
100
AcDbLine
 10
57.054
 20
-333.913
 30
3
 11
57.054
 21
-333.913
 31
5
  0
LINE
  5
CE1
330
A02
100
AcDbEntity
  8
Fusion008
100
AcDbLine
 10
57.054
 20
-319.913
 30
3
 11
57.054
 21
-319.913
 31
5
  0
LINE
  5
CE2
330
A02
100
AcDbEntity
  8
Fusion008
100
AcDbLine
 10
57.054
 20
-333.913
 30
3
 11
57.054
 21
-319.913
 31
3
  0
LINE
  5
CE3
330
A02
100
AcDbEntity
  8
Fusion008
100
AcDbLine
 10
57.054
 20
-333.913
 30
5
 11
57.054
 21
-319.913
 31
5
  0
LINE
  5
CE4
330
A02
100
AcDbEntity
  8
Fusion008
100
AcDbLine
 10
18.954
 20
-288.956
 30
3
 11
18.954
 21
-288.956
 31
5
  0
LINE
  5
CE5
330
A02
100
AcDbEntity
  8
Fusion008
100
AcDbLine
 10
32.954
 20
-288.956
 30
3
 11
32.954
 21
-288.956
 31
5
  0
LINE
  5
CE6
330
A02
100
AcDbEntity
  8
Fusion008
100
AcDbLine
 10
18.954
 20
-288.956
 30
3
 11
32.954
 21
-288.956
 31
3
  0
LINE
  5
CE7
330
A02
100
AcDbEntity
  8
Fusion008
100
AcDbLine
 10
18.954
 20
-288.956
 30
5
 11
32.954
 21
-288.956
 31
5
  0
LINE
  5
CE8
330
A02
100
AcDbEntity
  8
Fusion008
100
AcDbLine
 10
32.954
 20
-288.956
 30
3
 11
32.954
 21
-288.956
 31
5
  0
LINE
  5
CE9
330
A02
100
AcDbEntity
  8
Fusion008
100
AcDbLine
 10
32.954
 20
-302.956
 30
3
 11
32.954
 21
-302.956
 31
5
  0
LINE
  5
CEA
330
A02
100
AcDbEntity
  8
Fusion008
100
AcDbLine
 10
32.954
 20
-288.956
 30
3
 11
32.954
 21
-302.956
 31
3
  0
LINE
  5
CEB
330
A02
100
AcDbEntity
  8
Fusion008
100
AcDbLine
 10
32.954
 20
-288.956
 30
5
 11
32.954
 21
-302.956
 31
5
  0
LINE
  5
CEC
330
A02
100
AcDbEntity
  8
Fusion008
100
AcDbLine
 10
32.954
 20
-302.956
 30
3
 11
32.954
 21
-302.956
 31
5
  0
LINE
  5
CED
330
A02
100
AcDbEntity
  8
Fusion008
100
AcDbLine
 10
18.954
 20
-302.956
 30
3
 11
18.954
 21
-302.956
 31
5
  0
LINE
  5
CEE
330
A02
100
AcDbEntity
  8
Fusion008
100
AcDbLine
 10
32.954
 20
-302.956
 30
3
 11
18.954
 21
-302.956
 31
3
  0
LINE
  5
CEF
330
A02
100
AcDbEntity
  8
Fusion008
100
AcDbLine
 10
32.954
 20
-302.956
 30
5
 11
18.954
 21
-302.956
 31
5
  0
LINE
  5
CF0
330
A02
100
AcDbEntity
  8
Fusion008
100
AcDbLine
 10
18.954
 20
-302.956
 30
3
 11
18.954
 21
-302.956
 31
5
  0
LINE
  5
CF1
330
A02
100
AcDbEntity
  8
Fusion008
100
AcDbLine
 10
18.954
 20
-288.956
 30
3
 11
18.954
 21
-288.956
 31
5
  0
LINE
  5
CF2
330
A02
100
AcDbEntity
  8
Fusion008
100
AcDbLine
 10
18.954
 20
-302.956
 30
3
 11
18.954
 21
-288.956
 31
3
  0
LINE
  5
CF3
330
A02
100
AcDbEntity
  8
Fusion008
100
AcDbLine
 10
18.954
 20
-302.956
 30
5
 11
18.954
 21
-288.956
 31
5
  0
LINE
  5
CF4
330
A02
100
AcDbEntity
  8
Fusion008
100
AcDbLine
 10
32.954
 20
-341.056
 30
3
 11
32.954
 21
-341.056
 31
5
  0
LINE
  5
CF5
330
A02
100
AcDbEntity
  8
Fusion008
100
AcDbLine
 10
18.954
 20
-341.056
 30
3
 11
18.954
 21
-341.056
 31
5
  0
LINE
  5
CF6
330
A02
100
AcDbEntity
  8
Fusion008
100
AcDbLine
 10
32.954
 20
-341.056
 30
3
 11
18.954
 21
-341.056
 31
3
  0
LINE
  5
CF7
330
A02
100
AcDbEntity
  8
Fusion008
100
AcDbLine
 10
32.954
 20
-341.056
 30
5
 11
18.954
 21
-341.056
 31
5
  0
LINE
  5
CF8
330
A02
100
AcDbEntity
  8
Fusion008
100
AcDbLine
 10
18.954
 20
-341.056
 30
3
 11
18.954
 21
-341.056
 31
5
  0
LINE
  5
CF9
330
A02
100
AcDbEntity
  8
Fusion008
100
AcDbLine
 10
18.954
 20
-327.056
 30
3
 11
18.954
 21
-327.056
 31
5
  0
LINE
  5
CFA
330
A02
100
AcDbEntity
  8
Fusion008
100
AcDbLine
 10
18.954
 20
-341.056
 30
3
 11
18.954
 21
-327.056
 31
3
  0
LINE
  5
CFB
330
A02
100
AcDbEntity
  8
Fusion008
100
AcDbLine
 10
18.954
 20
-341.056
 30
5
 11
18.954
 21
-327.056
 31
5
  0
LINE
  5
CFC
330
A02
100
AcDbEntity
  8
Fusion008
100
AcDbLine
 10
18.954
 20
-327.056
 30
3
 11
18.954
 21
-327.056
 31
5
  0
LINE
  5
CFD
330
A02
100
AcDbEntity
  8
Fusion008
100
AcDbLine
 10
32.954
 20
-327.056
 30
3
 11
32.954
 21
-327.056
 31
5
  0
LINE
  5
CFE
330
A02
100
AcDbEntity
  8
Fusion008
100
AcDbLine
 10
18.954
 20
-327.056
 30
3
 11
32.954
 21
-327.056
 31
3
  0
LINE
  5
CFF
330
A02
100
AcDbEntity
  8
Fusion008
100
AcDbLine
 10
18.954
 20
-327.056
 30
5
 11
32.954
 21
-327.056
 31
5
  0
LINE
  5
D00
330
A02
100
AcDbEntity
  8
Fusion008
100
AcDbLine
 10
32.954
 20
-327.056
 30
3
 11
32.954
 21
-327.056
 31
5
  0
LINE
  5
D01
330
A02
100
AcDbEntity
  8
Fusion008
100
AcDbLine
 10
32.954
 20
-341.056
 30
3
 11
32.954
 21
-341.056
 31
5
  0
LINE
  5
D02
330
A02
100
AcDbEntity
  8
Fusion008
100
AcDbLine
 10
32.954
 20
-327.056
 30
3
 11
32.954
 21
-341.056
 31
3
  0
LINE
  5
D03
330
A02
100
AcDbEntity
  8
Fusion008
100
AcDbLine
 10
32.954
 20
-327.056
 30
5
 11
32.954
 21
-341.056
 31
5
  0
LINE
  5
D04
330
A02
100
AcDbEntity
  8
Fusion008
100
AcDbLine
 10
129.229
 20
-274.208
 30
3
 11
129.229
 21
-274.208
 31
5
  0
LINE
  5
D05
330
A02
100
AcDbEntity
  8
Fusion008
100
AcDbLine
 10
129.229
 20
-274.208
 30
3
 11
129.229
 21
-274.208
 31
5
  0
CIRCLE
  5
D06
330
A02
100
AcDbEntity
  8
Fusion008
100
AcDbCircle
 10
130.729
 20
-274.208
 40
1.5
  0
CIRCLE
  5
D07
330
A02
100
AcDbEntity
  8
Fusion008
100
AcDbCircle
 10
130.729
 20
-274.208
 40
1.5
  0
LINE
  5
D08
330
A02
100
AcDbEntity
  8
Fusion008
100
AcDbLine
 10
90.621
 20
-281.828
 30
3
 11
90.621
 21
-281.828
 31
5
  0
LINE
  5
D09
330
A02
100
AcDbEntity
  8
Fusion008
100
AcDbLine
 10
90.621
 20
-281.828
 30
3
 11
90.621
 21
-281.828
 31
5
  0
CIRCLE
  5
D0A
330
A02
100
AcDbEntity
  8
Fusion008
100
AcDbCircle
 10
92.121
 20
-281.828
 40
1.5
  0
CIRCLE
  5
D0B
330
A02
100
AcDbEntity
  8
Fusion008
100
AcDbCircle
 10
92.121
 20
-281.828
 40
1.5
  0
LINE
  5
D0C
330
A02
100
AcDbEntity
  8
Fusion008
100
AcDbLine
 10
39.948
 20
-274.462
 30
3
 11
39.948
 21
-274.462
 31
5
  0
LINE
  5
D0D
330
A02
100
AcDbEntity
  8
Fusion008
100
AcDbLine
 10
39.948
 20
-274.462
 30
3
 11
39.948
 21
-274.462
 31
5
  0
CIRCLE
  5
D0E
330
A02
100
AcDbEntity
  8
Fusion008
100
AcDbCircle
 10
41.448
 20
-274.462
 40
1.5
  0
CIRCLE
  5
D0F
330
A02
100
AcDbEntity
  8
Fusion008
100
AcDbCircle
 10
41.448
 20
-274.462
 40
1.5
  0
LINE
  5
D10
330
A02
100
AcDbEntity
  8
Fusion008
100
AcDbLine
 10
91.129
 20
-317.388
 30
3
 11
91.129
 21
-317.388
 31
5
  0
LINE
  5
D11
330
A02
100
AcDbEntity
  8
Fusion008
100
AcDbLine
 10
91.129
 20
-317.388
 30
3
 11
91.129
 21
-317.388
 31
5
  0
CIRCLE
  5
D12
330
A02
100
AcDbEntity
  8
Fusion008
100
AcDbCircle
 10
92.629
 20
-317.388
 40
1.5
  0
CIRCLE
  5
D13
330
A02
100
AcDbEntity
  8
Fusion008
100
AcDbCircle
 10
92.629
 20
-317.388
 40
1.5
  0
LINE
  5
D14
330
A02
100
AcDbEntity
  8
Fusion008
100
AcDbLine
 10
97.352
 20
-356.504
 30
3
 11
97.352
 21
-356.504
 31
5
  0
LINE
  5
D15
330
A02
100
AcDbEntity
  8
Fusion008
100
AcDbLine
 10
97.352
 20
-356.504
 30
3
 11
97.352
 21
-356.504
 31
5
  0
CIRCLE
  5
D16
330
A02
100
AcDbEntity
  8
Fusion008
100
AcDbCircle
 10
98.852
 20
-356.504
 40
1.5
  0
CIRCLE
  5
D17
330
A02
100
AcDbEntity
  8
Fusion008
100
AcDbCircle
 10
98.852
 20
-356.504
 40
1.5
  0
LINE
  5
D18
330
A02
100
AcDbEntity
  8
Fusion008
100
AcDbLine
 10
33.979
 20
-334.152
 30
3
 11
33.979
 21
-334.152
 31
5
  0
LINE
  5
D19
330
A02
100
AcDbEntity
  8
Fusion008
100
AcDbLine
 10
33.979
 20
-334.152
 30
3
 11
33.979
 21
-334.152
 31
5
  0
CIRCLE
  5
D1A
330
A02
100
AcDbEntity
  8
Fusion008
100
AcDbCircle
 10
35.479
 20
-334.152
 40
1.5
  0
CIRCLE
  5
D1B
330
A02
100
AcDbEntity
  8
Fusion008
100
AcDbCircle
 10
35.479
 20
-334.152
 40
1.5
  0
LINE
  5
D1C
330
A02
100
AcDbEntity
  8
Fusion008
100
AcDbLine
 10
129.229
 20
-331.612
 30
3
 11
129.229
 21
-331.612
 31
5
  0
LINE
  5
D1D
330
A02
100
AcDbEntity
  8
Fusion008
100
AcDbLine
 10
129.229
 20
-331.612
 30
3
 11
129.229
 21
-331.612
 31
5
  0
CIRCLE
  5
D1E
330
A02
100
AcDbEntity
  8
Fusion008
100
AcDbCircle
 10
130.729
 20
-331.612
 40
1.5
  0
CIRCLE
  5
D1F
330
A02
100
AcDbEntity
  8
Fusion008
100
AcDbCircle
 10
130.729
 20
-331.612
 40
1.5
  0
LINE
  5
D20
330
A02
100
AcDbEntity
  8
Fusion008
100
AcDbLine
 10
152
 20
-255.5
 30
3
 11
152
 21
-350.952
 31
3
  0
ARC
  5
D21
330
A02
100
AcDbEntity
  8
Fusion008
100
AcDbCircle
 10
149.507
 20
-350.952
 30
3
 40
2.49349
100
AcDbArc
 50
-78.3106
 51
5.00896e-06
  0
LINE
  5
D22
330
A02
100
AcDbEntity
  8
Fusion008
100
AcDbLine
 10
94.0495
 20
-364.973
 30
3
 11
150.012
 21
-353.394
 31
3
  0
ARC
  5
D23
330
A02
100
AcDbEntity
  8
Fusion008
100
AcDbCircle
 10
92.0235
 20
-355.18
 30
3
 40
10
100
AcDbArc
 50
-90
 51
-78.3106
  0
LINE
  5
D24
330
A02
100
AcDbEntity
  8
Fusion008
100
AcDbLine
 10
52.9414
 20
-365.18
 30
3
 11
92.0235
 21
-365.18
 31
3
  0
ARC
  5
D25
330
A02
100
AcDbEntity
  8
Fusion008
100
AcDbCircle
 10
52.9414
 20
-357.455
 30
3
 40
7.725
100
AcDbArc
 50
-143.13
 51
-90
  0
ARC
  5
D26
330
A02
100
AcDbEntity
  8
Fusion008
100
AcDbCircle
 10
40.5814
 20
-366.725
 30
3
 40
7.725
100
AcDbArc
 50
36.8699
 51
90
  0
LINE
  5
D27
330
A02
100
AcDbEntity
  8
Fusion008
100
AcDbLine
 10
16.5
 20
-359
 30
3
 11
40.5814
 21
-359
 31
3
  0
ARC
  5
D28
330
A02
100
AcDbEntity
  8
Fusion008
100
AcDbCircle
 10
16.5
 20
-356.5
 30
3
 40
2.5
100
AcDbArc
 50
-180
 51
-90
  0
LINE
  5
D29
330
A02
100
AcDbEntity
  8
Fusion008
100
AcDbLine
 10
14
 20
-278.944
 30
3
 11
14
 21
-356.5
 31
3
  0
ARC
  5
D2A
330
A02
100
AcDbEntity
  8
Fusion008
100
AcDbCircle
 10
12.3
 20
-278.944
 30
3
 40
1.7
100
AcDbArc
 50
5.00896e-06
 51
60
  0
LINE
  5
D2B
330
A02
100
AcDbEntity
  8
Fusion008
100
AcDbLine
 10
13.15
 20
-277.472
 30
3
 11
-2.79904
 21
-268.263
 31
3
  0
ARC
  5
D2C
330
A02
100
AcDbEntity
  8
Fusion008
100
AcDbCircle
 10
-1.54904
 20
-266.098
 30
3
 40
2.5
100
AcDbArc
 50
150
 51
-120
  0
LINE
  5
D2D
330
A02
100
AcDbEntity
  8
Fusion008
100
AcDbLine
 10
15.0459
 20
-232.355
 30
3
 11
-3.7141
 21
-264.848
 31
3
  0
ARC
  5
D2E
330
A02
100
AcDbEntity
  8
Fusion008
100
AcDbCircle
 10
17.211
 20
-233.605
 30
3
 40
2.5
100
AcDbArc
 50
60
 51
150
  0
LINE
  5
D2F
330
A02
100
AcDbEntity
  8
Fusion008
100
AcDbLine
 10
54.813
 20
-252.428
 30
3
 11
18.461
 21
-231.44
 31
3
  0
ARC
  5
D30
330
A02
100
AcDbEntity
  8
Fusion008
100
AcDbCircle
 10
56.948
 20
-248.73
 30
3
 40
4.27
100
AcDbArc
 50
-120
 51
-90
  0
LINE
  5
D31
330
A02
100
AcDbEntity
  8
Fusion008
100
AcDbLine
 10
149.5
 20
-253
 30
3
 11
56.948
 21
-253
 31
3
  0
ARC
  5
D32
330
A02
100
AcDbEntity
  8
Fusion008
100
AcDbCircle
 10
149.5
 20
-255.5
 30
3
 40
2.5
100
AcDbArc
 50
5.00896e-06
 51
90
  0
LINE
  5
D33
330
A02
100
AcDbEntity
  8
Fusion008
100
AcDbLine
 10
30.026
 20
-241.176
 30
3
 11
19.634
 21
-235.176
 31
3
  0
LINE
  5
D34
330
A02
100
AcDbEntity
  8
Fusion008
100
AcDbLine
 10
19.634
 20
-235.176
 30
3
 11
16.534
 21
-240.545
 31
3
  0
LINE
  5
D35
330
A02
100
AcDbEntity
  8
Fusion008
100
AcDbLine
 10
16.534
 20
-240.545
 30
3
 11
14.369
 21
-239.295
 31
3
  0
LINE
  5
D36
330
A02
100
AcDbEntity
  8
Fusion008
100
AcDbLine
 10
14.369
 20
-239.295
 30
3
 11
0.219001
 21
-263.804
 31
3
  0
LINE
  5
D37
330
A02
100
AcDbEntity
  8
Fusion008
100
AcDbLine
 10
0.219001
 20
-263.804
 30
3
 11
14.941
 21
-272.304
 31
3
  0
LINE
  5
D38
330
A02
100
AcDbEntity
  8
Fusion008
100
AcDbLine
 10
14.941
 20
-272.304
 30
3
 11
29.091
 21
-247.795
 31
3
  0
LINE
  5
D39
330
A02
100
AcDbEntity
  8
Fusion008
100
AcDbLine
 10
29.091
 20
-247.795
 30
3
 11
26.926
 21
-246.545
 31
3
  0
LINE
  5
D3A
330
A02
100
AcDbEntity
  8
Fusion008
100
AcDbLine
 10
26.926
 20
-246.545
 30
3
 11
30.026
 21
-241.176
 31
3
  0
LINE
  5
D3B
330
A02
100
AcDbEntity
  8
Fusion008
100
AcDbLine
 10
76.104
 20
-276.763
 30
3
 11
68.484
 21
-276.763
 31
3
  0
LINE
  5
D3C
330
A02
100
AcDbEntity
  8
Fusion008
100
AcDbLine
 10
68.484
 20
-276.763
 30
3
 11
68.484
 21
-262.763
 31
3
  0
LINE
  5
D3D
330
A02
100
AcDbEntity
  8
Fusion008
100
AcDbLine
 10
68.484
 20
-262.763
 30
3
 11
82.484
 21
-262.763
 31
3
  0
LINE
  5
D3E
330
A02
100
AcDbEntity
  8
Fusion008
100
AcDbLine
 10
82.484
 20
-262.763
 30
3
 11
82.484
 21
-265.144
 31
3
  0
LINE
  5
D3F
330
A02
100
AcDbEntity
  8
Fusion008
100
AcDbLine
 10
90.104
 20
-265.144
 30
3
 11
82.484
 21
-265.144
 31
3
  0
LINE
  5
D40
330
A02
100
AcDbEntity
  8
Fusion008
100
AcDbLine
 10
90.104
 20
-279.144
 30
3
 11
90.104
 21
-265.144
 31
3
  0
LINE
  5
D41
330
A02
100
AcDbEntity
  8
Fusion008
100
AcDbLine
 10
76.104
 20
-279.144
 30
3
 11
90.104
 21
-279.144
 31
3
  0
LINE
  5
D42
330
A02
100
AcDbEntity
  8
Fusion008
100
AcDbLine
 10
76.104
 20
-276.763
 30
3
 11
76.104
 21
-279.144
 31
3
  0
LINE
  5
D43
330
A02
100
AcDbEntity
  8
Fusion008
100
AcDbLine
 10
43.395
 20
-267.562
 30
3
 11
50.3948
 21
-255.438
 31
3
  0
LINE
  5
D44
330
A02
100
AcDbEntity
  8
Fusion008
100
AcDbLine
 10
50.3948
 20
-255.438
 30
3
 11
62.5192
 21
-262.438
 31
3
  0
LINE
  5
D45
330
A02
100
AcDbEntity
  8
Fusion008
100
AcDbLine
 10
62.5192
 20
-262.438
 30
3
 11
55.5192
 21
-274.562
 31
3
  0
LINE
  5
D46
330
A02
100
AcDbEntity
  8
Fusion008
100
AcDbLine
 10
55.5192
 20
-274.562
 30
3
 11
43.395
 21
-267.562
 31
3
  0
LINE
  5
D47
330
A02
100
AcDbEntity
  8
Fusion008
100
AcDbLine
 10
46.021
 20
-252.913
 30
3
 11
39.021
 21
-265.037
 31
3
  0
LINE
  5
D48
330
A02
100
AcDbEntity
  8
Fusion008
100
AcDbLine
 10
39.021
 20
-265.037
 30
3
 11
26.897
 21
-258.037
 31
3
  0
LINE
  5
D49
330
A02
100
AcDbEntity
  8
Fusion008
100
AcDbLine
 10
26.897
 20
-258.037
 30
3
 11
33.897
 21
-245.913
 31
3
  0
LINE
  5
D4A
330
A02
100
AcDbEntity
  8
Fusion008
100
AcDbLine
 10
33.897
 20
-245.913
 30
3
 11
46.021
 21
-252.913
 31
3
  0
LINE
  5
D4B
330
A02
100
AcDbEntity
  8
Fusion008
100
AcDbLine
 10
36.496
 20
-269.411
 30
3
 11
29.496
 21
-281.535
 31
3
  0
LINE
  5
D4C
330
A02
100
AcDbEntity
  8
Fusion008
100
AcDbLine
 10
29.496
 20
-281.535
 30
3
 11
17.372
 21
-274.535
 31
3
  0
LINE
  5
D4D
330
A02
100
AcDbEntity
  8
Fusion008
100
AcDbLine
 10
17.372
 20
-274.535
 30
3
 11
24.372
 21
-262.411
 31
3
  0
LINE
  5
D4E
330
A02
100
AcDbEntity
  8
Fusion008
100
AcDbLine
 10
24.372
 20
-262.411
 30
3
 11
36.496
 21
-269.411
 31
3
  0
LINE
  5
D4F
330
A02
100
AcDbEntity
  8
Fusion008
100
AcDbLine
 10
76.104
 20
-284.194
 30
3
 11
90.104
 21
-284.194
 31
3
  0
LINE
  5
D50
330
A02
100
AcDbEntity
  8
Fusion008
100
AcDbLine
 10
90.104
 20
-284.194
 30
3
 11
90.104
 21
-298.194
 31
3
  0
LINE
  5
D51
330
A02
100
AcDbEntity
  8
Fusion008
100
AcDbLine
 10
90.104
 20
-298.194
 30
3
 11
76.104
 21
-298.194
 31
3
  0
LINE
  5
D52
330
A02
100
AcDbEntity
  8
Fusion008
100
AcDbLine
 10
76.104
 20
-298.194
 30
3
 11
76.104
 21
-284.194
 31
3
  0
LINE
  5
D53
330
A02
100
AcDbEntity
  8
Fusion008
100
AcDbLine
 10
133.254
 20
-315.15
 30
3
 11
133.254
 21
-329.15
 31
3
  0
LINE
  5
D54
330
A02
100
AcDbEntity
  8
Fusion008
100
AcDbLine
 10
133.254
 20
-329.15
 30
3
 11
147.254
 21
-329.15
 31
3
  0
LINE
  5
D55
330
A02
100
AcDbEntity
  8
Fusion008
100
AcDbLine
 10
147.254
 20
-329.15
 30
3
 11
147.254
 21
-315.15
 31
3
  0
LINE
  5
D56
330
A02
100
AcDbEntity
  8
Fusion008
100
AcDbLine
 10
147.254
 20
-315.15
 30
3
 11
133.254
 21
-315.15
 31
3
  0
LINE
  5
D57
330
A02
100
AcDbEntity
  8
Fusion008
100
AcDbLine
 10
114.204
 20
-315.15
 30
3
 11
128.204
 21
-315.15
 31
3
  0
LINE
  5
D58
330
A02
100
AcDbEntity
  8
Fusion008
100
AcDbLine
 10
128.204
 20
-315.15
 30
3
 11
128.204
 21
-329.15
 31
3
  0
LINE
  5
D59
330
A02
100
AcDbEntity
  8
Fusion008
100
AcDbLine
 10
128.204
 20
-329.15
 30
3
 11
114.204
 21
-329.15
 31
3
  0
LINE
  5
D5A
330
A02
100
AcDbEntity
  8
Fusion008
100
AcDbLine
 10
114.204
 20
-329.15
 30
3
 11
114.204
 21
-315.15
 31
3
  0
LINE
  5
D5B
330
A02
100
AcDbEntity
  8
Fusion008
100
AcDbLine
 10
95.154
 20
-262.763
 30
3
 11
95.154
 21
-276.763
 31
3
  0
LINE
  5
D5C
330
A02
100
AcDbEntity
  8
Fusion008
100
AcDbLine
 10
95.154
 20
-276.763
 30
3
 11
109.154
 21
-276.763
 31
3
  0
LINE
  5
D5D
330
A02
100
AcDbEntity
  8
Fusion008
100
AcDbLine
 10
109.154
 20
-276.763
 30
3
 11
109.154
 21
-262.763
 31
3
  0
LINE
  5
D5E
330
A02
100
AcDbEntity
  8
Fusion008
100
AcDbLine
 10
109.154
 20
-262.763
 30
3
 11
95.154
 21
-262.763
 31
3
  0
LINE
  5
D5F
330
A02
100
AcDbEntity
  8
Fusion008
100
AcDbLine
 10
133.254
 20
-258
 30
3
 11
133.254
 21
-272
 31
3
  0
LINE
  5
D60
330
A02
100
AcDbEntity
  8
Fusion008
100
AcDbLine
 10
133.254
 20
-272
 30
3
 11
147.254
 21
-272
 31
3
  0
LINE
  5
D61
330
A02
100
AcDbEntity
  8
Fusion008
100
AcDbLine
 10
147.254
 20
-272
 30
3
 11
147.254
 21
-258
 31
3
  0
LINE
  5
D62
330
A02
100
AcDbEntity
  8
Fusion008
100
AcDbLine
 10
147.254
 20
-258
 30
3
 11
133.254
 21
-258
 31
3
  0
LINE
  5
D63
330
A02
100
AcDbEntity
  8
Fusion008
100
AcDbLine
 10
38.004
 20
-298.481
 30
3
 11
38.004
 21
-312.481
 31
3
  0
LINE
  5
D64
330
A02
100
AcDbEntity
  8
Fusion008
100
AcDbLine
 10
38.004
 20
-312.481
 30
3
 11
52.004
 21
-312.481
 31
3
  0
LINE
  5
D65
330
A02
100
AcDbEntity
  8
Fusion008
100
AcDbLine
 10
52.004
 20
-312.481
 30
3
 11
52.004
 21
-298.481
 31
3
  0
LINE
  5
D66
330
A02
100
AcDbEntity
  8
Fusion008
100
AcDbLine
 10
52.004
 20
-298.481
 30
3
 11
38.004
 21
-298.481
 31
3
  0
LINE
  5
D67
330
A02
100
AcDbEntity
  8
Fusion008
100
AcDbLine
 10
38.004
 20
-317.531
 30
3
 11
38.004
 21
-331.531
 31
3
  0
LINE
  5
D68
330
A02
100
AcDbEntity
  8
Fusion008
100
AcDbLine
 10
38.004
 20
-331.531
 30
3
 11
52.004
 21
-331.531
 31
3
  0
LINE
  5
D69
330
A02
100
AcDbEntity
  8
Fusion008
100
AcDbLine
 10
52.004
 20
-331.531
 30
3
 11
52.004
 21
-317.531
 31
3
  0
LINE
  5
D6A
330
A02
100
AcDbEntity
  8
Fusion008
100
AcDbLine
 10
52.004
 20
-317.531
 30
3
 11
38.004
 21
-317.531
 31
3
  0
LINE
  5
D6B
330
A02
100
AcDbEntity
  8
Fusion008
100
AcDbLine
 10
95.154
 20
-300.863
 30
3
 11
95.154
 21
-314.863
 31
3
  0
LINE
  5
D6C
330
A02
100
AcDbEntity
  8
Fusion008
100
AcDbLine
 10
95.154
 20
-314.863
 30
3
 11
109.154
 21
-314.863
 31
3
  0
LINE
  5
D6D
330
A02
100
AcDbEntity
  8
Fusion008
100
AcDbLine
 10
109.154
 20
-314.863
 30
3
 11
109.154
 21
-300.863
 31
3
  0
LINE
  5
D6E
330
A02
100
AcDbEntity
  8
Fusion008
100
AcDbLine
 10
109.154
 20
-300.863
 30
3
 11
95.154
 21
-300.863
 31
3
  0
LINE
  5
D6F
330
A02
100
AcDbEntity
  8
Fusion008
100
AcDbLine
 10
95.154
 20
-338.963
 30
3
 11
95.154
 21
-352.963
 31
3
  0
LINE
  5
D70
330
A02
100
AcDbEntity
  8
Fusion008
100
AcDbLine
 10
95.154
 20
-352.963
 30
3
 11
109.154
 21
-352.963
 31
3
  0
LINE
  5
D71
330
A02
100
AcDbEntity
  8
Fusion008
100
AcDbLine
 10
109.154
 20
-352.963
 30
3
 11
109.154
 21
-338.963
 31
3
  0
LINE
  5
D72
330
A02
100
AcDbEntity
  8
Fusion008
100
AcDbLine
 10
109.154
 20
-338.963
 30
3
 11
95.154
 21
-338.963
 31
3
  0
LINE
  5
D73
330
A02
100
AcDbEntity
  8
Fusion008
100
AcDbLine
 10
133.254
 20
-296.1
 30
3
 11
133.254
 21
-310.1
 31
3
  0
LINE
  5
D74
330
A02
100
AcDbEntity
  8
Fusion008
100
AcDbLine
 10
133.254
 20
-310.1
 30
3
 11
147.254
 21
-310.1
 31
3
  0
LINE
  5
D75
330
A02
100
AcDbEntity
  8
Fusion008
100
AcDbLine
 10
147.254
 20
-310.1
 30
3
 11
147.254
 21
-296.1
 31
3
  0
LINE
  5
D76
330
A02
100
AcDbEntity
  8
Fusion008
100
AcDbLine
 10
147.254
 20
-296.1
 30
3
 11
133.254
 21
-296.1
 31
3
  0
LINE
  5
D77
330
A02
100
AcDbEntity
  8
Fusion008
100
AcDbLine
 10
114.204
 20
-258
 30
3
 11
128.204
 21
-258
 31
3
  0
LINE
  5
D78
330
A02
100
AcDbEntity
  8
Fusion008
100
AcDbLine
 10
128.204
 20
-258
 30
3
 11
128.204
 21
-272
 31
3
  0
LINE
  5
D79
330
A02
100
AcDbEntity
  8
Fusion008
100
AcDbLine
 10
128.204
 20
-272
 30
3
 11
114.204
 21
-272
 31
3
  0
LINE
  5
D7A
330
A02
100
AcDbEntity
  8
Fusion008
100
AcDbLine
 10
114.204
 20
-272
 30
3
 11
114.204
 21
-258
 31
3
  0
LINE
  5
D7B
330
A02
100
AcDbEntity
  8
Fusion008
100
AcDbLine
 10
57.054
 20
-281.813
 30
3
 11
71.054
 21
-281.813
 31
3
  0
LINE
  5
D7C
330
A02
100
AcDbEntity
  8
Fusion008
100
AcDbLine
 10
71.054
 20
-281.813
 30
3
 11
71.054
 21
-295.813
 31
3
  0
LINE
  5
D7D
330
A02
100
AcDbEntity
  8
Fusion008
100
AcDbLine
 10
71.054
 20
-295.813
 30
3
 11
57.054
 21
-295.813
 31
3
  0
LINE
  5
D7E
330
A02
100
AcDbEntity
  8
Fusion008
100
AcDbLine
 10
57.054
 20
-295.813
 30
3
 11
57.054
 21
-281.813
 31
3
  0
LINE
  5
D7F
330
A02
100
AcDbEntity
  8
Fusion008
100
AcDbLine
 10
76.104
 20
-303.244
 30
3
 11
90.104
 21
-303.244
 31
3
  0
LINE
  5
D80
330
A02
100
AcDbEntity
  8
Fusion008
100
AcDbLine
 10
90.104
 20
-303.244
 30
3
 11
90.104
 21
-317.244
 31
3
  0
LINE
  5
D81
330
A02
100
AcDbEntity
  8
Fusion008
100
AcDbLine
 10
90.104
 20
-317.244
 30
3
 11
76.104
 21
-317.244
 31
3
  0
LINE
  5
D82
330
A02
100
AcDbEntity
  8
Fusion008
100
AcDbLine
 10
76.104
 20
-317.244
 30
3
 11
76.104
 21
-303.244
 31
3
  0
LINE
  5
D83
330
A02
100
AcDbEntity
  8
Fusion008
100
AcDbLine
 10
76.104
 20
-322.294
 30
3
 11
90.104
 21
-322.294
 31
3
  0
LINE
  5
D84
330
A02
100
AcDbEntity
  8
Fusion008
100
AcDbLine
 10
90.104
 20
-322.294
 30
3
 11
90.104
 21
-336.294
 31
3
  0
LINE
  5
D85
330
A02
100
AcDbEntity
  8
Fusion008
100
AcDbLine
 10
90.104
 20
-336.294
 30
3
 11
76.104
 21
-336.294
 31
3
  0
LINE
  5
D86
330
A02
100
AcDbEntity
  8
Fusion008
100
AcDbLine
 10
76.104
 20
-336.294
 30
3
 11
76.104
 21
-322.294
 31
3
  0
LINE
  5
D87
330
A02
100
AcDbEntity
  8
Fusion008
100
AcDbLine
 10
76.104
 20
-341.344
 30
3
 11
90.104
 21
-341.344
 31
3
  0
LINE
  5
D88
330
A02
100
AcDbEntity
  8
Fusion008
100
AcDbLine
 10
90.104
 20
-341.344
 30
3
 11
90.104
 21
-355.344
 31
3
  0
LINE
  5
D89
330
A02
100
AcDbEntity
  8
Fusion008
100
AcDbLine
 10
90.104
 20
-355.344
 30
3
 11
76.104
 21
-355.344
 31
3
  0
LINE
  5
D8A
330
A02
100
AcDbEntity
  8
Fusion008
100
AcDbLine
 10
76.104
 20
-355.344
 30
3
 11
76.104
 21
-341.344
 31
3
  0
LINE
  5
D8B
330
A02
100
AcDbEntity
  8
Fusion008
100
AcDbLine
 10
95.154
 20
-281.813
 30
3
 11
109.154
 21
-281.813
 31
3
  0
LINE
  5
D8C
330
A02
100
AcDbEntity
  8
Fusion008
100
AcDbLine
 10
109.154
 20
-281.813
 30
3
 11
109.154
 21
-295.813
 31
3
  0
LINE
  5
D8D
330
A02
100
AcDbEntity
  8
Fusion008
100
AcDbLine
 10
109.154
 20
-295.813
 30
3
 11
95.154
 21
-295.813
 31
3
  0
LINE
  5
D8E
330
A02
100
AcDbEntity
  8
Fusion008
100
AcDbLine
 10
95.154
 20
-295.813
 30
3
 11
95.154
 21
-281.813
 31
3
  0
LINE
  5
D8F
330
A02
100
AcDbEntity
  8
Fusion008
100
AcDbLine
 10
114.204
 20
-296.1
 30
3
 11
128.204
 21
-296.1
 31
3
  0
LINE
  5
D90
330
A02
100
AcDbEntity
  8
Fusion008
100
AcDbLine
 10
128.204
 20
-296.1
 30
3
 11
128.204
 21
-310.1
 31
3
  0
LINE
  5
D91
330
A02
100
AcDbEntity
  8
Fusion008
100
AcDbLine
 10
128.204
 20
-310.1
 30
3
 11
114.204
 21
-310.1
 31
3
  0
LINE
  5
D92
330
A02
100
AcDbEntity
  8
Fusion008
100
AcDbLine
 10
114.204
 20
-310.1
 30
3
 11
114.204
 21
-296.1
 31
3
  0
LINE
  5
D93
330
A02
100
AcDbEntity
  8
Fusion008
100
AcDbLine
 10
114.204
 20
-334.2
 30
3
 11
128.204
 21
-334.2
 31
3
  0
LINE
  5
D94
330
A02
100
AcDbEntity
  8
Fusion008
100
AcDbLine
 10
128.204
 20
-334.2
 30
3
 11
128.204
 21
-348.2
 31
3
  0
LINE
  5
D95
330
A02
100
AcDbEntity
  8
Fusion008
100
AcDbLine
 10
128.204
 20
-348.2
 30
3
 11
114.204
 21
-348.2
 31
3
  0
LINE
  5
D96
330
A02
100
AcDbEntity
  8
Fusion008
100
AcDbLine
 10
114.204
 20
-348.2
 30
3
 11
114.204
 21
-334.2
 31
3
  0
LINE
  5
D97
330
A02
100
AcDbEntity
  8
Fusion008
100
AcDbLine
 10
52.004
 20
-336.581
 30
3
 11
52.004
 21
-350.581
 31
3
  0
LINE
  5
D98
330
A02
100
AcDbEntity
  8
Fusion008
100
AcDbLine
 10
52.004
 20
-350.581
 30
3
 11
38.004
 21
-350.581
 31
3
  0
LINE
  5
D99
330
A02
100
AcDbEntity
  8
Fusion008
100
AcDbLine
 10
38.004
 20
-350.581
 30
3
 11
38.004
 21
-336.581
 31
3
  0
LINE
  5
D9A
330
A02
100
AcDbEntity
  8
Fusion008
100
AcDbLine
 10
38.004
 20
-336.581
 30
3
 11
52.004
 21
-336.581
 31
3
  0
LINE
  5
D9B
330
A02
100
AcDbEntity
  8
Fusion008
100
AcDbLine
 10
57.054
 20
-352.963
 30
3
 11
57.054
 21
-338.963
 31
3
  0
LINE
  5
D9C
330
A02
100
AcDbEntity
  8
Fusion008
100
AcDbLine
 10
57.054
 20
-338.963
 30
3
 11
71.054
 21
-338.963
 31
3
  0
LINE
  5
D9D
330
A02
100
AcDbEntity
  8
Fusion008
100
AcDbLine
 10
71.054
 20
-338.963
 30
3
 11
71.054
 21
-352.963
 31
3
  0
LINE
  5
D9E
330
A02
100
AcDbEntity
  8
Fusion008
100
AcDbLine
 10
71.054
 20
-352.963
 30
3
 11
57.054
 21
-352.963
 31
3
  0
LINE
  5
D9F
330
A02
100
AcDbEntity
  8
Fusion008
100
AcDbLine
 10
57.054
 20
-314.863
 30
3
 11
57.054
 21
-300.863
 31
3
  0
LINE
  5
DA0
330
A02
100
AcDbEntity
  8
Fusion008
100
AcDbLine
 10
57.054
 20
-300.863
 30
3
 11
71.054
 21
-300.863
 31
3
  0
LINE
  5
DA1
330
A02
100
AcDbEntity
  8
Fusion008
100
AcDbLine
 10
71.054
 20
-300.863
 30
3
 11
71.054
 21
-314.863
 31
3
  0
LINE
  5
DA2
330
A02
100
AcDbEntity
  8
Fusion008
100
AcDbLine
 10
71.054
 20
-314.863
 30
3
 11
57.054
 21
-314.863
 31
3
  0
LINE
  5
DA3
330
A02
100
AcDbEntity
  8
Fusion008
100
AcDbLine
 10
133.254
 20
-334.2
 30
3
 11
133.254
 21
-348.2
 31
3
  0
LINE
  5
DA4
330
A02
100
AcDbEntity
  8
Fusion008
100
AcDbLine
 10
133.254
 20
-348.2
 30
3
 11
147.254
 21
-348.2
 31
3
  0
LINE
  5
DA5
330
A02
100
AcDbEntity
  8
Fusion008
100
AcDbLine
 10
147.254
 20
-348.2
 30
3
 11
147.254
 21
-334.2
 31
3
  0
LINE
  5
DA6
330
A02
100
AcDbEntity
  8
Fusion008
100
AcDbLine
 10
147.254
 20
-334.2
 30
3
 11
133.254
 21
-334.2
 31
3
  0
LINE
  5
DA7
330
A02
100
AcDbEntity
  8
Fusion008
100
AcDbLine
 10
38.004
 20
-279.431
 30
3
 11
38.004
 21
-293.431
 31
3
  0
LINE
  5
DA8
330
A02
100
AcDbEntity
  8
Fusion008
100
AcDbLine
 10
38.004
 20
-293.431
 30
3
 11
52.004
 21
-293.431
 31
3
  0
LINE
  5
DA9
330
A02
100
AcDbEntity
  8
Fusion008
100
AcDbLine
 10
52.004
 20
-293.431
 30
3
 11
52.004
 21
-279.431
 31
3
  0
LINE
  5
DAA
330
A02
100
AcDbEntity
  8
Fusion008
100
AcDbLine
 10
52.004
 20
-279.431
 30
3
 11
38.004
 21
-279.431
 31
3
  0
LINE
  5
DAB
330
A02
100
AcDbEntity
  8
Fusion008
100
AcDbLine
 10
133.254
 20
-277.05
 30
3
 11
133.254
 21
-291.05
 31
3
  0
LINE
  5
DAC
330
A02
100
AcDbEntity
  8
Fusion008
100
AcDbLine
 10
133.254
 20
-291.05
 30
3
 11
147.254
 21
-291.05
 31
3
  0
LINE
  5
DAD
330
A02
100
AcDbEntity
  8
Fusion008
100
AcDbLine
 10
147.254
 20
-291.05
 30
3
 11
147.254
 21
-277.05
 31
3
  0
LINE
  5
DAE
330
A02
100
AcDbEntity
  8
Fusion008
100
AcDbLine
 10
147.254
 20
-277.05
 30
3
 11
133.254
 21
-277.05
 31
3
  0
LINE
  5
DAF
330
A02
100
AcDbEntity
  8
Fusion008
100
AcDbLine
 10
114.204
 20
-277.05
 30
3
 11
128.204
 21
-277.05
 31
3
  0
LINE
  5
DB0
330
A02
100
AcDbEntity
  8
Fusion008
100
AcDbLine
 10
128.204
 20
-277.05
 30
3
 11
128.204
 21
-291.05
 31
3
  0
LINE
  5
DB1
330
A02
100
AcDbEntity
  8
Fusion008
100
AcDbLine
 10
128.204
 20
-291.05
 30
3
 11
114.204
 21
-291.05
 31
3
  0
LINE
  5
DB2
330
A02
100
AcDbEntity
  8
Fusion008
100
AcDbLine
 10
114.204
 20
-291.05
 30
3
 11
114.204
 21
-277.05
 31
3
  0
LINE
  5
DB3
330
A02
100
AcDbEntity
  8
Fusion008
100
AcDbLine
 10
95.154
 20
-319.913
 30
3
 11
95.154
 21
-333.913
 31
3
  0
LINE
  5
DB4
330
A02
100
AcDbEntity
  8
Fusion008
100
AcDbLine
 10
95.154
 20
-333.913
 30
3
 11
109.154
 21
-333.913
 31
3
  0
LINE
  5
DB5
330
A02
100
AcDbEntity
  8
Fusion008
100
AcDbLine
 10
109.154
 20
-333.913
 30
3
 11
109.154
 21
-319.913
 31
3
  0
LINE
  5
DB6
330
A02
100
AcDbEntity
  8
Fusion008
100
AcDbLine
 10
109.154
 20
-319.913
 30
3
 11
95.154
 21
-319.913
 31
3
  0
LINE
  5
DB7
330
A02
100
AcDbEntity
  8
Fusion008
100
AcDbLine
 10
18.954
 20
-308.006
 30
3
 11
32.954
 21
-308.006
 31
3
  0
LINE
  5
DB8
330
A02
100
AcDbEntity
  8
Fusion008
100
AcDbLine
 10
32.954
 20
-308.006
 30
3
 11
32.954
 21
-322.006
 31
3
  0
LINE
  5
DB9
330
A02
100
AcDbEntity
  8
Fusion008
100
AcDbLine
 10
32.954
 20
-322.006
 30
3
 11
18.954
 21
-322.006
 31
3
  0
LINE
  5
DBA
330
A02
100
AcDbEntity
  8
Fusion008
100
AcDbLine
 10
18.954
 20
-322.006
 30
3
 11
18.954
 21
-308.006
 31
3
  0
LINE
  5
DBB
330
A02
100
AcDbEntity
  8
Fusion008
100
AcDbLine
 10
57.054
 20
-319.913
 30
3
 11
71.054
 21
-319.913
 31
3
  0
LINE
  5
DBC
330
A02
100
AcDbEntity
  8
Fusion008
100
AcDbLine
 10
71.054
 20
-319.913
 30
3
 11
71.054
 21
-333.913
 31
3
  0
LINE
  5
DBD
330
A02
100
AcDbEntity
  8
Fusion008
100
AcDbLine
 10
71.054
 20
-333.913
 30
3
 11
57.054
 21
-333.913
 31
3
  0
LINE
  5
DBE
330
A02
100
AcDbEntity
  8
Fusion008
100
AcDbLine
 10
57.054
 20
-333.913
 30
3
 11
57.054
 21
-319.913
 31
3
  0
LINE
  5
DBF
330
A02
100
AcDbEntity
  8
Fusion008
100
AcDbLine
 10
18.954
 20
-288.956
 30
3
 11
32.954
 21
-288.956
 31
3
  0
LINE
  5
DC0
330
A02
100
AcDbEntity
  8
Fusion008
100
AcDbLine
 10
32.954
 20
-288.956
 30
3
 11
32.954
 21
-302.956
 31
3
  0
LINE
  5
DC1
330
A02
100
AcDbEntity
  8
Fusion008
100
AcDbLine
 10
32.954
 20
-302.956
 30
3
 11
18.954
 21
-302.956
 31
3
  0
LINE
  5
DC2
330
A02
100
AcDbEntity
  8
Fusion008
100
AcDbLine
 10
18.954
 20
-302.956
 30
3
 11
18.954
 21
-288.956
 31
3
  0
LINE
  5
DC3
330
A02
100
AcDbEntity
  8
Fusion008
100
AcDbLine
 10
32.954
 20
-341.056
 30
3
 11
18.954
 21
-341.056
 31
3
  0
LINE
  5
DC4
330
A02
100
AcDbEntity
  8
Fusion008
100
AcDbLine
 10
18.954
 20
-341.056
 30
3
 11
18.954
 21
-327.056
 31
3
  0
LINE
  5
DC5
330
A02
100
AcDbEntity
  8
Fusion008
100
AcDbLine
 10
18.954
 20
-327.056
 30
3
 11
32.954
 21
-327.056
 31
3
  0
LINE
  5
DC6
330
A02
100
AcDbEntity
  8
Fusion008
100
AcDbLine
 10
32.954
 20
-327.056
 30
3
 11
32.954
 21
-341.056
 31
3
  0
CIRCLE
  5
DC7
330
A02
100
AcDbEntity
  8
Fusion008
100
AcDbCircle
 10
130.729
 20
-274.208
 40
1.5
  0
CIRCLE
  5
DC8
330
A02
100
AcDbEntity
  8
Fusion008
100
AcDbCircle
 10
92.121
 20
-281.828
 40
1.5
  0
CIRCLE
  5
DC9
330
A02
100
AcDbEntity
  8
Fusion008
100
AcDbCircle
 10
41.448
 20
-274.462
 40
1.5
  0
CIRCLE
  5
DCA
330
A02
100
AcDbEntity
  8
Fusion008
100
AcDbCircle
 10
92.629
 20
-317.388
 40
1.5
  0
CIRCLE
  5
DCB
330
A02
100
AcDbEntity
  8
Fusion008
100
AcDbCircle
 10
98.852
 20
-356.504
 40
1.5
  0
CIRCLE
  5
DCC
330
A02
100
AcDbEntity
  8
Fusion008
100
AcDbCircle
 10
35.479
 20
-334.152
 40
1.5
  0
CIRCLE
  5
DCD
330
A02
100
AcDbEntity
  8
Fusion008
100
AcDbCircle
 10
130.729
 20
-331.612
 40
1.5
  0
LINE
  5
DCE
330
A02
100
AcDbEntity
  8
Fusion008
100
AcDbLine
 10
152
 20
-255.5
 30
5
 11
152
 21
-350.952
 31
5
  0
ARC
  5
DCF
330
A02
100
AcDbEntity
  8
Fusion008
100
AcDbCircle
 10
149.507
 20
-350.952
 30
5
 40
2.49349
100
AcDbArc
 50
-78.3106
 51
5.00896e-06
  0
LINE
  5
DD0
330
A02
100
AcDbEntity
  8
Fusion008
100
AcDbLine
 10
94.0495
 20
-364.973
 30
5
 11
150.012
 21
-353.394
 31
5
  0
ARC
  5
DD1
330
A02
100
AcDbEntity
  8
Fusion008
100
AcDbCircle
 10
92.0235
 20
-355.18
 30
5
 40
10
100
AcDbArc
 50
-90
 51
-78.3106
  0
LINE
  5
DD2
330
A02
100
AcDbEntity
  8
Fusion008
100
AcDbLine
 10
52.9414
 20
-365.18
 30
5
 11
92.0235
 21
-365.18
 31
5
  0
ARC
  5
DD3
330
A02
100
AcDbEntity
  8
Fusion008
100
AcDbCircle
 10
52.9414
 20
-357.455
 30
5
 40
7.725
100
AcDbArc
 50
-143.13
 51
-90
  0
ARC
  5
DD4
330
A02
100
AcDbEntity
  8
Fusion008
100
AcDbCircle
 10
40.5814
 20
-366.725
 30
5
 40
7.725
100
AcDbArc
 50
36.8699
 51
90
  0
LINE
  5
DD5
330
A02
100
AcDbEntity
  8
Fusion008
100
AcDbLine
 10
16.5
 20
-359
 30
5
 11
40.5814
 21
-359
 31
5
  0
ARC
  5
DD6
330
A02
100
AcDbEntity
  8
Fusion008
100
AcDbCircle
 10
16.5
 20
-356.5
 30
5
 40
2.5
100
AcDbArc
 50
-180
 51
-90
  0
LINE
  5
DD7
330
A02
100
AcDbEntity
  8
Fusion008
100
AcDbLine
 10
14
 20
-278.944
 30
5
 11
14
 21
-356.5
 31
5
  0
ARC
  5
DD8
330
A02
100
AcDbEntity
  8
Fusion008
100
AcDbCircle
 10
12.3
 20
-278.944
 30
5
 40
1.7
100
AcDbArc
 50
5.00896e-06
 51
60
  0
LINE
  5
DD9
330
A02
100
AcDbEntity
  8
Fusion008
100
AcDbLine
 10
13.15
 20
-277.472
 30
5
 11
-2.79904
 21
-268.263
 31
5
  0
ARC
  5
DDA
330
A02
100
AcDbEntity
  8
Fusion008
100
AcDbCircle
 10
-1.54904
 20
-266.098
 30
5
 40
2.5
100
AcDbArc
 50
150
 51
-120
  0
LINE
  5
DDB
330
A02
100
AcDbEntity
  8
Fusion008
100
AcDbLine
 10
15.0459
 20
-232.355
 30
5
 11
-3.7141
 21
-264.848
 31
5
  0
ARC
  5
DDC
330
A02
100
AcDbEntity
  8
Fusion008
100
AcDbCircle
 10
17.211
 20
-233.605
 30
5
 40
2.5
100
AcDbArc
 50
60
 51
150
  0
LINE
  5
DDD
330
A02
100
AcDbEntity
  8
Fusion008
100
AcDbLine
 10
54.813
 20
-252.428
 30
5
 11
18.461
 21
-231.44
 31
5
  0
ARC
  5
DDE
330
A02
100
AcDbEntity
  8
Fusion008
100
AcDbCircle
 10
56.948
 20
-248.73
 30
5
 40
4.27
100
AcDbArc
 50
-120
 51
-90
  0
LINE
  5
DDF
330
A02
100
AcDbEntity
  8
Fusion008
100
AcDbLine
 10
149.5
 20
-253
 30
5
 11
56.948
 21
-253
 31
5
  0
ARC
  5
DE0
330
A02
100
AcDbEntity
  8
Fusion008
100
AcDbCircle
 10
149.5
 20
-255.5
 30
5
 40
2.5
100
AcDbArc
 50
5.00896e-06
 51
90
  0
LINE
  5
DE1
330
A02
100
AcDbEntity
  8
Fusion008
100
AcDbLine
 10
30.026
 20
-241.176
 30
5
 11
19.634
 21
-235.176
 31
5
  0
LINE
  5
DE2
330
A02
100
AcDbEntity
  8
Fusion008
100
AcDbLine
 10
19.634
 20
-235.176
 30
5
 11
16.534
 21
-240.545
 31
5
  0
LINE
  5
DE3
330
A02
100
AcDbEntity
  8
Fusion008
100
AcDbLine
 10
16.534
 20
-240.545
 30
5
 11
14.369
 21
-239.295
 31
5
  0
LINE
  5
DE4
330
A02
100
AcDbEntity
  8
Fusion008
100
AcDbLine
 10
14.369
 20
-239.295
 30
5
 11
0.219001
 21
-263.804
 31
5
  0
LINE
  5
DE5
330
A02
100
AcDbEntity
  8
Fusion008
100
AcDbLine
 10
0.219001
 20
-263.804
 30
5
 11
14.941
 21
-272.304
 31
5
  0
LINE
  5
DE6
330
A02
100
AcDbEntity
  8
Fusion008
100
AcDbLine
 10
14.941
 20
-272.304
 30
5
 11
29.091
 21
-247.795
 31
5
  0
LINE
  5
DE7
330
A02
100
AcDbEntity
  8
Fusion008
100
AcDbLine
 10
29.091
 20
-247.795
 30
5
 11
26.926
 21
-246.545
 31
5
  0
LINE
  5
DE8
330
A02
100
AcDbEntity
  8
Fusion008
100
AcDbLine
 10
26.926
 20
-246.545
 30
5
 11
30.026
 21
-241.176
 31
5
  0
LINE
  5
DE9
330
A02
100
AcDbEntity
  8
Fusion008
100
AcDbLine
 10
76.104
 20
-276.763
 30
5
 11
68.484
 21
-276.763
 31
5
  0
LINE
  5
DEA
330
A02
100
AcDbEntity
  8
Fusion008
100
AcDbLine
 10
68.484
 20
-276.763
 30
5
 11
68.484
 21
-262.763
 31
5
  0
LINE
  5
DEB
330
A02
100
AcDbEntity
  8
Fusion008
100
AcDbLine
 10
68.484
 20
-262.763
 30
5
 11
82.484
 21
-262.763
 31
5
  0
LINE
  5
DEC
330
A02
100
AcDbEntity
  8
Fusion008
100
AcDbLine
 10
82.484
 20
-262.763
 30
5
 11
82.484
 21
-265.144
 31
5
  0
LINE
  5
DED
330
A02
100
AcDbEntity
  8
Fusion008
100
AcDbLine
 10
90.104
 20
-265.144
 30
5
 11
82.484
 21
-265.144
 31
5
  0
LINE
  5
DEE
330
A02
100
AcDbEntity
  8
Fusion008
100
AcDbLine
 10
90.104
 20
-279.144
 30
5
 11
90.104
 21
-265.144
 31
5
  0
LINE
  5
DEF
330
A02
100
AcDbEntity
  8
Fusion008
100
AcDbLine
 10
76.104
 20
-279.144
 30
5
 11
90.104
 21
-279.144
 31
5
  0
LINE
  5
DF0
330
A02
100
AcDbEntity
  8
Fusion008
100
AcDbLine
 10
76.104
 20
-276.763
 30
5
 11
76.104
 21
-279.144
 31
5
  0
LINE
  5
DF1
330
A02
100
AcDbEntity
  8
Fusion008
100
AcDbLine
 10
43.395
 20
-267.562
 30
5
 11
50.3948
 21
-255.438
 31
5
  0
LINE
  5
DF2
330
A02
100
AcDbEntity
  8
Fusion008
100
AcDbLine
 10
50.3948
 20
-255.438
 30
5
 11
62.5192
 21
-262.438
 31
5
  0
LINE
  5
DF3
330
A02
100
AcDbEntity
  8
Fusion008
100
AcDbLine
 10
62.5192
 20
-262.438
 30
5
 11
55.5192
 21
-274.562
 31
5
  0
LINE
  5
DF4
330
A02
100
AcDbEntity
  8
Fusion008
100
AcDbLine
 10
55.5192
 20
-274.562
 30
5
 11
43.395
 21
-267.562
 31
5
  0
LINE
  5
DF5
330
A02
100
AcDbEntity
  8
Fusion008
100
AcDbLine
 10
46.021
 20
-252.913
 30
5
 11
39.021
 21
-265.037
 31
5
  0
LINE
  5
DF6
330
A02
100
AcDbEntity
  8
Fusion008
100
AcDbLine
 10
39.021
 20
-265.037
 30
5
 11
26.897
 21
-258.037
 31
5
  0
LINE
  5
DF7
330
A02
100
AcDbEntity
  8
Fusion008
100
AcDbLine
 10
26.897
 20
-258.037
 30
5
 11
33.897
 21
-245.913
 31
5
  0
LINE
  5
DF8
330
A02
100
AcDbEntity
  8
Fusion008
100
AcDbLine
 10
33.897
 20
-245.913
 30
5
 11
46.021
 21
-252.913
 31
5
  0
LINE
  5
DF9
330
A02
100
AcDbEntity
  8
Fusion008
100
AcDbLine
 10
36.496
 20
-269.411
 30
5
 11
29.496
 21
-281.535
 31
5
  0
LINE
  5
DFA
330
A02
100
AcDbEntity
  8
Fusion008
100
AcDbLine
 10
29.496
 20
-281.535
 30
5
 11
17.372
 21
-274.535
 31
5
  0
LINE
  5
DFB
330
A02
100
AcDbEntity
  8
Fusion008
100
AcDbLine
 10
17.372
 20
-274.535
 30
5
 11
24.372
 21
-262.411
 31
5
  0
LINE
  5
DFC
330
A02
100
AcDbEntity
  8
Fusion008
100
AcDbLine
 10
24.372
 20
-262.411
 30
5
 11
36.496
 21
-269.411
 31
5
  0
LINE
  5
DFD
330
A02
100
AcDbEntity
  8
Fusion008
100
AcDbLine
 10
76.104
 20
-284.194
 30
5
 11
90.104
 21
-284.194
 31
5
  0
LINE
  5
DFE
330
A02
100
AcDbEntity
  8
Fusion008
100
AcDbLine
 10
90.104
 20
-284.194
 30
5
 11
90.104
 21
-298.194
 31
5
  0
LINE
  5
DFF
330
A02
100
AcDbEntity
  8
Fusion008
100
AcDbLine
 10
90.104
 20
-298.194
 30
5
 11
76.104
 21
-298.194
 31
5
  0
LINE
  5
E00
330
A02
100
AcDbEntity
  8
Fusion008
100
AcDbLine
 10
76.104
 20
-298.194
 30
5
 11
76.104
 21
-284.194
 31
5
  0
LINE
  5
E01
330
A02
100
AcDbEntity
  8
Fusion008
100
AcDbLine
 10
133.254
 20
-315.15
 30
5
 11
133.254
 21
-329.15
 31
5
  0
LINE
  5
E02
330
A02
100
AcDbEntity
  8
Fusion008
100
AcDbLine
 10
133.254
 20
-329.15
 30
5
 11
147.254
 21
-329.15
 31
5
  0
LINE
  5
E03
330
A02
100
AcDbEntity
  8
Fusion008
100
AcDbLine
 10
147.254
 20
-329.15
 30
5
 11
147.254
 21
-315.15
 31
5
  0
LINE
  5
E04
330
A02
100
AcDbEntity
  8
Fusion008
100
AcDbLine
 10
147.254
 20
-315.15
 30
5
 11
133.254
 21
-315.15
 31
5
  0
LINE
  5
E05
330
A02
100
AcDbEntity
  8
Fusion008
100
AcDbLine
 10
114.204
 20
-315.15
 30
5
 11
128.204
 21
-315.15
 31
5
  0
LINE
  5
E06
330
A02
100
AcDbEntity
  8
Fusion008
100
AcDbLine
 10
128.204
 20
-315.15
 30
5
 11
128.204
 21
-329.15
 31
5
  0
LINE
  5
E07
330
A02
100
AcDbEntity
  8
Fusion008
100
AcDbLine
 10
128.204
 20
-329.15
 30
5
 11
114.204
 21
-329.15
 31
5
  0
LINE
  5
E08
330
A02
100
AcDbEntity
  8
Fusion008
100
AcDbLine
 10
114.204
 20
-329.15
 30
5
 11
114.204
 21
-315.15
 31
5
  0
LINE
  5
E09
330
A02
100
AcDbEntity
  8
Fusion008
100
AcDbLine
 10
95.154
 20
-262.763
 30
5
 11
95.154
 21
-276.763
 31
5
  0
LINE
  5
E0A
330
A02
100
AcDbEntity
  8
Fusion008
100
AcDbLine
 10
95.154
 20
-276.763
 30
5
 11
109.154
 21
-276.763
 31
5
  0
LINE
  5
E0B
330
A02
100
AcDbEntity
  8
Fusion008
100
AcDbLine
 10
109.154
 20
-276.763
 30
5
 11
109.154
 21
-262.763
 31
5
  0
LINE
  5
E0C
330
A02
100
AcDbEntity
  8
Fusion008
100
AcDbLine
 10
109.154
 20
-262.763
 30
5
 11
95.154
 21
-262.763
 31
5
  0
LINE
  5
E0D
330
A02
100
AcDbEntity
  8
Fusion008
100
AcDbLine
 10
133.254
 20
-258
 30
5
 11
133.254
 21
-272
 31
5
  0
LINE
  5
E0E
330
A02
100
AcDbEntity
  8
Fusion008
100
AcDbLine
 10
133.254
 20
-272
 30
5
 11
147.254
 21
-272
 31
5
  0
LINE
  5
E0F
330
A02
100
AcDbEntity
  8
Fusion008
100
AcDbLine
 10
147.254
 20
-272
 30
5
 11
147.254
 21
-258
 31
5
  0
LINE
  5
E10
330
A02
100
AcDbEntity
  8
Fusion008
100
AcDbLine
 10
147.254
 20
-258
 30
5
 11
133.254
 21
-258
 31
5
  0
LINE
  5
E11
330
A02
100
AcDbEntity
  8
Fusion008
100
AcDbLine
 10
38.004
 20
-298.481
 30
5
 11
38.004
 21
-312.481
 31
5
  0
LINE
  5
E12
330
A02
100
AcDbEntity
  8
Fusion008
100
AcDbLine
 10
38.004
 20
-312.481
 30
5
 11
52.004
 21
-312.481
 31
5
  0
LINE
  5
E13
330
A02
100
AcDbEntity
  8
Fusion008
100
AcDbLine
 10
52.004
 20
-312.481
 30
5
 11
52.004
 21
-298.481
 31
5
  0
LINE
  5
E14
330
A02
100
AcDbEntity
  8
Fusion008
100
AcDbLine
 10
52.004
 20
-298.481
 30
5
 11
38.004
 21
-298.481
 31
5
  0
LINE
  5
E15
330
A02
100
AcDbEntity
  8
Fusion008
100
AcDbLine
 10
38.004
 20
-317.531
 30
5
 11
38.004
 21
-331.531
 31
5
  0
LINE
  5
E16
330
A02
100
AcDbEntity
  8
Fusion008
100
AcDbLine
 10
38.004
 20
-331.531
 30
5
 11
52.004
 21
-331.531
 31
5
  0
LINE
  5
E17
330
A02
100
AcDbEntity
  8
Fusion008
100
AcDbLine
 10
52.004
 20
-331.531
 30
5
 11
52.004
 21
-317.531
 31
5
  0
LINE
  5
E18
330
A02
100
AcDbEntity
  8
Fusion008
100
AcDbLine
 10
52.004
 20
-317.531
 30
5
 11
38.004
 21
-317.531
 31
5
  0
LINE
  5
E19
330
A02
100
AcDbEntity
  8
Fusion008
100
AcDbLine
 10
95.154
 20
-300.863
 30
5
 11
95.154
 21
-314.863
 31
5
  0
LINE
  5
E1A
330
A02
100
AcDbEntity
  8
Fusion008
100
AcDbLine
 10
95.154
 20
-314.863
 30
5
 11
109.154
 21
-314.863
 31
5
  0
LINE
  5
E1B
330
A02
100
AcDbEntity
  8
Fusion008
100
AcDbLine
 10
109.154
 20
-314.863
 30
5
 11
109.154
 21
-300.863
 31
5
  0
LINE
  5
E1C
330
A02
100
AcDbEntity
  8
Fusion008
100
AcDbLine
 10
109.154
 20
-300.863
 30
5
 11
95.154
 21
-300.863
 31
5
  0
LINE
  5
E1D
330
A02
100
AcDbEntity
  8
Fusion008
100
AcDbLine
 10
95.154
 20
-338.963
 30
5
 11
95.154
 21
-352.963
 31
5
  0
LINE
  5
E1E
330
A02
100
AcDbEntity
  8
Fusion008
100
AcDbLine
 10
95.154
 20
-352.963
 30
5
 11
109.154
 21
-352.963
 31
5
  0
LINE
  5
E1F
330
A02
100
AcDbEntity
  8
Fusion008
100
AcDbLine
 10
109.154
 20
-352.963
 30
5
 11
109.154
 21
-338.963
 31
5
  0
LINE
  5
E20
330
A02
100
AcDbEntity
  8
Fusion008
100
AcDbLine
 10
109.154
 20
-338.963
 30
5
 11
95.154
 21
-338.963
 31
5
  0
LINE
  5
E21
330
A02
100
AcDbEntity
  8
Fusion008
100
AcDbLine
 10
133.254
 20
-296.1
 30
5
 11
133.254
 21
-310.1
 31
5
  0
LINE
  5
E22
330
A02
100
AcDbEntity
  8
Fusion008
100
AcDbLine
 10
133.254
 20
-310.1
 30
5
 11
147.254
 21
-310.1
 31
5
  0
LINE
  5
E23
330
A02
100
AcDbEntity
  8
Fusion008
100
AcDbLine
 10
147.254
 20
-310.1
 30
5
 11
147.254
 21
-296.1
 31
5
  0
LINE
  5
E24
330
A02
100
AcDbEntity
  8
Fusion008
100
AcDbLine
 10
147.254
 20
-296.1
 30
5
 11
133.254
 21
-296.1
 31
5
  0
LINE
  5
E25
330
A02
100
AcDbEntity
  8
Fusion008
100
AcDbLine
 10
114.204
 20
-258
 30
5
 11
128.204
 21
-258
 31
5
  0
LINE
  5
E26
330
A02
100
AcDbEntity
  8
Fusion008
100
AcDbLine
 10
128.204
 20
-258
 30
5
 11
128.204
 21
-272
 31
5
  0
LINE
  5
E27
330
A02
100
AcDbEntity
  8
Fusion008
100
AcDbLine
 10
128.204
 20
-272
 30
5
 11
114.204
 21
-272
 31
5
  0
LINE
  5
E28
330
A02
100
AcDbEntity
  8
Fusion008
100
AcDbLine
 10
114.204
 20
-272
 30
5
 11
114.204
 21
-258
 31
5
  0
LINE
  5
E29
330
A02
100
AcDbEntity
  8
Fusion008
100
AcDbLine
 10
57.054
 20
-281.813
 30
5
 11
71.054
 21
-281.813
 31
5
  0
LINE
  5
E2A
330
A02
100
AcDbEntity
  8
Fusion008
100
AcDbLine
 10
71.054
 20
-281.813
 30
5
 11
71.054
 21
-295.813
 31
5
  0
LINE
  5
E2B
330
A02
100
AcDbEntity
  8
Fusion008
100
AcDbLine
 10
71.054
 20
-295.813
 30
5
 11
57.054
 21
-295.813
 31
5
  0
LINE
  5
E2C
330
A02
100
AcDbEntity
  8
Fusion008
100
AcDbLine
 10
57.054
 20
-295.813
 30
5
 11
57.054
 21
-281.813
 31
5
  0
LINE
  5
E2D
330
A02
100
AcDbEntity
  8
Fusion008
100
AcDbLine
 10
76.104
 20
-303.244
 30
5
 11
90.104
 21
-303.244
 31
5
  0
LINE
  5
E2E
330
A02
100
AcDbEntity
  8
Fusion008
100
AcDbLine
 10
90.104
 20
-303.244
 30
5
 11
90.104
 21
-317.244
 31
5
  0
LINE
  5
E2F
330
A02
100
AcDbEntity
  8
Fusion008
100
AcDbLine
 10
90.104
 20
-317.244
 30
5
 11
76.104
 21
-317.244
 31
5
  0
LINE
  5
E30
330
A02
100
AcDbEntity
  8
Fusion008
100
AcDbLine
 10
76.104
 20
-317.244
 30
5
 11
76.104
 21
-303.244
 31
5
  0
LINE
  5
E31
330
A02
100
AcDbEntity
  8
Fusion008
100
AcDbLine
 10
76.104
 20
-322.294
 30
5
 11
90.104
 21
-322.294
 31
5
  0
LINE
  5
E32
330
A02
100
AcDbEntity
  8
Fusion008
100
AcDbLine
 10
90.104
 20
-322.294
 30
5
 11
90.104
 21
-336.294
 31
5
  0
LINE
  5
E33
330
A02
100
AcDbEntity
  8
Fusion008
100
AcDbLine
 10
90.104
 20
-336.294
 30
5
 11
76.104
 21
-336.294
 31
5
  0
LINE
  5
E34
330
A02
100
AcDbEntity
  8
Fusion008
100
AcDbLine
 10
76.104
 20
-336.294
 30
5
 11
76.104
 21
-322.294
 31
5
  0
LINE
  5
E35
330
A02
100
AcDbEntity
  8
Fusion008
100
AcDbLine
 10
76.104
 20
-341.344
 30
5
 11
90.104
 21
-341.344
 31
5
  0
LINE
  5
E36
330
A02
100
AcDbEntity
  8
Fusion008
100
AcDbLine
 10
90.104
 20
-341.344
 30
5
 11
90.104
 21
-355.344
 31
5
  0
LINE
  5
E37
330
A02
100
AcDbEntity
  8
Fusion008
100
AcDbLine
 10
90.104
 20
-355.344
 30
5
 11
76.104
 21
-355.344
 31
5
  0
LINE
  5
E38
330
A02
100
AcDbEntity
  8
Fusion008
100
AcDbLine
 10
76.104
 20
-355.344
 30
5
 11
76.104
 21
-341.344
 31
5
  0
LINE
  5
E39
330
A02
100
AcDbEntity
  8
Fusion008
100
AcDbLine
 10
95.154
 20
-281.813
 30
5
 11
109.154
 21
-281.813
 31
5
  0
LINE
  5
E3A
330
A02
100
AcDbEntity
  8
Fusion008
100
AcDbLine
 10
109.154
 20
-281.813
 30
5
 11
109.154
 21
-295.813
 31
5
  0
LINE
  5
E3B
330
A02
100
AcDbEntity
  8
Fusion008
100
AcDbLine
 10
109.154
 20
-295.813
 30
5
 11
95.154
 21
-295.813
 31
5
  0
LINE
  5
E3C
330
A02
100
AcDbEntity
  8
Fusion008
100
AcDbLine
 10
95.154
 20
-295.813
 30
5
 11
95.154
 21
-281.813
 31
5
  0
LINE
  5
E3D
330
A02
100
AcDbEntity
  8
Fusion008
100
AcDbLine
 10
114.204
 20
-296.1
 30
5
 11
128.204
 21
-296.1
 31
5
  0
LINE
  5
E3E
330
A02
100
AcDbEntity
  8
Fusion008
100
AcDbLine
 10
128.204
 20
-296.1
 30
5
 11
128.204
 21
-310.1
 31
5
  0
LINE
  5
E3F
330
A02
100
AcDbEntity
  8
Fusion008
100
AcDbLine
 10
128.204
 20
-310.1
 30
5
 11
114.204
 21
-310.1
 31
5
  0
LINE
  5
E40
330
A02
100
AcDbEntity
  8
Fusion008
100
AcDbLine
 10
114.204
 20
-310.1
 30
5
 11
114.204
 21
-296.1
 31
5
  0
LINE
  5
E41
330
A02
100
AcDbEntity
  8
Fusion008
100
AcDbLine
 10
114.204
 20
-334.2
 30
5
 11
128.204
 21
-334.2
 31
5
  0
LINE
  5
E42
330
A02
100
AcDbEntity
  8
Fusion008
100
AcDbLine
 10
128.204
 20
-334.2
 30
5
 11
128.204
 21
-348.2
 31
5
  0
LINE
  5
E43
330
A02
100
AcDbEntity
  8
Fusion008
100
AcDbLine
 10
128.204
 20
-348.2
 30
5
 11
114.204
 21
-348.2
 31
5
  0
LINE
  5
E44
330
A02
100
AcDbEntity
  8
Fusion008
100
AcDbLine
 10
114.204
 20
-348.2
 30
5
 11
114.204
 21
-334.2
 31
5
  0
LINE
  5
E45
330
A02
100
AcDbEntity
  8
Fusion008
100
AcDbLine
 10
52.004
 20
-336.581
 30
5
 11
52.004
 21
-350.581
 31
5
  0
LINE
  5
E46
330
A02
100
AcDbEntity
  8
Fusion008
100
AcDbLine
 10
52.004
 20
-350.581
 30
5
 11
38.004
 21
-350.581
 31
5
  0
LINE
  5
E47
330
A02
100
AcDbEntity
  8
Fusion008
100
AcDbLine
 10
38.004
 20
-350.581
 30
5
 11
38.004
 21
-336.581
 31
5
  0
LINE
  5
E48
330
A02
100
AcDbEntity
  8
Fusion008
100
AcDbLine
 10
38.004
 20
-336.581
 30
5
 11
52.004
 21
-336.581
 31
5
  0
LINE
  5
E49
330
A02
100
AcDbEntity
  8
Fusion008
100
AcDbLine
 10
57.054
 20
-352.963
 30
5
 11
57.054
 21
-338.963
 31
5
  0
LINE
  5
E4A
330
A02
100
AcDbEntity
  8
Fusion008
100
AcDbLine
 10
57.054
 20
-338.963
 30
5
 11
71.054
 21
-338.963
 31
5
  0
LINE
  5
E4B
330
A02
100
AcDbEntity
  8
Fusion008
100
AcDbLine
 10
71.054
 20
-338.963
 30
5
 11
71.054
 21
-352.963
 31
5
  0
LINE
  5
E4C
330
A02
100
AcDbEntity
  8
Fusion008
100
AcDbLine
 10
71.054
 20
-352.963
 30
5
 11
57.054
 21
-352.963
 31
5
  0
LINE
  5
E4D
330
A02
100
AcDbEntity
  8
Fusion008
100
AcDbLine
 10
57.054
 20
-314.863
 30
5
 11
57.054
 21
-300.863
 31
5
  0
LINE
  5
E4E
330
A02
100
AcDbEntity
  8
Fusion008
100
AcDbLine
 10
57.054
 20
-300.863
 30
5
 11
71.054
 21
-300.863
 31
5
  0
LINE
  5
E4F
330
A02
100
AcDbEntity
  8
Fusion008
100
AcDbLine
 10
71.054
 20
-300.863
 30
5
 11
71.054
 21
-314.863
 31
5
  0
LINE
  5
E50
330
A02
100
AcDbEntity
  8
Fusion008
100
AcDbLine
 10
71.054
 20
-314.863
 30
5
 11
57.054
 21
-314.863
 31
5
  0
LINE
  5
E51
330
A02
100
AcDbEntity
  8
Fusion008
100
AcDbLine
 10
133.254
 20
-334.2
 30
5
 11
133.254
 21
-348.2
 31
5
  0
LINE
  5
E52
330
A02
100
AcDbEntity
  8
Fusion008
100
AcDbLine
 10
133.254
 20
-348.2
 30
5
 11
147.254
 21
-348.2
 31
5
  0
LINE
  5
E53
330
A02
100
AcDbEntity
  8
Fusion008
100
AcDbLine
 10
147.254
 20
-348.2
 30
5
 11
147.254
 21
-334.2
 31
5
  0
LINE
  5
E54
330
A02
100
AcDbEntity
  8
Fusion008
100
AcDbLine
 10
147.254
 20
-334.2
 30
5
 11
133.254
 21
-334.2
 31
5
  0
LINE
  5
E55
330
A02
100
AcDbEntity
  8
Fusion008
100
AcDbLine
 10
38.004
 20
-279.431
 30
5
 11
38.004
 21
-293.431
 31
5
  0
LINE
  5
E56
330
A02
100
AcDbEntity
  8
Fusion008
100
AcDbLine
 10
38.004
 20
-293.431
 30
5
 11
52.004
 21
-293.431
 31
5
  0
LINE
  5
E57
330
A02
100
AcDbEntity
  8
Fusion008
100
AcDbLine
 10
52.004
 20
-293.431
 30
5
 11
52.004
 21
-279.431
 31
5
  0
LINE
  5
E58
330
A02
100
AcDbEntity
  8
Fusion008
100
AcDbLine
 10
52.004
 20
-279.431
 30
5
 11
38.004
 21
-279.431
 31
5
  0
LINE
  5
E59
330
A02
100
AcDbEntity
  8
Fusion008
100
AcDbLine
 10
133.254
 20
-277.05
 30
5
 11
133.254
 21
-291.05
 31
5
  0
LINE
  5
E5A
330
A02
100
AcDbEntity
  8
Fusion008
100
AcDbLine
 10
133.254
 20
-291.05
 30
5
 11
147.254
 21
-291.05
 31
5
  0
LINE
  5
E5B
330
A02
100
AcDbEntity
  8
Fusion008
100
AcDbLine
 10
147.254
 20
-291.05
 30
5
 11
147.254
 21
-277.05
 31
5
  0
LINE
  5
E5C
330
A02
100
AcDbEntity
  8
Fusion008
100
AcDbLine
 10
147.254
 20
-277.05
 30
5
 11
133.254
 21
-277.05
 31
5
  0
LINE
  5
E5D
330
A02
100
AcDbEntity
  8
Fusion008
100
AcDbLine
 10
114.204
 20
-277.05
 30
5
 11
128.204
 21
-277.05
 31
5
  0
LINE
  5
E5E
330
A02
100
AcDbEntity
  8
Fusion008
100
AcDbLine
 10
128.204
 20
-277.05
 30
5
 11
128.204
 21
-291.05
 31
5
  0
LINE
  5
E5F
330
A02
100
AcDbEntity
  8
Fusion008
100
AcDbLine
 10
128.204
 20
-291.05
 30
5
 11
114.204
 21
-291.05
 31
5
  0
LINE
  5
E60
330
A02
100
AcDbEntity
  8
Fusion008
100
AcDbLine
 10
114.204
 20
-291.05
 30
5
 11
114.204
 21
-277.05
 31
5
  0
LINE
  5
E61
330
A02
100
AcDbEntity
  8
Fusion008
100
AcDbLine
 10
95.154
 20
-319.913
 30
5
 11
95.154
 21
-333.913
 31
5
  0
LINE
  5
E62
330
A02
100
AcDbEntity
  8
Fusion008
100
AcDbLine
 10
95.154
 20
-333.913
 30
5
 11
109.154
 21
-333.913
 31
5
  0
LINE
  5
E63
330
A02
100
AcDbEntity
  8
Fusion008
100
AcDbLine
 10
109.154
 20
-333.913
 30
5
 11
109.154
 21
-319.913
 31
5
  0
LINE
  5
E64
330
A02
100
AcDbEntity
  8
Fusion008
100
AcDbLine
 10
109.154
 20
-319.913
 30
5
 11
95.154
 21
-319.913
 31
5
  0
LINE
  5
E65
330
A02
100
AcDbEntity
  8
Fusion008
100
AcDbLine
 10
18.954
 20
-308.006
 30
5
 11
32.954
 21
-308.006
 31
5
  0
LINE
  5
E66
330
A02
100
AcDbEntity
  8
Fusion008
100
AcDbLine
 10
32.954
 20
-308.006
 30
5
 11
32.954
 21
-322.006
 31
5
  0
LINE
  5
E67
330
A02
100
AcDbEntity
  8
Fusion008
100
AcDbLine
 10
32.954
 20
-322.006
 30
5
 11
18.954
 21
-322.006
 31
5
  0
LINE
  5
E68
330
A02
100
AcDbEntity
  8
Fusion008
100
AcDbLine
 10
18.954
 20
-322.006
 30
5
 11
18.954
 21
-308.006
 31
5
  0
LINE
  5
E69
330
A02
100
AcDbEntity
  8
Fusion008
100
AcDbLine
 10
57.054
 20
-319.913
 30
5
 11
71.054
 21
-319.913
 31
5
  0
LINE
  5
E6A
330
A02
100
AcDbEntity
  8
Fusion008
100
AcDbLine
 10
71.054
 20
-319.913
 30
5
 11
71.054
 21
-333.913
 31
5
  0
LINE
  5
E6B
330
A02
100
AcDbEntity
  8
Fusion008
100
AcDbLine
 10
71.054
 20
-333.913
 30
5
 11
57.054
 21
-333.913
 31
5
  0
LINE
  5
E6C
330
A02
100
AcDbEntity
  8
Fusion008
100
AcDbLine
 10
57.054
 20
-333.913
 30
5
 11
57.054
 21
-319.913
 31
5
  0
LINE
  5
E6D
330
A02
100
AcDbEntity
  8
Fusion008
100
AcDbLine
 10
18.954
 20
-288.956
 30
5
 11
32.954
 21
-288.956
 31
5
  0
LINE
  5
E6E
330
A02
100
AcDbEntity
  8
Fusion008
100
AcDbLine
 10
32.954
 20
-288.956
 30
5
 11
32.954
 21
-302.956
 31
5
  0
LINE
  5
E6F
330
A02
100
AcDbEntity
  8
Fusion008
100
AcDbLine
 10
32.954
 20
-302.956
 30
5
 11
18.954
 21
-302.956
 31
5
  0
LINE
  5
E70
330
A02
100
AcDbEntity
  8
Fusion008
100
AcDbLine
 10
18.954
 20
-302.956
 30
5
 11
18.954
 21
-288.956
 31
5
  0
LINE
  5
E71
330
A02
100
AcDbEntity
  8
Fusion008
100
AcDbLine
 10
32.954
 20
-341.056
 30
5
 11
18.954
 21
-341.056
 31
5
  0
LINE
  5
E72
330
A02
100
AcDbEntity
  8
Fusion008
100
AcDbLine
 10
18.954
 20
-341.056
 30
5
 11
18.954
 21
-327.056
 31
5
  0
LINE
  5
E73
330
A02
100
AcDbEntity
  8
Fusion008
100
AcDbLine
 10
18.954
 20
-327.056
 30
5
 11
32.954
 21
-327.056
 31
5
  0
LINE
  5
E74
330
A02
100
AcDbEntity
  8
Fusion008
100
AcDbLine
 10
32.954
 20
-327.056
 30
5
 11
32.954
 21
-341.056
 31
5
  0
CIRCLE
  5
E75
330
A02
100
AcDbEntity
  8
Fusion008
100
AcDbCircle
 10
130.729
 20
-274.208
 40
1.5
  0
CIRCLE
  5
E76
330
A02
100
AcDbEntity
  8
Fusion008
100
AcDbCircle
 10
92.121
 20
-281.828
 40
1.5
  0
CIRCLE
  5
E77
330
A02
100
AcDbEntity
  8
Fusion008
100
AcDbCircle
 10
41.448
 20
-274.462
 40
1.5
  0
CIRCLE
  5
E78
330
A02
100
AcDbEntity
  8
Fusion008
100
AcDbCircle
 10
92.629
 20
-317.388
 40
1.5
  0
CIRCLE
  5
E79
330
A02
100
AcDbEntity
  8
Fusion008
100
AcDbCircle
 10
98.852
 20
-356.504
 40
1.5
  0
CIRCLE
  5
E7A
330
A02
100
AcDbEntity
  8
Fusion008
100
AcDbCircle
 10
35.479
 20
-334.152
 40
1.5
  0
CIRCLE
  5
E7B
330
A02
100
AcDbEntity
  8
Fusion008
100
AcDbCircle
 10
130.729
 20
-331.612
 40
1.5
  0
LINE
  5
E7C
330
A02
100
AcDbEntity
  8
Fusion008
100
AcDbLine
 10
110.5
 20
-120
 30
-5
 11
110.5
 21
-120
 31
-7
  0
LINE
  5
E7D
330
A02
100
AcDbEntity
  8
Fusion008
100
AcDbLine
 10
110.5
 20
-132
 30
-5
 11
110.5
 21
-132
 31
-7
  0
LINE
  5
E7E
330
A02
100
AcDbEntity
  8
Fusion008
100
AcDbLine
 10
110.5
 20
-120
 30
-5
 11
110.5
 21
-132
 31
-5
  0
LINE
  5
E7F
330
A02
100
AcDbEntity
  8
Fusion008
100
AcDbLine
 10
110.5
 20
-120
 30
-7
 11
110.5
 21
-132
 31
-7
  0
LINE
  5
E80
330
A02
100
AcDbEntity
  8
Fusion008
100
AcDbLine
 10
110.5
 20
-132
 30
-5
 11
110.5
 21
-132
 31
-7
  0
LINE
  5
E81
330
A02
100
AcDbEntity
  8
Fusion008
100
AcDbLine
 10
112.5
 20
-134
 30
-5
 11
112.5
 21
-134
 31
-7
  0
ARC
  5
E82
330
A02
100
AcDbEntity
  8
Fusion008
100
AcDbCircle
 10
112.5
 20
-132
 30
-5
 40
2
100
AcDbArc
 50
180
 51
-90
  0
ARC
  5
E83
330
A02
100
AcDbEntity
  8
Fusion008
100
AcDbCircle
 10
112.5
 20
-132
 30
-7
 40
2
100
AcDbArc
 50
180
 51
-90
  0
LINE
  5
E84
330
A02
100
AcDbEntity
  8
Fusion008
100
AcDbLine
 10
112.5
 20
-134
 30
-5
 11
112.5
 21
-134
 31
-7
  0
LINE
  5
E85
330
A02
100
AcDbEntity
  8
Fusion008
100
AcDbLine
 10
132.5
 20
-134
 30
-5
 11
132.5
 21
-134
 31
-7
  0
LINE
  5
E86
330
A02
100
AcDbEntity
  8
Fusion008
100
AcDbLine
 10
112.5
 20
-134
 30
-5
 11
132.5
 21
-134
 31
-5
  0
LINE
  5
E87
330
A02
100
AcDbEntity
  8
Fusion008
100
AcDbLine
 10
112.5
 20
-134
 30
-7
 11
132.5
 21
-134
 31
-7
  0
LINE
  5
E88
330
A02
100
AcDbEntity
  8
Fusion008
100
AcDbLine
 10
135
 20
-136.5
 30
-5
 11
135
 21
-136.5
 31
-7
  0
LINE
  5
E89
330
A02
100
AcDbEntity
  8
Fusion008
100
AcDbLine
 10
132.5
 20
-134
 30
-5
 11
132.5
 21
-134
 31
-7
  0
ARC
  5
E8A
330
A02
100
AcDbEntity
  8
Fusion008
100
AcDbCircle
 10
132.5
 20
-136.5
 30
-5
 40
2.5
100
AcDbArc
 50
0
 51
90
  0
ARC
  5
E8B
330
A02
100
AcDbEntity
  8
Fusion008
100
AcDbCircle
 10
132.5
 20
-136.5
 30
-7
 40
2.5
100
AcDbArc
 50
0
 51
90
  0
LINE
  5
E8C
330
A02
100
AcDbEntity
  8
Fusion008
100
AcDbLine
 10
135
 20
-198.056
 30
-5
 11
135
 21
-198.056
 31
-7
  0
LINE
  5
E8D
330
A02
100
AcDbEntity
  8
Fusion008
100
AcDbLine
 10
135
 20
-136.5
 30
-5
 11
135
 21
-136.5
 31
-7
  0
LINE
  5
E8E
330
A02
100
AcDbEntity
  8
Fusion008
100
AcDbLine
 10
135
 20
-198.056
 30
-5
 11
135
 21
-136.5
 31
-5
  0
LINE
  5
E8F
330
A02
100
AcDbEntity
  8
Fusion008
100
AcDbLine
 10
135
 20
-198.056
 30
-7
 11
135
 21
-136.5
 31
-7
  0
LINE
  5
E90
330
A02
100
AcDbEntity
  8
Fusion008
100
AcDbLine
 10
135
 20
-198.056
 30
-5
 11
135
 21
-198.056
 31
-7
  0
LINE
  5
E91
330
A02
100
AcDbEntity
  8
Fusion008
100
AcDbLine
 10
135.85
 20
-199.528
 30
-5
 11
135.85
 21
-199.528
 31
-7
  0
ARC
  5
E92
330
A02
100
AcDbEntity
  8
Fusion008
100
AcDbCircle
 10
136.7
 20
-198.056
 30
-5
 40
1.7
100
AcDbArc
 50
180
 51
-120
  0
ARC
  5
E93
330
A02
100
AcDbEntity
  8
Fusion008
100
AcDbCircle
 10
136.7
 20
-198.056
 30
-7
 40
1.7
100
AcDbArc
 50
180
 51
-120
  0
LINE
  5
E94
330
A02
100
AcDbEntity
  8
Fusion008
100
AcDbLine
 10
135.85
 20
-199.528
 30
-5
 11
135.85
 21
-199.528
 31
-7
  0
LINE
  5
E95
330
A02
100
AcDbEntity
  8
Fusion008
100
AcDbLine
 10
151.799
 20
-208.737
 30
-5
 11
151.799
 21
-208.737
 31
-7
  0
LINE
  5
E96
330
A02
100
AcDbEntity
  8
Fusion008
100
AcDbLine
 10
135.85
 20
-199.528
 30
-5
 11
151.799
 21
-208.737
 31
-5
  0
LINE
  5
E97
330
A02
100
AcDbEntity
  8
Fusion008
100
AcDbLine
 10
135.85
 20
-199.528
 30
-7
 11
151.799
 21
-208.737
 31
-7
  0
LINE
  5
E98
330
A02
100
AcDbEntity
  8
Fusion008
100
AcDbLine
 10
152.714
 20
-212.152
 30
-5
 11
152.714
 21
-212.152
 31
-7
  0
LINE
  5
E99
330
A02
100
AcDbEntity
  8
Fusion008
100
AcDbLine
 10
151.799
 20
-208.737
 30
-5
 11
151.799
 21
-208.737
 31
-7
  0
ARC
  5
E9A
330
A02
100
AcDbEntity
  8
Fusion008
100
AcDbCircle
 10
150.549
 20
-210.902
 30
-5
 40
2.5
100
AcDbArc
 50
-30
 51
60
  0
ARC
  5
E9B
330
A02
100
AcDbEntity
  8
Fusion008
100
AcDbCircle
 10
150.549
 20
-210.902
 30
-7
 40
2.5
100
AcDbArc
 50
-30
 51
60
  0
LINE
  5
E9C
330
A02
100
AcDbEntity
  8
Fusion008
100
AcDbLine
 10
133.954
 20
-244.645
 30
-5
 11
133.954
 21
-244.645
 31
-7
  0
LINE
  5
E9D
330
A02
100
AcDbEntity
  8
Fusion008
100
AcDbLine
 10
152.714
 20
-212.152
 30
-5
 11
152.714
 21
-212.152
 31
-7
  0
LINE
  5
E9E
330
A02
100
AcDbEntity
  8
Fusion008
100
AcDbLine
 10
133.954
 20
-244.645
 30
-5
 11
152.714
 21
-212.152
 31
-5
  0
LINE
  5
E9F
330
A02
100
AcDbEntity
  8
Fusion008
100
AcDbLine
 10
133.954
 20
-244.645
 30
-7
 11
152.714
 21
-212.152
 31
-7
  0
LINE
  5
EA0
330
A02
100
AcDbEntity
  8
Fusion008
100
AcDbLine
 10
130.539
 20
-245.56
 30
-5
 11
130.539
 21
-245.56
 31
-7
  0
LINE
  5
EA1
330
A02
100
AcDbEntity
  8
Fusion008
100
AcDbLine
 10
133.954
 20
-244.645
 30
-5
 11
133.954
 21
-244.645
 31
-7
  0
ARC
  5
EA2
330
A02
100
AcDbEntity
  8
Fusion008
100
AcDbCircle
 10
131.789
 20
-243.395
 30
-5
 40
2.5
100
AcDbArc
 50
-120
 51
-30
  0
ARC
  5
EA3
330
A02
100
AcDbEntity
  8
Fusion008
100
AcDbCircle
 10
131.789
 20
-243.395
 30
-7
 40
2.5
100
AcDbArc
 50
-120
 51
-30
  0
LINE
  5
EA4
330
A02
100
AcDbEntity
  8
Fusion008
100
AcDbLine
 10
94.187
 20
-224.572
 30
-5
 11
94.187
 21
-224.572
 31
-7
  0
LINE
  5
EA5
330
A02
100
AcDbEntity
  8
Fusion008
100
AcDbLine
 10
130.539
 20
-245.56
 30
-5
 11
130.539
 21
-245.56
 31
-7
  0
LINE
  5
EA6
330
A02
100
AcDbEntity
  8
Fusion008
100
AcDbLine
 10
94.187
 20
-224.572
 30
-5
 11
130.539
 21
-245.56
 31
-5
  0
LINE
  5
EA7
330
A02
100
AcDbEntity
  8
Fusion008
100
AcDbLine
 10
94.187
 20
-224.572
 30
-7
 11
130.539
 21
-245.56
 31
-7
  0
LINE
  5
EA8
330
A02
100
AcDbEntity
  8
Fusion008
100
AcDbLine
 10
94.187
 20
-224.572
 30
-5
 11
94.187
 21
-224.572
 31
-7
  0
LINE
  5
EA9
330
A02
100
AcDbEntity
  8
Fusion008
100
AcDbLine
 10
92.052
 20
-224
 30
-5
 11
92.052
 21
-224
 31
-7
  0
ARC
  5
EAA
330
A02
100
AcDbEntity
  8
Fusion008
100
AcDbCircle
 10
92.052
 20
-228.27
 30
-5
 40
4.27
100
AcDbArc
 50
60
 51
90
  0
ARC
  5
EAB
330
A02
100
AcDbEntity
  8
Fusion008
100
AcDbCircle
 10
92.052
 20
-228.27
 30
-7
 40
4.27
100
AcDbArc
 50
60
 51
90
  0
LINE
  5
EAC
330
A02
100
AcDbEntity
  8
Fusion008
100
AcDbLine
 10
-0.5
 20
-224
 30
-5
 11
-0.5
 21
-224
 31
-7
  0
LINE
  5
EAD
330
A02
100
AcDbEntity
  8
Fusion008
100
AcDbLine
 10
92.052
 20
-224
 30
-5
 11
92.052
 21
-224
 31
-7
  0
LINE
  5
EAE
330
A02
100
AcDbEntity
  8
Fusion008
100
AcDbLine
 10
-0.5
 20
-224
 30
-5
 11
92.052
 21
-224
 31
-5
  0
LINE
  5
EAF
330
A02
100
AcDbEntity
  8
Fusion008
100
AcDbLine
 10
-0.5
 20
-224
 30
-7
 11
92.052
 21
-224
 31
-7
  0
LINE
  5
EB0
330
A02
100
AcDbEntity
  8
Fusion008
100
AcDbLine
 10
-3
 20
-221.5
 30
-5
 11
-3
 21
-221.5
 31
-7
  0
LINE
  5
EB1
330
A02
100
AcDbEntity
  8
Fusion008
100
AcDbLine
 10
-0.5
 20
-224
 30
-5
 11
-0.5
 21
-224
 31
-7
  0
ARC
  5
EB2
330
A02
100
AcDbEntity
  8
Fusion008
100
AcDbCircle
 10
-0.5
 20
-221.5
 30
-5
 40
2.5
100
AcDbArc
 50
180
 51
-90
  0
ARC
  5
EB3
330
A02
100
AcDbEntity
  8
Fusion008
100
AcDbCircle
 10
-0.5
 20
-221.5
 30
-7
 40
2.5
100
AcDbArc
 50
180
 51
-90
  0
LINE
  5
EB4
330
A02
100
AcDbEntity
  8
Fusion008
100
AcDbLine
 10
-3
 20
-221.5
 30
-5
 11
-3
 21
-221.5
 31
-7
  0
LINE
  5
EB5
330
A02
100
AcDbEntity
  8
Fusion008
100
AcDbLine
 10
-3
 20
-126.048
 30
-5
 11
-3
 21
-126.048
 31
-7
  0
LINE
  5
EB6
330
A02
100
AcDbEntity
  8
Fusion008
100
AcDbLine
 10
-3
 20
-221.5
 30
-5
 11
-3
 21
-126.048
 31
-5
  0
LINE
  5
EB7
330
A02
100
AcDbEntity
  8
Fusion008
100
AcDbLine
 10
-3
 20
-221.5
 30
-7
 11
-3
 21
-126.048
 31
-7
  0
LINE
  5
EB8
330
A02
100
AcDbEntity
  8
Fusion008
100
AcDbLine
 10
-1.01171
 20
-123.606
 30
-5
 11
-1.01171
 21
-123.606
 31
-7
  0
LINE
  5
EB9
330
A02
100
AcDbEntity
  8
Fusion008
100
AcDbLine
 10
-3
 20
-126.048
 30
-5
 11
-3
 21
-126.048
 31
-7
  0
ARC
  5
EBA
330
A02
100
AcDbEntity
  8
Fusion008
100
AcDbCircle
 10
-0.506514
 20
-126.048
 30
-5
 40
2.49349
100
AcDbArc
 50
101.689
 51
180
  0
ARC
  5
EBB
330
A02
100
AcDbEntity
  8
Fusion008
100
AcDbCircle
 10
-0.506514
 20
-126.048
 30
-7
 40
2.49349
100
AcDbArc
 50
101.689
 51
180
  0
LINE
  5
EBC
330
A02
100
AcDbEntity
  8
Fusion008
100
AcDbLine
 10
52.5948
 20
-112.515
 30
-5
 11
52.5948
 21
-112.515
 31
-7
  0
LINE
  5
EBD
330
A02
100
AcDbEntity
  8
Fusion008
100
AcDbLine
 10
-1.01171
 20
-123.606
 30
-5
 11
-1.01171
 21
-123.606
 31
-7
  0
LINE
  5
EBE
330
A02
100
AcDbEntity
  8
Fusion008
100
AcDbLine
 10
52.5948
 20
-112.515
 30
-5
 11
-1.01171
 21
-123.606
 31
-5
  0
LINE
  5
EBF
330
A02
100
AcDbEntity
  8
Fusion008
100
AcDbLine
 10
52.5948
 20
-112.515
 30
-7
 11
-1.01171
 21
-123.606
 31
-7
  0
LINE
  5
EC0
330
A02
100
AcDbEntity
  8
Fusion008
100
AcDbLine
 10
55
 20
-114.473
 30
-5
 11
55
 21
-114.473
 31
-7
  0
LINE
  5
EC1
330
A02
100
AcDbEntity
  8
Fusion008
100
AcDbLine
 10
52.5948
 20
-112.515
 30
-5
 11
52.5948
 21
-112.515
 31
-7
  0
ARC
  5
EC2
330
A02
100
AcDbEntity
  8
Fusion008
100
AcDbCircle
 10
53
 20
-114.473
 30
-5
 40
2
100
AcDbArc
 50
0
 51
101.689
  0
ARC
  5
EC3
330
A02
100
AcDbEntity
  8
Fusion008
100
AcDbCircle
 10
53
 20
-114.473
 30
-7
 40
2
100
AcDbArc
 50
0
 51
101.689
  0
LINE
  5
EC4
330
A02
100
AcDbEntity
  8
Fusion008
100
AcDbLine
 10
55
 20
-114.473
 30
-5
 11
55
 21
-114.473
 31
-7
  0
LINE
  5
EC5
330
A02
100
AcDbEntity
  8
Fusion008
100
AcDbLine
 10
55
 20
-145.82
 30
-5
 11
55
 21
-145.82
 31
-7
  0
LINE
  5
EC6
330
A02
100
AcDbEntity
  8
Fusion008
100
AcDbLine
 10
55
 20
-114.473
 30
-5
 11
55
 21
-145.82
 31
-5
  0
LINE
  5
EC7
330
A02
100
AcDbEntity
  8
Fusion008
100
AcDbLine
 10
55
 20
-114.473
 30
-7
 11
55
 21
-145.82
 31
-7
  0
LINE
  5
EC8
330
A02
100
AcDbEntity
  8
Fusion008
100
AcDbLine
 10
55
 20
-145.82
 30
-5
 11
55
 21
-145.82
 31
-7
  0
LINE
  5
EC9
330
A02
100
AcDbEntity
  8
Fusion008
100
AcDbLine
 10
57
 20
-147.82
 30
-5
 11
57
 21
-147.82
 31
-7
  0
ARC
  5
ECA
330
A02
100
AcDbEntity
  8
Fusion008
100
AcDbCircle
 10
57
 20
-145.82
 30
-5
 40
2
100
AcDbArc
 50
180
 51
-90
  0
ARC
  5
ECB
330
A02
100
AcDbEntity
  8
Fusion008
100
AcDbCircle
 10
57
 20
-145.82
 30
-7
 40
2
100
AcDbArc
 50
180
 51
-90
  0
LINE
  5
ECC
330
A02
100
AcDbEntity
  8
Fusion008
100
AcDbLine
 10
57
 20
-147.82
 30
-5
 11
57
 21
-147.82
 31
-7
  0
LINE
  5
ECD
330
A02
100
AcDbEntity
  8
Fusion008
100
AcDbLine
 10
94
 20
-147.82
 30
-5
 11
94
 21
-147.82
 31
-7
  0
LINE
  5
ECE
330
A02
100
AcDbEntity
  8
Fusion008
100
AcDbLine
 10
57
 20
-147.82
 30
-5
 11
94
 21
-147.82
 31
-5
  0
LINE
  5
ECF
330
A02
100
AcDbEntity
  8
Fusion008
100
AcDbLine
 10
57
 20
-147.82
 30
-7
 11
94
 21
-147.82
 31
-7
  0
LINE
  5
ED0
330
A02
100
AcDbEntity
  8
Fusion008
100
AcDbLine
 10
94
 20
-147.82
 30
-5
 11
94
 21
-147.82
 31
-7
  0
LINE
  5
ED1
330
A02
100
AcDbEntity
  8
Fusion008
100
AcDbLine
 10
96
 20
-145.82
 30
-5
 11
96
 21
-145.82
 31
-7
  0
ARC
  5
ED2
330
A02
100
AcDbEntity
  8
Fusion008
100
AcDbCircle
 10
94
 20
-145.82
 30
-5
 40
2
100
AcDbArc
 50
-90
 51
0
  0
ARC
  5
ED3
330
A02
100
AcDbEntity
  8
Fusion008
100
AcDbCircle
 10
94
 20
-145.82
 30
-7
 40
2
100
AcDbArc
 50
-90
 51
0
  0
LINE
  5
ED4
330
A02
100
AcDbEntity
  8
Fusion008
100
AcDbLine
 10
96
 20
-145.82
 30
-5
 11
96
 21
-145.82
 31
-7
  0
LINE
  5
ED5
330
A02
100
AcDbEntity
  8
Fusion008
100
AcDbLine
 10
96
 20
-114.159
 30
-5
 11
96
 21
-114.159
 31
-7
  0
LINE
  5
ED6
330
A02
100
AcDbEntity
  8
Fusion008
100
AcDbLine
 10
96
 20
-145.82
 30
-5
 11
96
 21
-114.159
 31
-5
  0
LINE
  5
ED7
330
A02
100
AcDbEntity
  8
Fusion008
100
AcDbLine
 10
96
 20
-145.82
 30
-7
 11
96
 21
-114.159
 31
-7
  0
LINE
  5
ED8
330
A02
100
AcDbEntity
  8
Fusion008
100
AcDbLine
 10
98.6782
 20
-112.278
 30
-5
 11
98.6782
 21
-112.278
 31
-7
  0
LINE
  5
ED9
330
A02
100
AcDbEntity
  8
Fusion008
100
AcDbLine
 10
96
 20
-114.159
 30
-5
 11
96
 21
-114.159
 31
-7
  0
ARC
  5
EDA
330
A02
100
AcDbEntity
  8
Fusion008
100
AcDbCircle
 10
98
 20
-114.159
 30
-5
 40
2
100
AcDbArc
 50
70.1773
 51
180
  0
ARC
  5
EDB
330
A02
100
AcDbEntity
  8
Fusion008
100
AcDbCircle
 10
98
 20
-114.159
 30
-7
 40
2
100
AcDbArc
 50
70.1773
 51
180
  0
LINE
  5
EDC
330
A02
100
AcDbEntity
  8
Fusion008
100
AcDbLine
 10
102.239
 20
-114.91
 30
-5
 11
102.239
 21
-114.91
 31
-7
  0
LINE
  5
EDD
330
A02
100
AcDbEntity
  8
Fusion008
100
AcDbLine
 10
98.6782
 20
-112.278
 30
-5
 11
98.6782
 21
-112.278
 31
-7
  0
ARC
  5
EDE
330
A02
100
AcDbEntity
  8
Fusion008
100
AcDbCircle
 10
96.0586
 20
-119.545
 30
-5
 40
7.725
100
AcDbArc
 50
36.8699
 51
70.1773
  0
ARC
  5
EDF
330
A02
100
AcDbEntity
  8
Fusion008
100
AcDbCircle
 10
96.0586
 20
-119.545
 30
-7
 40
7.725
100
AcDbArc
 50
36.8699
 51
70.1773
  0
LINE
  5
EE0
330
A02
100
AcDbEntity
  8
Fusion008
100
AcDbLine
 10
102.239
 20
-114.91
 30
-5
 11
102.239
 21
-114.91
 31
-7
  0
LINE
  5
EE1
330
A02
100
AcDbEntity
  8
Fusion008
100
AcDbLine
 10
108.419
 20
-118
 30
-5
 11
108.419
 21
-118
 31
-7
  0
ARC
  5
EE2
330
A02
100
AcDbEntity
  8
Fusion008
100
AcDbCircle
 10
108.419
 20
-110.275
 30
-5
 40
7.725
100
AcDbArc
 50
-143.13
 51
-90
  0
ARC
  5
EE3
330
A02
100
AcDbEntity
  8
Fusion008
100
AcDbCircle
 10
108.419
 20
-110.275
 30
-7
 40
7.725
100
AcDbArc
 50
-143.13
 51
-90
  0
LINE
  5
EE4
330
A02
100
AcDbEntity
  8
Fusion008
100
AcDbLine
 10
108.5
 20
-118
 30
-5
 11
108.5
 21
-118
 31
-7
  0
LINE
  5
EE5
330
A02
100
AcDbEntity
  8
Fusion008
100
AcDbLine
 10
108.419
 20
-118
 30
-5
 11
108.419
 21
-118
 31
-7
  0
LINE
  5
EE6
330
A02
100
AcDbEntity
  8
Fusion008
100
AcDbLine
 10
108.5
 20
-118
 30
-5
 11
108.419
 21
-118
 31
-5
  0
LINE
  5
EE7
330
A02
100
AcDbEntity
  8
Fusion008
100
AcDbLine
 10
108.5
 20
-118
 30
-7
 11
108.419
 21
-118
 31
-7
  0
LINE
  5
EE8
330
A02
100
AcDbEntity
  8
Fusion008
100
AcDbLine
 10
110.5
 20
-120
 30
-5
 11
110.5
 21
-120
 31
-7
  0
LINE
  5
EE9
330
A02
100
AcDbEntity
  8
Fusion008
100
AcDbLine
 10
108.5
 20
-118
 30
-5
 11
108.5
 21
-118
 31
-7
  0
ARC
  5
EEA
330
A02
100
AcDbEntity
  8
Fusion008
100
AcDbCircle
 10
108.5
 20
-120
 30
-5
 40
2
100
AcDbArc
 50
0
 51
90
  0
ARC
  5
EEB
330
A02
100
AcDbEntity
  8
Fusion008
100
AcDbCircle
 10
108.5
 20
-120
 30
-7
 40
2
100
AcDbArc
 50
0
 51
90
  0
LINE
  5
EEC
330
A02
100
AcDbEntity
  8
Fusion008
100
AcDbLine
 10
109.052
 20
-202.538
 30
-5
 11
109.052
 21
-202.538
 31
-7
  0
LINE
  5
EED
330
A02
100
AcDbEntity
  8
Fusion008
100
AcDbLine
 10
109.052
 20
-202.538
 30
-5
 11
109.052
 21
-202.538
 31
-7
  0
CIRCLE
  5
EEE
330
A02
100
AcDbEntity
  8
Fusion008
100
AcDbCircle
 10
107.552
 20
-202.538
 40
1.5
  0
CIRCLE
  5
EEF
330
A02
100
AcDbEntity
  8
Fusion008
100
AcDbCircle
 10
107.552
 20
-202.538
 40
1.5
  0
LINE
  5
EF0
330
A02
100
AcDbEntity
  8
Fusion008
100
AcDbLine
 10
57.871
 20
-159.613
 30
-5
 11
57.871
 21
-159.613
 31
-7
  0
LINE
  5
EF1
330
A02
100
AcDbEntity
  8
Fusion008
100
AcDbLine
 10
57.871
 20
-159.613
 30
-5
 11
57.871
 21
-159.613
 31
-7
  0
CIRCLE
  5
EF2
330
A02
100
AcDbEntity
  8
Fusion008
100
AcDbCircle
 10
56.371
 20
-159.613
 40
1.5
  0
CIRCLE
  5
EF3
330
A02
100
AcDbEntity
  8
Fusion008
100
AcDbCircle
 10
56.371
 20
-159.613
 40
1.5
  0
LINE
  5
EF4
330
A02
100
AcDbEntity
  8
Fusion008
100
AcDbLine
 10
58.379
 20
-195.173
 30
-5
 11
58.379
 21
-195.173
 31
-7
  0
LINE
  5
EF5
330
A02
100
AcDbEntity
  8
Fusion008
100
AcDbLine
 10
58.379
 20
-195.173
 30
-5
 11
58.379
 21
-195.173
 31
-7
  0
CIRCLE
  5
EF6
330
A02
100
AcDbEntity
  8
Fusion008
100
AcDbCircle
 10
56.879
 20
-195.173
 40
1.5
  0
CIRCLE
  5
EF7
330
A02
100
AcDbEntity
  8
Fusion008
100
AcDbCircle
 10
56.879
 20
-195.173
 40
1.5
  0
LINE
  5
EF8
330
A02
100
AcDbEntity
  8
Fusion008
100
AcDbLine
 10
19.771
 20
-202.792
 30
-5
 11
19.771
 21
-202.792
 31
-7
  0
LINE
  5
EF9
330
A02
100
AcDbEntity
  8
Fusion008
100
AcDbLine
 10
19.771
 20
-202.792
 30
-5
 11
19.771
 21
-202.792
 31
-7
  0
CIRCLE
  5
EFA
330
A02
100
AcDbEntity
  8
Fusion008
100
AcDbCircle
 10
18.271
 20
-202.792
 40
1.5
  0
CIRCLE
  5
EFB
330
A02
100
AcDbEntity
  8
Fusion008
100
AcDbCircle
 10
18.271
 20
-202.792
 40
1.5
  0
LINE
  5
EFC
330
A02
100
AcDbEntity
  8
Fusion008
100
AcDbLine
 10
115.021
 20
-142.849
 30
-5
 11
115.021
 21
-142.849
 31
-7
  0
LINE
  5
EFD
330
A02
100
AcDbEntity
  8
Fusion008
100
AcDbLine
 10
115.021
 20
-142.849
 30
-5
 11
115.021
 21
-142.849
 31
-7
  0
CIRCLE
  5
EFE
330
A02
100
AcDbEntity
  8
Fusion008
100
AcDbCircle
 10
113.521
 20
-142.849
 40
1.5
  0
CIRCLE
  5
EFF
330
A02
100
AcDbEntity
  8
Fusion008
100
AcDbCircle
 10
113.521
 20
-142.849
 40
1.5
  0
LINE
  5
F00
330
A02
100
AcDbEntity
  8
Fusion008
100
AcDbLine
 10
19.771
 20
-145.388
 30
-5
 11
19.771
 21
-145.388
 31
-7
  0
LINE
  5
F01
330
A02
100
AcDbEntity
  8
Fusion008
100
AcDbLine
 10
19.771
 20
-145.388
 30
-5
 11
19.771
 21
-145.388
 31
-7
  0
CIRCLE
  5
F02
330
A02
100
AcDbEntity
  8
Fusion008
100
AcDbCircle
 10
18.271
 20
-145.388
 40
1.5
  0
CIRCLE
  5
F03
330
A02
100
AcDbEntity
  8
Fusion008
100
AcDbCircle
 10
18.271
 20
-145.388
 40
1.5
  0
LINE
  5
F04
330
A02
100
AcDbEntity
  8
Fusion008
100
AcDbLine
 10
51.648
 20
-120.496
 30
-5
 11
51.648
 21
-120.496
 31
-7
  0
LINE
  5
F05
330
A02
100
AcDbEntity
  8
Fusion008
100
AcDbLine
 10
51.648
 20
-120.496
 30
-5
 11
51.648
 21
-120.496
 31
-7
  0
CIRCLE
  5
F06
330
A02
100
AcDbEntity
  8
Fusion008
100
AcDbCircle
 10
50.148
 20
-120.496
 40
1.5
  0
CIRCLE
  5
F07
330
A02
100
AcDbEntity
  8
Fusion008
100
AcDbCircle
 10
50.148
 20
-120.496
 40
1.5
  0
LINE
  5
F08
330
A02
100
AcDbEntity
  8
Fusion008
100
AcDbLine
 10
110.5
 20
-120
 30
-5
 11
110.5
 21
-132
 31
-5
  0
ARC
  5
F09
330
A02
100
AcDbEntity
  8
Fusion008
100
AcDbCircle
 10
112.5
 20
-132
 30
-5
 40
2
100
AcDbArc
 50
180
 51
-90
  0
LINE
  5
F0A
330
A02
100
AcDbEntity
  8
Fusion008
100
AcDbLine
 10
112.5
 20
-134
 30
-5
 11
132.5
 21
-134
 31
-5
  0
ARC
  5
F0B
330
A02
100
AcDbEntity
  8
Fusion008
100
AcDbCircle
 10
132.5
 20
-136.5
 30
-5
 40
2.5
100
AcDbArc
 50
0
 51
90
  0
LINE
  5
F0C
330
A02
100
AcDbEntity
  8
Fusion008
100
AcDbLine
 10
135
 20
-198.056
 30
-5
 11
135
 21
-136.5
 31
-5
  0
ARC
  5
F0D
330
A02
100
AcDbEntity
  8
Fusion008
100
AcDbCircle
 10
136.7
 20
-198.056
 30
-5
 40
1.7
100
AcDbArc
 50
180
 51
-120
  0
LINE
  5
F0E
330
A02
100
AcDbEntity
  8
Fusion008
100
AcDbLine
 10
135.85
 20
-199.528
 30
-5
 11
151.799
 21
-208.737
 31
-5
  0
ARC
  5
F0F
330
A02
100
AcDbEntity
  8
Fusion008
100
AcDbCircle
 10
150.549
 20
-210.902
 30
-5
 40
2.5
100
AcDbArc
 50
-30
 51
60
  0
LINE
  5
F10
330
A02
100
AcDbEntity
  8
Fusion008
100
AcDbLine
 10
133.954
 20
-244.645
 30
-5
 11
152.714
 21
-212.152
 31
-5
  0
ARC
  5
F11
330
A02
100
AcDbEntity
  8
Fusion008
100
AcDbCircle
 10
131.789
 20
-243.395
 30
-5
 40
2.5
100
AcDbArc
 50
-120
 51
-30
  0
LINE
  5
F12
330
A02
100
AcDbEntity
  8
Fusion008
100
AcDbLine
 10
94.187
 20
-224.572
 30
-5
 11
130.539
 21
-245.56
 31
-5
  0
ARC
  5
F13
330
A02
100
AcDbEntity
  8
Fusion008
100
AcDbCircle
 10
92.052
 20
-228.27
 30
-5
 40
4.27
100
AcDbArc
 50
60
 51
90
  0
LINE
  5
F14
330
A02
100
AcDbEntity
  8
Fusion008
100
AcDbLine
 10
-0.5
 20
-224
 30
-5
 11
92.052
 21
-224
 31
-5
  0
ARC
  5
F15
330
A02
100
AcDbEntity
  8
Fusion008
100
AcDbCircle
 10
-0.5
 20
-221.5
 30
-5
 40
2.5
100
AcDbArc
 50
180
 51
-90
  0
LINE
  5
F16
330
A02
100
AcDbEntity
  8
Fusion008
100
AcDbLine
 10
-3
 20
-221.5
 30
-5
 11
-3
 21
-126.048
 31
-5
  0
ARC
  5
F17
330
A02
100
AcDbEntity
  8
Fusion008
100
AcDbCircle
 10
-0.506514
 20
-126.048
 30
-5
 40
2.49349
100
AcDbArc
 50
101.689
 51
180
  0
LINE
  5
F18
330
A02
100
AcDbEntity
  8
Fusion008
100
AcDbLine
 10
52.5948
 20
-112.515
 30
-5
 11
-1.01171
 21
-123.606
 31
-5
  0
ARC
  5
F19
330
A02
100
AcDbEntity
  8
Fusion008
100
AcDbCircle
 10
53
 20
-114.473
 30
-5
 40
2
100
AcDbArc
 50
0
 51
101.689
  0
LINE
  5
F1A
330
A02
100
AcDbEntity
  8
Fusion008
100
AcDbLine
 10
55
 20
-114.473
 30
-5
 11
55
 21
-145.82
 31
-5
  0
ARC
  5
F1B
330
A02
100
AcDbEntity
  8
Fusion008
100
AcDbCircle
 10
57
 20
-145.82
 30
-5
 40
2
100
AcDbArc
 50
180
 51
-90
  0
LINE
  5
F1C
330
A02
100
AcDbEntity
  8
Fusion008
100
AcDbLine
 10
57
 20
-147.82
 30
-5
 11
94
 21
-147.82
 31
-5
  0
ARC
  5
F1D
330
A02
100
AcDbEntity
  8
Fusion008
100
AcDbCircle
 10
94
 20
-145.82
 30
-5
 40
2
100
AcDbArc
 50
-90
 51
0
  0
LINE
  5
F1E
330
A02
100
AcDbEntity
  8
Fusion008
100
AcDbLine
 10
96
 20
-145.82
 30
-5
 11
96
 21
-114.159
 31
-5
  0
ARC
  5
F1F
330
A02
100
AcDbEntity
  8
Fusion008
100
AcDbCircle
 10
98
 20
-114.159
 30
-5
 40
2
100
AcDbArc
 50
70.1773
 51
180
  0
ARC
  5
F20
330
A02
100
AcDbEntity
  8
Fusion008
100
AcDbCircle
 10
96.0586
 20
-119.545
 30
-5
 40
7.725
100
AcDbArc
 50
36.8699
 51
70.1773
  0
ARC
  5
F21
330
A02
100
AcDbEntity
  8
Fusion008
100
AcDbCircle
 10
108.419
 20
-110.275
 30
-5
 40
7.725
100
AcDbArc
 50
-143.13
 51
-90
  0
LINE
  5
F22
330
A02
100
AcDbEntity
  8
Fusion008
100
AcDbLine
 10
108.5
 20
-118
 30
-5
 11
108.419
 21
-118
 31
-5
  0
ARC
  5
F23
330
A02
100
AcDbEntity
  8
Fusion008
100
AcDbCircle
 10
108.5
 20
-120
 30
-5
 40
2
100
AcDbArc
 50
0
 51
90
  0
CIRCLE
  5
F24
330
A02
100
AcDbEntity
  8
Fusion008
100
AcDbCircle
 10
107.552
 20
-202.538
 40
1.5
  0
CIRCLE
  5
F25
330
A02
100
AcDbEntity
  8
Fusion008
100
AcDbCircle
 10
56.371
 20
-159.613
 40
1.5
  0
CIRCLE
  5
F26
330
A02
100
AcDbEntity
  8
Fusion008
100
AcDbCircle
 10
56.879
 20
-195.173
 40
1.5
  0
CIRCLE
  5
F27
330
A02
100
AcDbEntity
  8
Fusion008
100
AcDbCircle
 10
18.271
 20
-202.792
 40
1.5
  0
CIRCLE
  5
F28
330
A02
100
AcDbEntity
  8
Fusion008
100
AcDbCircle
 10
113.521
 20
-142.849
 40
1.5
  0
CIRCLE
  5
F29
330
A02
100
AcDbEntity
  8
Fusion008
100
AcDbCircle
 10
18.271
 20
-145.388
 40
1.5
  0
CIRCLE
  5
F2A
330
A02
100
AcDbEntity
  8
Fusion008
100
AcDbCircle
 10
50.148
 20
-120.496
 40
1.5
  0
LINE
  5
F2B
330
A02
100
AcDbEntity
  8
Fusion008
100
AcDbLine
 10
110.5
 20
-120
 30
-7
 11
110.5
 21
-132
 31
-7
  0
ARC
  5
F2C
330
A02
100
AcDbEntity
  8
Fusion008
100
AcDbCircle
 10
112.5
 20
-132
 30
-7
 40
2
100
AcDbArc
 50
180
 51
-90
  0
LINE
  5
F2D
330
A02
100
AcDbEntity
  8
Fusion008
100
AcDbLine
 10
112.5
 20
-134
 30
-7
 11
132.5
 21
-134
 31
-7
  0
ARC
  5
F2E
330
A02
100
AcDbEntity
  8
Fusion008
100
AcDbCircle
 10
132.5
 20
-136.5
 30
-7
 40
2.5
100
AcDbArc
 50
0
 51
90
  0
LINE
  5
F2F
330
A02
100
AcDbEntity
  8
Fusion008
100
AcDbLine
 10
135
 20
-198.056
 30
-7
 11
135
 21
-136.5
 31
-7
  0
ARC
  5
F30
330
A02
100
AcDbEntity
  8
Fusion008
100
AcDbCircle
 10
136.7
 20
-198.056
 30
-7
 40
1.7
100
AcDbArc
 50
180
 51
-120
  0
LINE
  5
F31
330
A02
100
AcDbEntity
  8
Fusion008
100
AcDbLine
 10
135.85
 20
-199.528
 30
-7
 11
151.799
 21
-208.737
 31
-7
  0
ARC
  5
F32
330
A02
100
AcDbEntity
  8
Fusion008
100
AcDbCircle
 10
150.549
 20
-210.902
 30
-7
 40
2.5
100
AcDbArc
 50
-30
 51
60
  0
LINE
  5
F33
330
A02
100
AcDbEntity
  8
Fusion008
100
AcDbLine
 10
133.954
 20
-244.645
 30
-7
 11
152.714
 21
-212.152
 31
-7
  0
ARC
  5
F34
330
A02
100
AcDbEntity
  8
Fusion008
100
AcDbCircle
 10
131.789
 20
-243.395
 30
-7
 40
2.5
100
AcDbArc
 50
-120
 51
-30
  0
LINE
  5
F35
330
A02
100
AcDbEntity
  8
Fusion008
100
AcDbLine
 10
94.187
 20
-224.572
 30
-7
 11
130.539
 21
-245.56
 31
-7
  0
ARC
  5
F36
330
A02
100
AcDbEntity
  8
Fusion008
100
AcDbCircle
 10
92.052
 20
-228.27
 30
-7
 40
4.27
100
AcDbArc
 50
60
 51
90
  0
LINE
  5
F37
330
A02
100
AcDbEntity
  8
Fusion008
100
AcDbLine
 10
-0.5
 20
-224
 30
-7
 11
92.052
 21
-224
 31
-7
  0
ARC
  5
F38
330
A02
100
AcDbEntity
  8
Fusion008
100
AcDbCircle
 10
-0.5
 20
-221.5
 30
-7
 40
2.5
100
AcDbArc
 50
180
 51
-90
  0
LINE
  5
F39
330
A02
100
AcDbEntity
  8
Fusion008
100
AcDbLine
 10
-3
 20
-221.5
 30
-7
 11
-3
 21
-126.048
 31
-7
  0
ARC
  5
F3A
330
A02
100
AcDbEntity
  8
Fusion008
100
AcDbCircle
 10
-0.506514
 20
-126.048
 30
-7
 40
2.49349
100
AcDbArc
 50
101.689
 51
180
  0
LINE
  5
F3B
330
A02
100
AcDbEntity
  8
Fusion008
100
AcDbLine
 10
52.5948
 20
-112.515
 30
-7
 11
-1.01171
 21
-123.606
 31
-7
  0
ARC
  5
F3C
330
A02
100
AcDbEntity
  8
Fusion008
100
AcDbCircle
 10
53
 20
-114.473
 30
-7
 40
2
100
AcDbArc
 50
0
 51
101.689
  0
LINE
  5
F3D
330
A02
100
AcDbEntity
  8
Fusion008
100
AcDbLine
 10
55
 20
-114.473
 30
-7
 11
55
 21
-145.82
 31
-7
  0
ARC
  5
F3E
330
A02
100
AcDbEntity
  8
Fusion008
100
AcDbCircle
 10
57
 20
-145.82
 30
-7
 40
2
100
AcDbArc
 50
180
 51
-90
  0
LINE
  5
F3F
330
A02
100
AcDbEntity
  8
Fusion008
100
AcDbLine
 10
57
 20
-147.82
 30
-7
 11
94
 21
-147.82
 31
-7
  0
ARC
  5
F40
330
A02
100
AcDbEntity
  8
Fusion008
100
AcDbCircle
 10
94
 20
-145.82
 30
-7
 40
2
100
AcDbArc
 50
-90
 51
0
  0
LINE
  5
F41
330
A02
100
AcDbEntity
  8
Fusion008
100
AcDbLine
 10
96
 20
-145.82
 30
-7
 11
96
 21
-114.159
 31
-7
  0
ARC
  5
F42
330
A02
100
AcDbEntity
  8
Fusion008
100
AcDbCircle
 10
98
 20
-114.159
 30
-7
 40
2
100
AcDbArc
 50
70.1773
 51
180
  0
ARC
  5
F43
330
A02
100
AcDbEntity
  8
Fusion008
100
AcDbCircle
 10
96.0586
 20
-119.545
 30
-7
 40
7.725
100
AcDbArc
 50
36.8699
 51
70.1773
  0
ARC
  5
F44
330
A02
100
AcDbEntity
  8
Fusion008
100
AcDbCircle
 10
108.419
 20
-110.275
 30
-7
 40
7.725
100
AcDbArc
 50
-143.13
 51
-90
  0
LINE
  5
F45
330
A02
100
AcDbEntity
  8
Fusion008
100
AcDbLine
 10
108.5
 20
-118
 30
-7
 11
108.419
 21
-118
 31
-7
  0
ARC
  5
F46
330
A02
100
AcDbEntity
  8
Fusion008
100
AcDbCircle
 10
108.5
 20
-120
 30
-7
 40
2
100
AcDbArc
 50
0
 51
90
  0
CIRCLE
  5
F47
330
A02
100
AcDbEntity
  8
Fusion008
100
AcDbCircle
 10
107.552
 20
-202.538
 40
1.5
  0
CIRCLE
  5
F48
330
A02
100
AcDbEntity
  8
Fusion008
100
AcDbCircle
 10
56.371
 20
-159.613
 40
1.5
  0
CIRCLE
  5
F49
330
A02
100
AcDbEntity
  8
Fusion008
100
AcDbCircle
 10
56.879
 20
-195.173
 40
1.5
  0
CIRCLE
  5
F4A
330
A02
100
AcDbEntity
  8
Fusion008
100
AcDbCircle
 10
18.271
 20
-202.792
 40
1.5
  0
CIRCLE
  5
F4B
330
A02
100
AcDbEntity
  8
Fusion008
100
AcDbCircle
 10
113.521
 20
-142.849
 40
1.5
  0
CIRCLE
  5
F4C
330
A02
100
AcDbEntity
  8
Fusion008
100
AcDbCircle
 10
18.271
 20
-145.388
 40
1.5
  0
CIRCLE
  5
F4D
330
A02
100
AcDbEntity
  8
Fusion008
100
AcDbCircle
 10
50.148
 20
-120.496
 40
1.5
  0
ENDSEC
  0
SECTION
  2
OBJECTS
  0
DICTIONARY
  5
F000
330
0
100
AcDbDictionary
  3
ACAD_GROUP
350
F001
  0
DICTIONARY
  5
F001
330
F000
100
AcDbDictionary
  0
ENDSEC
  0
EOF