<?xml version="1.0" encoding="UTF-8"?>

<svg xmlns="http://www.w3.org/2000/svg" version="1.1"
    xmlns:freecad="http://www.freecadweb.org/wiki/index.php?title=Svg_Namespace"
	width="594mm"
	height="420mm"
	viewBox="0 0 594 420">
	<!-- Working space 0 0 594 420 -->
	<defs>
		<radialGradient
			id="radialGradient3661"
			gradientUnits="userSpaceOnUse"
			cy="29.149"
			cx="282.65"
			gradientTransform="matrix(.14777 .23089 -.24680 .15795 -26.318 -62.617)"
			r="19.571">
				<stop stop-color="#71b2f8" offset="0"/>
				<stop stop-color="#002795" offset="1"/>
		</radialGradient>
		<radialGradient
			id="radialGradient3817"
			gradientUnits="userSpaceOnUse"
			cy="33.9"
			cx="270.58"
			gradientTransform="matrix(.26631 .065024 -.17931 .73438 -60.668 -36.938)"
			r="19.571">
				<stop stop-color="#ff6d0f" offset="0"/>
				<stop stop-color="#ff1000" offset="1"/>
		</radialGradient>
	</defs>
	<!-- Set display:none to hide FreeCAD Logo -->
	<g
		style="display:none"
		id="freecad-logo"
		transform="translate(552, 380) scale(2)"
		fill-rule="evenodd"
		stroke-width=".45621">
		<path d="m0.22811 0.22835v13.256h2.9558v-5.1876h2.09v-2.0452h-2.09v-2.2075h5.1486v-3.8087l-8.1044-0.0075z"
			stroke="#370700"
			fill="url(#radialGradient3817)"/>
		<path d="m13.386 4.1792-1.7193 0.98645-0.75925-0.26348-0.72439-1.8513-1.1395 0.05988-0.51976 1.9144-0.72743 0.34835-1.8143-0.79367-0.76632 0.85156 0.98645 1.7193-0.26957 0.75702-1.8513 0.72439 0.065967 1.1417 1.9144 0.51976 0.34835 0.72743-0.79976 1.8121 0.85156 0.76632 1.7193-0.98645 0.76311 0.27179 0.7183 1.8491 1.1478-0.06375 0.51367-1.9166 0.72743-0.34835 1.8182 0.80198 0.76632-0.85156-0.98645-1.7193 0.2657-0.76533 1.8491-0.7183-0.05766-1.1456-1.9166-0.51367-0.34835-0.72743 0.7959-1.8204-0.85156-0.76632zm-2.5751 2.8195 0.35295 0.20478 0.30579 0.27725 0.24481 0.33087 0.17611 0.36787 0.10354 0.39656 0.01715 0.4064-0.0587 0.4063-0.13396 0.38571-0.2131 0.35681-0.26894 0.30192-0.33087 0.24481-0.36787 0.17611-0.39656 0.10354-0.40863 0.02325-0.4063-0.0587-0.38571-0.13396-0.35681-0.2131-0.2997-0.27503-0.24703-0.32478-0.17611-0.36787-0.10132-0.40264-0.02324-0.40863 0.05869-0.4063 0.13396-0.38571 0.21087-0.35072 0.27116-0.30801 0.33087-0.24481 0.36787-0.17611 0.40264-0.10132 0.40641-0.01715 0.4063 0.05869 0.38571 0.13396z" 
		stroke="#000137"
		fill="url(#radialGradient3661)"/>
	</g>
<g id="View"
   transform="rotate(0,10,10) translate(10,10) scale(1,1)"
  >
<g   fill="none"
   stroke="rgb(0, 0, 0)"
   stroke-linecap="butt"
   stroke-linejoin="miter"
   stroke-width="0.350000"
   transform="scale(1,-1)"
  >
<path id= "1" d=" M 116.624 -65.4517 L 116.624 -77.4517 " />
<path d="M116.624 -77.4517 A2 2 0 0 1 118.624 -79.4517" /><path id= "3" d=" M 118.624 -79.4517 L 138.624 -79.4517 " />
<path d="M141.124 -81.9517 A2.5 2.5 0 0 1 138.624 -79.4517" /><path id= "5" d=" M 141.124 -143.508 L 141.124 -81.9517 " />
<path d="M141.124 -143.508 A1.7 1.7 0 0 1 141.974 -144.98" /><path id= "7" d=" M 141.974 -144.98 L 157.923 -154.188 " />
<path d="M158.838 -157.603 A2.5 2.5 0 0 1 157.923 -154.188" /><path id= "9" d=" M 140.078 -190.097 L 158.838 -157.603 " />
<path d="M136.663 -191.012 A2.5 2.5 0 0 1 140.078 -190.097" /><path id= "11" d=" M 100.311 -170.024 L 136.663 -191.012 " />
<path d="M100.311 -170.024 A4.27 4.27 0 0 1 98.1758 -169.452" /><path id= "13" d=" M 5.62383 -169.452 L 98.1758 -169.452 " />
<path d="M3.12383 -166.952 A2.5 2.5 0 0 1 5.62383 -169.452" /><path id= "15" d=" M 3.12383 -166.952 L 3.12381 -71.4993 " />
<path d="M5.1121 -69.0575 A2.49349 2.49349 0 0 1 3.12381 -71.4993" /><path id= "17" d=" M 58.7186 -57.9665 L 5.1121 -69.0575 " />
<path d="M61.1238 -59.925 A2 2 0 0 1 58.7186 -57.9665" /><path id= "19" d=" M 61.1238 -59.925 L 61.1238 -91.2717 " />
<path d="M61.1238 -91.2717 A2 2 0 0 1 63.1238 -93.2717" /><path id= "21" d=" M 63.1238 -93.2717 L 100.124 -93.2717 " />
<path d="M100.124 -93.2717 A2 2 0 0 1 102.124 -91.2717" /><path id= "23" d=" M 102.124 -91.2717 L 102.124 -59.6109 " />
<path d="M104.802 -57.7295 A2 2 0 0 1 102.124 -59.6109" /><path d="M108.362 -60.3617 A7.725 7.725 0 0 1 104.802 -57.7295" /><path d="M108.362 -60.3617 A7.725 7.725 0 0 1 114.542 -63.4517" /><path id= "27" d=" M 114.624 -63.4517 L 114.542 -63.4517 " />
<path d="M116.624 -65.4517 A2 2 0 0 1 114.624 -63.4517" /><circle cx ="113.676" cy ="-147.99" r ="1.5" /><circle cx ="62.4948" cy ="-105.064" r ="1.5" /><circle cx ="63.0028" cy ="-140.624" r ="1.5" /><circle cx ="24.3948" cy ="-148.244" r ="1.5" /><circle cx ="119.645" cy ="-88.3002" r ="1.5" /><circle cx ="24.3948" cy ="-90.8402" r ="1.5" /><circle cx ="56.2718" cy ="-65.9477" r ="1.5" /><path id= "36" d=" M 297.15 -94.1172 L 316.996 -187.484 " />
<path d="M315.559 -190.286 A2.49349 2.49349 171.423 0 1 316.996 -187.484" />
<path id= "38" d=" M 263.227 -213.246 L 315.559 -190.286 " />
<path d="M261.288 -213.87 A10 10 171.423 0 1 263.227 -213.246" />
<path id= "40" d=" M 223.06 -221.996 L 261.288 -213.87 " />
<path d="M216.373 -220.258 A7.725 7.725 171.423 0 1 223.06 -221.996" />
<path d="M216.373 -220.258 A7.725 7.725 171.423 0 1 209.686 -218.521" />
<path id= "43" d=" M 186.13 -223.528 L 209.686 -218.521 " />
<path d="M183.165 -221.602 A2.5 2.5 171.423 0 1 186.13 -223.528" />
<path id= "45" d=" M 167.04 -145.741 L 183.165 -221.602 " />
<path d="M167.04 -145.741 A1.7 1.7 171.423 0 1 165.903 -144.477" />
<path id= "47" d=" M 165.903 -144.477 L 148.388 -138.786 " />
<path d="M146.783 -135.636 A2.5 2.5 171.423 0 1 148.388 -138.786" />
<path id= "49" d=" M 158.377 -99.9525 L 146.783 -135.636 " />
<path d="M161.527 -98.3474 A2.5 2.5 171.423 0 1 158.377 -99.9525" />
<path id= "51" d=" M 201.449 -111.319 L 161.527 -98.3474 " />
<path d="M201.449 -111.319 A4.27 4.27 171.423 0 1 203.656 -111.434" />
<path id= "53" d=" M 294.185 -92.1916 L 203.656 -111.434 " />
<path d="M297.15 -94.1172 A2.5 2.5 171.423 0 1 294.185 -92.1916" />
<path id= "55" d=" M 174.864 -105.466 L 163.451 -101.757 " />
<path id= "56" d=" M 163.451 -101.757 L 161.535 -107.654 " />
<path id= "57" d=" M 161.535 -107.654 L 159.158 -106.881 " />
<path id= "58" d=" M 159.158 -106.881 L 150.413 -133.796 " />
<path id= "59" d=" M 150.413 -133.796 L 166.58 -139.05 " />
<path id= "60" d=" M 166.58 -139.05 L 175.325 -112.135 " />
<path id= "61" d=" M 175.325 -112.135 L 172.948 -111.362 " />
<path id= "62" d=" M 172.948 -111.362 L 174.864 -105.466 " />
<path id= "63" d=" M 227.334 -130.695 L 219.88 -132.279 " />
<path id= "64" d=" M 219.88 -132.279 L 216.969 -118.585 " />
<path id= "65" d=" M 216.969 -118.585 L 230.664 -115.674 " />
<path id= "66" d=" M 230.664 -115.674 L 231.159 -118.003 " />
<path id= "67" d=" M 238.612 -116.419 L 231.159 -118.003 " />
<path id= "68" d=" M 241.523 -130.113 L 238.612 -116.419 " />
<path id= "69" d=" M 227.829 -133.024 L 241.523 -130.113 " />
<path id= "70" d=" M 227.334 -130.695 L 227.829 -133.024 " />
<path id= "71" d=" M 193.427 -128.496 L 197.753 -115.182 " />
<path id= "72" d=" M 197.753 -115.182 L 211.068 -119.508 " />
<path id= "73" d=" M 211.068 -119.508 L 206.741 -132.823 " />
<path id= "74" d=" M 206.741 -132.823 L 193.427 -128.496 " />
<path id= "75" d=" M 192.95 -113.621 L 188.623 -126.936 " />
<path id= "76" d=" M 188.623 -126.936 L 175.309 -122.609 " />
<path id= "77" d=" M 175.309 -122.609 L 179.635 -109.295 " />
<path id= "78" d=" M 179.635 -109.295 L 192.95 -113.621 " />
<path id= "79" d=" M 187.063 -131.739 L 182.737 -145.054 " />
<path id= "80" d=" M 182.737 -145.054 L 169.422 -140.727 " />
<path id= "81" d=" M 169.422 -140.727 L 173.748 -127.413 " />
<path id= "82" d=" M 173.748 -127.413 L 187.063 -131.739 " />
<path id= "83" d=" M 228.879 -137.964 L 242.573 -135.053 " />
<path id= "84" d=" M 242.573 -135.053 L 245.484 -148.747 " />
<path id= "85" d=" M 245.484 -148.747 L 231.79 -151.658 " />
<path id= "86" d=" M 231.79 -151.658 L 228.879 -137.964 " />
<path id= "87" d=" M 291.216 -156.361 L 294.127 -170.055 " />
<path id= "88" d=" M 294.127 -170.055 L 307.821 -167.145 " />
<path id= "89" d=" M 307.821 -167.145 L 304.91 -153.45 " />
<path id= "90" d=" M 304.91 -153.45 L 291.216 -156.361 " />
<path id= "91" d=" M 272.582 -160.322 L 286.276 -157.411 " />
<path id= "92" d=" M 286.276 -157.411 L 289.187 -171.105 " />
<path id= "93" d=" M 289.187 -171.105 L 275.493 -174.016 " />
<path id= "94" d=" M 275.493 -174.016 L 272.582 -160.322 " />
<path id= "95" d=" M 243.057 -113.04 L 245.967 -126.734 " />
<path id= "96" d=" M 245.967 -126.734 L 259.661 -123.823 " />
<path id= "97" d=" M 259.661 -123.823 L 256.751 -110.129 " />
<path id= "98" d=" M 256.751 -110.129 L 243.057 -113.04 " />
<path id= "99" d=" M 279.334 -100.46 L 282.245 -114.154 " />
<path id= "100" d=" M 282.245 -114.154 L 295.939 -111.243 " />
<path id= "101" d=" M 295.939 -111.243 L 293.028 -97.5493 " />
<path id= "102" d=" M 293.028 -97.5493 L 279.334 -100.46 " />
<path id= "103" d=" M 194.582 -159.86 L 197.493 -173.554 " />
<path id= "104" d=" M 197.493 -173.554 L 211.187 -170.644 " />
<path id= "105" d=" M 211.187 -170.644 L 208.276 -156.949 " />
<path id= "106" d=" M 208.276 -156.949 L 194.582 -159.86 " />
<path id= "107" d=" M 198.543 -178.494 L 201.453 -192.188 " />
<path id= "108" d=" M 201.453 -192.188 L 215.147 -189.277 " />
<path id= "109" d=" M 215.147 -189.277 L 212.237 -175.583 " />
<path id= "110" d=" M 212.237 -175.583 L 198.543 -178.494 " />
<path id= "111" d=" M 250.978 -150.307 L 253.889 -164.001 " />
<path id= "112" d=" M 253.889 -164.001 L 267.583 -161.091 " />
<path id= "113" d=" M 267.583 -161.091 L 264.672 -147.397 " />
<path id= "114" d=" M 264.672 -147.397 L 250.978 -150.307 " />
<path id= "115" d=" M 258.9 -187.575 L 261.81 -201.269 " />
<path id= "116" d=" M 261.81 -201.269 L 275.504 -198.358 " />
<path id= "117" d=" M 275.504 -198.358 L 272.594 -184.664 " />
<path id= "118" d=" M 272.594 -184.664 L 258.9 -187.575 " />
<path id= "119" d=" M 287.255 -137.727 L 290.166 -151.422 " />
<path id= "120" d=" M 290.166 -151.422 L 303.86 -148.511 " />
<path id= "121" d=" M 303.86 -148.511 L 300.949 -134.817 " />
<path id= "122" d=" M 300.949 -134.817 L 287.255 -137.727 " />
<path id= "123" d=" M 260.7 -104.421 L 274.394 -101.51 " />
<path id= "124" d=" M 274.394 -101.51 L 277.305 -115.204 " />
<path id= "125" d=" M 277.305 -115.204 L 263.611 -118.115 " />
<path id= "126" d=" M 263.611 -118.115 L 260.7 -104.421 " />
<path id= "127" d=" M 209.75 -139.595 L 223.444 -136.684 " />
<path id= "128" d=" M 223.444 -136.684 L 226.355 -150.378 " />
<path id= "129" d=" M 226.355 -150.378 L 212.661 -153.289 " />
<path id= "130" d=" M 212.661 -153.289 L 209.75 -139.595 " />
<path id= "131" d=" M 232.839 -156.597 L 246.534 -153.686 " />
<path id= "132" d=" M 246.534 -153.686 L 249.444 -167.381 " />
<path id= "133" d=" M 249.444 -167.381 L 235.75 -170.291 " />
<path id= "134" d=" M 235.75 -170.291 L 232.839 -156.597 " />
<path id= "135" d=" M 236.8 -175.231 L 250.494 -172.32 " />
<path id= "136" d=" M 250.494 -172.32 L 253.405 -186.014 " />
<path id= "137" d=" M 253.405 -186.014 L 239.711 -188.925 " />
<path id= "138" d=" M 239.711 -188.925 L 236.8 -175.231 " />
<path id= "139" d=" M 240.761 -193.865 L 254.455 -190.954 " />
<path id= "140" d=" M 254.455 -190.954 L 257.366 -204.648 " />
<path id= "141" d=" M 257.366 -204.648 L 243.672 -207.559 " />
<path id= "142" d=" M 243.672 -207.559 L 240.761 -193.865 " />
<path id= "143" d=" M 247.017 -131.674 L 260.711 -128.763 " />
<path id= "144" d=" M 260.711 -128.763 L 263.622 -142.457 " />
<path id= "145" d=" M 263.622 -142.457 L 249.928 -145.368 " />
<path id= "146" d=" M 249.928 -145.368 L 247.017 -131.674 " />
<path id= "147" d=" M 268.622 -141.688 L 282.316 -138.777 " />
<path id= "148" d=" M 282.316 -138.777 L 285.226 -152.472 " />
<path id= "149" d=" M 285.226 -152.472 L 271.532 -155.382 " />
<path id= "150" d=" M 271.532 -155.382 L 268.622 -141.688 " />
<path id= "151" d=" M 276.543 -178.956 L 290.237 -176.045 " />
<path id= "152" d=" M 290.237 -176.045 L 293.148 -189.739 " />
<path id= "153" d=" M 293.148 -189.739 L 279.454 -192.65 " />
<path id= "154" d=" M 279.454 -192.65 L 276.543 -178.956 " />
<path id= "155" d=" M 216.197 -194.217 L 219.108 -207.911 " />
<path id= "156" d=" M 219.108 -207.911 L 205.414 -210.822 " />
<path id= "157" d=" M 205.414 -210.822 L 202.503 -197.128 " />
<path id= "158" d=" M 202.503 -197.128 L 216.197 -194.217 " />
<path id= "159" d=" M 224.543 -209.19 L 221.632 -195.496 " />
<path id= "160" d=" M 221.632 -195.496 L 235.326 -192.585 " />
<path id= "161" d=" M 235.326 -192.585 L 238.237 -206.28 " />
<path id= "162" d=" M 238.237 -206.28 L 224.543 -209.19 " />
<path id= "163" d=" M 216.621 -171.923 L 213.711 -158.229 " />
<path id= "164" d=" M 213.711 -158.229 L 227.405 -155.318 " />
<path id= "165" d=" M 227.405 -155.318 L 230.316 -169.012 " />
<path id= "166" d=" M 230.316 -169.012 L 216.621 -171.923 " />
<path id= "167" d=" M 295.177 -174.995 L 298.088 -188.689 " />
<path id= "168" d=" M 298.088 -188.689 L 311.782 -185.778 " />
<path id= "169" d=" M 311.782 -185.778 L 308.871 -172.084 " />
<path id= "170" d=" M 308.871 -172.084 L 295.177 -174.995 " />
<path id= "171" d=" M 190.621 -141.227 L 193.532 -154.921 " />
<path id= "172" d=" M 193.532 -154.921 L 207.226 -152.01 " />
<path id= "173" d=" M 207.226 -152.01 L 204.315 -138.316 " />
<path id= "174" d=" M 204.315 -138.316 L 190.621 -141.227 " />
<path id= "175" d=" M 283.295 -119.094 L 286.205 -132.788 " />
<path id= "176" d=" M 286.205 -132.788 L 299.899 -129.877 " />
<path id= "177" d=" M 299.899 -129.877 L 296.989 -116.183 " />
<path id= "178" d=" M 296.989 -116.183 L 283.295 -119.094 " />
<path id= "179" d=" M 264.661 -123.055 L 278.355 -120.144 " />
<path id= "180" d=" M 278.355 -120.144 L 281.266 -133.838 " />
<path id= "181" d=" M 281.266 -133.838 L 267.572 -136.749 " />
<path id= "182" d=" M 267.572 -136.749 L 264.661 -123.055 " />
<path id= "183" d=" M 254.939 -168.941 L 257.85 -182.635 " />
<path id= "184" d=" M 257.85 -182.635 L 271.544 -179.724 " />
<path id= "185" d=" M 271.544 -179.724 L 268.633 -166.03 " />
<path id= "186" d=" M 268.633 -166.03 L 254.939 -168.941 " />
<path id= "187" d=" M 177.929 -173.138 L 191.623 -170.227 " />
<path id= "188" d=" M 191.623 -170.227 L 194.533 -183.921 " />
<path id= "189" d=" M 194.533 -183.921 L 180.839 -186.832 " />
<path id= "190" d=" M 180.839 -186.832 L 177.929 -173.138 " />
<path id= "191" d=" M 217.671 -176.863 L 231.365 -173.952 " />
<path id= "192" d=" M 231.365 -173.952 L 234.276 -187.646 " />
<path id= "193" d=" M 234.276 -187.646 L 220.582 -190.557 " />
<path id= "194" d=" M 220.582 -190.557 L 217.671 -176.863 " />
<path id= "195" d=" M 173.968 -154.504 L 187.662 -151.593 " />
<path id= "196" d=" M 187.662 -151.593 L 190.573 -165.287 " />
<path id= "197" d=" M 190.573 -165.287 L 176.879 -168.198 " />
<path id= "198" d=" M 176.879 -168.198 L 173.968 -154.504 " />
<path id= "199" d=" M 198.494 -202.555 L 184.8 -205.466 " />
<path id= "200" d=" M 184.8 -205.466 L 181.889 -191.772 " />
<path id= "201" d=" M 181.889 -191.772 L 195.583 -188.861 " />
<path id= "202" d=" M 195.583 -188.861 L 198.494 -202.555 " />
<g transform = "rotate(171.423,280.234,-116.838)">
<ellipse cx ="280.234" cy ="-116.838" rx ="1.5"  ry ="1.5"/>
</g>
<g transform = "rotate(171.423,244.054,-132.319)">
<ellipse cx ="244.054" cy ="-132.319" rx ="1.5"  ry ="1.5"/>
</g>
<g transform = "rotate(171.423,192.957,-135.649)">
<ellipse cx ="192.957" cy ="-135.649" rx ="1.5"  ry ="1.5"/>
</g>
<g transform = "rotate(171.423,251.944,-166.996)">
<ellipse cx ="251.944" cy ="-166.996" rx ="1.5"  ry ="1.5"/>
</g>
<g transform = "rotate(171.423,266.164,-203.964)">
<ellipse cx ="266.164" cy ="-203.964" rx ="1.5"  ry ="1.5"/>
</g>
<g transform = "rotate(171.423,199.528,-195.276)">
<ellipse cx ="199.528" cy ="-195.276" rx ="1.5"  ry ="1.5"/>
</g>
<g transform = "rotate(171.423,292.169,-172.988)">
<ellipse cx ="292.169" cy ="-172.988" rx ="1.5"  ry ="1.5"/>
</g>
<path id= "210" d=" M 297.15 -221.127 L 316.996 -314.494 " />
<path d="M315.559 -317.296 A2.49349 2.49349 0 0 1 316.996 -314.494" /><path id= "212" d=" M 263.227 -340.256 L 315.559 -317.296 " />
<path d="M261.288 -340.88 A10 10 0 0 1 263.227 -340.256" /><path id= "214" d=" M 223.06 -349.006 L 261.288 -340.88 " />
<path d="M216.373 -347.268 A7.725 7.725 0 0 1 223.06 -349.006" /><path d="M216.373 -347.268 A7.725 7.725 0 0 1 209.686 -345.531" /><path id= "217" d=" M 186.13 -350.538 L 209.686 -345.531 " />
<path d="M183.165 -348.612 A2.5 2.5 0 0 1 186.13 -350.538" /><path id= "219" d=" M 167.04 -272.751 L 183.165 -348.612 " />
<path d="M167.04 -272.751 A1.7 1.7 0 0 1 165.903 -271.487" /><path id= "221" d=" M 165.903 -271.487 L 148.388 -265.796 " />
<path d="M146.783 -262.646 A2.5 2.5 0 0 1 148.388 -265.796" /><path id= "223" d=" M 158.377 -226.962 L 146.783 -262.646 " />
<path d="M161.527 -225.357 A2.5 2.5 0 0 1 158.377 -226.962" /><path id= "225" d=" M 201.449 -238.329 L 161.527 -225.357 " />
<path d="M201.449 -238.329 A4.27 4.27 0 0 1 203.656 -238.444" /><path id= "227" d=" M 294.185 -219.202 L 203.656 -238.444 " />
<path d="M297.15 -221.127 A2.5 2.5 0 0 1 294.185 -219.202" /><path id= "229" d=" M 174.864 -232.476 L 163.451 -228.767 " />
<path id= "230" d=" M 163.451 -228.767 L 161.535 -234.664 " />
<path id= "231" d=" M 161.535 -234.664 L 159.158 -233.891 " />
<path id= "232" d=" M 159.158 -233.891 L 150.413 -260.806 " />
<path id= "233" d=" M 150.413 -260.806 L 166.58 -266.06 " />
<path id= "234" d=" M 166.58 -266.06 L 175.325 -239.145 " />
<path id= "235" d=" M 175.325 -239.145 L 172.948 -238.372 " />
<path id= "236" d=" M 172.948 -238.372 L 174.864 -232.476 " />
<path id= "237" d=" M 227.334 -257.705 L 219.88 -259.289 " />
<path id= "238" d=" M 219.88 -259.289 L 216.969 -245.595 " />
<path id= "239" d=" M 216.969 -245.595 L 230.664 -242.684 " />
<path id= "240" d=" M 230.664 -242.684 L 231.159 -245.013 " />
<path id= "241" d=" M 238.612 -243.429 L 231.159 -245.013 " />
<path id= "242" d=" M 241.523 -257.123 L 238.612 -243.429 " />
<path id= "243" d=" M 227.829 -260.034 L 241.523 -257.123 " />
<path id= "244" d=" M 227.334 -257.705 L 227.829 -260.034 " />
<path id= "245" d=" M 193.427 -255.506 L 197.753 -242.192 " />
<path id= "246" d=" M 197.753 -242.192 L 211.068 -246.518 " />
<path id= "247" d=" M 211.068 -246.518 L 206.741 -259.833 " />
<path id= "248" d=" M 206.741 -259.833 L 193.427 -255.506 " />
<path id= "249" d=" M 192.95 -240.631 L 188.623 -253.946 " />
<path id= "250" d=" M 188.623 -253.946 L 175.309 -249.619 " />
<path id= "251" d=" M 175.309 -249.619 L 179.635 -236.305 " />
<path id= "252" d=" M 179.635 -236.305 L 192.95 -240.631 " />
<path id= "253" d=" M 187.063 -258.749 L 182.737 -272.064 " />
<path id= "254" d=" M 182.737 -272.064 L 169.422 -267.737 " />
<path id= "255" d=" M 169.422 -267.737 L 173.748 -254.423 " />
<path id= "256" d=" M 173.748 -254.423 L 187.063 -258.749 " />
<path id= "257" d=" M 228.879 -264.974 L 242.573 -262.063 " />
<path id= "258" d=" M 242.573 -262.063 L 245.484 -275.757 " />
<path id= "259" d=" M 245.484 -275.757 L 231.79 -278.668 " />
<path id= "260" d=" M 231.79 -278.668 L 228.879 -264.974 " />
<path id= "261" d=" M 291.216 -283.371 L 294.127 -297.065 " />
<path id= "262" d=" M 294.127 -297.065 L 307.821 -294.155 " />
<path id= "263" d=" M 307.821 -294.155 L 304.91 -280.46 " />
<path id= "264" d=" M 304.91 -280.46 L 291.216 -283.371 " />
<path id= "265" d=" M 272.582 -287.332 L 286.276 -284.421 " />
<path id= "266" d=" M 286.276 -284.421 L 289.187 -298.115 " />
<path id= "267" d=" M 289.187 -298.115 L 275.493 -301.026 " />
<path id= "268" d=" M 275.493 -301.026 L 272.582 -287.332 " />
<path id= "269" d=" M 243.057 -240.05 L 245.967 -253.744 " />
<path id= "270" d=" M 245.967 -253.744 L 259.661 -250.833 " />
<path id= "271" d=" M 259.661 -250.833 L 256.751 -237.139 " />
<path id= "272" d=" M 256.751 -237.139 L 243.057 -240.05 " />
<path id= "273" d=" M 279.334 -227.47 L 282.245 -241.164 " />
<path id= "274" d=" M 282.245 -241.164 L 295.939 -238.253 " />
<path id= "275" d=" M 295.939 -238.253 L 293.028 -224.559 " />
<path id= "276" d=" M 293.028 -224.559 L 279.334 -227.47 " />
<path id= "277" d=" M 194.582 -286.87 L 197.493 -300.564 " />
<path id= "278" d=" M 197.493 -300.564 L 211.187 -297.654 " />
<path id= "279" d=" M 211.187 -297.654 L 208.276 -283.959 " />
<path id= "280" d=" M 208.276 -283.959 L 194.582 -286.87 " />
<path id= "281" d=" M 198.543 -305.504 L 201.453 -319.198 " />
<path id= "282" d=" M 201.453 -319.198 L 215.147 -316.287 " />
<path id= "283" d=" M 215.147 -316.287 L 212.237 -302.593 " />
<path id= "284" d=" M 212.237 -302.593 L 198.543 -305.504 " />
<path id= "285" d=" M 250.978 -277.317 L 253.889 -291.011 " />
<path id= "286" d=" M 253.889 -291.011 L 267.583 -288.101 " />
<path id= "287" d=" M 267.583 -288.101 L 264.672 -274.407 " />
<path id= "288" d=" M 264.672 -274.407 L 250.978 -277.317 " />
<path id= "289" d=" M 258.9 -314.585 L 261.81 -328.279 " />
<path id= "290" d=" M 261.81 -328.279 L 275.504 -325.368 " />
<path id= "291" d=" M 275.504 -325.368 L 272.594 -311.674 " />
<path id= "292" d=" M 272.594 -311.674 L 258.9 -314.585 " />
<path id= "293" d=" M 287.255 -264.737 L 290.166 -278.432 " />
<path id= "294" d=" M 290.166 -278.432 L 303.86 -275.521 " />
<path id= "295" d=" M 303.86 -275.521 L 300.949 -261.827 " />
<path id= "296" d=" M 300.949 -261.827 L 287.255 -264.737 " />
<path id= "297" d=" M 260.7 -231.431 L 274.394 -228.52 " />
<path id= "298" d=" M 274.394 -228.52 L 277.305 -242.214 " />
<path id= "299" d=" M 277.305 -242.214 L 263.611 -245.125 " />
<path id= "300" d=" M 263.611 -245.125 L 260.7 -231.431 " />
<path id= "301" d=" M 209.75 -266.605 L 223.444 -263.694 " />
<path id= "302" d=" M 223.444 -263.694 L 226.355 -277.388 " />
<path id= "303" d=" M 226.355 -277.388 L 212.661 -280.299 " />
<path id= "304" d=" M 212.661 -280.299 L 209.75 -266.605 " />
<path id= "305" d=" M 232.839 -283.607 L 246.534 -280.696 " />
<path id= "306" d=" M 246.534 -280.696 L 249.444 -294.391 " />
<path id= "307" d=" M 249.444 -294.391 L 235.75 -297.301 " />
<path id= "308" d=" M 235.75 -297.301 L 232.839 -283.607 " />
<path id= "309" d=" M 236.8 -302.241 L 250.494 -299.33 " />
<path id= "310" d=" M 250.494 -299.33 L 253.405 -313.024 " />
<path id= "311" d=" M 253.405 -313.024 L 239.711 -315.935 " />
<path id= "312" d=" M 239.711 -315.935 L 236.8 -302.241 " />
<path id= "313" d=" M 240.761 -320.875 L 254.455 -317.964 " />
<path id= "314" d=" M 254.455 -317.964 L 257.366 -331.658 " />
<path id= "315" d=" M 257.366 -331.658 L 243.672 -334.569 " />
<path id= "316" d=" M 243.672 -334.569 L 240.761 -320.875 " />
<path id= "317" d=" M 247.017 -258.684 L 260.711 -255.773 " />
<path id= "318" d=" M 260.711 -255.773 L 263.622 -269.467 " />
<path id= "319" d=" M 263.622 -269.467 L 249.928 -272.378 " />
<path id= "320" d=" M 249.928 -272.378 L 247.017 -258.684 " />
<path id= "321" d=" M 268.622 -268.698 L 282.316 -265.787 " />
<path id= "322" d=" M 282.316 -265.787 L 285.226 -279.482 " />
<path id= "323" d=" M 285.226 -279.482 L 271.532 -282.392 " />
<path id= "324" d=" M 271.532 -282.392 L 268.622 -268.698 " />
<path id= "325" d=" M 276.543 -305.966 L 290.237 -303.055 " />
<path id= "326" d=" M 290.237 -303.055 L 293.148 -316.749 " />
<path id= "327" d=" M 293.148 -316.749 L 279.454 -319.66 " />
<path id= "328" d=" M 279.454 -319.66 L 276.543 -305.966 " />
<path id= "329" d=" M 216.197 -321.227 L 219.108 -334.921 " />
<path id= "330" d=" M 219.108 -334.921 L 205.414 -337.832 " />
<path id= "331" d=" M 205.414 -337.832 L 202.503 -324.138 " />
<path id= "332" d=" M 202.503 -324.138 L 216.197 -321.227 " />
<path id= "333" d=" M 224.543 -336.2 L 221.632 -322.506 " />
<path id= "334" d=" M 221.632 -322.506 L 235.326 -319.595 " />
<path id= "335" d=" M 235.326 -319.595 L 238.237 -333.29 " />
<path id= "336" d=" M 238.237 -333.29 L 224.543 -336.2 " />
<path id= "337" d=" M 216.621 -298.933 L 213.711 -285.239 " />
<path id= "338" d=" M 213.711 -285.239 L 227.405 -282.328 " />
<path id= "339" d=" M 227.405 -282.328 L 230.316 -296.022 " />
<path id= "340" d=" M 230.316 -296.022 L 216.621 -298.933 " />
<path id= "341" d=" M 295.177 -302.005 L 298.088 -315.699 " />
<path id= "342" d=" M 298.088 -315.699 L 311.782 -312.788 " />
<path id= "343" d=" M 311.782 -312.788 L 308.871 -299.094 " />
<path id= "344" d=" M 308.871 -299.094 L 295.177 -302.005 " />
<path id= "345" d=" M 190.621 -268.237 L 193.532 -281.931 " />
<path id= "346" d=" M 193.532 -281.931 L 207.226 -279.02 " />
<path id= "347" d=" M 207.226 -279.02 L 204.315 -265.326 " />
<path id= "348" d=" M 204.315 -265.326 L 190.621 -268.237 " />
<path id= "349" d=" M 283.295 -246.104 L 286.205 -259.798 " />
<path id= "350" d=" M 286.205 -259.798 L 299.899 -256.887 " />
<path id= "351" d=" M 299.899 -256.887 L 296.989 -243.193 " />
<path id= "352" d=" M 296.989 -243.193 L 283.295 -246.104 " />
<path id= "353" d=" M 264.661 -250.065 L 278.355 -247.154 " />
<path id= "354" d=" M 278.355 -247.154 L 281.266 -260.848 " />
<path id= "355" d=" M 281.266 -260.848 L 267.572 -263.759 " />
<path id= "356" d=" M 267.572 -263.759 L 264.661 -250.065 " />
<path id= "357" d=" M 254.939 -295.951 L 257.85 -309.645 " />
<path id= "358" d=" M 257.85 -309.645 L 271.544 -306.734 " />
<path id= "359" d=" M 271.544 -306.734 L 268.633 -293.04 " />
<path id= "360" d=" M 268.633 -293.04 L 254.939 -295.951 " />
<path id= "361" d=" M 177.929 -300.148 L 191.623 -297.237 " />
<path id= "362" d=" M 191.623 -297.237 L 194.533 -310.931 " />
<path id= "363" d=" M 194.533 -310.931 L 180.839 -313.842 " />
<path id= "364" d=" M 180.839 -313.842 L 177.929 -300.148 " />
<path id= "365" d=" M 217.671 -303.873 L 231.365 -300.962 " />
<path id= "366" d=" M 231.365 -300.962 L 234.276 -314.656 " />
<path id= "367" d=" M 234.276 -314.656 L 220.582 -317.567 " />
<path id= "368" d=" M 220.582 -317.567 L 217.671 -303.873 " />
<path id= "369" d=" M 173.968 -281.514 L 187.662 -278.603 " />
<path id= "370" d=" M 187.662 -278.603 L 190.573 -292.297 " />
<path id= "371" d=" M 190.573 -292.297 L 176.879 -295.208 " />
<path id= "372" d=" M 176.879 -295.208 L 173.968 -281.514 " />
<path id= "373" d=" M 198.494 -329.565 L 184.8 -332.476 " />
<path id= "374" d=" M 184.8 -332.476 L 181.889 -318.782 " />
<path id= "375" d=" M 181.889 -318.782 L 195.583 -315.871 " />
<path id= "376" d=" M 195.583 -315.871 L 198.494 -329.565 " />
<circle cx ="280.234" cy ="-243.848" r ="1.5" /><circle cx ="244.054" cy ="-259.329" r ="1.5" /><circle cx ="192.957" cy ="-262.659" r ="1.5" /><circle cx ="251.944" cy ="-294.006" r ="1.5" /><circle cx ="266.164" cy ="-330.974" r ="1.5" /><circle cx ="199.528" cy ="-322.286" r ="1.5" /><circle cx ="292.169" cy ="-299.998" r ="1.5" /><path id= "384" d=" M 116.62 -192.5 L 116.62 -204.5 " />
<path d="M116.62 -204.5 A2 2 0 0 1 118.62 -206.5" /><path id= "386" d=" M 118.62 -206.5 L 138.62 -206.5 " />
<path d="M141.12 -209 A2.5 2.5 0 0 1 138.62 -206.5" /><path id= "388" d=" M 141.12 -270.556 L 141.12 -209 " />
<path d="M141.12 -270.556 A1.7 1.7 0 0 1 141.97 -272.028" /><path id= "390" d=" M 141.97 -272.028 L 157.919 -281.237 " />
<path d="M158.834 -284.652 A2.5 2.5 0 0 1 157.919 -281.237" /><path id= "392" d=" M 140.074 -317.145 L 158.834 -284.652 " />
<path d="M136.659 -318.06 A2.5 2.5 0 0 1 140.074 -317.145" /><path id= "394" d=" M 100.307 -297.072 L 136.659 -318.06 " />
<path d="M100.307 -297.072 A4.27 4.27 0 0 1 98.172 -296.5" /><path id= "396" d=" M 5.62 -296.5 L 98.172 -296.5 " />
<path d="M3.12 -294 A2.5 2.5 0 0 1 5.62 -296.5" /><path id= "398" d=" M 3.12 -294 L 3.12 -198.548 " />
<path d="M5.10829 -196.106 A2.49349 2.49349 0 0 1 3.12 -198.548" /><path id= "400" d=" M 58.7148 -185.015 L 5.10829 -196.106 " />
<path d="M61.12 -186.973 A2 2 0 0 1 58.7148 -185.015" /><path id= "402" d=" M 61.12 -186.973 L 61.12 -218.32 " />
<path d="M61.12 -218.32 A2 2 0 0 1 63.12 -220.32" /><path id= "404" d=" M 63.12 -220.32 L 100.12 -220.32 " />
<path d="M100.12 -220.32 A2 2 0 0 1 102.12 -218.32" /><path id= "406" d=" M 102.12 -218.32 L 102.12 -186.659 " />
<path d="M104.798 -184.778 A2 2 0 0 1 102.12 -186.659" /><path d="M108.359 -187.41 A7.725 7.725 0 0 1 104.798 -184.778" /><path d="M108.359 -187.41 A7.725 7.725 0 0 1 114.539 -190.5" /><path id= "410" d=" M 114.62 -190.5 L 114.539 -190.5 " />
<path d="M116.62 -192.5 A2 2 0 0 1 114.62 -190.5" /><circle cx ="113.672" cy ="-275.038" r ="1.5" /><circle cx ="62.491" cy ="-232.113" r ="1.5" /><circle cx ="62.999" cy ="-267.673" r ="1.5" /><circle cx ="24.391" cy ="-275.293" r ="1.5" /><circle cx ="119.641" cy ="-215.349" r ="1.5" /><circle cx ="24.391" cy ="-217.888" r ="1.5" /><circle cx ="56.268" cy ="-192.996" r ="1.5" /><path d="M288 -56.6735 A2.49349 2.49349 0 0 1 285.507 -54.18" /><path id= "420" d=" M 285.507 -54.18 L 152.493 -54.18 " />
<path d="M152.493 -54.18 A2.49349 2.49349 0 0 1 150 -56.6735" /><path id= "422" d=" M 150 -56.6735 L 150 -87.5 " />
<path d="M150 -87.5 A2.5 2.5 0 0 1 152.5 -90" /><path id= "424" d=" M 152.5 -90 L 176.581 -90 " />
<path d="M182.761 -93.09 A7.725 7.725 0 0 1 176.581 -90" /><path d="M182.761 -93.09 A7.725 7.725 0 0 1 188.941 -96.18" /><path id= "427" d=" M 188.941 -96.18 L 228.023 -96.18 " />
<path d="M228.023 -96.18 A10 10 0 0 1 230.05 -95.9726" /><path id= "429" d=" M 230.05 -95.9726 L 286.012 -84.3942 " />
<path d="M286.012 -84.3942 A2.49349 2.49349 0 0 1 288 -81.9524" /><path id= "431" d=" M 288 -56.6735 L 288 -81.9524 " />
<circle cx ="171.479" cy ="-65.1515" r ="1.5" /><circle cx ="266.729" cy ="-62.6115" r ="1.5" /><circle cx ="234.852" cy ="-87.504" r ="1.5" /><path d="M149.262 -335.435 A2.49349 2.49349 -75.4268 0 1 147.341 -332.477" />
<path id= "436" d=" M 147.341 -332.477 L 17.2346 -304.822 " />
<path d="M17.2346 -304.822 A2.49349 2.49349 -75.4268 0 1 14.2771 -306.743" />
<path id= "438" d=" M 14.2771 -306.743 L 7.86795 -336.896 " />
<path d="M7.86795 -336.896 A2.5 2.5 -75.4268 0 1 9.79354 -339.861" />
<path id= "440" d=" M 9.79354 -339.861 L 33.3487 -344.868 " />
<path d="M38.7512 -349.175 A7.725 7.725 -75.4268 0 1 33.3487 -344.868" />
<path d="M38.7512 -349.175 A7.725 7.725 -75.4268 0 1 44.1537 -353.482" />
<path id= "443" d=" M 44.1537 -353.482 L 82.3817 -361.608 " />
<path d="M82.3817 -361.608 A10 10 -75.4268 0 1 84.4066 -361.826" />
<path id= "445" d=" M 84.4066 -361.826 L 141.553 -362.136 " />
<path d="M141.553 -362.136 A2.49349 2.49349 -75.4268 0 1 144.006 -360.161" />
<path id= "447" d=" M 149.262 -335.435 L 144.006 -360.161 " />
<g transform = "rotate(-75.4268,33.5241,-319.501)">
<ellipse cx ="33.5241" cy ="-319.501" rx ="1.5"  ry ="1.5"/>
</g>
<g transform = "rotate(-75.4268,127.221,-336.82)">
<ellipse cx ="127.221" cy ="-336.82" rx ="1.5"  ry ="1.5"/>
</g>
<g transform = "rotate(-75.4268,90.8649,-354.541)">
<ellipse cx ="90.8649" cy ="-354.541" rx ="1.5"  ry ="1.5"/>
</g>
</g>
</g>



</svg>
