<?xml version="1.0" encoding="UTF-8"?>

<svg xmlns="http://www.w3.org/2000/svg" version="1.1"
    xmlns:freecad="http://www.freecadweb.org/wiki/index.php?title=Svg_Namespace"
	width="594mm"
	height="420mm"
	viewBox="0 0 594 420">
	<!-- Working space 0 0 594 420 -->
	<defs>
		<radialGradient
			id="radialGradient3661"
			gradientUnits="userSpaceOnUse"
			cy="29.149"
			cx="282.65"
			gradientTransform="matrix(.14777 .23089 -.24680 .15795 -26.318 -62.617)"
			r="19.571">
				<stop stop-color="#71b2f8" offset="0"/>
				<stop stop-color="#002795" offset="1"/>
		</radialGradient>
		<radialGradient
			id="radialGradient3817"
			gradientUnits="userSpaceOnUse"
			cy="33.9"
			cx="270.58"
			gradientTransform="matrix(.26631 .065024 -.17931 .73438 -60.668 -36.938)"
			r="19.571">
				<stop stop-color="#ff6d0f" offset="0"/>
				<stop stop-color="#ff1000" offset="1"/>
		</radialGradient>
	</defs>
	<!-- Set display:none to hide FreeCAD Logo -->
	<g
		style="display:none"
		id="freecad-logo"
		transform="translate(552, 380) scale(2)"
		fill-rule="evenodd"
		stroke-width=".45621">
		<path d="m0.22811 0.22835v13.256h2.9558v-5.1876h2.09v-2.0452h-2.09v-2.2075h5.1486v-3.8087l-8.1044-0.0075z"
			stroke="#370700"
			fill="url(#radialGradient3817)"/>
		<path d="m13.386 4.1792-1.7193 0.98645-0.75925-0.26348-0.72439-1.8513-1.1395 0.05988-0.51976 1.9144-0.72743 0.34835-1.8143-0.79367-0.76632 0.85156 0.98645 1.7193-0.26957 0.75702-1.8513 0.72439 0.065967 1.1417 1.9144 0.51976 0.34835 0.72743-0.79976 1.8121 0.85156 0.76632 1.7193-0.98645 0.76311 0.27179 0.7183 1.8491 1.1478-0.06375 0.51367-1.9166 0.72743-0.34835 1.8182 0.80198 0.76632-0.85156-0.98645-1.7193 0.2657-0.76533 1.8491-0.7183-0.05766-1.1456-1.9166-0.51367-0.34835-0.72743 0.7959-1.8204-0.85156-0.76632zm-2.5751 2.8195 0.35295 0.20478 0.30579 0.27725 0.24481 0.33087 0.17611 0.36787 0.10354 0.39656 0.01715 0.4064-0.0587 0.4063-0.13396 0.38571-0.2131 0.35681-0.26894 0.30192-0.33087 0.24481-0.36787 0.17611-0.39656 0.10354-0.40863 0.02325-0.4063-0.0587-0.38571-0.13396-0.35681-0.2131-0.2997-0.27503-0.24703-0.32478-0.17611-0.36787-0.10132-0.40264-0.02324-0.40863 0.05869-0.4063 0.13396-0.38571 0.21087-0.35072 0.27116-0.30801 0.33087-0.24481 0.36787-0.17611 0.40264-0.10132 0.40641-0.01715 0.4063 0.05869 0.38571 0.13396z" 
		stroke="#000137"
		fill="url(#radialGradient3661)"/>
	</g>
<g id="View002"
   transform="rotate(0,10,10) translate(10,10) scale(1,1)"
  >
<g   fill="none"
   stroke="rgb(0, 0, 0)"
   stroke-linecap="butt"
   stroke-linejoin="miter"
   stroke-width="0.350000"
   transform="scale(1,-1)"
  >
<path d="M-3 -103.327 A2.49349 2.49349 0 0 1 -0.506514 -105.82" /><path id= "2" d=" M -0.506514 -105.82 L 132.507 -105.82 " />
<path d="M132.507 -105.82 A2.49349 2.49349 0 0 1 135 -103.327" /><path id= "4" d=" M 135 -103.327 L 135 -72.5 " />
<path d="M135 -72.5 A2.5 2.5 0 0 1 132.5 -70" /><path id= "6" d=" M 132.5 -70 L 108.419 -70 " />
<path d="M102.239 -66.91 A7.725 7.725 0 0 1 108.419 -70" /><path d="M102.239 -66.91 A7.725 7.725 0 0 1 96.0586 -63.82" /><path id= "9" d=" M 96.0586 -63.82 L 56.9766 -63.82 " />
<path d="M56.9766 -63.82 A10 10 0 0 1 54.9505 -64.0274" /><path id= "11" d=" M 54.9505 -64.0274 L -1.01171 -75.6058 " />
<path d="M-1.01171 -75.6058 A2.49349 2.49349 0 0 1 -3 -78.0476" /><path id= "13" d=" M -3 -103.327 L -3 -78.0476 " />
<circle cx ="113.521" cy ="-94.8485" r ="1.5" /><circle cx ="18.271" cy ="-97.3885" r ="1.5" /><circle cx ="50.148" cy ="-72.496" r ="1.5" /><path id= "17" d=" M 152 -255.5 L 152 -350.952 " />
<path d="M150.012 -353.394 A2.49349 2.49349 0 0 1 152 -350.952" /><path id= "19" d=" M 94.0495 -364.973 L 150.012 -353.394 " />
<path d="M92.0235 -365.18 A10 10 0 0 1 94.0495 -364.973" /><path id= "21" d=" M 52.9414 -365.18 L 92.0235 -365.18 " />
<path d="M46.7614 -362.09 A7.725 7.725 0 0 1 52.9414 -365.18" /><path d="M46.7614 -362.09 A7.725 7.725 0 0 1 40.5814 -359" /><path id= "24" d=" M 16.5 -359 L 40.5814 -359 " />
<path d="M14 -356.5 A2.5 2.5 0 0 1 16.5 -359" /><path id= "26" d=" M 14 -278.944 L 14 -356.5 " />
<path d="M14 -278.944 A1.7 1.7 0 0 1 13.15 -277.472" /><path id= "28" d=" M 13.15 -277.472 L -2.79904 -268.263 " />
<path d="M-3.7141 -264.848 A2.5 2.5 0 0 1 -2.79904 -268.263" /><path id= "30" d=" M 15.0459 -232.355 L -3.7141 -264.848 " />
<path d="M18.461 -231.44 A2.5 2.5 0 0 1 15.0459 -232.355" /><path id= "32" d=" M 54.813 -252.428 L 18.461 -231.44 " />
<path d="M54.813 -252.428 A4.27 4.27 0 0 1 56.948 -253" /><path id= "34" d=" M 149.5 -253 L 56.948 -253 " />
<path d="M152 -255.5 A2.5 2.5 0 0 1 149.5 -253" /><path id= "36" d=" M 30.026 -241.176 L 19.634 -235.176 " />
<path id= "37" d=" M 19.634 -235.176 L 16.534 -240.545 " />
<path id= "38" d=" M 16.534 -240.545 L 14.369 -239.295 " />
<path id= "39" d=" M 14.369 -239.295 L 0.219001 -263.804 " />
<path id= "40" d=" M 0.219001 -263.804 L 14.941 -272.304 " />
<path id= "41" d=" M 14.941 -272.304 L 29.091 -247.795 " />
<path id= "42" d=" M 29.091 -247.795 L 26.926 -246.545 " />
<path id= "43" d=" M 26.926 -246.545 L 30.026 -241.176 " />
<path id= "44" d=" M 76.104 -276.763 L 68.484 -276.763 " />
<path id= "45" d=" M 68.484 -276.763 L 68.484 -262.763 " />
<path id= "46" d=" M 68.484 -262.763 L 82.484 -262.763 " />
<path id= "47" d=" M 82.484 -262.763 L 82.484 -265.144 " />
<path id= "48" d=" M 90.104 -265.144 L 82.484 -265.144 " />
<path id= "49" d=" M 90.104 -279.144 L 90.104 -265.144 " />
<path id= "50" d=" M 76.104 -279.144 L 90.104 -279.144 " />
<path id= "51" d=" M 76.104 -276.763 L 76.104 -279.144 " />
<path id= "52" d=" M 43.395 -267.562 L 50.3948 -255.438 " />
<path id= "53" d=" M 50.3948 -255.438 L 62.5192 -262.438 " />
<path id= "54" d=" M 62.5192 -262.438 L 55.5192 -274.562 " />
<path id= "55" d=" M 55.5192 -274.562 L 43.395 -267.562 " />
<path id= "56" d=" M 46.021 -252.913 L 39.021 -265.037 " />
<path id= "57" d=" M 39.021 -265.037 L 26.897 -258.037 " />
<path id= "58" d=" M 26.897 -258.037 L 33.897 -245.913 " />
<path id= "59" d=" M 33.897 -245.913 L 46.021 -252.913 " />
<path id= "60" d=" M 36.496 -269.411 L 29.496 -281.535 " />
<path id= "61" d=" M 29.496 -281.535 L 17.372 -274.535 " />
<path id= "62" d=" M 17.372 -274.535 L 24.372 -262.411 " />
<path id= "63" d=" M 24.372 -262.411 L 36.496 -269.411 " />
<path id= "64" d=" M 76.104 -284.194 L 90.104 -284.194 " />
<path id= "65" d=" M 90.104 -284.194 L 90.104 -298.194 " />
<path id= "66" d=" M 90.104 -298.194 L 76.104 -298.194 " />
<path id= "67" d=" M 76.104 -298.194 L 76.104 -284.194 " />
<path id= "68" d=" M 133.254 -315.15 L 133.254 -329.15 " />
<path id= "69" d=" M 133.254 -329.15 L 147.254 -329.15 " />
<path id= "70" d=" M 147.254 -329.15 L 147.254 -315.15 " />
<path id= "71" d=" M 147.254 -315.15 L 133.254 -315.15 " />
<path id= "72" d=" M 114.204 -315.15 L 128.204 -315.15 " />
<path id= "73" d=" M 128.204 -315.15 L 128.204 -329.15 " />
<path id= "74" d=" M 128.204 -329.15 L 114.204 -329.15 " />
<path id= "75" d=" M 114.204 -329.15 L 114.204 -315.15 " />
<path id= "76" d=" M 95.154 -262.763 L 95.154 -276.763 " />
<path id= "77" d=" M 95.154 -276.763 L 109.154 -276.763 " />
<path id= "78" d=" M 109.154 -276.763 L 109.154 -262.763 " />
<path id= "79" d=" M 109.154 -262.763 L 95.154 -262.763 " />
<path id= "80" d=" M 133.254 -258 L 133.254 -272 " />
<path id= "81" d=" M 133.254 -272 L 147.254 -272 " />
<path id= "82" d=" M 147.254 -272 L 147.254 -258 " />
<path id= "83" d=" M 147.254 -258 L 133.254 -258 " />
<path id= "84" d=" M 38.004 -298.481 L 38.004 -312.481 " />
<path id= "85" d=" M 38.004 -312.481 L 52.004 -312.481 " />
<path id= "86" d=" M 52.004 -312.481 L 52.004 -298.481 " />
<path id= "87" d=" M 52.004 -298.481 L 38.004 -298.481 " />
<path id= "88" d=" M 38.004 -317.531 L 38.004 -331.531 " />
<path id= "89" d=" M 38.004 -331.531 L 52.004 -331.531 " />
<path id= "90" d=" M 52.004 -331.531 L 52.004 -317.531 " />
<path id= "91" d=" M 52.004 -317.531 L 38.004 -317.531 " />
<path id= "92" d=" M 95.154 -300.863 L 95.154 -314.863 " />
<path id= "93" d=" M 95.154 -314.863 L 109.154 -314.863 " />
<path id= "94" d=" M 109.154 -314.863 L 109.154 -300.863 " />
<path id= "95" d=" M 109.154 -300.863 L 95.154 -300.863 " />
<path id= "96" d=" M 95.154 -338.963 L 95.154 -352.963 " />
<path id= "97" d=" M 95.154 -352.963 L 109.154 -352.963 " />
<path id= "98" d=" M 109.154 -352.963 L 109.154 -338.963 " />
<path id= "99" d=" M 109.154 -338.963 L 95.154 -338.963 " />
<path id= "100" d=" M 133.254 -296.1 L 133.254 -310.1 " />
<path id= "101" d=" M 133.254 -310.1 L 147.254 -310.1 " />
<path id= "102" d=" M 147.254 -310.1 L 147.254 -296.1 " />
<path id= "103" d=" M 147.254 -296.1 L 133.254 -296.1 " />
<path id= "104" d=" M 114.204 -258 L 128.204 -258 " />
<path id= "105" d=" M 128.204 -258 L 128.204 -272 " />
<path id= "106" d=" M 128.204 -272 L 114.204 -272 " />
<path id= "107" d=" M 114.204 -272 L 114.204 -258 " />
<path id= "108" d=" M 57.054 -281.813 L 71.054 -281.813 " />
<path id= "109" d=" M 71.054 -281.813 L 71.054 -295.813 " />
<path id= "110" d=" M 71.054 -295.813 L 57.054 -295.813 " />
<path id= "111" d=" M 57.054 -295.813 L 57.054 -281.813 " />
<path id= "112" d=" M 76.104 -303.244 L 90.104 -303.244 " />
<path id= "113" d=" M 90.104 -303.244 L 90.104 -317.244 " />
<path id= "114" d=" M 90.104 -317.244 L 76.104 -317.244 " />
<path id= "115" d=" M 76.104 -317.244 L 76.104 -303.244 " />
<path id= "116" d=" M 76.104 -322.294 L 90.104 -322.294 " />
<path id= "117" d=" M 90.104 -322.294 L 90.104 -336.294 " />
<path id= "118" d=" M 90.104 -336.294 L 76.104 -336.294 " />
<path id= "119" d=" M 76.104 -336.294 L 76.104 -322.294 " />
<path id= "120" d=" M 76.104 -341.344 L 90.104 -341.344 " />
<path id= "121" d=" M 90.104 -341.344 L 90.104 -355.344 " />
<path id= "122" d=" M 90.104 -355.344 L 76.104 -355.344 " />
<path id= "123" d=" M 76.104 -355.344 L 76.104 -341.344 " />
<path id= "124" d=" M 95.154 -281.813 L 109.154 -281.813 " />
<path id= "125" d=" M 109.154 -281.813 L 109.154 -295.813 " />
<path id= "126" d=" M 109.154 -295.813 L 95.154 -295.813 " />
<path id= "127" d=" M 95.154 -295.813 L 95.154 -281.813 " />
<path id= "128" d=" M 114.204 -296.1 L 128.204 -296.1 " />
<path id= "129" d=" M 128.204 -296.1 L 128.204 -310.1 " />
<path id= "130" d=" M 128.204 -310.1 L 114.204 -310.1 " />
<path id= "131" d=" M 114.204 -310.1 L 114.204 -296.1 " />
<path id= "132" d=" M 114.204 -334.2 L 128.204 -334.2 " />
<path id= "133" d=" M 128.204 -334.2 L 128.204 -348.2 " />
<path id= "134" d=" M 128.204 -348.2 L 114.204 -348.2 " />
<path id= "135" d=" M 114.204 -348.2 L 114.204 -334.2 " />
<path id= "136" d=" M 52.004 -336.581 L 52.004 -350.581 " />
<path id= "137" d=" M 52.004 -350.581 L 38.004 -350.581 " />
<path id= "138" d=" M 38.004 -350.581 L 38.004 -336.581 " />
<path id= "139" d=" M 38.004 -336.581 L 52.004 -336.581 " />
<path id= "140" d=" M 57.054 -352.963 L 57.054 -338.963 " />
<path id= "141" d=" M 57.054 -338.963 L 71.054 -338.963 " />
<path id= "142" d=" M 71.054 -338.963 L 71.054 -352.963 " />
<path id= "143" d=" M 71.054 -352.963 L 57.054 -352.963 " />
<path id= "144" d=" M 57.054 -314.863 L 57.054 -300.863 " />
<path id= "145" d=" M 57.054 -300.863 L 71.054 -300.863 " />
<path id= "146" d=" M 71.054 -300.863 L 71.054 -314.863 " />
<path id= "147" d=" M 71.054 -314.863 L 57.054 -314.863 " />
<path id= "148" d=" M 133.254 -334.2 L 133.254 -348.2 " />
<path id= "149" d=" M 133.254 -348.2 L 147.254 -348.2 " />
<path id= "150" d=" M 147.254 -348.2 L 147.254 -334.2 " />
<path id= "151" d=" M 147.254 -334.2 L 133.254 -334.2 " />
<path id= "152" d=" M 38.004 -279.431 L 38.004 -293.431 " />
<path id= "153" d=" M 38.004 -293.431 L 52.004 -293.431 " />
<path id= "154" d=" M 52.004 -293.431 L 52.004 -279.431 " />
<path id= "155" d=" M 52.004 -279.431 L 38.004 -279.431 " />
<path id= "156" d=" M 133.254 -277.05 L 133.254 -291.05 " />
<path id= "157" d=" M 133.254 -291.05 L 147.254 -291.05 " />
<path id= "158" d=" M 147.254 -291.05 L 147.254 -277.05 " />
<path id= "159" d=" M 147.254 -277.05 L 133.254 -277.05 " />
<path id= "160" d=" M 114.204 -277.05 L 128.204 -277.05 " />
<path id= "161" d=" M 128.204 -277.05 L 128.204 -291.05 " />
<path id= "162" d=" M 128.204 -291.05 L 114.204 -291.05 " />
<path id= "163" d=" M 114.204 -291.05 L 114.204 -277.05 " />
<path id= "164" d=" M 95.154 -319.913 L 95.154 -333.913 " />
<path id= "165" d=" M 95.154 -333.913 L 109.154 -333.913 " />
<path id= "166" d=" M 109.154 -333.913 L 109.154 -319.913 " />
<path id= "167" d=" M 109.154 -319.913 L 95.154 -319.913 " />
<path id= "168" d=" M 18.954 -308.006 L 32.954 -308.006 " />
<path id= "169" d=" M 32.954 -308.006 L 32.954 -322.006 " />
<path id= "170" d=" M 32.954 -322.006 L 18.954 -322.006 " />
<path id= "171" d=" M 18.954 -322.006 L 18.954 -308.006 " />
<path id= "172" d=" M 57.054 -319.913 L 71.054 -319.913 " />
<path id= "173" d=" M 71.054 -319.913 L 71.054 -333.913 " />
<path id= "174" d=" M 71.054 -333.913 L 57.054 -333.913 " />
<path id= "175" d=" M 57.054 -333.913 L 57.054 -319.913 " />
<path id= "176" d=" M 18.954 -288.956 L 32.954 -288.956 " />
<path id= "177" d=" M 32.954 -288.956 L 32.954 -302.956 " />
<path id= "178" d=" M 32.954 -302.956 L 18.954 -302.956 " />
<path id= "179" d=" M 18.954 -302.956 L 18.954 -288.956 " />
<path id= "180" d=" M 32.954 -341.056 L 18.954 -341.056 " />
<path id= "181" d=" M 18.954 -341.056 L 18.954 -327.056 " />
<path id= "182" d=" M 18.954 -327.056 L 32.954 -327.056 " />
<path id= "183" d=" M 32.954 -327.056 L 32.954 -341.056 " />
<circle cx ="130.729" cy ="-274.208" r ="1.5" /><circle cx ="92.121" cy ="-281.828" r ="1.5" /><circle cx ="41.448" cy ="-274.462" r ="1.5" /><circle cx ="92.629" cy ="-317.388" r ="1.5" /><circle cx ="98.852" cy ="-356.504" r ="1.5" /><circle cx ="35.479" cy ="-334.152" r ="1.5" /><circle cx ="130.729" cy ="-331.612" r ="1.5" /><path id= "191" d=" M 110.5 -120 L 110.5 -132 " />
<path d="M110.5 -132 A2 2 0 0 1 112.5 -134" /><path id= "193" d=" M 112.5 -134 L 132.5 -134 " />
<path d="M135 -136.5 A2.5 2.5 0 0 1 132.5 -134" /><path id= "195" d=" M 135 -198.056 L 135 -136.5 " />
<path d="M135 -198.056 A1.7 1.7 0 0 1 135.85 -199.528" /><path id= "197" d=" M 135.85 -199.528 L 151.799 -208.737 " />
<path d="M152.714 -212.152 A2.5 2.5 0 0 1 151.799 -208.737" /><path id= "199" d=" M 133.954 -244.645 L 152.714 -212.152 " />
<path d="M130.539 -245.56 A2.5 2.5 0 0 1 133.954 -244.645" /><path id= "201" d=" M 94.187 -224.572 L 130.539 -245.56 " />
<path d="M94.187 -224.572 A4.27 4.27 0 0 1 92.052 -224" /><path id= "203" d=" M -0.5 -224 L 92.052 -224 " />
<path d="M-3 -221.5 A2.5 2.5 0 0 1 -0.5 -224" /><path id= "205" d=" M -3 -221.5 L -3 -126.048 " />
<path d="M-1.01171 -123.606 A2.49349 2.49349 0 0 1 -3 -126.048" /><path id= "207" d=" M 52.5948 -112.515 L -1.01171 -123.606 " />
<path d="M55 -114.473 A2 2 0 0 1 52.5948 -112.515" /><path id= "209" d=" M 55 -114.473 L 55 -145.82 " />
<path d="M55 -145.82 A2 2 0 0 1 57 -147.82" /><path id= "211" d=" M 57 -147.82 L 94 -147.82 " />
<path d="M94 -147.82 A2 2 0 0 1 96 -145.82" /><path id= "213" d=" M 96 -145.82 L 96 -114.159 " />
<path d="M98.6782 -112.278 A2 2 0 0 1 96 -114.159" /><path d="M102.239 -114.91 A7.725 7.725 0 0 1 98.6782 -112.278" /><path d="M102.239 -114.91 A7.725 7.725 0 0 1 108.419 -118" /><path id= "217" d=" M 108.5 -118 L 108.419 -118 " />
<path d="M110.5 -120 A2 2 0 0 1 108.5 -118" /><circle cx ="107.552" cy ="-202.538" r ="1.5" /><circle cx ="56.371" cy ="-159.613" r ="1.5" /><circle cx ="56.879" cy ="-195.173" r ="1.5" /><circle cx ="18.271" cy ="-202.792" r ="1.5" /><circle cx ="113.521" cy ="-142.849" r ="1.5" /><circle cx ="18.271" cy ="-145.388" r ="1.5" /><circle cx ="50.148" cy ="-120.496" r ="1.5" /></g>
</g>



</svg>
