G04 #@! TF.GenerationSoftware,KiCad,Pcbnew,(5.99.0-7652-gaab3c936f0)*
G04 #@! TF.CreationDate,2020-12-28T19:10:51+00:00*
G04 #@! TF.ProjectId,ergodash,6572676f-6461-4736-982e-6b696361645f,2.0*
G04 #@! TF.SameCoordinates,PX4c880a8PY8a3633c*
G04 #@! TF.FileFunction,Profile,NP*
%FSLAX46Y46*%
G04 Gerber Fmt 4.6, Leading zero omitted, Abs format (unit mm)*
G04 Created by KiCad (PCBNEW (5.99.0-7652-gaab3c936f0)) date 2020-12-28 19:10:51*
%MOMM*%
%LPD*%
G01*
G04 APERTURE LIST*
G04 #@! TA.AperFunction,Profile*
%ADD10C,0.160000*%
G04 #@! TD*
%ADD11C,0.160000*%
G04 #@! TA.AperFunction,Profile*
%ADD12C,0.150000*%
G04 #@! TD*
G04 APERTURE END LIST*
D10*
X55258000Y105972500D02*
X1993000Y94952500D01*
X0Y2500500D02*
X0Y92504500D01*
X129500000Y100000500D02*
G75*
G02*
X132000000Y97500500I0J-2500000D01*
G01*
X57284000Y106180500D02*
X94640000Y106180500D01*
X2500000Y500D02*
X92856000Y500D01*
X132000000Y97500500D02*
X132000000Y21211500D01*
X132850000Y19739500D02*
X146835000Y11665500D01*
X49Y92503977D02*
G75*
G02*
X1993000Y94952500I2499951J523D01*
G01*
X94991000Y-572500D02*
X128575000Y-19961500D01*
X2500000Y500D02*
G75*
G02*
X0Y2500500I0J2500000D01*
G01*
X107000000Y100000500D02*
X129500000Y100000500D01*
X55258007Y105973117D02*
G75*
G02*
X57284000Y106180500I2025993J-9792617D01*
G01*
D11*
X94640000Y106180500D02*
X95201646Y106162772D01*
X95729345Y106111096D01*
X96225360Y106027736D01*
X96691953Y105914954D01*
X97131387Y105775013D01*
X97545927Y105610178D01*
X97937835Y105422711D01*
X98309375Y105214875D01*
X98662808Y104988934D01*
X99000400Y104747151D01*
X99324412Y104491788D01*
X99637109Y104225110D01*
X99940753Y103949379D01*
X100237607Y103666858D01*
X100529935Y103379811D01*
X100820000Y103090500D01*
X101110064Y102801190D01*
X101402392Y102514143D01*
X101699246Y102231622D01*
X102002890Y101955891D01*
X102315587Y101689213D01*
X102639599Y101433850D01*
X102977191Y101192067D01*
X103330625Y100966125D01*
X103702164Y100758290D01*
X104094072Y100570823D01*
X104508612Y100405988D01*
X104948046Y100266047D01*
X105414639Y100153265D01*
X105910654Y100069905D01*
X106438353Y100018229D01*
X107000000Y100000500D01*
D10*
X132850000Y19739257D02*
G75*
G02*
X132000000Y21211500I850000J1472243D01*
G01*
X146835000Y11665500D02*
G75*
G02*
X147750000Y8250500I-1250000J-2165000D01*
G01*
X92855964Y-438D02*
G75*
G02*
X94991000Y-572500I36J-4270062D01*
G01*
X131990000Y-19046500D02*
G75*
G02*
X128575000Y-19961500I-2165000J1250000D01*
G01*
X131990000Y-19046500D02*
X147750000Y8250500D01*
D12*
X1666666Y0D02*
G75*
G03*
X1666666Y0I-1666666J0D01*
G01*
X-2500000Y0D02*
X2500000Y0D01*
X0Y2500000D02*
X0Y-2500000D01*
M02*
