G04 #@! TF.GenerationSoftware,KiCad,Pcbnew,(5.99.0-7652-gaab3c936f0)*
G04 #@! TF.CreationDate,2020-12-28T19:10:50+00:00*
G04 #@! TF.ProjectId,ergodash,6572676f-6461-4736-982e-6b696361645f,2.0*
G04 #@! TF.SameCoordinates,PX4c880a8PY8a3633c*
G04 #@! TF.FileFunction,Legend,Bot*
G04 #@! TF.FilePolarity,Positive*
%FSLAX46Y46*%
G04 Gerber Fmt 4.6, Leading zero omitted, Abs format (unit mm)*
G04 Created by KiCad (PCBNEW (5.99.0-7652-gaab3c936f0)) date 2020-12-28 19:10:50*
%MOMM*%
%LPD*%
G01*
G04 APERTURE LIST*
%ADD10C,0.500000*%
%ADD11C,0.300000*%
%ADD12C,0.200000*%
%ADD13C,0.150000*%
%ADD14C,0.250000*%
%ADD15C,0.120000*%
%ADD16C,0.100000*%
%ADD17C,1.210000*%
%ADD18R,1.905000X1.905000*%
%ADD19C,1.905000*%
%ADD20C,1.524000*%
%ADD21C,1.900000*%
%ADD22C,1.700000*%
%ADD23C,4.000000*%
%ADD24O,2.300000X3.337000*%
%ADD25C,2.000000*%
%ADD26C,1.600000*%
%ADD27O,1.600000X1.600000*%
%ADD28C,5.000000*%
%ADD29R,1.524000X1.524000*%
%ADD30O,1.300000X2.000000*%
%ADD31R,1.700000X1.700000*%
%ADD32O,1.700000X1.700000*%
%ADD33R,1.200000X1.400000*%
%ADD34R,1.400000X1.200000*%
%ADD35R,0.900000X0.800000*%
%ADD36R,1.200000X1.600000*%
%ADD37R,1.600000X1.600000*%
%ADD38R,1.400000X1.800000*%
%ADD39R,1.800000X1.400000*%
G04 APERTURE END LIST*
D10*
X72754000Y34590500D02*
X75548000Y34590500D01*
X75548000Y34590500D02*
X75548000Y21636500D01*
X75548000Y21636500D02*
X72754000Y21636500D01*
X72754000Y21636500D02*
X72754000Y34590500D01*
D11*
X31293056Y96934592D02*
X31032584Y98411803D01*
X30424300Y98159485D02*
X30341553Y98217425D01*
X30188463Y98262962D01*
X29836746Y98200945D01*
X29708462Y98105794D01*
X29650523Y98023048D01*
X29604986Y97869957D01*
X29629793Y97729271D01*
X29737347Y97530644D01*
X30730309Y96835364D01*
X29815844Y96674119D01*
X28313826Y96554334D02*
X28396573Y96496394D01*
X28620007Y96463261D01*
X28760693Y96488068D01*
X28959320Y96595621D01*
X29075200Y96761115D01*
X29120737Y96914205D01*
X29141466Y97207983D01*
X29104256Y97419013D01*
X28984299Y97687983D01*
X28889148Y97816266D01*
X28723655Y97932146D01*
X28500221Y97965279D01*
X28359534Y97940473D01*
X28160907Y97832919D01*
X28102967Y97750172D01*
X38325142Y95792500D02*
X38468000Y95863929D01*
X38682285Y95863929D01*
X38896571Y95792500D01*
X39039428Y95649643D01*
X39110857Y95506786D01*
X39182285Y95221072D01*
X39182285Y95006786D01*
X39110857Y94721072D01*
X39039428Y94578215D01*
X38896571Y94435358D01*
X38682285Y94363929D01*
X38539428Y94363929D01*
X38325142Y94435358D01*
X38253714Y94506786D01*
X38253714Y95006786D01*
X38539428Y95006786D01*
D12*
X74995428Y20804643D02*
X74881142Y20766548D01*
X74843047Y20728453D01*
X74804952Y20652262D01*
X74804952Y20537977D01*
X74843047Y20461786D01*
X74881142Y20423691D01*
X74957333Y20385596D01*
X75262095Y20385596D01*
X75262095Y21185596D01*
X74995428Y21185596D01*
X74919238Y21147500D01*
X74881142Y21109405D01*
X74843047Y21033215D01*
X74843047Y20957024D01*
X74881142Y20880834D01*
X74919238Y20842739D01*
X74995428Y20804643D01*
X75262095Y20804643D01*
X74081142Y20385596D02*
X74462095Y20385596D01*
X74462095Y21185596D01*
X73395428Y20385596D02*
X73852571Y20385596D01*
X73624000Y20385596D02*
X73624000Y21185596D01*
X73700190Y21071310D01*
X73776380Y20995120D01*
X73852571Y20957024D01*
X73052571Y20385596D02*
X73052571Y21185596D01*
X72976380Y20690358D02*
X72747809Y20385596D01*
X72747809Y20918929D02*
X73052571Y20614167D01*
X56200000Y4639143D02*
X56200000Y5839143D01*
X55914285Y5839143D01*
X55742857Y5782000D01*
X55628571Y5667715D01*
X55571428Y5553429D01*
X55514285Y5324858D01*
X55514285Y5153429D01*
X55571428Y4924858D01*
X55628571Y4810572D01*
X55742857Y4696286D01*
X55914285Y4639143D01*
X56200000Y4639143D01*
X54542857Y4696286D02*
X54657142Y4639143D01*
X54885714Y4639143D01*
X55000000Y4696286D01*
X55057142Y4810572D01*
X55057142Y5267715D01*
X55000000Y5382000D01*
X54885714Y5439143D01*
X54657142Y5439143D01*
X54542857Y5382000D01*
X54485714Y5267715D01*
X54485714Y5153429D01*
X55057142Y5039143D01*
X54028571Y4696286D02*
X53914285Y4639143D01*
X53685714Y4639143D01*
X53571428Y4696286D01*
X53514285Y4810572D01*
X53514285Y4867715D01*
X53571428Y4982000D01*
X53685714Y5039143D01*
X53857142Y5039143D01*
X53971428Y5096286D01*
X54028571Y5210572D01*
X54028571Y5267715D01*
X53971428Y5382000D01*
X53857142Y5439143D01*
X53685714Y5439143D01*
X53571428Y5382000D01*
X53000000Y4639143D02*
X53000000Y5439143D01*
X53000000Y5839143D02*
X53057142Y5782000D01*
X53000000Y5724858D01*
X52942857Y5782000D01*
X53000000Y5839143D01*
X53000000Y5724858D01*
X51914285Y5439143D02*
X51914285Y4467715D01*
X51971428Y4353429D01*
X52028571Y4296286D01*
X52142857Y4239143D01*
X52314285Y4239143D01*
X52428571Y4296286D01*
X51914285Y4696286D02*
X52028571Y4639143D01*
X52257142Y4639143D01*
X52371428Y4696286D01*
X52428571Y4753429D01*
X52485714Y4867715D01*
X52485714Y5210572D01*
X52428571Y5324858D01*
X52371428Y5382000D01*
X52257142Y5439143D01*
X52028571Y5439143D01*
X51914285Y5382000D01*
X51342857Y5439143D02*
X51342857Y4639143D01*
X51342857Y5324858D02*
X51285714Y5382000D01*
X51171428Y5439143D01*
X51000000Y5439143D01*
X50885714Y5382000D01*
X50828571Y5267715D01*
X50828571Y4639143D01*
X49800000Y4696286D02*
X49914285Y4639143D01*
X50142857Y4639143D01*
X50257142Y4696286D01*
X50314285Y4810572D01*
X50314285Y5267715D01*
X50257142Y5382000D01*
X50142857Y5439143D01*
X49914285Y5439143D01*
X49800000Y5382000D01*
X49742857Y5267715D01*
X49742857Y5153429D01*
X50314285Y5039143D01*
X48714285Y4639143D02*
X48714285Y5839143D01*
X48714285Y4696286D02*
X48828571Y4639143D01*
X49057142Y4639143D01*
X49171428Y4696286D01*
X49228571Y4753429D01*
X49285714Y4867715D01*
X49285714Y5210572D01*
X49228571Y5324858D01*
X49171428Y5382000D01*
X49057142Y5439143D01*
X48828571Y5439143D01*
X48714285Y5382000D01*
X47228571Y4639143D02*
X47228571Y5839143D01*
X47228571Y5382000D02*
X47114285Y5439143D01*
X46885714Y5439143D01*
X46771428Y5382000D01*
X46714285Y5324858D01*
X46657142Y5210572D01*
X46657142Y4867715D01*
X46714285Y4753429D01*
X46771428Y4696286D01*
X46885714Y4639143D01*
X47114285Y4639143D01*
X47228571Y4696286D01*
X46257142Y5439143D02*
X45971428Y4639143D01*
X45685714Y5439143D02*
X45971428Y4639143D01*
X46085714Y4353429D01*
X46142857Y4296286D01*
X46257142Y4239143D01*
X55542857Y2707143D02*
X55657142Y2764286D01*
X55714285Y2821429D01*
X55771428Y2935715D01*
X55771428Y3278572D01*
X55714285Y3392858D01*
X55657142Y3450000D01*
X55542857Y3507143D01*
X55371428Y3507143D01*
X55257142Y3450000D01*
X55200000Y3392858D01*
X55142857Y3278572D01*
X55142857Y2935715D01*
X55200000Y2821429D01*
X55257142Y2764286D01*
X55371428Y2707143D01*
X55542857Y2707143D01*
X54628571Y2707143D02*
X54628571Y3507143D01*
X54628571Y3392858D02*
X54571428Y3450000D01*
X54457142Y3507143D01*
X54285714Y3507143D01*
X54171428Y3450000D01*
X54114285Y3335715D01*
X54114285Y2707143D01*
X54114285Y3335715D02*
X54057142Y3450000D01*
X53942857Y3507143D01*
X53771428Y3507143D01*
X53657142Y3450000D01*
X53600000Y3335715D01*
X53600000Y2707143D01*
X53028571Y2707143D02*
X53028571Y3907143D01*
X52914285Y3164286D02*
X52571428Y2707143D01*
X52571428Y3507143D02*
X53028571Y3050000D01*
X52057142Y2707143D02*
X52057142Y3907143D01*
X52057142Y3450000D02*
X51942857Y3507143D01*
X51714285Y3507143D01*
X51600000Y3450000D01*
X51542857Y3392858D01*
X51485714Y3278572D01*
X51485714Y2935715D01*
X51542857Y2821429D01*
X51600000Y2764286D01*
X51714285Y2707143D01*
X51942857Y2707143D01*
X52057142Y2764286D01*
X50457142Y2707143D02*
X50457142Y3907143D01*
X50457142Y2764286D02*
X50571428Y2707143D01*
X50800000Y2707143D01*
X50914285Y2764286D01*
X50971428Y2821429D01*
X51028571Y2935715D01*
X51028571Y3278572D01*
X50971428Y3392858D01*
X50914285Y3450000D01*
X50800000Y3507143D01*
X50571428Y3507143D01*
X50457142Y3450000D01*
X48457142Y2707143D02*
X48457142Y3335715D01*
X48514285Y3450000D01*
X48628571Y3507143D01*
X48857142Y3507143D01*
X48971428Y3450000D01*
X48457142Y2764286D02*
X48571428Y2707143D01*
X48857142Y2707143D01*
X48971428Y2764286D01*
X49028571Y2878572D01*
X49028571Y2992858D01*
X48971428Y3107143D01*
X48857142Y3164286D01*
X48571428Y3164286D01*
X48457142Y3221429D01*
X47885714Y3507143D02*
X47885714Y2707143D01*
X47885714Y3392858D02*
X47828571Y3450000D01*
X47714285Y3507143D01*
X47542857Y3507143D01*
X47428571Y3450000D01*
X47371428Y3335715D01*
X47371428Y2707143D01*
X46285714Y2707143D02*
X46285714Y3907143D01*
X46285714Y2764286D02*
X46400000Y2707143D01*
X46628571Y2707143D01*
X46742857Y2764286D01*
X46800000Y2821429D01*
X46857142Y2935715D01*
X46857142Y3278572D01*
X46800000Y3392858D01*
X46742857Y3450000D01*
X46628571Y3507143D01*
X46400000Y3507143D01*
X46285714Y3450000D01*
X56228571Y1975143D02*
X55542857Y1975143D01*
X55885714Y775143D02*
X55885714Y1975143D01*
X55142857Y775143D02*
X55142857Y1575143D01*
X55142857Y1975143D02*
X55200000Y1918000D01*
X55142857Y1860858D01*
X55085714Y1918000D01*
X55142857Y1975143D01*
X55142857Y1860858D01*
X54571428Y775143D02*
X54571428Y1575143D01*
X54571428Y1460858D02*
X54514285Y1518000D01*
X54400000Y1575143D01*
X54228571Y1575143D01*
X54114285Y1518000D01*
X54057142Y1403715D01*
X54057142Y775143D01*
X54057142Y1403715D02*
X54000000Y1518000D01*
X53885714Y1575143D01*
X53714285Y1575143D01*
X53600000Y1518000D01*
X53542857Y1403715D01*
X53542857Y775143D01*
X51371428Y889429D02*
X51428571Y832286D01*
X51600000Y775143D01*
X51714285Y775143D01*
X51885714Y832286D01*
X52000000Y946572D01*
X52057142Y1060858D01*
X52114285Y1289429D01*
X52114285Y1460858D01*
X52057142Y1689429D01*
X52000000Y1803715D01*
X51885714Y1918000D01*
X51714285Y1975143D01*
X51600000Y1975143D01*
X51428571Y1918000D01*
X51371428Y1860858D01*
X50685714Y775143D02*
X50800000Y832286D01*
X50857142Y946572D01*
X50857142Y1975143D01*
X50228571Y775143D02*
X50228571Y1575143D01*
X50228571Y1975143D02*
X50285714Y1918000D01*
X50228571Y1860858D01*
X50171428Y1918000D01*
X50228571Y1975143D01*
X50228571Y1860858D01*
X49828571Y1575143D02*
X49371428Y1575143D01*
X49657142Y775143D02*
X49657142Y1803715D01*
X49600000Y1918000D01*
X49485714Y1975143D01*
X49371428Y1975143D01*
X49142857Y1575143D02*
X48685714Y1575143D01*
X48971428Y775143D02*
X48971428Y1803715D01*
X48914285Y1918000D01*
X48800000Y1975143D01*
X48685714Y1975143D01*
X48114285Y775143D02*
X48228571Y832286D01*
X48285714Y889429D01*
X48342857Y1003715D01*
X48342857Y1346572D01*
X48285714Y1460858D01*
X48228571Y1518000D01*
X48114285Y1575143D01*
X47942857Y1575143D01*
X47828571Y1518000D01*
X47771428Y1460858D01*
X47714285Y1346572D01*
X47714285Y1003715D01*
X47771428Y889429D01*
X47828571Y832286D01*
X47942857Y775143D01*
X48114285Y775143D01*
X47200000Y775143D02*
X47200000Y1575143D01*
X47200000Y1346572D02*
X47142857Y1460858D01*
X47085714Y1518000D01*
X46971428Y1575143D01*
X46857142Y1575143D01*
X45942857Y775143D02*
X45942857Y1975143D01*
X45942857Y832286D02*
X46057142Y775143D01*
X46285714Y775143D01*
X46400000Y832286D01*
X46457142Y889429D01*
X46514285Y1003715D01*
X46514285Y1346572D01*
X46457142Y1460858D01*
X46400000Y1518000D01*
X46285714Y1575143D01*
X46057142Y1575143D01*
X45942857Y1518000D01*
D13*
X87368095Y16581500D02*
X87463333Y16629120D01*
X87606190Y16629120D01*
X87749047Y16581500D01*
X87844285Y16486262D01*
X87891904Y16391024D01*
X87939523Y16200548D01*
X87939523Y16057691D01*
X87891904Y15867215D01*
X87844285Y15771977D01*
X87749047Y15676739D01*
X87606190Y15629120D01*
X87510952Y15629120D01*
X87368095Y15676739D01*
X87320476Y15724358D01*
X87320476Y16057691D01*
X87510952Y16057691D01*
D12*
X78921428Y4517715D02*
X78521428Y4517715D01*
X78350000Y3889143D02*
X78921428Y3889143D01*
X78921428Y5089143D01*
X78350000Y5089143D01*
X77835714Y3889143D02*
X77835714Y4689143D01*
X77835714Y4460572D02*
X77778571Y4574858D01*
X77721428Y4632000D01*
X77607142Y4689143D01*
X77492857Y4689143D01*
X76578571Y4689143D02*
X76578571Y3717715D01*
X76635714Y3603429D01*
X76692857Y3546286D01*
X76807142Y3489143D01*
X76978571Y3489143D01*
X77092857Y3546286D01*
X76578571Y3946286D02*
X76692857Y3889143D01*
X76921428Y3889143D01*
X77035714Y3946286D01*
X77092857Y4003429D01*
X77150000Y4117715D01*
X77150000Y4460572D01*
X77092857Y4574858D01*
X77035714Y4632000D01*
X76921428Y4689143D01*
X76692857Y4689143D01*
X76578571Y4632000D01*
X75835714Y3889143D02*
X75950000Y3946286D01*
X76007142Y4003429D01*
X76064285Y4117715D01*
X76064285Y4460572D01*
X76007142Y4574858D01*
X75950000Y4632000D01*
X75835714Y4689143D01*
X75664285Y4689143D01*
X75550000Y4632000D01*
X75492857Y4574858D01*
X75435714Y4460572D01*
X75435714Y4117715D01*
X75492857Y4003429D01*
X75550000Y3946286D01*
X75664285Y3889143D01*
X75835714Y3889143D01*
X74407142Y3889143D02*
X74407142Y5089143D01*
X74407142Y3946286D02*
X74521428Y3889143D01*
X74750000Y3889143D01*
X74864285Y3946286D01*
X74921428Y4003429D01*
X74978571Y4117715D01*
X74978571Y4460572D01*
X74921428Y4574858D01*
X74864285Y4632000D01*
X74750000Y4689143D01*
X74521428Y4689143D01*
X74407142Y4632000D01*
X73321428Y3889143D02*
X73321428Y4517715D01*
X73378571Y4632000D01*
X73492857Y4689143D01*
X73721428Y4689143D01*
X73835714Y4632000D01*
X73321428Y3946286D02*
X73435714Y3889143D01*
X73721428Y3889143D01*
X73835714Y3946286D01*
X73892857Y4060572D01*
X73892857Y4174858D01*
X73835714Y4289143D01*
X73721428Y4346286D01*
X73435714Y4346286D01*
X73321428Y4403429D01*
X72807142Y3946286D02*
X72692857Y3889143D01*
X72464285Y3889143D01*
X72350000Y3946286D01*
X72292857Y4060572D01*
X72292857Y4117715D01*
X72350000Y4232000D01*
X72464285Y4289143D01*
X72635714Y4289143D01*
X72750000Y4346286D01*
X72807142Y4460572D01*
X72807142Y4517715D01*
X72750000Y4632000D01*
X72635714Y4689143D01*
X72464285Y4689143D01*
X72350000Y4632000D01*
X71778571Y3889143D02*
X71778571Y5089143D01*
X71264285Y3889143D02*
X71264285Y4517715D01*
X71321428Y4632000D01*
X71435714Y4689143D01*
X71607142Y4689143D01*
X71721428Y4632000D01*
X71778571Y4574858D01*
X70692857Y4346286D02*
X69778571Y4346286D01*
X68521428Y3889143D02*
X68921428Y4460572D01*
X69207142Y3889143D02*
X69207142Y5089143D01*
X68750000Y5089143D01*
X68635714Y5032000D01*
X68578571Y4974858D01*
X68521428Y4860572D01*
X68521428Y4689143D01*
X68578571Y4574858D01*
X68635714Y4517715D01*
X68750000Y4460572D01*
X69207142Y4460572D01*
X78378571Y1957143D02*
X78778571Y2528572D01*
X79064285Y1957143D02*
X79064285Y3157143D01*
X78607142Y3157143D01*
X78492857Y3100000D01*
X78435714Y3042858D01*
X78378571Y2928572D01*
X78378571Y2757143D01*
X78435714Y2642858D01*
X78492857Y2585715D01*
X78607142Y2528572D01*
X79064285Y2528572D01*
X77407142Y2014286D02*
X77521428Y1957143D01*
X77750000Y1957143D01*
X77864285Y2014286D01*
X77921428Y2128572D01*
X77921428Y2585715D01*
X77864285Y2700000D01*
X77750000Y2757143D01*
X77521428Y2757143D01*
X77407142Y2700000D01*
X77350000Y2585715D01*
X77350000Y2471429D01*
X77921428Y2357143D01*
X76950000Y2757143D02*
X76664285Y1957143D01*
X76378571Y2757143D01*
X75921428Y1957143D02*
X75921428Y2757143D01*
X75921428Y3157143D02*
X75978571Y3100000D01*
X75921428Y3042858D01*
X75864285Y3100000D01*
X75921428Y3157143D01*
X75921428Y3042858D01*
X75407142Y2014286D02*
X75292857Y1957143D01*
X75064285Y1957143D01*
X74950000Y2014286D01*
X74892857Y2128572D01*
X74892857Y2185715D01*
X74950000Y2300000D01*
X75064285Y2357143D01*
X75235714Y2357143D01*
X75350000Y2414286D01*
X75407142Y2528572D01*
X75407142Y2585715D01*
X75350000Y2700000D01*
X75235714Y2757143D01*
X75064285Y2757143D01*
X74950000Y2700000D01*
X74378571Y1957143D02*
X74378571Y2757143D01*
X74378571Y3157143D02*
X74435714Y3100000D01*
X74378571Y3042858D01*
X74321428Y3100000D01*
X74378571Y3157143D01*
X74378571Y3042858D01*
X73635714Y1957143D02*
X73750000Y2014286D01*
X73807142Y2071429D01*
X73864285Y2185715D01*
X73864285Y2528572D01*
X73807142Y2642858D01*
X73750000Y2700000D01*
X73635714Y2757143D01*
X73464285Y2757143D01*
X73350000Y2700000D01*
X73292857Y2642858D01*
X73235714Y2528572D01*
X73235714Y2185715D01*
X73292857Y2071429D01*
X73350000Y2014286D01*
X73464285Y1957143D01*
X73635714Y1957143D01*
X72721428Y2757143D02*
X72721428Y1957143D01*
X72721428Y2642858D02*
X72664285Y2700000D01*
X72550000Y2757143D01*
X72378571Y2757143D01*
X72264285Y2700000D01*
X72207142Y2585715D01*
X72207142Y1957143D01*
X70092857Y1957143D02*
X70778571Y1957143D01*
X70435714Y1957143D02*
X70435714Y3157143D01*
X70550000Y2985715D01*
X70664285Y2871429D01*
X70778571Y2814286D01*
X69578571Y2071429D02*
X69521428Y2014286D01*
X69578571Y1957143D01*
X69635714Y2014286D01*
X69578571Y2071429D01*
X69578571Y1957143D01*
X69121428Y3157143D02*
X68378571Y3157143D01*
X68778571Y2700000D01*
X68607142Y2700000D01*
X68492857Y2642858D01*
X68435714Y2585715D01*
X68378571Y2471429D01*
X68378571Y2185715D01*
X68435714Y2071429D01*
X68492857Y2014286D01*
X68607142Y1957143D01*
X68950000Y1957143D01*
X69064285Y2014286D01*
X69121428Y2071429D01*
X22073095Y95634500D02*
X22168333Y95682120D01*
X22311190Y95682120D01*
X22454047Y95634500D01*
X22549285Y95539262D01*
X22596904Y95444024D01*
X22644523Y95253548D01*
X22644523Y95110691D01*
X22596904Y94920215D01*
X22549285Y94824977D01*
X22454047Y94729739D01*
X22311190Y94682120D01*
X22215952Y94682120D01*
X22073095Y94729739D01*
X22025476Y94777358D01*
X22025476Y95110691D01*
X22215952Y95110691D01*
X99433333Y98736429D02*
X99290476Y98688810D01*
X99242857Y98641191D01*
X99195238Y98545953D01*
X99195238Y98403096D01*
X99242857Y98307858D01*
X99290476Y98260239D01*
X99385714Y98212620D01*
X99766666Y98212620D01*
X99766666Y99212620D01*
X99433333Y99212620D01*
X99338095Y99165000D01*
X99290476Y99117381D01*
X99242857Y99022143D01*
X99242857Y98926905D01*
X99290476Y98831667D01*
X99338095Y98784048D01*
X99433333Y98736429D01*
X99766666Y98736429D01*
X98290476Y98212620D02*
X98766666Y98212620D01*
X98766666Y99212620D01*
X18834476Y92269120D02*
X19167809Y92745310D01*
X19405904Y92269120D02*
X19405904Y93269120D01*
X19024952Y93269120D01*
X18929714Y93221500D01*
X18882095Y93173881D01*
X18834476Y93078643D01*
X18834476Y92935786D01*
X18882095Y92840548D01*
X18929714Y92792929D01*
X19024952Y92745310D01*
X19405904Y92745310D01*
X17882095Y93221500D02*
X17977333Y93269120D01*
X18120190Y93269120D01*
X18263047Y93221500D01*
X18358285Y93126262D01*
X18405904Y93031024D01*
X18453523Y92840548D01*
X18453523Y92697691D01*
X18405904Y92507215D01*
X18358285Y92411977D01*
X18263047Y92316739D01*
X18120190Y92269120D01*
X18024952Y92269120D01*
X17882095Y92316739D01*
X17834476Y92364358D01*
X17834476Y92697691D01*
X18024952Y92697691D01*
X17072571Y92792929D02*
X16929714Y92745310D01*
X16882095Y92697691D01*
X16834476Y92602453D01*
X16834476Y92459596D01*
X16882095Y92364358D01*
X16929714Y92316739D01*
X17024952Y92269120D01*
X17405904Y92269120D01*
X17405904Y93269120D01*
X17072571Y93269120D01*
X16977333Y93221500D01*
X16929714Y93173881D01*
X16882095Y93078643D01*
X16882095Y92983405D01*
X16929714Y92888167D01*
X16977333Y92840548D01*
X17072571Y92792929D01*
X17405904Y92792929D01*
X96833333Y94547620D02*
X96500000Y93547620D01*
X96166666Y94547620D01*
D13*
X85423332Y23614120D02*
X85089999Y22614120D01*
X84756665Y23614120D01*
X85256665Y15629120D02*
X85589999Y16105310D01*
X85828094Y15629120D02*
X85828094Y16629120D01*
X85447141Y16629120D01*
X85351903Y16581500D01*
X85304284Y16533881D01*
X85256665Y16438643D01*
X85256665Y16295786D01*
X85304284Y16200548D01*
X85351903Y16152929D01*
X85447141Y16105310D01*
X85828094Y16105310D01*
X84399522Y16295786D02*
X84399522Y15629120D01*
X84637618Y16676739D02*
X84875713Y15962453D01*
X84256665Y15962453D01*
D12*
X13111665Y95682120D02*
X13444999Y94682120D01*
X13778332Y95682120D01*
D11*
X30598000Y95863929D02*
X31098000Y94363929D01*
X31598000Y95863929D01*
D12*
X110133333Y94547620D02*
X109800000Y93547620D01*
X109466666Y94547620D01*
D13*
X87796665Y22709358D02*
X87844284Y22661739D01*
X87987141Y22614120D01*
X88082379Y22614120D01*
X88225237Y22661739D01*
X88320475Y22756977D01*
X88368094Y22852215D01*
X88415713Y23042691D01*
X88415713Y23185548D01*
X88368094Y23376024D01*
X88320475Y23471262D01*
X88225237Y23566500D01*
X88082379Y23614120D01*
X87987141Y23614120D01*
X87844284Y23566500D01*
X87796665Y23518881D01*
X86939522Y23614120D02*
X87129999Y23614120D01*
X87225237Y23566500D01*
X87272856Y23518881D01*
X87368094Y23376024D01*
X87415713Y23185548D01*
X87415713Y22804596D01*
X87368094Y22709358D01*
X87320475Y22661739D01*
X87225237Y22614120D01*
X87034760Y22614120D01*
X86939522Y22661739D01*
X86891903Y22709358D01*
X86844284Y22804596D01*
X86844284Y23042691D01*
X86891903Y23137929D01*
X86939522Y23185548D01*
X87034760Y23233167D01*
X87225237Y23233167D01*
X87320475Y23185548D01*
X87368094Y23137929D01*
X87415713Y23042691D01*
D14*
X89986380Y104789596D02*
X89986380Y104218167D01*
X90986380Y104503881D02*
X89986380Y104503881D01*
X89986380Y103980072D02*
X90986380Y103313405D01*
X89986380Y103313405D02*
X90986380Y103980072D01*
X89986380Y102741977D02*
X89986380Y102646739D01*
X90034000Y102551500D01*
X90081619Y102503881D01*
X90176857Y102456262D01*
X90367333Y102408643D01*
X90605428Y102408643D01*
X90795904Y102456262D01*
X90891142Y102503881D01*
X90938761Y102551500D01*
X90986380Y102646739D01*
X90986380Y102741977D01*
X90938761Y102837215D01*
X90891142Y102884834D01*
X90795904Y102932453D01*
X90605428Y102980072D01*
X90367333Y102980072D01*
X90176857Y102932453D01*
X90081619Y102884834D01*
X90034000Y102837215D01*
X89986380Y102741977D01*
D12*
X102938095Y94500000D02*
X103033333Y94547620D01*
X103176190Y94547620D01*
X103319047Y94500000D01*
X103414285Y94404762D01*
X103461904Y94309524D01*
X103509523Y94119048D01*
X103509523Y93976191D01*
X103461904Y93785715D01*
X103414285Y93690477D01*
X103319047Y93595239D01*
X103176190Y93547620D01*
X103080952Y93547620D01*
X102938095Y93595239D01*
X102890476Y93642858D01*
X102890476Y93976191D01*
X103080952Y93976191D01*
D13*
X70615047Y43750120D02*
X70615047Y43035834D01*
X70662666Y42892977D01*
X70757904Y42797739D01*
X70900761Y42750120D01*
X70996000Y42750120D01*
X69662666Y42750120D02*
X70138857Y42750120D01*
X70138857Y43750120D01*
X68757904Y42845358D02*
X68805523Y42797739D01*
X68948380Y42750120D01*
X69043619Y42750120D01*
X69186476Y42797739D01*
X69281714Y42892977D01*
X69329333Y42988215D01*
X69376952Y43178691D01*
X69376952Y43321548D01*
X69329333Y43512024D01*
X69281714Y43607262D01*
X69186476Y43702500D01*
X69043619Y43750120D01*
X68948380Y43750120D01*
X68805523Y43702500D01*
X68757904Y43654881D01*
X68043619Y43750120D02*
X68043619Y43035834D01*
X68091238Y42892977D01*
X68186476Y42797739D01*
X68329333Y42750120D01*
X68424571Y42750120D01*
X67091238Y42750120D02*
X67567428Y42750120D01*
X67567428Y43750120D01*
X66186476Y42845358D02*
X66234095Y42797739D01*
X66376952Y42750120D01*
X66472190Y42750120D01*
X66615047Y42797739D01*
X66710285Y42892977D01*
X66757904Y42988215D01*
X66805523Y43178691D01*
X66805523Y43321548D01*
X66757904Y43512024D01*
X66710285Y43607262D01*
X66615047Y43702500D01*
X66472190Y43750120D01*
X66376952Y43750120D01*
X66234095Y43702500D01*
X66186476Y43654881D01*
X65472190Y43750120D02*
X65472190Y43035834D01*
X65519809Y42892977D01*
X65615047Y42797739D01*
X65757904Y42750120D01*
X65853142Y42750120D01*
X64519809Y42750120D02*
X64996000Y42750120D01*
X64996000Y43750120D01*
X63615047Y42845358D02*
X63662666Y42797739D01*
X63805523Y42750120D01*
X63900761Y42750120D01*
X64043619Y42797739D01*
X64138857Y42892977D01*
X64186476Y42988215D01*
X64234095Y43178691D01*
X64234095Y43321548D01*
X64186476Y43512024D01*
X64138857Y43607262D01*
X64043619Y43702500D01*
X63900761Y43750120D01*
X63805523Y43750120D01*
X63662666Y43702500D01*
X63615047Y43654881D01*
X62900761Y43750120D02*
X62900761Y43035834D01*
X62948380Y42892977D01*
X63043619Y42797739D01*
X63186476Y42750120D01*
X63281714Y42750120D01*
X61948380Y42750120D02*
X62424571Y42750120D01*
X62424571Y43750120D01*
X61043619Y42845358D02*
X61091238Y42797739D01*
X61234095Y42750120D01*
X61329333Y42750120D01*
X61472190Y42797739D01*
X61567428Y42892977D01*
X61615047Y42988215D01*
X61662666Y43178691D01*
X61662666Y43321548D01*
X61615047Y43512024D01*
X61567428Y43607262D01*
X61472190Y43702500D01*
X61329333Y43750120D01*
X61234095Y43750120D01*
X61091238Y43702500D01*
X61043619Y43654881D01*
D12*
X108580952Y99047620D02*
X107914285Y98047620D01*
X107914285Y99047620D02*
X108580952Y98047620D01*
X107676190Y98714286D02*
X107295238Y98714286D01*
X107533333Y99047620D02*
X107533333Y98190477D01*
X107485714Y98095239D01*
X107390476Y98047620D01*
X107295238Y98047620D01*
X106961904Y98047620D02*
X106961904Y98714286D01*
X106961904Y98523810D02*
X106914285Y98619048D01*
X106866666Y98666667D01*
X106771428Y98714286D01*
X106676190Y98714286D01*
X105914285Y98047620D02*
X105914285Y98571429D01*
X105961904Y98666667D01*
X106057142Y98714286D01*
X106247619Y98714286D01*
X106342857Y98666667D01*
X105914285Y98095239D02*
X106009523Y98047620D01*
X106247619Y98047620D01*
X106342857Y98095239D01*
X106390476Y98190477D01*
X106390476Y98285715D01*
X106342857Y98380953D01*
X106247619Y98428572D01*
X106009523Y98428572D01*
X105914285Y98476191D01*
D14*
X59506380Y104916596D02*
X59506380Y104345167D01*
X60506380Y104630881D02*
X59506380Y104630881D01*
X59506380Y104107072D02*
X60506380Y103440405D01*
X59506380Y103440405D02*
X60506380Y104107072D01*
X59506380Y102868977D02*
X59506380Y102773739D01*
X59554000Y102678500D01*
X59601619Y102630881D01*
X59696857Y102583262D01*
X59887333Y102535643D01*
X60125428Y102535643D01*
X60315904Y102583262D01*
X60411142Y102630881D01*
X60458761Y102678500D01*
X60506380Y102773739D01*
X60506380Y102868977D01*
X60458761Y102964215D01*
X60411142Y103011834D01*
X60315904Y103059453D01*
X60125428Y103107072D01*
X59887333Y103107072D01*
X59696857Y103059453D01*
X59601619Y103011834D01*
X59554000Y102964215D01*
X59506380Y102868977D01*
D13*
X6070714Y73841786D02*
X6070714Y73032262D01*
X6118333Y72937024D01*
X6165952Y72889405D01*
X6261190Y72841786D01*
X6404047Y72841786D01*
X6499285Y72889405D01*
X6070714Y73222739D02*
X6165952Y73175120D01*
X6356428Y73175120D01*
X6451666Y73222739D01*
X6499285Y73270358D01*
X6546904Y73365596D01*
X6546904Y73651310D01*
X6499285Y73746548D01*
X6451666Y73794167D01*
X6356428Y73841786D01*
X6165952Y73841786D01*
X6070714Y73794167D01*
X6256428Y78775120D02*
X6351666Y78822739D01*
X6399285Y78870358D01*
X6446904Y78965596D01*
X6446904Y79251310D01*
X6399285Y79346548D01*
X6351666Y79394167D01*
X6256428Y79441786D01*
X6113571Y79441786D01*
X6018333Y79394167D01*
X5970714Y79346548D01*
X5923095Y79251310D01*
X5923095Y78965596D01*
X5970714Y78870358D01*
X6018333Y78822739D01*
X6113571Y78775120D01*
X6256428Y78775120D01*
X523095Y79641786D02*
X285000Y78975120D01*
X46904Y79641786D01*
X285000Y73575120D02*
X285000Y74241786D01*
X285000Y74575120D02*
X332619Y74527500D01*
X285000Y74479881D01*
X237380Y74527500D01*
X285000Y74575120D01*
X285000Y74479881D01*
X6256428Y59725120D02*
X6351666Y59772739D01*
X6399285Y59820358D01*
X6446904Y59915596D01*
X6446904Y60201310D01*
X6399285Y60296548D01*
X6351666Y60344167D01*
X6256428Y60391786D01*
X6113571Y60391786D01*
X6018333Y60344167D01*
X5970714Y60296548D01*
X5923095Y60201310D01*
X5923095Y59915596D01*
X5970714Y59820358D01*
X6018333Y59772739D01*
X6113571Y59725120D01*
X6256428Y59725120D01*
X523095Y60591786D02*
X285000Y59925120D01*
X46904Y60591786D01*
X285000Y54525120D02*
X285000Y55191786D01*
X285000Y55525120D02*
X332619Y55477500D01*
X285000Y55429881D01*
X237380Y55477500D01*
X285000Y55525120D01*
X285000Y55429881D01*
X6070714Y54791786D02*
X6070714Y53982262D01*
X6118333Y53887024D01*
X6165952Y53839405D01*
X6261190Y53791786D01*
X6404047Y53791786D01*
X6499285Y53839405D01*
X6070714Y54172739D02*
X6165952Y54125120D01*
X6356428Y54125120D01*
X6451666Y54172739D01*
X6499285Y54220358D01*
X6546904Y54315596D01*
X6546904Y54601310D01*
X6499285Y54696548D01*
X6451666Y54744167D01*
X6356428Y54791786D01*
X6165952Y54791786D01*
X6070714Y54744167D01*
X6070714Y35741786D02*
X6070714Y34932262D01*
X6118333Y34837024D01*
X6165952Y34789405D01*
X6261190Y34741786D01*
X6404047Y34741786D01*
X6499285Y34789405D01*
X6070714Y35122739D02*
X6165952Y35075120D01*
X6356428Y35075120D01*
X6451666Y35122739D01*
X6499285Y35170358D01*
X6546904Y35265596D01*
X6546904Y35551310D01*
X6499285Y35646548D01*
X6451666Y35694167D01*
X6356428Y35741786D01*
X6165952Y35741786D01*
X6070714Y35694167D01*
X285000Y35475120D02*
X285000Y36141786D01*
X285000Y36475120D02*
X332619Y36427500D01*
X285000Y36379881D01*
X237380Y36427500D01*
X285000Y36475120D01*
X285000Y36379881D01*
X523095Y41541786D02*
X285000Y40875120D01*
X46904Y41541786D01*
X6256428Y40675120D02*
X6351666Y40722739D01*
X6399285Y40770358D01*
X6446904Y40865596D01*
X6446904Y41151310D01*
X6399285Y41246548D01*
X6351666Y41294167D01*
X6256428Y41341786D01*
X6113571Y41341786D01*
X6018333Y41294167D01*
X5970714Y41246548D01*
X5923095Y41151310D01*
X5923095Y40865596D01*
X5970714Y40770358D01*
X6018333Y40722739D01*
X6113571Y40675120D01*
X6256428Y40675120D01*
X6256428Y21625120D02*
X6351666Y21672739D01*
X6399285Y21720358D01*
X6446904Y21815596D01*
X6446904Y22101310D01*
X6399285Y22196548D01*
X6351666Y22244167D01*
X6256428Y22291786D01*
X6113571Y22291786D01*
X6018333Y22244167D01*
X5970714Y22196548D01*
X5923095Y22101310D01*
X5923095Y21815596D01*
X5970714Y21720358D01*
X6018333Y21672739D01*
X6113571Y21625120D01*
X6256428Y21625120D01*
X6070714Y16691786D02*
X6070714Y15882262D01*
X6118333Y15787024D01*
X6165952Y15739405D01*
X6261190Y15691786D01*
X6404047Y15691786D01*
X6499285Y15739405D01*
X6070714Y16072739D02*
X6165952Y16025120D01*
X6356428Y16025120D01*
X6451666Y16072739D01*
X6499285Y16120358D01*
X6546904Y16215596D01*
X6546904Y16501310D01*
X6499285Y16596548D01*
X6451666Y16644167D01*
X6356428Y16691786D01*
X6165952Y16691786D01*
X6070714Y16644167D01*
X523095Y22491786D02*
X285000Y21825120D01*
X46904Y22491786D01*
X285000Y16425120D02*
X285000Y17091786D01*
X285000Y17425120D02*
X332619Y17377500D01*
X285000Y17329881D01*
X237380Y17377500D01*
X285000Y17425120D01*
X285000Y17329881D01*
X21056714Y6007215D02*
X21866238Y6007215D01*
X21961476Y6054834D01*
X22009095Y6102453D01*
X22056714Y6197691D01*
X22056714Y6340548D01*
X22009095Y6435786D01*
X21675761Y6007215D02*
X21723380Y6102453D01*
X21723380Y6292929D01*
X21675761Y6388167D01*
X21628142Y6435786D01*
X21532904Y6483405D01*
X21247190Y6483405D01*
X21151952Y6435786D01*
X21104333Y6388167D01*
X21056714Y6292929D01*
X21056714Y6102453D01*
X21104333Y6007215D01*
X16123380Y6192929D02*
X16075761Y6288167D01*
X16028142Y6335786D01*
X15932904Y6383405D01*
X15647190Y6383405D01*
X15551952Y6335786D01*
X15504333Y6288167D01*
X15456714Y6192929D01*
X15456714Y6050072D01*
X15504333Y5954834D01*
X15551952Y5907215D01*
X15647190Y5859596D01*
X15932904Y5859596D01*
X16028142Y5907215D01*
X16075761Y5954834D01*
X16123380Y6050072D01*
X16123380Y6192929D01*
X15256714Y459596D02*
X15923380Y221500D01*
X15256714Y-16595D01*
X21323380Y221500D02*
X20656714Y221500D01*
X20323380Y221500D02*
X20371000Y269120D01*
X20418619Y221500D01*
X20371000Y173881D01*
X20323380Y221500D01*
X20418619Y221500D01*
X38263713Y6192929D02*
X38216094Y6288167D01*
X38168475Y6335786D01*
X38073237Y6383405D01*
X37787523Y6383405D01*
X37692285Y6335786D01*
X37644666Y6288167D01*
X37597047Y6192929D01*
X37597047Y6050072D01*
X37644666Y5954834D01*
X37692285Y5907215D01*
X37787523Y5859596D01*
X38073237Y5859596D01*
X38168475Y5907215D01*
X38216094Y5954834D01*
X38263713Y6050072D01*
X38263713Y6192929D01*
X37397047Y459596D02*
X38063713Y221500D01*
X37397047Y-16595D01*
X43463713Y221500D02*
X42797047Y221500D01*
X42463713Y221500D02*
X42511333Y269120D01*
X42558952Y221500D01*
X42511333Y173881D01*
X42463713Y221500D01*
X42558952Y221500D01*
X43197047Y6007215D02*
X44006571Y6007215D01*
X44101809Y6054834D01*
X44149428Y6102453D01*
X44197047Y6197691D01*
X44197047Y6340548D01*
X44149428Y6435786D01*
X43816094Y6007215D02*
X43863713Y6102453D01*
X43863713Y6292929D01*
X43816094Y6388167D01*
X43768475Y6435786D01*
X43673237Y6483405D01*
X43387523Y6483405D01*
X43292285Y6435786D01*
X43244666Y6388167D01*
X43197047Y6292929D01*
X43197047Y6102453D01*
X43244666Y6007215D01*
X65337381Y6007215D02*
X66146905Y6007215D01*
X66242143Y6054834D01*
X66289762Y6102453D01*
X66337381Y6197691D01*
X66337381Y6340548D01*
X66289762Y6435786D01*
X65956428Y6007215D02*
X66004047Y6102453D01*
X66004047Y6292929D01*
X65956428Y6388167D01*
X65908809Y6435786D01*
X65813571Y6483405D01*
X65527857Y6483405D01*
X65432619Y6435786D01*
X65385000Y6388167D01*
X65337381Y6292929D01*
X65337381Y6102453D01*
X65385000Y6007215D01*
X59537381Y459596D02*
X60204047Y221500D01*
X59537381Y-16595D01*
X60404047Y6192929D02*
X60356428Y6288167D01*
X60308809Y6335786D01*
X60213571Y6383405D01*
X59927857Y6383405D01*
X59832619Y6335786D01*
X59785000Y6288167D01*
X59737381Y6192929D01*
X59737381Y6050072D01*
X59785000Y5954834D01*
X59832619Y5907215D01*
X59927857Y5859596D01*
X60213571Y5859596D01*
X60308809Y5907215D01*
X60356428Y5954834D01*
X60404047Y6050072D01*
X60404047Y6192929D01*
X65604047Y221500D02*
X64937381Y221500D01*
X64604047Y221500D02*
X64651667Y269120D01*
X64699286Y221500D01*
X64651667Y173881D01*
X64604047Y221500D01*
X64699286Y221500D01*
X87744380Y221500D02*
X87077714Y221500D01*
X86744380Y221500D02*
X86792000Y269120D01*
X86839619Y221500D01*
X86792000Y173881D01*
X86744380Y221500D01*
X86839619Y221500D01*
X87477714Y6007215D02*
X88287238Y6007215D01*
X88382476Y6054834D01*
X88430095Y6102453D01*
X88477714Y6197691D01*
X88477714Y6340548D01*
X88430095Y6435786D01*
X88096761Y6007215D02*
X88144380Y6102453D01*
X88144380Y6292929D01*
X88096761Y6388167D01*
X88049142Y6435786D01*
X87953904Y6483405D01*
X87668190Y6483405D01*
X87572952Y6435786D01*
X87525333Y6388167D01*
X87477714Y6292929D01*
X87477714Y6102453D01*
X87525333Y6007215D01*
X81677714Y459596D02*
X82344380Y221500D01*
X81677714Y-16595D01*
X82544380Y6192929D02*
X82496761Y6288167D01*
X82449142Y6335786D01*
X82353904Y6383405D01*
X82068190Y6383405D01*
X81972952Y6335786D01*
X81925333Y6288167D01*
X81877714Y6192929D01*
X81877714Y6050072D01*
X81925333Y5954834D01*
X81972952Y5907215D01*
X82068190Y5859596D01*
X82353904Y5859596D01*
X82449142Y5907215D01*
X82496761Y5954834D01*
X82544380Y6050072D01*
X82544380Y6192929D01*
X118509857Y5133322D02*
X118403569Y5139702D01*
X118338520Y5122272D01*
X118249662Y5063603D01*
X118106805Y4816167D01*
X118100425Y4709879D01*
X118117855Y4644830D01*
X118176524Y4555972D01*
X118300242Y4484543D01*
X118406530Y4478164D01*
X118471579Y4495593D01*
X118560437Y4554262D01*
X118703294Y4801698D01*
X118709674Y4907986D01*
X118692244Y4973035D01*
X118633575Y5061894D01*
X118509857Y5133322D01*
X126281266Y6650940D02*
X125947933Y6073590D01*
X125781266Y5784914D02*
X125763836Y5849963D01*
X125828885Y5867393D01*
X125846315Y5802344D01*
X125781266Y5784914D01*
X125828885Y5867393D01*
X123041736Y1516100D02*
X123581266Y1974403D01*
X123454129Y1278005D01*
X121137358Y9312857D02*
X121542119Y10013925D01*
X121548499Y10120213D01*
X121531069Y10185262D01*
X121472400Y10274120D01*
X121348682Y10345549D01*
X121242394Y10351929D01*
X121446881Y9848968D02*
X121388212Y9937826D01*
X121223255Y10033064D01*
X121116967Y10039444D01*
X121051918Y10022014D01*
X120963060Y9963345D01*
X120820203Y9715909D01*
X120813823Y9609621D01*
X120831253Y9544572D01*
X120889922Y9455714D01*
X121054879Y9360476D01*
X121161167Y9354096D01*
X132126095Y27432786D02*
X131888000Y26766120D01*
X131649904Y27432786D01*
X126059428Y26966120D02*
X126154666Y27013739D01*
X126202285Y27061358D01*
X126249904Y27156596D01*
X126249904Y27442310D01*
X126202285Y27537548D01*
X126154666Y27585167D01*
X126059428Y27632786D01*
X125916571Y27632786D01*
X125821333Y27585167D01*
X125773714Y27537548D01*
X125726095Y27442310D01*
X125726095Y27156596D01*
X125773714Y27061358D01*
X125821333Y27013739D01*
X125916571Y26966120D01*
X126059428Y26966120D01*
X131888000Y32166120D02*
X131888000Y32832786D01*
X131888000Y33166120D02*
X131935619Y33118500D01*
X131888000Y33070881D01*
X131840380Y33118500D01*
X131888000Y33166120D01*
X131888000Y33070881D01*
X125673714Y33232786D02*
X125673714Y32423262D01*
X125721333Y32328024D01*
X125768952Y32280405D01*
X125864190Y32232786D01*
X126007047Y32232786D01*
X126102285Y32280405D01*
X125673714Y32613739D02*
X125768952Y32566120D01*
X125959428Y32566120D01*
X126054666Y32613739D01*
X126102285Y32661358D01*
X126149904Y32756596D01*
X126149904Y33042310D01*
X126102285Y33137548D01*
X126054666Y33185167D01*
X125959428Y33232786D01*
X125768952Y33232786D01*
X125673714Y33185167D01*
X131888000Y52867120D02*
X131888000Y53533786D01*
X131888000Y53867120D02*
X131935619Y53819500D01*
X131888000Y53771881D01*
X131840380Y53819500D01*
X131888000Y53867120D01*
X131888000Y53771881D01*
X125673714Y53933786D02*
X125673714Y53124262D01*
X125721333Y53029024D01*
X125768952Y52981405D01*
X125864190Y52933786D01*
X126007047Y52933786D01*
X126102285Y52981405D01*
X125673714Y53314739D02*
X125768952Y53267120D01*
X125959428Y53267120D01*
X126054666Y53314739D01*
X126102285Y53362358D01*
X126149904Y53457596D01*
X126149904Y53743310D01*
X126102285Y53838548D01*
X126054666Y53886167D01*
X125959428Y53933786D01*
X125768952Y53933786D01*
X125673714Y53886167D01*
X126059428Y47667120D02*
X126154666Y47714739D01*
X126202285Y47762358D01*
X126249904Y47857596D01*
X126249904Y48143310D01*
X126202285Y48238548D01*
X126154666Y48286167D01*
X126059428Y48333786D01*
X125916571Y48333786D01*
X125821333Y48286167D01*
X125773714Y48238548D01*
X125726095Y48143310D01*
X125726095Y47857596D01*
X125773714Y47762358D01*
X125821333Y47714739D01*
X125916571Y47667120D01*
X126059428Y47667120D01*
X132126095Y48133786D02*
X131888000Y47467120D01*
X131649904Y48133786D01*
X131888000Y71663120D02*
X131888000Y72329786D01*
X131888000Y72663120D02*
X131935619Y72615500D01*
X131888000Y72567881D01*
X131840380Y72615500D01*
X131888000Y72663120D01*
X131888000Y72567881D01*
X126059428Y66463120D02*
X126154666Y66510739D01*
X126202285Y66558358D01*
X126249904Y66653596D01*
X126249904Y66939310D01*
X126202285Y67034548D01*
X126154666Y67082167D01*
X126059428Y67129786D01*
X125916571Y67129786D01*
X125821333Y67082167D01*
X125773714Y67034548D01*
X125726095Y66939310D01*
X125726095Y66653596D01*
X125773714Y66558358D01*
X125821333Y66510739D01*
X125916571Y66463120D01*
X126059428Y66463120D01*
X125673714Y72729786D02*
X125673714Y71920262D01*
X125721333Y71825024D01*
X125768952Y71777405D01*
X125864190Y71729786D01*
X126007047Y71729786D01*
X126102285Y71777405D01*
X125673714Y72110739D02*
X125768952Y72063120D01*
X125959428Y72063120D01*
X126054666Y72110739D01*
X126102285Y72158358D01*
X126149904Y72253596D01*
X126149904Y72539310D01*
X126102285Y72634548D01*
X126054666Y72682167D01*
X125959428Y72729786D01*
X125768952Y72729786D01*
X125673714Y72682167D01*
X132126095Y66929786D02*
X131888000Y66263120D01*
X131649904Y66929786D01*
D15*
X118450000Y97550000D02*
X120050000Y97550000D01*
X120050000Y97550000D02*
X120050000Y93550000D01*
X120050000Y88050000D02*
X120050000Y90250000D01*
X111450000Y88050000D02*
X111450000Y90250000D01*
X113050000Y97550000D02*
X111450000Y97550000D01*
X111450000Y97550000D02*
X111450000Y93550000D01*
X119550000Y88050000D02*
X120050000Y88050000D01*
X111950000Y88050000D02*
X111450000Y88050000D01*
D13*
X131400000Y100775000D02*
X131400000Y88075000D01*
X124700000Y88075000D02*
X124700000Y100825000D01*
X131150000Y102775000D02*
X131150000Y100775000D01*
X124950000Y100825000D02*
X124950000Y102775000D01*
X131400000Y100775000D02*
X131150000Y100775000D01*
X124950000Y100825000D02*
X124700000Y100825000D01*
X124950000Y102775000D02*
X131150000Y102775000D01*
X124700000Y88075000D02*
X131400000Y88075000D01*
D15*
X13990000Y93670000D02*
X13990000Y96330000D01*
X19130000Y93670000D02*
X19130000Y96330000D01*
X20400000Y93670000D02*
X21730000Y93670000D01*
X19130000Y96330000D02*
X13990000Y96330000D01*
X19130000Y93670000D02*
X13990000Y93670000D01*
X21730000Y93670000D02*
X21730000Y95000000D01*
X108530000Y94870000D02*
X103390000Y94870000D01*
X108530000Y94870000D02*
X108530000Y97530000D01*
X103390000Y94870000D02*
X103390000Y97530000D01*
X109800000Y94870000D02*
X111130000Y94870000D01*
X108530000Y97530000D02*
X103390000Y97530000D01*
X111130000Y94870000D02*
X111130000Y96200000D01*
D13*
X17093000Y83133500D02*
X17093000Y81143500D01*
X17093000Y89443500D02*
X17093000Y87343500D01*
X16593000Y85243500D02*
X17093000Y84743500D01*
X17593000Y85243500D02*
X16593000Y85243500D01*
X17093000Y85743500D02*
X17593000Y85243500D01*
X28276000Y76916500D02*
X27776000Y76416500D01*
X27776000Y77416500D02*
X27276000Y76916500D01*
X27776000Y76416500D02*
X27776000Y77416500D01*
X25666000Y76916500D02*
X23676000Y76916500D01*
X31976000Y76916500D02*
X29876000Y76916500D01*
X46866000Y82045500D02*
X46866000Y81045500D01*
X46366000Y81545500D02*
X46866000Y82045500D01*
X48976000Y81545500D02*
X50966000Y81545500D01*
X42666000Y81545500D02*
X44766000Y81545500D01*
X46866000Y81045500D02*
X47366000Y81545500D01*
X65916000Y65408500D02*
X65916000Y64408500D01*
X61716000Y64908500D02*
X63816000Y64908500D01*
X65916000Y64408500D02*
X66416000Y64908500D01*
X65416000Y64908500D02*
X65916000Y65408500D01*
X68026000Y64908500D02*
X70016000Y64908500D01*
X84466000Y62622500D02*
X84966000Y63122500D01*
X84966000Y62122500D02*
X85466000Y62622500D01*
X84966000Y63122500D02*
X84966000Y62122500D01*
X80766000Y62622500D02*
X82866000Y62622500D01*
X87076000Y62622500D02*
X89066000Y62622500D01*
X103976000Y78829500D02*
X103976000Y79829500D01*
X104476000Y79329500D02*
X103976000Y78829500D01*
X103976000Y79829500D02*
X103476000Y79329500D01*
X101866000Y79329500D02*
X99876000Y79329500D01*
X108176000Y79329500D02*
X106076000Y79329500D01*
X114129000Y68352500D02*
X114629000Y67852500D01*
X115129000Y68352500D02*
X114129000Y68352500D01*
X114629000Y72552500D02*
X114629000Y70452500D01*
X114629000Y66242500D02*
X114629000Y64252500D01*
X114629000Y68852500D02*
X115129000Y68352500D01*
X17093000Y66566500D02*
X17593000Y66066500D01*
X16593000Y66066500D02*
X17093000Y65566500D01*
X17093000Y63956500D02*
X17093000Y61966500D01*
X17093000Y70266500D02*
X17093000Y68166500D01*
X17593000Y66066500D02*
X16593000Y66066500D01*
X31976000Y57866500D02*
X29876000Y57866500D01*
X27776000Y58366500D02*
X27276000Y57866500D01*
X25666000Y57866500D02*
X23676000Y57866500D01*
X27776000Y57366500D02*
X27776000Y58366500D01*
X28276000Y57866500D02*
X27776000Y57366500D01*
X51026000Y62565500D02*
X48926000Y62565500D01*
X44716000Y62565500D02*
X42726000Y62565500D01*
X47326000Y62565500D02*
X46826000Y62065500D01*
X46826000Y63065500D02*
X46326000Y62565500D01*
X46826000Y62065500D02*
X46826000Y63065500D01*
X66376000Y62565500D02*
X65876000Y62065500D01*
X70076000Y62565500D02*
X67976000Y62565500D01*
X63766000Y62565500D02*
X61776000Y62565500D01*
X65876000Y63065500D02*
X65376000Y62565500D01*
X65876000Y62065500D02*
X65876000Y63065500D01*
X89126000Y60279500D02*
X87026000Y60279500D01*
X82816000Y60279500D02*
X80826000Y60279500D01*
X84926000Y59779500D02*
X84926000Y60779500D01*
X85426000Y60279500D02*
X84926000Y59779500D01*
X84926000Y60779500D02*
X84426000Y60279500D01*
X104476000Y60279500D02*
X103976000Y59779500D01*
X101866000Y60279500D02*
X99876000Y60279500D01*
X103976000Y60779500D02*
X103476000Y60279500D01*
X103976000Y59779500D02*
X103976000Y60779500D01*
X108176000Y60279500D02*
X106076000Y60279500D01*
X114629000Y57566500D02*
X114629000Y55466500D01*
X114129000Y53366500D02*
X114629000Y52866500D01*
X114629000Y51256500D02*
X114629000Y49266500D01*
X115129000Y53366500D02*
X114129000Y53366500D01*
X114629000Y53866500D02*
X115129000Y53366500D01*
X17093000Y51343500D02*
X17093000Y49243500D01*
X17093000Y45033500D02*
X17093000Y43043500D01*
X16593000Y47143500D02*
X17093000Y46643500D01*
X17593000Y47143500D02*
X16593000Y47143500D01*
X17093000Y47643500D02*
X17593000Y47143500D01*
X23743000Y38746500D02*
X25843000Y38746500D01*
X27943000Y38246500D02*
X28443000Y38746500D01*
X27943000Y39246500D02*
X27943000Y38246500D01*
X30053000Y38746500D02*
X32043000Y38746500D01*
X27443000Y38746500D02*
X27943000Y39246500D01*
X47326000Y43515500D02*
X46826000Y43015500D01*
X44716000Y43515500D02*
X42726000Y43515500D01*
X46826000Y44015500D02*
X46326000Y43515500D01*
X46826000Y43015500D02*
X46826000Y44015500D01*
X51026000Y43515500D02*
X48926000Y43515500D01*
X70076000Y45928500D02*
X67976000Y45928500D01*
X65876000Y46428500D02*
X65376000Y45928500D01*
X63766000Y45928500D02*
X61776000Y45928500D01*
X66376000Y45928500D02*
X65876000Y45428500D01*
X65876000Y45428500D02*
X65876000Y46428500D01*
X82816000Y43515500D02*
X80826000Y43515500D01*
X84926000Y43015500D02*
X84926000Y44015500D01*
X89126000Y43515500D02*
X87026000Y43515500D01*
X85426000Y43515500D02*
X84926000Y43015500D01*
X84926000Y44015500D02*
X84426000Y43515500D01*
X103976000Y41602500D02*
X103476000Y41102500D01*
X108176000Y41102500D02*
X106076000Y41102500D01*
X101866000Y41102500D02*
X99876000Y41102500D01*
X104476000Y41102500D02*
X103976000Y40602500D01*
X103976000Y40602500D02*
X103976000Y41602500D01*
X114699000Y35617500D02*
X114699000Y37717500D01*
X114699000Y41927500D02*
X114699000Y43917500D01*
X114699000Y39317500D02*
X114199000Y39817500D01*
X115199000Y39817500D02*
X114699000Y40317500D01*
X114199000Y39817500D02*
X115199000Y39817500D01*
X30053000Y36333500D02*
X32043000Y36333500D01*
X27443000Y36333500D02*
X27943000Y36833500D01*
X23743000Y36333500D02*
X25843000Y36333500D01*
X27943000Y35833500D02*
X28443000Y36333500D01*
X27943000Y36833500D02*
X27943000Y35833500D01*
X17093000Y26491500D02*
X17093000Y24501500D01*
X16593000Y28601500D02*
X17093000Y28101500D01*
X17593000Y28601500D02*
X16593000Y28601500D01*
X17093000Y32801500D02*
X17093000Y30701500D01*
X17093000Y29101500D02*
X17593000Y28601500D01*
X51026000Y24465500D02*
X48926000Y24465500D01*
X46826000Y24965500D02*
X46326000Y24465500D01*
X44716000Y24465500D02*
X42726000Y24465500D01*
X47326000Y24465500D02*
X46826000Y23965500D01*
X46826000Y23965500D02*
X46826000Y24965500D01*
X66257000Y26378500D02*
X66257000Y27378500D01*
X64147000Y26878500D02*
X62157000Y26878500D01*
X66257000Y27378500D02*
X65757000Y26878500D01*
X66757000Y26878500D02*
X66257000Y26378500D01*
X70457000Y26878500D02*
X68357000Y26878500D01*
X108176000Y22814500D02*
X106076000Y22814500D01*
X103976000Y23314500D02*
X103476000Y22814500D01*
X103976000Y22314500D02*
X103976000Y23314500D01*
X101866000Y22814500D02*
X99876000Y22814500D01*
X104476000Y22814500D02*
X103976000Y22314500D01*
X102679207Y-2832811D02*
X104497860Y-3882811D01*
X105883501Y-4682811D02*
X106566514Y-4499798D01*
X108143827Y-5987811D02*
X109867218Y-6982811D01*
X106066514Y-5365824D02*
X106749526Y-5182811D01*
X106566514Y-4499798D02*
X106066514Y-5365824D01*
X23489000Y19696500D02*
X25589000Y19696500D01*
X29799000Y19696500D02*
X31789000Y19696500D01*
X27689000Y19196500D02*
X28189000Y19696500D01*
X27689000Y20196500D02*
X27689000Y19196500D01*
X27189000Y19696500D02*
X27689000Y20196500D01*
X27189000Y17283500D02*
X27689000Y17783500D01*
X27689000Y16783500D02*
X28189000Y17283500D01*
X23489000Y17283500D02*
X25589000Y17283500D01*
X27689000Y17783500D02*
X27689000Y16783500D01*
X29799000Y17283500D02*
X31789000Y17283500D01*
X51026000Y22179500D02*
X48926000Y22179500D01*
X46826000Y22679500D02*
X46326000Y22179500D01*
X47326000Y22179500D02*
X46826000Y21679500D01*
X46826000Y21679500D02*
X46826000Y22679500D01*
X44716000Y22179500D02*
X42726000Y22179500D01*
X66257000Y23965500D02*
X66257000Y24965500D01*
X66257000Y24965500D02*
X65757000Y24465500D01*
X64147000Y24465500D02*
X62157000Y24465500D01*
X66757000Y24465500D02*
X66257000Y23965500D01*
X70457000Y24465500D02*
X68357000Y24465500D01*
X72246000Y74595500D02*
X72246000Y105075500D01*
X57006000Y105075500D02*
X59546000Y105075500D01*
X74786000Y105075500D02*
X74786000Y74595500D01*
X72246000Y105075500D02*
X74786000Y105075500D01*
X59546000Y74595500D02*
X57006000Y74595500D01*
X74786000Y74595500D02*
X72246000Y74595500D01*
X57006000Y74595500D02*
X57006000Y105075500D01*
X59546000Y105075500D02*
X59546000Y74595500D01*
X118953000Y31761500D02*
X120943000Y31761500D01*
X116843000Y31261500D02*
X117343000Y31761500D01*
X116343000Y31761500D02*
X116843000Y32261500D01*
X116843000Y32261500D02*
X116843000Y31261500D01*
X112643000Y31761500D02*
X114743000Y31761500D01*
X116343000Y29475500D02*
X116843000Y29975500D01*
X118953000Y29475500D02*
X120943000Y29475500D01*
X116843000Y28975500D02*
X117343000Y29475500D01*
X116843000Y29975500D02*
X116843000Y28975500D01*
X112643000Y29475500D02*
X114743000Y29475500D01*
X18702800Y84742800D02*
X20112500Y84742800D01*
X19414000Y88095600D02*
X19414000Y89073500D01*
X20112500Y85784200D02*
X19426700Y84755500D01*
X19414000Y84742800D02*
X18715500Y85784200D01*
X18715500Y85784200D02*
X20112500Y85784200D01*
X19414000Y81453500D02*
X19414000Y82418700D01*
X19414000Y68918600D02*
X19414000Y69896500D01*
X20112500Y66607200D02*
X19426700Y65578500D01*
X18702800Y65565800D02*
X20112500Y65565800D01*
X18715500Y66607200D02*
X20112500Y66607200D01*
X19414000Y62276500D02*
X19414000Y63241700D01*
X19414000Y65565800D02*
X18715500Y66607200D01*
X18702800Y46642800D02*
X20112500Y46642800D01*
X18715500Y47684200D02*
X20112500Y47684200D01*
X19414000Y43353500D02*
X19414000Y44318700D01*
X19414000Y49995600D02*
X19414000Y50973500D01*
X20112500Y47684200D02*
X19426700Y46655500D01*
X19414000Y46642800D02*
X18715500Y47684200D01*
X36178000Y27613800D02*
X35479500Y28655200D01*
X35479500Y28655200D02*
X36876500Y28655200D01*
X35466800Y27613800D02*
X36876500Y27613800D01*
X36178000Y24324500D02*
X36178000Y25289700D01*
X36876500Y28655200D02*
X36190700Y27626500D01*
X36178000Y30966600D02*
X36178000Y31944500D01*
X36178000Y84742800D02*
X35479500Y85784200D01*
X36178000Y88095600D02*
X36178000Y89073500D01*
X36178000Y81453500D02*
X36178000Y82418700D01*
X36876500Y85784200D02*
X36190700Y84755500D01*
X35479500Y85784200D02*
X36876500Y85784200D01*
X35466800Y84742800D02*
X36876500Y84742800D01*
X35466800Y65565800D02*
X36876500Y65565800D01*
X36178000Y65565800D02*
X35479500Y66607200D01*
X35479500Y66607200D02*
X36876500Y66607200D01*
X36178000Y62276500D02*
X36178000Y63241700D01*
X36178000Y68918600D02*
X36178000Y69896500D01*
X36876500Y66607200D02*
X36190700Y65578500D01*
X35466800Y46642800D02*
X36876500Y46642800D01*
X36178000Y46642800D02*
X35479500Y47684200D01*
X36178000Y43353500D02*
X36178000Y44318700D01*
X36876500Y47684200D02*
X36190700Y46655500D01*
X36178000Y49995600D02*
X36178000Y50973500D01*
X35479500Y47684200D02*
X36876500Y47684200D01*
X37765500Y28634200D02*
X39162500Y28634200D01*
X37752800Y27592800D02*
X39162500Y27592800D01*
X38464000Y27592800D02*
X37765500Y28634200D01*
X39162500Y28634200D02*
X38476700Y27605500D01*
X38464000Y30945600D02*
X38464000Y31923500D01*
X38464000Y24303500D02*
X38464000Y25268700D01*
X37752800Y84742800D02*
X39162500Y84742800D01*
X37765500Y85784200D02*
X39162500Y85784200D01*
X38464000Y84742800D02*
X37765500Y85784200D01*
X38464000Y88095600D02*
X38464000Y89073500D01*
X38464000Y81453500D02*
X38464000Y82418700D01*
X39162500Y85784200D02*
X38476700Y84755500D01*
X38337000Y68918600D02*
X38337000Y69896500D01*
X38337000Y62276500D02*
X38337000Y63241700D01*
X37638500Y66607200D02*
X39035500Y66607200D01*
X39035500Y66607200D02*
X38349700Y65578500D01*
X38337000Y65565800D02*
X37638500Y66607200D01*
X37625800Y65565800D02*
X39035500Y65565800D01*
X38464000Y43353500D02*
X38464000Y44318700D01*
X37752800Y46642800D02*
X39162500Y46642800D01*
X39162500Y47684200D02*
X38476700Y46655500D01*
X38464000Y49995600D02*
X38464000Y50973500D01*
X37765500Y47684200D02*
X39162500Y47684200D01*
X38464000Y46642800D02*
X37765500Y47684200D01*
X54529500Y36127200D02*
X55926500Y36127200D01*
X55228000Y31796500D02*
X55228000Y32761700D01*
X55228000Y38438600D02*
X55228000Y39416500D01*
X54516800Y35085800D02*
X55926500Y35085800D01*
X55926500Y36127200D02*
X55240700Y35098500D01*
X55228000Y35085800D02*
X54529500Y36127200D01*
X55228000Y70391800D02*
X54529500Y71433200D01*
X55228000Y67102500D02*
X55228000Y68067700D01*
X54516800Y70391800D02*
X55926500Y70391800D01*
X54529500Y71433200D02*
X55926500Y71433200D01*
X55228000Y73744600D02*
X55228000Y74722500D01*
X55926500Y71433200D02*
X55240700Y70404500D01*
X74278000Y70315600D02*
X74278000Y71293500D01*
X74976500Y68004200D02*
X74290700Y66975500D01*
X73566800Y66962800D02*
X74976500Y66962800D01*
X74278000Y66962800D02*
X73579500Y68004200D01*
X73579500Y68004200D02*
X74976500Y68004200D01*
X74278000Y63673500D02*
X74278000Y64638700D01*
X57069500Y36148200D02*
X58466500Y36148200D01*
X57768000Y38459600D02*
X57768000Y39437500D01*
X58466500Y36148200D02*
X57780700Y35119500D01*
X57768000Y31817500D02*
X57768000Y32782700D01*
X57056800Y35106800D02*
X58466500Y35106800D01*
X57768000Y35106800D02*
X57069500Y36148200D01*
X95360000Y86647800D02*
X94661500Y87689200D01*
X96058500Y87689200D02*
X95372700Y86660500D01*
X95360000Y90000600D02*
X95360000Y90978500D01*
X95360000Y83358500D02*
X95360000Y84323700D01*
X94661500Y87689200D02*
X96058500Y87689200D01*
X94648800Y86647800D02*
X96058500Y86647800D01*
X74278000Y50600800D02*
X73579500Y51642200D01*
X74976500Y51642200D02*
X74290700Y50613500D01*
X74278000Y53953600D02*
X74278000Y54931500D01*
X74278000Y47311500D02*
X74278000Y48276700D01*
X73566800Y50600800D02*
X74976500Y50600800D01*
X73579500Y51642200D02*
X74976500Y51642200D01*
X93328000Y26589500D02*
X93328000Y27554700D01*
X92629500Y30920200D02*
X94026500Y30920200D01*
X94026500Y30920200D02*
X93340700Y29891500D01*
X93328000Y29878800D02*
X92629500Y30920200D01*
X92616800Y29878800D02*
X94026500Y29878800D01*
X93328000Y33231600D02*
X93328000Y34209500D01*
X95614000Y65184800D02*
X94915500Y66226200D01*
X95614000Y68537600D02*
X95614000Y69515500D01*
X95614000Y61895500D02*
X95614000Y62860700D01*
X96312500Y66226200D02*
X95626700Y65197500D01*
X94915500Y66226200D02*
X96312500Y66226200D01*
X94902800Y65184800D02*
X96312500Y65184800D01*
X93328000Y68516600D02*
X93328000Y69494500D01*
X92616800Y65163800D02*
X94026500Y65163800D01*
X94026500Y66205200D02*
X93340700Y65176500D01*
X93328000Y65163800D02*
X92629500Y66205200D01*
X92629500Y66205200D02*
X94026500Y66205200D01*
X93328000Y61874500D02*
X93328000Y62839700D01*
X95741000Y45893500D02*
X95741000Y46858700D01*
X95042500Y50224200D02*
X96439500Y50224200D01*
X95029800Y49182800D02*
X96439500Y49182800D01*
X95741000Y52535600D02*
X95741000Y53513500D01*
X96439500Y50224200D02*
X95753700Y49195500D01*
X95741000Y49182800D02*
X95042500Y50224200D01*
X94915500Y30920200D02*
X96312500Y30920200D01*
X95614000Y26589500D02*
X95614000Y27554700D01*
X95614000Y29878800D02*
X94915500Y30920200D01*
X94902800Y29878800D02*
X96312500Y29878800D01*
X96312500Y30920200D02*
X95626700Y29891500D01*
X95614000Y33231600D02*
X95614000Y34209500D01*
X113076500Y68893200D02*
X112390700Y67864500D01*
X112378000Y64562500D02*
X112378000Y65527700D01*
X112378000Y71204600D02*
X112378000Y72182500D01*
X111666800Y67851800D02*
X113076500Y67851800D01*
X111679500Y68893200D02*
X113076500Y68893200D01*
X112378000Y67851800D02*
X111679500Y68893200D01*
X111679500Y53907200D02*
X113076500Y53907200D01*
X111666800Y52865800D02*
X113076500Y52865800D01*
X113076500Y53907200D02*
X112390700Y52878500D01*
X112378000Y56218600D02*
X112378000Y57196500D01*
X112378000Y52865800D02*
X111679500Y53907200D01*
X112378000Y49576500D02*
X112378000Y50541700D01*
X113076500Y40318200D02*
X112390700Y39289500D01*
X112378000Y42629600D02*
X112378000Y43607500D01*
X112378000Y35987500D02*
X112378000Y36952700D01*
X111679500Y40318200D02*
X113076500Y40318200D01*
X111666800Y39276800D02*
X113076500Y39276800D01*
X112378000Y39276800D02*
X111679500Y40318200D01*
X112378000Y24489600D02*
X112378000Y25467500D01*
X112378000Y21136800D02*
X111679500Y22178200D01*
X112378000Y17847500D02*
X112378000Y18812700D01*
X111666800Y21136800D02*
X113076500Y21136800D01*
X113076500Y22178200D02*
X112390700Y21149500D01*
X111679500Y22178200D02*
X113076500Y22178200D01*
X19414000Y24811500D02*
X19414000Y25776700D01*
X18702800Y28100800D02*
X20112500Y28100800D01*
X19414000Y31453600D02*
X19414000Y32431500D01*
X18715500Y29142200D02*
X20112500Y29142200D01*
X20112500Y29142200D02*
X19426700Y28113500D01*
X19414000Y28100800D02*
X18715500Y29142200D01*
X35466800Y13114800D02*
X36876500Y13114800D01*
X36178000Y16467600D02*
X36178000Y17445500D01*
X36876500Y14156200D02*
X36190700Y13127500D01*
X36178000Y9825500D02*
X36178000Y10790700D01*
X35479500Y14156200D02*
X36876500Y14156200D01*
X36178000Y13114800D02*
X35479500Y14156200D01*
X37752800Y13114800D02*
X39162500Y13114800D01*
X38464000Y16467600D02*
X38464000Y17445500D01*
X37765500Y14156200D02*
X39162500Y14156200D01*
X38464000Y13114800D02*
X37765500Y14156200D01*
X39162500Y14156200D02*
X38476700Y13127500D01*
X38464000Y9825500D02*
X38464000Y10790700D01*
X100479932Y16606769D02*
X101027912Y15498499D01*
X99781432Y15396931D02*
X100479932Y16606769D01*
X100676960Y14865233D02*
X101381810Y16086069D01*
X98128950Y17157550D02*
X97282064Y17646500D01*
X103881178Y13836500D02*
X103045290Y14319100D01*
X101032560Y15481150D02*
X99781432Y15396931D01*
X102230733Y4985570D02*
X103451569Y4280720D01*
X101202000Y1781352D02*
X101684600Y2617240D01*
X103972269Y5182598D02*
X102863999Y4634618D01*
X104523050Y7533580D02*
X105012000Y8380466D01*
X102762431Y5881098D02*
X103972269Y5182598D01*
X102846650Y4629970D02*
X102762431Y5881098D01*
X84966000Y41405500D02*
X84966000Y40405500D01*
X84966000Y40405500D02*
X85466000Y40905500D01*
X84466000Y40905500D02*
X84966000Y41405500D01*
X87076000Y40905500D02*
X89066000Y40905500D01*
X80766000Y40905500D02*
X82866000Y40905500D01*
X74116000Y32187500D02*
X74116000Y30087500D01*
X74616000Y27987500D02*
X73616000Y27987500D01*
X74116000Y28487500D02*
X74616000Y27987500D01*
X73616000Y27987500D02*
X74116000Y27487500D01*
X74116000Y25877500D02*
X74116000Y23887500D01*
X55926500Y16336200D02*
X55240700Y15307500D01*
X55228000Y15294800D02*
X54529500Y16336200D01*
X55228000Y12005500D02*
X55228000Y12970700D01*
X54529500Y16336200D02*
X55926500Y16336200D01*
X55228000Y18647600D02*
X55228000Y19625500D01*
X54516800Y15294800D02*
X55926500Y15294800D01*
X55926500Y52108200D02*
X55240700Y51079500D01*
X54516800Y51066800D02*
X55926500Y51066800D01*
X55228000Y51066800D02*
X54529500Y52108200D01*
X55228000Y54419600D02*
X55228000Y55397500D01*
X55228000Y47777500D02*
X55228000Y48742700D01*
X54529500Y52108200D02*
X55926500Y52108200D01*
X92629500Y50203200D02*
X94026500Y50203200D01*
X93328000Y49161800D02*
X92629500Y50203200D01*
X93328000Y52514600D02*
X93328000Y53492500D01*
X93328000Y45872500D02*
X93328000Y46837700D01*
X92616800Y49161800D02*
X94026500Y49161800D01*
X94026500Y50203200D02*
X93340700Y49174500D01*
D15*
X131252176Y-15557760D02*
X131752176Y-14691735D01*
X123091922Y-9691735D02*
X122591922Y-10557760D01*
X120716922Y-13805355D02*
X120216922Y-14671381D01*
X127578138Y-18921381D02*
X128877176Y-19671381D01*
X128877176Y-19671381D02*
X129377176Y-18805355D01*
X124390960Y-10441735D02*
X123091922Y-9691735D01*
X131752176Y-14691735D02*
X130453138Y-13941735D01*
X120216922Y-14671381D02*
X121515960Y-15421381D01*
D13*
X120264170Y-4865790D02*
X120348389Y-6116918D01*
X120880087Y-5221390D02*
X119659251Y-4516540D01*
X118587770Y-7769400D02*
X118098820Y-8616286D01*
X119138551Y-5418418D02*
X120246821Y-4870438D01*
X121908820Y-2017172D02*
X121426220Y-2853060D01*
X120348389Y-6116918D02*
X119138551Y-5418418D01*
D16*
X83721000Y19685000D02*
X86321000Y19685000D01*
D15*
X83721000Y20955000D02*
X83721000Y22285000D01*
D16*
X83721000Y17085000D02*
X83721000Y19685000D01*
X88921000Y22285000D02*
X88921000Y17085000D01*
X86321000Y22285000D02*
X88921000Y22285000D01*
D15*
X83721000Y22285000D02*
X85051000Y22285000D01*
D16*
X86321000Y19685000D02*
X86321000Y22285000D01*
X88921000Y17085000D02*
X83721000Y17085000D01*
X83721000Y19685000D02*
X83721000Y19685000D01*
X83721000Y19685000D02*
X86321000Y19685000D01*
X86321000Y19685000D02*
X86321000Y22285000D01*
X86321000Y22285000D02*
X88921000Y22285000D01*
X88921000Y22285000D02*
X88921000Y17085000D01*
X88921000Y17085000D02*
X83721000Y17085000D01*
X83721000Y17085000D02*
X83721000Y19685000D01*
X83721000Y19685000D02*
X83721000Y19685000D01*
D15*
X102930000Y94870000D02*
X102930000Y96200000D01*
X95190000Y94870000D02*
X95190000Y97530000D01*
X101600000Y94870000D02*
X102930000Y94870000D01*
X100330000Y94870000D02*
X100330000Y97530000D01*
X100330000Y94870000D02*
X95190000Y94870000D01*
X100330000Y97530000D02*
X95190000Y97530000D01*
X80901000Y99725500D02*
X80901000Y101925500D01*
X81501000Y99725500D02*
X80901000Y99725500D01*
X89101000Y99725500D02*
X89101000Y101925500D01*
X88501000Y99725500D02*
X89101000Y99725500D01*
D12*
X2785000Y79127500D02*
X3785000Y79127500D01*
X785000Y75627500D02*
X785000Y77627500D01*
X3785000Y74127500D02*
X2785000Y74127500D01*
X5785000Y75627500D02*
X5785000Y77627500D01*
X3785000Y79127500D02*
X2785000Y79127500D01*
X5785000Y75627500D02*
X5785000Y77627500D01*
X785000Y75627500D02*
X785000Y77627500D01*
D13*
X3285000Y74127500D02*
X5785000Y76627500D01*
D12*
X2785000Y74127500D02*
X3785000Y74127500D01*
X3785000Y60077500D02*
X2785000Y60077500D01*
X5785000Y56577500D02*
X5785000Y58577500D01*
X2785000Y55077500D02*
X3785000Y55077500D01*
X785000Y56577500D02*
X785000Y58577500D01*
X2785000Y60077500D02*
X3785000Y60077500D01*
X3785000Y55077500D02*
X2785000Y55077500D01*
X5785000Y56577500D02*
X5785000Y58577500D01*
X785000Y56577500D02*
X785000Y58577500D01*
D13*
X3285000Y55077500D02*
X5785000Y57577500D01*
D12*
X785000Y37527500D02*
X785000Y39527500D01*
X785000Y37527500D02*
X785000Y39527500D01*
D13*
X3285000Y36027500D02*
X5785000Y38527500D01*
D12*
X2785000Y41027500D02*
X3785000Y41027500D01*
X3785000Y41027500D02*
X2785000Y41027500D01*
X5785000Y37527500D02*
X5785000Y39527500D01*
X3785000Y36027500D02*
X2785000Y36027500D01*
X5785000Y37527500D02*
X5785000Y39527500D01*
X2785000Y36027500D02*
X3785000Y36027500D01*
X3785000Y16977500D02*
X2785000Y16977500D01*
X2785000Y21977500D02*
X3785000Y21977500D01*
X785000Y18477500D02*
X785000Y20477500D01*
X2785000Y16977500D02*
X3785000Y16977500D01*
X3785000Y21977500D02*
X2785000Y21977500D01*
X5785000Y18477500D02*
X5785000Y20477500D01*
X785000Y18477500D02*
X785000Y20477500D01*
D13*
X3285000Y16977500D02*
X5785000Y19477500D01*
D12*
X5785000Y18477500D02*
X5785000Y20477500D01*
X19271000Y5721500D02*
X17271000Y5721500D01*
X15771000Y3721500D02*
X15771000Y2721500D01*
X20771000Y3721500D02*
X20771000Y2721500D01*
X20771000Y2721500D02*
X20771000Y3721500D01*
X19271000Y721500D02*
X17271000Y721500D01*
X19271000Y5721500D02*
X17271000Y5721500D01*
X15771000Y2721500D02*
X15771000Y3721500D01*
X19271000Y721500D02*
X17271000Y721500D01*
D13*
X20771000Y3221500D02*
X18271000Y5721500D01*
D12*
X37911333Y2721500D02*
X37911333Y3721500D01*
D13*
X42911333Y3221500D02*
X40411333Y5721500D01*
D12*
X41411333Y721500D02*
X39411333Y721500D01*
X42911333Y3721500D02*
X42911333Y2721500D01*
X41411333Y5721500D02*
X39411333Y5721500D01*
X37911333Y3721500D02*
X37911333Y2721500D01*
X41411333Y5721500D02*
X39411333Y5721500D01*
X42911333Y2721500D02*
X42911333Y3721500D01*
X41411333Y721500D02*
X39411333Y721500D01*
X63551667Y5721500D02*
X61551667Y5721500D01*
X60051667Y2721500D02*
X60051667Y3721500D01*
X63551667Y721500D02*
X61551667Y721500D01*
D13*
X65051667Y3221500D02*
X62551667Y5721500D01*
D12*
X60051667Y3721500D02*
X60051667Y2721500D01*
X65051667Y3721500D02*
X65051667Y2721500D01*
X65051667Y2721500D02*
X65051667Y3721500D01*
X63551667Y5721500D02*
X61551667Y5721500D01*
X63551667Y721500D02*
X61551667Y721500D01*
D13*
X87192000Y3221500D02*
X84692000Y5721500D01*
D12*
X82192000Y3721500D02*
X82192000Y2721500D01*
X87192000Y2721500D02*
X87192000Y3721500D01*
X85692000Y721500D02*
X83692000Y721500D01*
X85692000Y5721500D02*
X83692000Y5721500D01*
X85692000Y721500D02*
X83692000Y721500D01*
X82192000Y2721500D02*
X82192000Y3721500D01*
X85692000Y5721500D02*
X83692000Y5721500D01*
X87192000Y3721500D02*
X87192000Y2721500D01*
D13*
X123407000Y7672564D02*
X119991936Y6757500D01*
D12*
X123840013Y7422564D02*
X122973987Y7922564D01*
X120491936Y7623525D02*
X119491936Y5891475D01*
X122973987Y7922564D02*
X123840013Y7422564D01*
X124822064Y5123525D02*
X123822064Y3391475D01*
X121340013Y3092436D02*
X120473987Y3592436D01*
X120491936Y7623525D02*
X119491936Y5891475D01*
X120473987Y3592436D02*
X121340013Y3092436D01*
X124822064Y5123525D02*
X123822064Y3391475D01*
X129388000Y27518500D02*
X128388000Y27518500D01*
X129388000Y32518500D02*
X128388000Y32518500D01*
X126388000Y31018500D02*
X126388000Y29018500D01*
X131388000Y31018500D02*
X131388000Y29018500D01*
X128388000Y27518500D02*
X129388000Y27518500D01*
D13*
X128888000Y32518500D02*
X126388000Y30018500D01*
D12*
X131388000Y31018500D02*
X131388000Y29018500D01*
X128388000Y32518500D02*
X129388000Y32518500D01*
X126388000Y31018500D02*
X126388000Y29018500D01*
X131388000Y51719500D02*
X131388000Y49719500D01*
X129388000Y48219500D02*
X128388000Y48219500D01*
X129388000Y53219500D02*
X128388000Y53219500D01*
X128388000Y48219500D02*
X129388000Y48219500D01*
X126388000Y51719500D02*
X126388000Y49719500D01*
X126388000Y51719500D02*
X126388000Y49719500D01*
X128388000Y53219500D02*
X129388000Y53219500D01*
D13*
X128888000Y53219500D02*
X126388000Y50719500D01*
D12*
X131388000Y51719500D02*
X131388000Y49719500D01*
X128388000Y67015500D02*
X129388000Y67015500D01*
X126388000Y70515500D02*
X126388000Y68515500D01*
X128388000Y72015500D02*
X129388000Y72015500D01*
X126388000Y70515500D02*
X126388000Y68515500D01*
X131388000Y70515500D02*
X131388000Y68515500D01*
X129388000Y72015500D02*
X128388000Y72015500D01*
X131388000Y70515500D02*
X131388000Y68515500D01*
D13*
X128888000Y72015500D02*
X126388000Y69515500D01*
D12*
X129388000Y67015500D02*
X128388000Y67015500D01*
D17*
X128050000Y98900000D03*
X128050000Y91900000D03*
D18*
X10016000Y80120000D03*
D19*
X7476000Y80120000D03*
D18*
X29066000Y80120000D03*
D19*
X26526000Y80120000D03*
D18*
X48116000Y84882500D03*
D19*
X45576000Y84882500D03*
D18*
X67166000Y87263750D03*
D19*
X64626000Y87263750D03*
D18*
X86216000Y84755500D03*
D19*
X83676000Y84755500D03*
D18*
X105266000Y82501250D03*
D19*
X102726000Y82501250D03*
D18*
X124316000Y72976250D03*
D19*
X121776000Y72976250D03*
D18*
X10016000Y61070000D03*
D19*
X7476000Y61070000D03*
D18*
X29066000Y61070000D03*
D19*
X26526000Y61070000D03*
D18*
X48116000Y65832500D03*
D19*
X45576000Y65832500D03*
D18*
X67166000Y68213750D03*
D19*
X64626000Y68213750D03*
D18*
X86216000Y65832500D03*
D19*
X83676000Y65832500D03*
D18*
X105266000Y63451250D03*
D19*
X102726000Y63451250D03*
D18*
X124316000Y53926250D03*
D19*
X121776000Y53926250D03*
D18*
X10016000Y42020000D03*
D19*
X7476000Y42020000D03*
D18*
X29066000Y42020000D03*
D19*
X26526000Y42020000D03*
D18*
X48116000Y46782500D03*
D19*
X45576000Y46782500D03*
D18*
X67166000Y49163750D03*
D19*
X64626000Y49163750D03*
D18*
X86216000Y46782500D03*
D19*
X83676000Y46782500D03*
D18*
X105266000Y44401250D03*
D19*
X102726000Y44401250D03*
D18*
X124316000Y34876250D03*
D19*
X121776000Y34876250D03*
D18*
X10016000Y22970000D03*
D19*
X7476000Y22970000D03*
D18*
X29066000Y22970000D03*
D19*
X26526000Y22970000D03*
D18*
X48116000Y27732500D03*
D19*
X45576000Y27732500D03*
D18*
X67166000Y30113750D03*
D19*
X64626000Y30113750D03*
D18*
X86216000Y27732500D03*
D19*
X83676000Y27732500D03*
D18*
X105266000Y25351250D03*
D19*
X102726000Y25351250D03*
G36*
X101426048Y6258963D02*
G01*
X99776270Y7211463D01*
X100728770Y8861241D01*
X102378548Y7908741D01*
X101426048Y6258963D01*
G37*
X99807409Y5360398D03*
D18*
X10016000Y3920000D03*
D19*
X7476000Y3920000D03*
D18*
X29066000Y3920000D03*
D19*
X26526000Y3920000D03*
D18*
X48116000Y8682500D03*
D19*
X45576000Y8682500D03*
D18*
X67166000Y11063750D03*
D19*
X64626000Y11063750D03*
D18*
X72246000Y18842500D03*
D19*
X74786000Y18842500D03*
G36*
X116682952Y18714487D02*
G01*
X118332730Y17761987D01*
X117380230Y16112209D01*
X115730452Y17064709D01*
X116682952Y18714487D01*
G37*
X118301591Y19613052D03*
G36*
X107157952Y2216487D02*
G01*
X108807730Y1263987D01*
X107855230Y-385791D01*
X106205452Y566709D01*
X107157952Y2216487D01*
G37*
X108776591Y3115052D03*
D20*
X92566000Y103805500D03*
X92566000Y101265500D03*
X92566000Y98725500D03*
X92566000Y96185500D03*
X92566000Y93645500D03*
X92566000Y91105500D03*
X92566000Y88565500D03*
X92566000Y86025500D03*
X92566000Y83485500D03*
X92566000Y80945500D03*
X92566000Y78405500D03*
X92566000Y75865500D03*
X77326000Y75865500D03*
X77326000Y78405500D03*
X77326000Y80945500D03*
X77326000Y83485500D03*
X77326000Y86025500D03*
X77326000Y88565500D03*
X77326000Y91105500D03*
X77326000Y93645500D03*
X77326000Y96185500D03*
X77326000Y98725500D03*
X77326000Y101265500D03*
X77326000Y103805500D03*
D21*
X3246000Y85200000D03*
D22*
X13826000Y85200000D03*
X3666000Y85200000D03*
D21*
X14246000Y85200000D03*
D23*
X8746000Y85200000D03*
D24*
X11266000Y89700000D03*
G36*
G01*
X13455903Y86667538D02*
X13455903Y86667538D01*
G75*
G02*
X11765305Y86815446I-771345J919253D01*
G01*
X10608287Y88194326D01*
G75*
G02*
X10756195Y89884924I919253J771345D01*
G01*
X10756195Y89884924D01*
G75*
G02*
X12446793Y89737016I771345J-919253D01*
G01*
X13603811Y88358136D01*
G75*
G02*
X13455903Y86667538I-919253J-771345D01*
G01*
G37*
G36*
G01*
X6735805Y89884924D02*
X6735805Y89884924D01*
G75*
G02*
X6883713Y88194326I-771345J-919253D01*
G01*
X5726695Y86815446D01*
G75*
G02*
X4036097Y86667538I-919253J771345D01*
G01*
X4036097Y86667538D01*
G75*
G02*
X3888189Y88358136I771345J919253D01*
G01*
X5045207Y89737016D01*
G75*
G02*
X6735805Y89884924I919253J-771345D01*
G01*
G37*
X6226000Y89700000D03*
D22*
X13826000Y66150000D03*
D21*
X14246000Y66150000D03*
X3246000Y66150000D03*
D22*
X3666000Y66150000D03*
D23*
X8746000Y66150000D03*
G36*
G01*
X13455903Y67617538D02*
X13455903Y67617538D01*
G75*
G02*
X11765305Y67765446I-771345J919253D01*
G01*
X10608287Y69144326D01*
G75*
G02*
X10756195Y70834924I919253J771345D01*
G01*
X10756195Y70834924D01*
G75*
G02*
X12446793Y70687016I771345J-919253D01*
G01*
X13603811Y69308136D01*
G75*
G02*
X13455903Y67617538I-919253J-771345D01*
G01*
G37*
D24*
X11266000Y70650000D03*
G36*
G01*
X6735805Y70834924D02*
X6735805Y70834924D01*
G75*
G02*
X6883713Y69144326I-771345J-919253D01*
G01*
X5726695Y67765446D01*
G75*
G02*
X4036097Y67617538I-919253J771345D01*
G01*
X4036097Y67617538D01*
G75*
G02*
X3888189Y69308136I771345J919253D01*
G01*
X5045207Y70687016D01*
G75*
G02*
X6735805Y70834924I919253J-771345D01*
G01*
G37*
X6226000Y70650000D03*
D23*
X8746000Y47100000D03*
D21*
X14246000Y47100000D03*
X3246000Y47100000D03*
D22*
X13826000Y47100000D03*
X3666000Y47100000D03*
G36*
G01*
X13455903Y48567538D02*
X13455903Y48567538D01*
G75*
G02*
X11765305Y48715446I-771345J919253D01*
G01*
X10608287Y50094326D01*
G75*
G02*
X10756195Y51784924I919253J771345D01*
G01*
X10756195Y51784924D01*
G75*
G02*
X12446793Y51637016I771345J-919253D01*
G01*
X13603811Y50258136D01*
G75*
G02*
X13455903Y48567538I-919253J-771345D01*
G01*
G37*
D24*
X11266000Y51600000D03*
X6226000Y51600000D03*
G36*
G01*
X6735805Y51784924D02*
X6735805Y51784924D01*
G75*
G02*
X6883713Y50094326I-771345J-919253D01*
G01*
X5726695Y48715446D01*
G75*
G02*
X4036097Y48567538I-919253J771345D01*
G01*
X4036097Y48567538D01*
G75*
G02*
X3888189Y50258136I771345J919253D01*
G01*
X5045207Y51637016D01*
G75*
G02*
X6735805Y51784924I919253J-771345D01*
G01*
G37*
D21*
X3246000Y28050000D03*
D22*
X13826000Y28050000D03*
D21*
X14246000Y28050000D03*
D23*
X8746000Y28050000D03*
D22*
X3666000Y28050000D03*
D24*
X11266000Y32550000D03*
G36*
G01*
X13455903Y29517538D02*
X13455903Y29517538D01*
G75*
G02*
X11765305Y29665446I-771345J919253D01*
G01*
X10608287Y31044326D01*
G75*
G02*
X10756195Y32734924I919253J771345D01*
G01*
X10756195Y32734924D01*
G75*
G02*
X12446793Y32587016I771345J-919253D01*
G01*
X13603811Y31208136D01*
G75*
G02*
X13455903Y29517538I-919253J-771345D01*
G01*
G37*
G36*
G01*
X6735805Y32734924D02*
X6735805Y32734924D01*
G75*
G02*
X6883713Y31044326I-771345J-919253D01*
G01*
X5726695Y29665446D01*
G75*
G02*
X4036097Y29517538I-919253J771345D01*
G01*
X4036097Y29517538D01*
G75*
G02*
X3888189Y31208136I771345J919253D01*
G01*
X5045207Y32587016D01*
G75*
G02*
X6735805Y32734924I919253J-771345D01*
G01*
G37*
X6226000Y32550000D03*
D21*
X41346000Y89962500D03*
X52346000Y89962500D03*
D22*
X41766000Y89962500D03*
X51926000Y89962500D03*
D23*
X46846000Y89962500D03*
G36*
G01*
X51555903Y91430038D02*
X51555903Y91430038D01*
G75*
G02*
X49865305Y91577946I-771345J919253D01*
G01*
X48708287Y92956826D01*
G75*
G02*
X48856195Y94647424I919253J771345D01*
G01*
X48856195Y94647424D01*
G75*
G02*
X50546793Y94499516I771345J-919253D01*
G01*
X51703811Y93120636D01*
G75*
G02*
X51555903Y91430038I-919253J-771345D01*
G01*
G37*
D24*
X49366000Y94462500D03*
G36*
G01*
X44835805Y94647424D02*
X44835805Y94647424D01*
G75*
G02*
X44983713Y92956826I-771345J-919253D01*
G01*
X43826695Y91577946D01*
G75*
G02*
X42136097Y91430038I-919253J771345D01*
G01*
X42136097Y91430038D01*
G75*
G02*
X41988189Y93120636I771345J919253D01*
G01*
X43145207Y94499516D01*
G75*
G02*
X44835805Y94647424I919253J-771345D01*
G01*
G37*
X44326000Y94462500D03*
D22*
X41766000Y70912500D03*
X51926000Y70912500D03*
D21*
X52346000Y70912500D03*
X41346000Y70912500D03*
D23*
X46846000Y70912500D03*
D24*
X49366000Y75412500D03*
G36*
G01*
X51555903Y72380038D02*
X51555903Y72380038D01*
G75*
G02*
X49865305Y72527946I-771345J919253D01*
G01*
X48708287Y73906826D01*
G75*
G02*
X48856195Y75597424I919253J771345D01*
G01*
X48856195Y75597424D01*
G75*
G02*
X50546793Y75449516I771345J-919253D01*
G01*
X51703811Y74070636D01*
G75*
G02*
X51555903Y72380038I-919253J-771345D01*
G01*
G37*
G36*
G01*
X44835805Y75597424D02*
X44835805Y75597424D01*
G75*
G02*
X44983713Y73906826I-771345J-919253D01*
G01*
X43826695Y72527946D01*
G75*
G02*
X42136097Y72380038I-919253J771345D01*
G01*
X42136097Y72380038D01*
G75*
G02*
X41988189Y74070636I771345J919253D01*
G01*
X43145207Y75449516D01*
G75*
G02*
X44835805Y75597424I919253J-771345D01*
G01*
G37*
X44326000Y75412500D03*
D21*
X52346000Y51862500D03*
X41346000Y51862500D03*
D22*
X41766000Y51862500D03*
X51926000Y51862500D03*
D23*
X46846000Y51862500D03*
D24*
X49366000Y56362500D03*
G36*
G01*
X51555903Y53330038D02*
X51555903Y53330038D01*
G75*
G02*
X49865305Y53477946I-771345J919253D01*
G01*
X48708287Y54856826D01*
G75*
G02*
X48856195Y56547424I919253J771345D01*
G01*
X48856195Y56547424D01*
G75*
G02*
X50546793Y56399516I771345J-919253D01*
G01*
X51703811Y55020636D01*
G75*
G02*
X51555903Y53330038I-919253J-771345D01*
G01*
G37*
X44326000Y56362500D03*
G36*
G01*
X44835805Y56547424D02*
X44835805Y56547424D01*
G75*
G02*
X44983713Y54856826I-771345J-919253D01*
G01*
X43826695Y53477946D01*
G75*
G02*
X42136097Y53330038I-919253J771345D01*
G01*
X42136097Y53330038D01*
G75*
G02*
X41988189Y55020636I771345J919253D01*
G01*
X43145207Y56399516D01*
G75*
G02*
X44835805Y56547424I919253J-771345D01*
G01*
G37*
D22*
X98916000Y68531250D03*
D23*
X103996000Y68531250D03*
D22*
X109076000Y68531250D03*
D21*
X98496000Y68531250D03*
X109496000Y68531250D03*
D24*
X106516000Y73031250D03*
G36*
G01*
X108705903Y69998788D02*
X108705903Y69998788D01*
G75*
G02*
X107015305Y70146696I-771345J919253D01*
G01*
X105858287Y71525576D01*
G75*
G02*
X106006195Y73216174I919253J771345D01*
G01*
X106006195Y73216174D01*
G75*
G02*
X107696793Y73068266I771345J-919253D01*
G01*
X108853811Y71689386D01*
G75*
G02*
X108705903Y69998788I-919253J-771345D01*
G01*
G37*
G36*
G01*
X101985805Y73216174D02*
X101985805Y73216174D01*
G75*
G02*
X102133713Y71525576I-771345J-919253D01*
G01*
X100976695Y70146696D01*
G75*
G02*
X99286097Y69998788I-919253J771345D01*
G01*
X99286097Y69998788D01*
G75*
G02*
X99138189Y71689386I771345J919253D01*
G01*
X100295207Y73068266D01*
G75*
G02*
X101985805Y73216174I919253J-771345D01*
G01*
G37*
X101476000Y73031250D03*
D22*
X98916000Y49481250D03*
X109076000Y49481250D03*
D21*
X109496000Y49481250D03*
D23*
X103996000Y49481250D03*
D21*
X98496000Y49481250D03*
D24*
X106516000Y53981250D03*
G36*
G01*
X108705903Y50948788D02*
X108705903Y50948788D01*
G75*
G02*
X107015305Y51096696I-771345J919253D01*
G01*
X105858287Y52475576D01*
G75*
G02*
X106006195Y54166174I919253J771345D01*
G01*
X106006195Y54166174D01*
G75*
G02*
X107696793Y54018266I771345J-919253D01*
G01*
X108853811Y52639386D01*
G75*
G02*
X108705903Y50948788I-919253J-771345D01*
G01*
G37*
X101476000Y53981250D03*
G36*
G01*
X101985805Y54166174D02*
X101985805Y54166174D01*
G75*
G02*
X102133713Y52475576I-771345J-919253D01*
G01*
X100976695Y51096696D01*
G75*
G02*
X99286097Y50948788I-919253J771345D01*
G01*
X99286097Y50948788D01*
G75*
G02*
X99138189Y52639386I771345J919253D01*
G01*
X100295207Y54018266D01*
G75*
G02*
X101985805Y54166174I919253J-771345D01*
G01*
G37*
D21*
X109496000Y30431250D03*
D22*
X98916000Y30431250D03*
D23*
X103996000Y30431250D03*
D22*
X109076000Y30431250D03*
D21*
X98496000Y30431250D03*
G36*
G01*
X108705903Y31898788D02*
X108705903Y31898788D01*
G75*
G02*
X107015305Y32046696I-771345J919253D01*
G01*
X105858287Y33425576D01*
G75*
G02*
X106006195Y35116174I919253J771345D01*
G01*
X106006195Y35116174D01*
G75*
G02*
X107696793Y34968266I771345J-919253D01*
G01*
X108853811Y33589386D01*
G75*
G02*
X108705903Y31898788I-919253J-771345D01*
G01*
G37*
D24*
X106516000Y34931250D03*
X101476000Y34931250D03*
G36*
G01*
X101985805Y35116174D02*
X101985805Y35116174D01*
G75*
G02*
X102133713Y33425576I-771345J-919253D01*
G01*
X100976695Y32046696D01*
G75*
G02*
X99286097Y31898788I-919253J771345D01*
G01*
X99286097Y31898788D01*
G75*
G02*
X99138189Y33589386I771345J919253D01*
G01*
X100295207Y34968266D01*
G75*
G02*
X101985805Y35116174I919253J-771345D01*
G01*
G37*
D23*
X8746000Y9000000D03*
D22*
X3666000Y9000000D03*
D21*
X14246000Y9000000D03*
X3246000Y9000000D03*
D22*
X13826000Y9000000D03*
D24*
X11266000Y13500000D03*
G36*
G01*
X13455903Y10467538D02*
X13455903Y10467538D01*
G75*
G02*
X11765305Y10615446I-771345J919253D01*
G01*
X10608287Y11994326D01*
G75*
G02*
X10756195Y13684924I919253J771345D01*
G01*
X10756195Y13684924D01*
G75*
G02*
X12446793Y13537016I771345J-919253D01*
G01*
X13603811Y12158136D01*
G75*
G02*
X13455903Y10467538I-919253J-771345D01*
G01*
G37*
G36*
G01*
X6735805Y13684924D02*
X6735805Y13684924D01*
G75*
G02*
X6883713Y11994326I-771345J-919253D01*
G01*
X5726695Y10615446D01*
G75*
G02*
X4036097Y10467538I-919253J771345D01*
G01*
X4036097Y10467538D01*
G75*
G02*
X3888189Y12158136I771345J919253D01*
G01*
X5045207Y13537016D01*
G75*
G02*
X6735805Y13684924I919253J-771345D01*
G01*
G37*
X6226000Y13500000D03*
D21*
X52346000Y13762500D03*
D23*
X46846000Y13762500D03*
D21*
X41346000Y13762500D03*
D22*
X41766000Y13762500D03*
X51926000Y13762500D03*
D24*
X49366000Y18262500D03*
G36*
G01*
X51555903Y15230038D02*
X51555903Y15230038D01*
G75*
G02*
X49865305Y15377946I-771345J919253D01*
G01*
X48708287Y16756826D01*
G75*
G02*
X48856195Y18447424I919253J771345D01*
G01*
X48856195Y18447424D01*
G75*
G02*
X50546793Y18299516I771345J-919253D01*
G01*
X51703811Y16920636D01*
G75*
G02*
X51555903Y15230038I-919253J-771345D01*
G01*
G37*
X44326000Y18262500D03*
G36*
G01*
X44835805Y18447424D02*
X44835805Y18447424D01*
G75*
G02*
X44983713Y16756826I-771345J-919253D01*
G01*
X43826695Y15377946D01*
G75*
G02*
X42136097Y15230038I-919253J771345D01*
G01*
X42136097Y15230038D01*
G75*
G02*
X41988189Y16920636I771345J919253D01*
G01*
X43145207Y18299516D01*
G75*
G02*
X44835805Y18447424I919253J-771345D01*
G01*
G37*
D22*
X60816000Y16143750D03*
D21*
X60396000Y16143750D03*
X71396000Y16143750D03*
D22*
X70976000Y16143750D03*
D23*
X65896000Y16143750D03*
D24*
X68416000Y20643750D03*
G36*
G01*
X70605903Y17611288D02*
X70605903Y17611288D01*
G75*
G02*
X68915305Y17759196I-771345J919253D01*
G01*
X67758287Y19138076D01*
G75*
G02*
X67906195Y20828674I919253J771345D01*
G01*
X67906195Y20828674D01*
G75*
G02*
X69596793Y20680766I771345J-919253D01*
G01*
X70753811Y19301886D01*
G75*
G02*
X70605903Y17611288I-919253J-771345D01*
G01*
G37*
X63376000Y20643750D03*
G36*
G01*
X63885805Y20828674D02*
X63885805Y20828674D01*
G75*
G02*
X64033713Y19138076I-771345J-919253D01*
G01*
X62876695Y17759196D01*
G75*
G02*
X61186097Y17611288I-919253J771345D01*
G01*
X61186097Y17611288D01*
G75*
G02*
X61038189Y19301886I771345J919253D01*
G01*
X62195207Y20680766D01*
G75*
G02*
X63885805Y20828674I919253J-771345D01*
G01*
G37*
%LPC*%
D25*
X113210000Y88250000D03*
X115750000Y88250000D03*
X118290000Y88250000D03*
X118290000Y94600000D03*
X113210000Y94600000D03*
D26*
X24748000Y96566500D03*
G36*
G01*
X33965801Y98191846D02*
X33965801Y98191846D01*
G75*
G02*
X34614728Y99118611I787846J138919D01*
G01*
X34614728Y99118611D01*
G75*
G02*
X35541493Y98469684I138919J-787846D01*
G01*
X35541493Y98469684D01*
G75*
G02*
X34892566Y97542919I-787846J-138919D01*
G01*
X34892566Y97542919D01*
G75*
G02*
X33965801Y98191846I-138919J787846D01*
G01*
G37*
X55482000Y102027500D03*
D27*
X55482000Y91867500D03*
D28*
X56371000Y61387500D03*
X113521000Y78151500D03*
X107552000Y18461500D03*
X18271000Y75611500D03*
X18271000Y18207500D03*
D29*
X39242000Y99487500D03*
X41242000Y99487500D03*
D17*
X128050000Y98900000D03*
X123450000Y91900000D03*
X123450000Y98900000D03*
X128050000Y91900000D03*
D30*
X125750000Y90300000D03*
X125750000Y97300000D03*
X125750000Y94300000D03*
X121150000Y89200000D03*
X130350000Y89200000D03*
D31*
X20400000Y95000000D03*
D32*
X17860000Y95000000D03*
X15320000Y95000000D03*
D31*
X109800000Y96200000D03*
D32*
X107260000Y96200000D03*
X104720000Y96200000D03*
D20*
X68541000Y105005500D03*
X63461000Y105005500D03*
X63461000Y99925500D03*
X66001000Y99925500D03*
X68541000Y99925500D03*
D28*
X56879000Y25827500D03*
D26*
X17093000Y90343500D03*
D33*
X17093000Y86443500D03*
D27*
X17093000Y80183500D03*
D33*
X17093000Y84043500D03*
D26*
X32876000Y76916500D03*
D34*
X28976000Y76916500D03*
D27*
X22716000Y76916500D03*
D34*
X26576000Y76916500D03*
X45666000Y81545500D03*
D26*
X41766000Y81545500D03*
D27*
X51926000Y81545500D03*
D34*
X48066000Y81545500D03*
X64716000Y64908500D03*
D26*
X60816000Y64908500D03*
D34*
X67116000Y64908500D03*
D27*
X70976000Y64908500D03*
D26*
X79866000Y62622500D03*
D34*
X83766000Y62622500D03*
D27*
X90026000Y62622500D03*
D34*
X86166000Y62622500D03*
X105176000Y79329500D03*
D26*
X109076000Y79329500D03*
D34*
X102776000Y79329500D03*
D27*
X98916000Y79329500D03*
D33*
X114629000Y69552500D03*
D26*
X114629000Y73452500D03*
D33*
X114629000Y67152500D03*
D27*
X114629000Y63292500D03*
D26*
X17093000Y71166500D03*
D33*
X17093000Y67266500D03*
X17093000Y64866500D03*
D27*
X17093000Y61006500D03*
D26*
X32876000Y57866500D03*
D34*
X28976000Y57866500D03*
X26576000Y57866500D03*
D27*
X22716000Y57866500D03*
D26*
X51926000Y62565500D03*
D34*
X48026000Y62565500D03*
X45626000Y62565500D03*
D27*
X41766000Y62565500D03*
D26*
X70976000Y62565500D03*
D34*
X67076000Y62565500D03*
D27*
X60816000Y62565500D03*
D34*
X64676000Y62565500D03*
D26*
X90026000Y60279500D03*
D34*
X86126000Y60279500D03*
X83726000Y60279500D03*
D27*
X79866000Y60279500D03*
D26*
X109076000Y60279500D03*
D34*
X105176000Y60279500D03*
X102776000Y60279500D03*
D27*
X98916000Y60279500D03*
D33*
X114629000Y54566500D03*
D26*
X114629000Y58466500D03*
D33*
X114629000Y52166500D03*
D27*
X114629000Y48306500D03*
D33*
X17093000Y48343500D03*
D26*
X17093000Y52243500D03*
D27*
X17093000Y42083500D03*
D33*
X17093000Y45943500D03*
D34*
X26743000Y38746500D03*
D26*
X22843000Y38746500D03*
D27*
X33003000Y38746500D03*
D34*
X29143000Y38746500D03*
X48026000Y43515500D03*
D26*
X51926000Y43515500D03*
D27*
X41766000Y43515500D03*
D34*
X45626000Y43515500D03*
X67076000Y45928500D03*
D26*
X70976000Y45928500D03*
D27*
X60816000Y45928500D03*
D34*
X64676000Y45928500D03*
D26*
X90026000Y43515500D03*
D34*
X86126000Y43515500D03*
D27*
X79866000Y43515500D03*
D34*
X83726000Y43515500D03*
X105176000Y41102500D03*
D26*
X109076000Y41102500D03*
D34*
X102776000Y41102500D03*
D27*
X98916000Y41102500D03*
D26*
X114699000Y34717500D03*
D33*
X114699000Y38617500D03*
D27*
X114699000Y44877500D03*
D33*
X114699000Y41017500D03*
D26*
X22843000Y36333500D03*
D34*
X26743000Y36333500D03*
D27*
X33003000Y36333500D03*
D34*
X29143000Y36333500D03*
D33*
X17093000Y29801500D03*
D26*
X17093000Y33701500D03*
D33*
X17093000Y27401500D03*
D27*
X17093000Y23541500D03*
D34*
X48026000Y24465500D03*
D26*
X51926000Y24465500D03*
D34*
X45626000Y24465500D03*
D27*
X41766000Y24465500D03*
D26*
X71357000Y26878500D03*
D34*
X67457000Y26878500D03*
D27*
X61197000Y26878500D03*
D34*
X65057000Y26878500D03*
D26*
X109076000Y22814500D03*
D34*
X105176000Y22814500D03*
X102776000Y22814500D03*
D27*
X98916000Y22814500D03*
G36*
X104371065Y-4502426D02*
G01*
X104971065Y-3463196D01*
X106183501Y-4163196D01*
X105583501Y-5202426D01*
X104371065Y-4502426D01*
G37*
D26*
X101899784Y-2382811D03*
G36*
X106449526Y-5702426D02*
G01*
X107049526Y-4663196D01*
X108261962Y-5363196D01*
X107661962Y-6402426D01*
X106449526Y-5702426D01*
G37*
G36*
G01*
X110005782Y-7062811D02*
X110005782Y-7062811D01*
G75*
G02*
X111098602Y-6769991I692820J-400000D01*
G01*
X111098602Y-6769991D01*
G75*
G02*
X111391422Y-7862811I-400000J-692820D01*
G01*
X111391422Y-7862811D01*
G75*
G02*
X110298602Y-8155631I-692820J400000D01*
G01*
X110298602Y-8155631D01*
G75*
G02*
X110005782Y-7062811I400000J692820D01*
G01*
G37*
D34*
X26489000Y19696500D03*
D26*
X22589000Y19696500D03*
D34*
X28889000Y19696500D03*
D27*
X32749000Y19696500D03*
D34*
X26489000Y17283500D03*
D26*
X22589000Y17283500D03*
D27*
X32749000Y17283500D03*
D34*
X28889000Y17283500D03*
D26*
X51926000Y22179500D03*
D34*
X48026000Y22179500D03*
D27*
X41766000Y22179500D03*
D34*
X45626000Y22179500D03*
X67457000Y24465500D03*
D26*
X71357000Y24465500D03*
D27*
X61197000Y24465500D03*
D34*
X65057000Y24465500D03*
D28*
X50148000Y100503500D03*
D18*
X10016000Y80120000D03*
D19*
X7476000Y80120000D03*
D18*
X29066000Y80120000D03*
D19*
X26526000Y80120000D03*
D18*
X48116000Y84882500D03*
D19*
X45576000Y84882500D03*
D18*
X67166000Y87263750D03*
D19*
X64626000Y87263750D03*
D18*
X86216000Y84755500D03*
D19*
X83676000Y84755500D03*
D18*
X105266000Y82501250D03*
D19*
X102726000Y82501250D03*
D18*
X124316000Y72976250D03*
D19*
X121776000Y72976250D03*
D18*
X10016000Y61070000D03*
D19*
X7476000Y61070000D03*
D18*
X29066000Y61070000D03*
D19*
X26526000Y61070000D03*
D18*
X48116000Y65832500D03*
D19*
X45576000Y65832500D03*
D18*
X67166000Y68213750D03*
D19*
X64626000Y68213750D03*
D18*
X86216000Y65832500D03*
D19*
X83676000Y65832500D03*
D18*
X105266000Y63451250D03*
D19*
X102726000Y63451250D03*
D18*
X124316000Y53926250D03*
D19*
X121776000Y53926250D03*
D18*
X10016000Y42020000D03*
D19*
X7476000Y42020000D03*
D18*
X29066000Y42020000D03*
D19*
X26526000Y42020000D03*
D18*
X48116000Y46782500D03*
D19*
X45576000Y46782500D03*
D18*
X67166000Y49163750D03*
D19*
X64626000Y49163750D03*
D18*
X86216000Y46782500D03*
D19*
X83676000Y46782500D03*
D18*
X105266000Y44401250D03*
D19*
X102726000Y44401250D03*
D18*
X124316000Y34876250D03*
D19*
X121776000Y34876250D03*
D18*
X10016000Y22970000D03*
D19*
X7476000Y22970000D03*
D18*
X29066000Y22970000D03*
D19*
X26526000Y22970000D03*
D18*
X48116000Y27732500D03*
D19*
X45576000Y27732500D03*
D18*
X67166000Y30113750D03*
D19*
X64626000Y30113750D03*
D18*
X86216000Y27732500D03*
D19*
X83676000Y27732500D03*
D18*
X105266000Y25351250D03*
D19*
X102726000Y25351250D03*
G36*
X101426048Y6258963D02*
G01*
X99776270Y7211463D01*
X100728770Y8861241D01*
X102378548Y7908741D01*
X101426048Y6258963D01*
G37*
X99807409Y5360398D03*
D18*
X10016000Y3920000D03*
D19*
X7476000Y3920000D03*
D18*
X29066000Y3920000D03*
D19*
X26526000Y3920000D03*
D18*
X48116000Y8682500D03*
D19*
X45576000Y8682500D03*
D18*
X67166000Y11063750D03*
D19*
X64626000Y11063750D03*
D20*
X58276000Y103805500D03*
X58276000Y101265500D03*
X58276000Y98725500D03*
X58276000Y96185500D03*
X58276000Y93645500D03*
X58276000Y91105500D03*
X58276000Y88565500D03*
X58276000Y86025500D03*
X58276000Y83485500D03*
X58276000Y80945500D03*
X58276000Y78405500D03*
X58276000Y75865500D03*
X73516000Y75865500D03*
X73516000Y78405500D03*
X73516000Y80945500D03*
X73516000Y83485500D03*
X73516000Y86025500D03*
X73516000Y88565500D03*
X73516000Y91105500D03*
X73516000Y93645500D03*
X73516000Y96185500D03*
X73516000Y98725500D03*
X73516000Y101265500D03*
X73516000Y103805500D03*
D18*
X72246000Y18842500D03*
D19*
X74786000Y18842500D03*
D35*
X85708000Y11852500D03*
X85708000Y9952500D03*
X83708000Y10902500D03*
D22*
X32876000Y85200000D03*
D23*
X27796000Y85200000D03*
D22*
X22716000Y85200000D03*
D21*
X22296000Y85200000D03*
X33296000Y85200000D03*
G36*
G01*
X23086097Y86667538D02*
X23086097Y86667538D01*
G75*
G02*
X22938189Y88358136I771345J919253D01*
G01*
X24095207Y89737016D01*
G75*
G02*
X25785805Y89884924I919253J-771345D01*
G01*
X25785805Y89884924D01*
G75*
G02*
X25933713Y88194326I-771345J-919253D01*
G01*
X24776695Y86815446D01*
G75*
G02*
X23086097Y86667538I-919253J771345D01*
G01*
G37*
D24*
X25276000Y89700000D03*
X30316000Y89700000D03*
G36*
G01*
X29806195Y89884924D02*
X29806195Y89884924D01*
G75*
G02*
X31496793Y89737016I771345J-919253D01*
G01*
X32653811Y88358136D01*
G75*
G02*
X32505903Y86667538I-919253J-771345D01*
G01*
X32505903Y86667538D01*
G75*
G02*
X30815305Y86815446I-771345J919253D01*
G01*
X29658287Y88194326D01*
G75*
G02*
X29806195Y89884924I919253J771345D01*
G01*
G37*
D21*
X33296000Y66150000D03*
D22*
X22716000Y66150000D03*
D23*
X27796000Y66150000D03*
D22*
X32876000Y66150000D03*
D21*
X22296000Y66150000D03*
D24*
X25276000Y70650000D03*
G36*
G01*
X23086097Y67617538D02*
X23086097Y67617538D01*
G75*
G02*
X22938189Y69308136I771345J919253D01*
G01*
X24095207Y70687016D01*
G75*
G02*
X25785805Y70834924I919253J-771345D01*
G01*
X25785805Y70834924D01*
G75*
G02*
X25933713Y69144326I-771345J-919253D01*
G01*
X24776695Y67765446D01*
G75*
G02*
X23086097Y67617538I-919253J771345D01*
G01*
G37*
X30316000Y70650000D03*
G36*
G01*
X29806195Y70834924D02*
X29806195Y70834924D01*
G75*
G02*
X31496793Y70687016I771345J-919253D01*
G01*
X32653811Y69308136D01*
G75*
G02*
X32505903Y67617538I-919253J-771345D01*
G01*
X32505903Y67617538D01*
G75*
G02*
X30815305Y67765446I-771345J919253D01*
G01*
X29658287Y69144326D01*
G75*
G02*
X29806195Y70834924I919253J771345D01*
G01*
G37*
D21*
X33296000Y47100000D03*
D22*
X32876000Y47100000D03*
X22716000Y47100000D03*
D21*
X22296000Y47100000D03*
D23*
X27796000Y47100000D03*
D24*
X25276000Y51600000D03*
G36*
G01*
X23086097Y48567538D02*
X23086097Y48567538D01*
G75*
G02*
X22938189Y50258136I771345J919253D01*
G01*
X24095207Y51637016D01*
G75*
G02*
X25785805Y51784924I919253J-771345D01*
G01*
X25785805Y51784924D01*
G75*
G02*
X25933713Y50094326I-771345J-919253D01*
G01*
X24776695Y48715446D01*
G75*
G02*
X23086097Y48567538I-919253J771345D01*
G01*
G37*
G36*
G01*
X29806195Y51784924D02*
X29806195Y51784924D01*
G75*
G02*
X31496793Y51637016I771345J-919253D01*
G01*
X32653811Y50258136D01*
G75*
G02*
X32505903Y48567538I-919253J-771345D01*
G01*
X32505903Y48567538D01*
G75*
G02*
X30815305Y48715446I-771345J919253D01*
G01*
X29658287Y50094326D01*
G75*
G02*
X29806195Y51784924I919253J771345D01*
G01*
G37*
X30316000Y51600000D03*
D22*
X32876000Y28050000D03*
D21*
X33296000Y28050000D03*
X22296000Y28050000D03*
D23*
X27796000Y28050000D03*
D22*
X22716000Y28050000D03*
G36*
G01*
X23086097Y29517538D02*
X23086097Y29517538D01*
G75*
G02*
X22938189Y31208136I771345J919253D01*
G01*
X24095207Y32587016D01*
G75*
G02*
X25785805Y32734924I919253J-771345D01*
G01*
X25785805Y32734924D01*
G75*
G02*
X25933713Y31044326I-771345J-919253D01*
G01*
X24776695Y29665446D01*
G75*
G02*
X23086097Y29517538I-919253J771345D01*
G01*
G37*
D24*
X25276000Y32550000D03*
X30316000Y32550000D03*
G36*
G01*
X29806195Y32734924D02*
X29806195Y32734924D01*
G75*
G02*
X31496793Y32587016I771345J-919253D01*
G01*
X32653811Y31208136D01*
G75*
G02*
X32505903Y29517538I-919253J-771345D01*
G01*
X32505903Y29517538D01*
G75*
G02*
X30815305Y29665446I-771345J919253D01*
G01*
X29658287Y31044326D01*
G75*
G02*
X29806195Y32734924I919253J771345D01*
G01*
G37*
D22*
X41766000Y32812500D03*
D21*
X52346000Y32812500D03*
D23*
X46846000Y32812500D03*
D21*
X41346000Y32812500D03*
D22*
X51926000Y32812500D03*
G36*
G01*
X42136097Y34280038D02*
X42136097Y34280038D01*
G75*
G02*
X41988189Y35970636I771345J919253D01*
G01*
X43145207Y37349516D01*
G75*
G02*
X44835805Y37497424I919253J-771345D01*
G01*
X44835805Y37497424D01*
G75*
G02*
X44983713Y35806826I-771345J-919253D01*
G01*
X43826695Y34427946D01*
G75*
G02*
X42136097Y34280038I-919253J771345D01*
G01*
G37*
D24*
X44326000Y37312500D03*
X49366000Y37312500D03*
G36*
G01*
X48856195Y37497424D02*
X48856195Y37497424D01*
G75*
G02*
X50546793Y37349516I771345J-919253D01*
G01*
X51703811Y35970636D01*
G75*
G02*
X51555903Y34280038I-919253J-771345D01*
G01*
X51555903Y34280038D01*
G75*
G02*
X49865305Y34427946I-771345J919253D01*
G01*
X48708287Y35806826D01*
G75*
G02*
X48856195Y37497424I919253J771345D01*
G01*
G37*
D23*
X65896000Y92343750D03*
D21*
X71396000Y92343750D03*
D22*
X70976000Y92343750D03*
D21*
X60396000Y92343750D03*
D22*
X60816000Y92343750D03*
D24*
X63376000Y96843750D03*
G36*
G01*
X61186097Y93811288D02*
X61186097Y93811288D01*
G75*
G02*
X61038189Y95501886I771345J919253D01*
G01*
X62195207Y96880766D01*
G75*
G02*
X63885805Y97028674I919253J-771345D01*
G01*
X63885805Y97028674D01*
G75*
G02*
X64033713Y95338076I-771345J-919253D01*
G01*
X62876695Y93959196D01*
G75*
G02*
X61186097Y93811288I-919253J771345D01*
G01*
G37*
X68416000Y96843750D03*
G36*
G01*
X67906195Y97028674D02*
X67906195Y97028674D01*
G75*
G02*
X69596793Y96880766I771345J-919253D01*
G01*
X70753811Y95501886D01*
G75*
G02*
X70605903Y93811288I-919253J-771345D01*
G01*
X70605903Y93811288D01*
G75*
G02*
X68915305Y93959196I-771345J919253D01*
G01*
X67758287Y95338076D01*
G75*
G02*
X67906195Y97028674I919253J771345D01*
G01*
G37*
D22*
X60816000Y73293750D03*
D21*
X60396000Y73293750D03*
D22*
X70976000Y73293750D03*
D21*
X71396000Y73293750D03*
D23*
X65896000Y73293750D03*
G36*
G01*
X61186097Y74761288D02*
X61186097Y74761288D01*
G75*
G02*
X61038189Y76451886I771345J919253D01*
G01*
X62195207Y77830766D01*
G75*
G02*
X63885805Y77978674I919253J-771345D01*
G01*
X63885805Y77978674D01*
G75*
G02*
X64033713Y76288076I-771345J-919253D01*
G01*
X62876695Y74909196D01*
G75*
G02*
X61186097Y74761288I-919253J771345D01*
G01*
G37*
D24*
X63376000Y77793750D03*
G36*
G01*
X67906195Y77978674D02*
X67906195Y77978674D01*
G75*
G02*
X69596793Y77830766I771345J-919253D01*
G01*
X70753811Y76451886D01*
G75*
G02*
X70605903Y74761288I-919253J-771345D01*
G01*
X70605903Y74761288D01*
G75*
G02*
X68915305Y74909196I-771345J919253D01*
G01*
X67758287Y76288076D01*
G75*
G02*
X67906195Y77978674I919253J771345D01*
G01*
G37*
X68416000Y77793750D03*
D22*
X60816000Y54243750D03*
D21*
X71396000Y54243750D03*
D23*
X65896000Y54243750D03*
D21*
X60396000Y54243750D03*
D22*
X70976000Y54243750D03*
D24*
X63376000Y58743750D03*
G36*
G01*
X61186097Y55711288D02*
X61186097Y55711288D01*
G75*
G02*
X61038189Y57401886I771345J919253D01*
G01*
X62195207Y58780766D01*
G75*
G02*
X63885805Y58928674I919253J-771345D01*
G01*
X63885805Y58928674D01*
G75*
G02*
X64033713Y57238076I-771345J-919253D01*
G01*
X62876695Y55859196D01*
G75*
G02*
X61186097Y55711288I-919253J771345D01*
G01*
G37*
G36*
G01*
X67906195Y58928674D02*
X67906195Y58928674D01*
G75*
G02*
X69596793Y58780766I771345J-919253D01*
G01*
X70753811Y57401886D01*
G75*
G02*
X70605903Y55711288I-919253J-771345D01*
G01*
X70605903Y55711288D01*
G75*
G02*
X68915305Y55859196I-771345J919253D01*
G01*
X67758287Y57238076D01*
G75*
G02*
X67906195Y58928674I919253J771345D01*
G01*
G37*
X68416000Y58743750D03*
D22*
X60816000Y35193750D03*
X70976000Y35193750D03*
D21*
X60396000Y35193750D03*
D23*
X65896000Y35193750D03*
D21*
X71396000Y35193750D03*
G36*
G01*
X61186097Y36661288D02*
X61186097Y36661288D01*
G75*
G02*
X61038189Y38351886I771345J919253D01*
G01*
X62195207Y39730766D01*
G75*
G02*
X63885805Y39878674I919253J-771345D01*
G01*
X63885805Y39878674D01*
G75*
G02*
X64033713Y38188076I-771345J-919253D01*
G01*
X62876695Y36809196D01*
G75*
G02*
X61186097Y36661288I-919253J771345D01*
G01*
G37*
D24*
X63376000Y39693750D03*
G36*
G01*
X67906195Y39878674D02*
X67906195Y39878674D01*
G75*
G02*
X69596793Y39730766I771345J-919253D01*
G01*
X70753811Y38351886D01*
G75*
G02*
X70605903Y36661288I-919253J-771345D01*
G01*
X70605903Y36661288D01*
G75*
G02*
X68915305Y36809196I-771345J919253D01*
G01*
X67758287Y38188076D01*
G75*
G02*
X67906195Y39878674I919253J771345D01*
G01*
G37*
X68416000Y39693750D03*
D22*
X90026000Y89962500D03*
D23*
X84946000Y89962500D03*
D22*
X79866000Y89962500D03*
D21*
X90446000Y89962500D03*
X79446000Y89962500D03*
D24*
X82426000Y94462500D03*
G36*
G01*
X80236097Y91430038D02*
X80236097Y91430038D01*
G75*
G02*
X80088189Y93120636I771345J919253D01*
G01*
X81245207Y94499516D01*
G75*
G02*
X82935805Y94647424I919253J-771345D01*
G01*
X82935805Y94647424D01*
G75*
G02*
X83083713Y92956826I-771345J-919253D01*
G01*
X81926695Y91577946D01*
G75*
G02*
X80236097Y91430038I-919253J771345D01*
G01*
G37*
X87466000Y94462500D03*
G36*
G01*
X86956195Y94647424D02*
X86956195Y94647424D01*
G75*
G02*
X88646793Y94499516I771345J-919253D01*
G01*
X89803811Y93120636D01*
G75*
G02*
X89655903Y91430038I-919253J-771345D01*
G01*
X89655903Y91430038D01*
G75*
G02*
X87965305Y91577946I-771345J919253D01*
G01*
X86808287Y92956826D01*
G75*
G02*
X86956195Y94647424I919253J771345D01*
G01*
G37*
D22*
X79866000Y70912500D03*
D21*
X79446000Y70912500D03*
X90446000Y70912500D03*
D22*
X90026000Y70912500D03*
D23*
X84946000Y70912500D03*
G36*
G01*
X80236097Y72380038D02*
X80236097Y72380038D01*
G75*
G02*
X80088189Y74070636I771345J919253D01*
G01*
X81245207Y75449516D01*
G75*
G02*
X82935805Y75597424I919253J-771345D01*
G01*
X82935805Y75597424D01*
G75*
G02*
X83083713Y73906826I-771345J-919253D01*
G01*
X81926695Y72527946D01*
G75*
G02*
X80236097Y72380038I-919253J771345D01*
G01*
G37*
D24*
X82426000Y75412500D03*
G36*
G01*
X86956195Y75597424D02*
X86956195Y75597424D01*
G75*
G02*
X88646793Y75449516I771345J-919253D01*
G01*
X89803811Y74070636D01*
G75*
G02*
X89655903Y72380038I-919253J-771345D01*
G01*
X89655903Y72380038D01*
G75*
G02*
X87965305Y72527946I-771345J919253D01*
G01*
X86808287Y73906826D01*
G75*
G02*
X86956195Y75597424I919253J771345D01*
G01*
G37*
X87466000Y75412500D03*
D22*
X79866000Y51862500D03*
X90026000Y51862500D03*
D21*
X90446000Y51862500D03*
D23*
X84946000Y51862500D03*
D21*
X79446000Y51862500D03*
G36*
G01*
X80236097Y53330038D02*
X80236097Y53330038D01*
G75*
G02*
X80088189Y55020636I771345J919253D01*
G01*
X81245207Y56399516D01*
G75*
G02*
X82935805Y56547424I919253J-771345D01*
G01*
X82935805Y56547424D01*
G75*
G02*
X83083713Y54856826I-771345J-919253D01*
G01*
X81926695Y53477946D01*
G75*
G02*
X80236097Y53330038I-919253J771345D01*
G01*
G37*
D24*
X82426000Y56362500D03*
G36*
G01*
X86956195Y56547424D02*
X86956195Y56547424D01*
G75*
G02*
X88646793Y56399516I771345J-919253D01*
G01*
X89803811Y55020636D01*
G75*
G02*
X89655903Y53330038I-919253J-771345D01*
G01*
X89655903Y53330038D01*
G75*
G02*
X87965305Y53477946I-771345J919253D01*
G01*
X86808287Y54856826D01*
G75*
G02*
X86956195Y56547424I919253J771345D01*
G01*
G37*
X87466000Y56362500D03*
D23*
X84946000Y32812500D03*
D22*
X90026000Y32812500D03*
D21*
X90446000Y32812500D03*
D22*
X79866000Y32812500D03*
D21*
X79446000Y32812500D03*
G36*
G01*
X80236097Y34280038D02*
X80236097Y34280038D01*
G75*
G02*
X80088189Y35970636I771345J919253D01*
G01*
X81245207Y37349516D01*
G75*
G02*
X82935805Y37497424I919253J-771345D01*
G01*
X82935805Y37497424D01*
G75*
G02*
X83083713Y35806826I-771345J-919253D01*
G01*
X81926695Y34427946D01*
G75*
G02*
X80236097Y34280038I-919253J771345D01*
G01*
G37*
D24*
X82426000Y37312500D03*
X87466000Y37312500D03*
G36*
G01*
X86956195Y37497424D02*
X86956195Y37497424D01*
G75*
G02*
X88646793Y37349516I771345J-919253D01*
G01*
X89803811Y35970636D01*
G75*
G02*
X89655903Y34280038I-919253J-771345D01*
G01*
X89655903Y34280038D01*
G75*
G02*
X87965305Y34427946I-771345J919253D01*
G01*
X86808287Y35806826D01*
G75*
G02*
X86956195Y37497424I919253J771345D01*
G01*
G37*
D21*
X98496000Y87581250D03*
D22*
X109076000Y87581250D03*
D23*
X103996000Y87581250D03*
D21*
X109496000Y87581250D03*
D22*
X98916000Y87581250D03*
D24*
X101476000Y92081250D03*
G36*
G01*
X99286097Y89048788D02*
X99286097Y89048788D01*
G75*
G02*
X99138189Y90739386I771345J919253D01*
G01*
X100295207Y92118266D01*
G75*
G02*
X101985805Y92266174I919253J-771345D01*
G01*
X101985805Y92266174D01*
G75*
G02*
X102133713Y90575576I-771345J-919253D01*
G01*
X100976695Y89196696D01*
G75*
G02*
X99286097Y89048788I-919253J771345D01*
G01*
G37*
X106516000Y92081250D03*
G36*
G01*
X106006195Y92266174D02*
X106006195Y92266174D01*
G75*
G02*
X107696793Y92118266I771345J-919253D01*
G01*
X108853811Y90739386D01*
G75*
G02*
X108705903Y89048788I-919253J-771345D01*
G01*
X108705903Y89048788D01*
G75*
G02*
X107015305Y89196696I-771345J919253D01*
G01*
X105858287Y90575576D01*
G75*
G02*
X106006195Y92266174I919253J771345D01*
G01*
G37*
D23*
X123046000Y78056250D03*
D21*
X128546000Y78056250D03*
D22*
X117966000Y78056250D03*
X128126000Y78056250D03*
D21*
X117546000Y78056250D03*
D24*
X120526000Y82556250D03*
G36*
G01*
X118336097Y79523788D02*
X118336097Y79523788D01*
G75*
G02*
X118188189Y81214386I771345J919253D01*
G01*
X119345207Y82593266D01*
G75*
G02*
X121035805Y82741174I919253J-771345D01*
G01*
X121035805Y82741174D01*
G75*
G02*
X121183713Y81050576I-771345J-919253D01*
G01*
X120026695Y79671696D01*
G75*
G02*
X118336097Y79523788I-919253J771345D01*
G01*
G37*
X125566000Y82556250D03*
G36*
G01*
X125056195Y82741174D02*
X125056195Y82741174D01*
G75*
G02*
X126746793Y82593266I771345J-919253D01*
G01*
X127903811Y81214386D01*
G75*
G02*
X127755903Y79523788I-919253J-771345D01*
G01*
X127755903Y79523788D01*
G75*
G02*
X126065305Y79671696I-771345J919253D01*
G01*
X124908287Y81050576D01*
G75*
G02*
X125056195Y82741174I919253J771345D01*
G01*
G37*
D22*
X128126000Y59006250D03*
D21*
X128546000Y59006250D03*
D23*
X123046000Y59006250D03*
D22*
X117966000Y59006250D03*
D21*
X117546000Y59006250D03*
D24*
X120526000Y63506250D03*
G36*
G01*
X118336097Y60473788D02*
X118336097Y60473788D01*
G75*
G02*
X118188189Y62164386I771345J919253D01*
G01*
X119345207Y63543266D01*
G75*
G02*
X121035805Y63691174I919253J-771345D01*
G01*
X121035805Y63691174D01*
G75*
G02*
X121183713Y62000576I-771345J-919253D01*
G01*
X120026695Y60621696D01*
G75*
G02*
X118336097Y60473788I-919253J771345D01*
G01*
G37*
X125566000Y63506250D03*
G36*
G01*
X125056195Y63691174D02*
X125056195Y63691174D01*
G75*
G02*
X126746793Y63543266I771345J-919253D01*
G01*
X127903811Y62164386D01*
G75*
G02*
X127755903Y60473788I-919253J-771345D01*
G01*
X127755903Y60473788D01*
G75*
G02*
X126065305Y60621696I-771345J919253D01*
G01*
X124908287Y62000576D01*
G75*
G02*
X125056195Y63691174I919253J771345D01*
G01*
G37*
D21*
X128546000Y39956250D03*
D22*
X128126000Y39956250D03*
D21*
X117546000Y39956250D03*
D23*
X123046000Y39956250D03*
D22*
X117966000Y39956250D03*
G36*
G01*
X118336097Y41423788D02*
X118336097Y41423788D01*
G75*
G02*
X118188189Y43114386I771345J919253D01*
G01*
X119345207Y44493266D01*
G75*
G02*
X121035805Y44641174I919253J-771345D01*
G01*
X121035805Y44641174D01*
G75*
G02*
X121183713Y42950576I-771345J-919253D01*
G01*
X120026695Y41571696D01*
G75*
G02*
X118336097Y41423788I-919253J771345D01*
G01*
G37*
D24*
X120526000Y44456250D03*
G36*
G01*
X125056195Y44641174D02*
X125056195Y44641174D01*
G75*
G02*
X126746793Y44493266I771345J-919253D01*
G01*
X127903811Y43114386D01*
G75*
G02*
X127755903Y41423788I-919253J-771345D01*
G01*
X127755903Y41423788D01*
G75*
G02*
X126065305Y41571696I-771345J919253D01*
G01*
X124908287Y42950576D01*
G75*
G02*
X125056195Y44641174I919253J771345D01*
G01*
G37*
X125566000Y44456250D03*
D21*
X124816000Y20736340D03*
X119316000Y11210060D03*
D23*
X122066000Y15973200D03*
D22*
X119526000Y11573791D03*
X124606000Y20372609D03*
G36*
G01*
X127349080Y17160763D02*
X128247148Y16642263D01*
G75*
G02*
X128668077Y15071334I-575000J-995929D01*
G01*
X128668077Y15071334D01*
G75*
G02*
X127097148Y14650405I-995929J575000D01*
G01*
X126199080Y15168905D01*
G75*
G02*
X125778151Y16739834I575000J995929D01*
G01*
X125778151Y16739834D01*
G75*
G02*
X127349080Y17160763I995929J-575000D01*
G01*
G37*
G36*
G01*
X125691877Y19318326D02*
X125691877Y19318326D01*
G75*
G02*
X127229932Y18601119I410424J-1127631D01*
G01*
X127845568Y16909673D01*
G75*
G02*
X127128361Y15371618I-1127631J-410424D01*
G01*
X127128361Y15371618D01*
G75*
G02*
X125590306Y16088825I-410424J1127631D01*
G01*
X124974670Y17780271D01*
G75*
G02*
X125691877Y19318326I1127631J410424D01*
G01*
G37*
G36*
G01*
X125118166Y11889858D02*
X125118166Y11889858D01*
G75*
G02*
X124144775Y10499711I-1181769J-208378D01*
G01*
X122372121Y10187145D01*
G75*
G02*
X120981974Y11160536I-208378J1181769D01*
G01*
X120981974Y11160536D01*
G75*
G02*
X121955365Y12550683I1181769J208378D01*
G01*
X123728019Y12863249D01*
G75*
G02*
X125118166Y11889858I208378J-1181769D01*
G01*
G37*
G36*
G01*
X124829080Y12795995D02*
X125727148Y12277495D01*
G75*
G02*
X126148077Y10706566I-575000J-995929D01*
G01*
X126148077Y10706566D01*
G75*
G02*
X124577148Y10285637I-995929J575000D01*
G01*
X123679080Y10804137D01*
G75*
G02*
X123258151Y12375066I575000J995929D01*
G01*
X123258151Y12375066D01*
G75*
G02*
X124829080Y12795995I995929J-575000D01*
G01*
G37*
D21*
X22296000Y9000000D03*
D23*
X27796000Y9000000D03*
D22*
X22716000Y9000000D03*
D21*
X33296000Y9000000D03*
D22*
X32876000Y9000000D03*
G36*
G01*
X23086097Y10467538D02*
X23086097Y10467538D01*
G75*
G02*
X22938189Y12158136I771345J919253D01*
G01*
X24095207Y13537016D01*
G75*
G02*
X25785805Y13684924I919253J-771345D01*
G01*
X25785805Y13684924D01*
G75*
G02*
X25933713Y11994326I-771345J-919253D01*
G01*
X24776695Y10615446D01*
G75*
G02*
X23086097Y10467538I-919253J771345D01*
G01*
G37*
D24*
X25276000Y13500000D03*
G36*
G01*
X29806195Y13684924D02*
X29806195Y13684924D01*
G75*
G02*
X31496793Y13537016I771345J-919253D01*
G01*
X32653811Y12158136D01*
G75*
G02*
X32505903Y10467538I-919253J-771345D01*
G01*
X32505903Y10467538D01*
G75*
G02*
X30815305Y10615446I-771345J919253D01*
G01*
X29658287Y11994326D01*
G75*
G02*
X29806195Y13684924I919253J771345D01*
G01*
G37*
X30316000Y13500000D03*
D22*
X98583000Y13399659D03*
X93503000Y4600841D03*
D23*
X96043000Y9000250D03*
D21*
X93293000Y4237110D03*
X98793000Y13763390D03*
G36*
G01*
X90759920Y7812687D02*
X89861852Y8331187D01*
G75*
G02*
X89440923Y9902116I575000J995929D01*
G01*
X89440923Y9902116D01*
G75*
G02*
X91011852Y10323045I995929J-575000D01*
G01*
X91909920Y9804545D01*
G75*
G02*
X92330849Y8233616I-575000J-995929D01*
G01*
X92330849Y8233616D01*
G75*
G02*
X90759920Y7812687I-995929J575000D01*
G01*
G37*
G36*
G01*
X92417123Y5655124D02*
X92417123Y5655124D01*
G75*
G02*
X90879068Y6372331I-410424J1127631D01*
G01*
X90263432Y8063777D01*
G75*
G02*
X90980639Y9601832I1127631J410424D01*
G01*
X90980639Y9601832D01*
G75*
G02*
X92518694Y8884625I410424J-1127631D01*
G01*
X93134330Y7193179D01*
G75*
G02*
X92417123Y5655124I-1127631J-410424D01*
G01*
G37*
G36*
G01*
X92990834Y13083592D02*
X92990834Y13083592D01*
G75*
G02*
X93964225Y14473739I1181769J208378D01*
G01*
X95736879Y14786305D01*
G75*
G02*
X97127026Y13812914I208378J-1181769D01*
G01*
X97127026Y13812914D01*
G75*
G02*
X96153635Y12422767I-1181769J-208378D01*
G01*
X94380981Y12110201D01*
G75*
G02*
X92990834Y13083592I-208378J1181769D01*
G01*
G37*
G36*
G01*
X93279920Y12177455D02*
X92381852Y12695955D01*
G75*
G02*
X91960923Y14266884I575000J995929D01*
G01*
X91960923Y14266884D01*
G75*
G02*
X93531852Y14687813I995929J-575000D01*
G01*
X94429920Y14169313D01*
G75*
G02*
X94850849Y12598384I-575000J-995929D01*
G01*
X94850849Y12598384D01*
G75*
G02*
X93279920Y12177455I-995929J575000D01*
G01*
G37*
D23*
X112541000Y-524800D03*
D21*
X115291000Y4238340D03*
X109791000Y-5287940D03*
D22*
X110001000Y-4924209D03*
X115081000Y3874609D03*
G36*
G01*
X116166877Y2820326D02*
X116166877Y2820326D01*
G75*
G02*
X117704932Y2103119I410424J-1127631D01*
G01*
X118320568Y411673D01*
G75*
G02*
X117603361Y-1126382I-1127631J-410424D01*
G01*
X117603361Y-1126382D01*
G75*
G02*
X116065306Y-409175I-410424J1127631D01*
G01*
X115449670Y1282271D01*
G75*
G02*
X116166877Y2820326I1127631J410424D01*
G01*
G37*
G36*
G01*
X117824080Y662763D02*
X118722148Y144263D01*
G75*
G02*
X119143077Y-1426666I-575000J-995929D01*
G01*
X119143077Y-1426666D01*
G75*
G02*
X117572148Y-1847595I-995929J575000D01*
G01*
X116674080Y-1329095D01*
G75*
G02*
X116253151Y241834I575000J995929D01*
G01*
X116253151Y241834D01*
G75*
G02*
X117824080Y662763I995929J-575000D01*
G01*
G37*
G36*
G01*
X115593166Y-4608142D02*
X115593166Y-4608142D01*
G75*
G02*
X114619775Y-5998289I-1181769J-208378D01*
G01*
X112847121Y-6310855D01*
G75*
G02*
X111456974Y-5337464I-208378J1181769D01*
G01*
X111456974Y-5337464D01*
G75*
G02*
X112430365Y-3947317I1181769J208378D01*
G01*
X114203019Y-3634751D01*
G75*
G02*
X115593166Y-4608142I208378J-1181769D01*
G01*
G37*
G36*
G01*
X115304080Y-3702005D02*
X116202148Y-4220505D01*
G75*
G02*
X116623077Y-5791434I-575000J-995929D01*
G01*
X116623077Y-5791434D01*
G75*
G02*
X115052148Y-6212363I-995929J575000D01*
G01*
X114154080Y-5693863D01*
G75*
G02*
X113733151Y-4122934I575000J995929D01*
G01*
X113733151Y-4122934D01*
G75*
G02*
X115304080Y-3702005I995929J-575000D01*
G01*
G37*
D23*
X73516000Y13762500D03*
D22*
X68436000Y13762500D03*
X78596000Y13762500D03*
D21*
X79016000Y13762500D03*
X68016000Y13762500D03*
G36*
G01*
X78225903Y12294962D02*
X78225903Y12294962D01*
G75*
G02*
X78373811Y10604364I-771345J-919253D01*
G01*
X77216793Y9225484D01*
G75*
G02*
X75526195Y9077576I-919253J771345D01*
G01*
X75526195Y9077576D01*
G75*
G02*
X75378287Y10768174I771345J919253D01*
G01*
X76535305Y12147054D01*
G75*
G02*
X78225903Y12294962I919253J-771345D01*
G01*
G37*
D24*
X76036000Y9262500D03*
X70996000Y9262500D03*
G36*
G01*
X71505805Y9077576D02*
X71505805Y9077576D01*
G75*
G02*
X69815207Y9225484I-771345J919253D01*
G01*
X68658189Y10604364D01*
G75*
G02*
X68806097Y12294962I919253J771345D01*
G01*
X68806097Y12294962D01*
G75*
G02*
X70496695Y12147054I771345J-919253D01*
G01*
X71653713Y10768174D01*
G75*
G02*
X71505805Y9077576I-919253J-771345D01*
G01*
G37*
G36*
X116682952Y18714487D02*
G01*
X118332730Y17761987D01*
X117380230Y16112209D01*
X115730452Y17064709D01*
X116682952Y18714487D01*
G37*
D19*
X118301591Y19613052D03*
G36*
X107157952Y2216487D02*
G01*
X108807730Y1263987D01*
X107855230Y-385791D01*
X106205452Y566709D01*
X107157952Y2216487D01*
G37*
X108776591Y3115052D03*
D26*
X111743000Y31761500D03*
D34*
X115643000Y31761500D03*
D27*
X121903000Y31761500D03*
D34*
X118043000Y31761500D03*
D26*
X111743000Y29475500D03*
D34*
X115643000Y29475500D03*
D27*
X121903000Y29475500D03*
D34*
X118043000Y29475500D03*
D36*
X19414000Y83633500D03*
D37*
X19414000Y80183500D03*
D27*
X19414000Y90343500D03*
D36*
X19414000Y86893500D03*
X19414000Y64456500D03*
D37*
X19414000Y61006500D03*
D27*
X19414000Y71166500D03*
D36*
X19414000Y67716500D03*
X19414000Y45533500D03*
D37*
X19414000Y42083500D03*
D27*
X19414000Y52243500D03*
D36*
X19414000Y48793500D03*
D37*
X36178000Y23054500D03*
D36*
X36178000Y26504500D03*
D27*
X36178000Y33214500D03*
D36*
X36178000Y29764500D03*
X36178000Y83633500D03*
D37*
X36178000Y80183500D03*
D27*
X36178000Y90343500D03*
D36*
X36178000Y86893500D03*
X36178000Y64456500D03*
D37*
X36178000Y61006500D03*
D36*
X36178000Y67716500D03*
D27*
X36178000Y71166500D03*
D37*
X36178000Y42083500D03*
D36*
X36178000Y45533500D03*
X36178000Y48793500D03*
D27*
X36178000Y52243500D03*
D36*
X38464000Y26483500D03*
D37*
X38464000Y23033500D03*
D36*
X38464000Y29743500D03*
D27*
X38464000Y33193500D03*
D36*
X38464000Y83633500D03*
D37*
X38464000Y80183500D03*
D27*
X38464000Y90343500D03*
D36*
X38464000Y86893500D03*
D37*
X38337000Y61006500D03*
D36*
X38337000Y64456500D03*
D27*
X38337000Y71166500D03*
D36*
X38337000Y67716500D03*
D37*
X38464000Y42083500D03*
D36*
X38464000Y45533500D03*
X38464000Y48793500D03*
D27*
X38464000Y52243500D03*
D36*
X55228000Y33976500D03*
D37*
X55228000Y30526500D03*
D27*
X55228000Y40686500D03*
D36*
X55228000Y37236500D03*
D37*
X55228000Y65832500D03*
D36*
X55228000Y69282500D03*
X55228000Y72542500D03*
D27*
X55228000Y75992500D03*
D36*
X74278000Y65853500D03*
D37*
X74278000Y62403500D03*
D36*
X74278000Y69113500D03*
D27*
X74278000Y72563500D03*
D36*
X57768000Y33997500D03*
D37*
X57768000Y30547500D03*
D36*
X57768000Y37257500D03*
D27*
X57768000Y40707500D03*
D36*
X95360000Y85538500D03*
D37*
X95360000Y82088500D03*
D36*
X95360000Y88798500D03*
D27*
X95360000Y92248500D03*
D37*
X74278000Y46041500D03*
D36*
X74278000Y49491500D03*
D27*
X74278000Y56201500D03*
D36*
X74278000Y52751500D03*
X93328000Y28769500D03*
D37*
X93328000Y25319500D03*
D27*
X93328000Y35479500D03*
D36*
X93328000Y32029500D03*
X95614000Y64075500D03*
D37*
X95614000Y60625500D03*
D27*
X95614000Y70785500D03*
D36*
X95614000Y67335500D03*
X93328000Y64054500D03*
D37*
X93328000Y60604500D03*
D36*
X93328000Y67314500D03*
D27*
X93328000Y70764500D03*
D36*
X95741000Y48073500D03*
D37*
X95741000Y44623500D03*
D27*
X95741000Y54783500D03*
D36*
X95741000Y51333500D03*
D37*
X95614000Y25319500D03*
D36*
X95614000Y28769500D03*
X95614000Y32029500D03*
D27*
X95614000Y35479500D03*
D36*
X112378000Y66742500D03*
D37*
X112378000Y63292500D03*
D27*
X112378000Y73452500D03*
D36*
X112378000Y70002500D03*
X112378000Y51756500D03*
D37*
X112378000Y48306500D03*
D36*
X112378000Y55016500D03*
D27*
X112378000Y58466500D03*
D37*
X112378000Y34717500D03*
D36*
X112378000Y38167500D03*
D27*
X112378000Y44877500D03*
D36*
X112378000Y41427500D03*
D37*
X112378000Y16577500D03*
D36*
X112378000Y20027500D03*
X112378000Y23287500D03*
D27*
X112378000Y26737500D03*
D36*
X19414000Y26991500D03*
D37*
X19414000Y23541500D03*
D27*
X19414000Y33701500D03*
D36*
X19414000Y30251500D03*
D37*
X36178000Y8555500D03*
D36*
X36178000Y12005500D03*
X36178000Y15265500D03*
D27*
X36178000Y18715500D03*
D36*
X38464000Y12005500D03*
D37*
X38464000Y8555500D03*
D27*
X38464000Y18715500D03*
D36*
X38464000Y15265500D03*
G36*
X106073850Y13494320D02*
G01*
X105273850Y12108680D01*
X103888210Y12908680D01*
X104688210Y14294320D01*
X106073850Y13494320D01*
G37*
G36*
X102986062Y15046115D02*
G01*
X102386062Y14006885D01*
X101000422Y14806885D01*
X101600422Y15846115D01*
X102986062Y15046115D01*
G37*
G36*
G01*
X96875032Y17881500D02*
X96875032Y17881500D01*
G75*
G02*
X95782212Y17588680I-692820J400000D01*
G01*
X95782212Y17588680D01*
G75*
G02*
X95489392Y18681500I400000J692820D01*
G01*
X95489392Y18681500D01*
G75*
G02*
X96582212Y18974320I692820J-400000D01*
G01*
X96582212Y18974320D01*
G75*
G02*
X96875032Y17881500I-400000J-692820D01*
G01*
G37*
G36*
X100162820Y16676115D02*
G01*
X99562820Y15636885D01*
X98177180Y16436885D01*
X98777180Y17476115D01*
X100162820Y16676115D01*
G37*
G36*
X100859820Y-411320D02*
G01*
X99474180Y388680D01*
X100274180Y1774320D01*
X101659820Y974320D01*
X100859820Y-411320D01*
G37*
G36*
X102411615Y2676468D02*
G01*
X101372385Y3276468D01*
X102172385Y4662108D01*
X103211615Y4062108D01*
X102411615Y2676468D01*
G37*
G36*
X104041615Y5499710D02*
G01*
X103002385Y6099710D01*
X103802385Y7485350D01*
X104841615Y6885350D01*
X104041615Y5499710D01*
G37*
G36*
G01*
X105247000Y8787498D02*
X105247000Y8787498D01*
G75*
G02*
X104954180Y9880318I400000J692820D01*
G01*
X104954180Y9880318D01*
G75*
G02*
X106047000Y10173138I692820J-400000D01*
G01*
X106047000Y10173138D01*
G75*
G02*
X106339820Y9080318I-400000J-692820D01*
G01*
X106339820Y9080318D01*
G75*
G02*
X105247000Y8787498I-692820J400000D01*
G01*
G37*
D34*
X83766000Y40905500D03*
D26*
X79866000Y40905500D03*
D27*
X90026000Y40905500D03*
D34*
X86166000Y40905500D03*
D26*
X74116000Y33087500D03*
D33*
X74116000Y29187500D03*
X74116000Y26787500D03*
D27*
X74116000Y22927500D03*
D29*
X32781000Y96016500D03*
X34781000Y96016500D03*
X36781000Y96016500D03*
X32781000Y93857500D03*
X34781000Y93857500D03*
X36781000Y93857500D03*
D36*
X55228000Y14185500D03*
D37*
X55228000Y10735500D03*
D36*
X55228000Y17445500D03*
D27*
X55228000Y20895500D03*
D36*
X55228000Y49957500D03*
D37*
X55228000Y46507500D03*
D36*
X55228000Y53217500D03*
D27*
X55228000Y56667500D03*
D37*
X93328000Y44602500D03*
D36*
X93328000Y48052500D03*
D27*
X93328000Y54762500D03*
D36*
X93328000Y51312500D03*
G36*
X124155911Y-6363051D02*
G01*
X122836089Y-5601051D01*
X123598089Y-4281229D01*
X124917911Y-5043229D01*
X124155911Y-6363051D01*
G37*
G36*
X125155911Y-4631000D02*
G01*
X123836089Y-3869000D01*
X124598089Y-2549178D01*
X125917911Y-3311178D01*
X125155911Y-4631000D01*
G37*
G36*
X126155911Y-2898949D02*
G01*
X124836089Y-2136949D01*
X125598089Y-817127D01*
X126917911Y-1579127D01*
X126155911Y-2898949D01*
G37*
G36*
G01*
X121397935Y-13625807D02*
X121397935Y-13625807D01*
G75*
G02*
X120995307Y-12123179I550000J952628D01*
G01*
X121145307Y-11863371D01*
G75*
G02*
X122647935Y-11460743I952628J-550000D01*
G01*
X122647935Y-11460743D01*
G75*
G02*
X123050563Y-12963371I-550000J-952628D01*
G01*
X122900563Y-13223179D01*
G75*
G02*
X121397935Y-13625807I-952628J550000D01*
G01*
G37*
G36*
G01*
X129192163Y-18125807D02*
X129192163Y-18125807D01*
G75*
G02*
X128789535Y-16623179I550000J952628D01*
G01*
X128939535Y-16363371D01*
G75*
G02*
X130442163Y-15960743I952628J-550000D01*
G01*
X130442163Y-15960743D01*
G75*
G02*
X130844791Y-17463371I-550000J-952628D01*
G01*
X130694791Y-17723179D01*
G75*
G02*
X129192163Y-18125807I-952628J550000D01*
G01*
G37*
D26*
X129085113Y-14311224D03*
X126920049Y-13061224D03*
X124754985Y-11811224D03*
G36*
X120699205Y-2912288D02*
G01*
X121738435Y-3512288D01*
X120938435Y-4897928D01*
X119899205Y-4297928D01*
X120699205Y-2912288D01*
G37*
G36*
X122251000Y175500D02*
G01*
X123636640Y-624500D01*
X122836640Y-2010140D01*
X121451000Y-1210140D01*
X122251000Y175500D01*
G37*
G36*
G01*
X117863820Y-9023318D02*
X117863820Y-9023318D01*
G75*
G02*
X118156640Y-10116138I-400000J-692820D01*
G01*
X118156640Y-10116138D01*
G75*
G02*
X117063820Y-10408958I-692820J400000D01*
G01*
X117063820Y-10408958D01*
G75*
G02*
X116771000Y-9316138I400000J692820D01*
G01*
X116771000Y-9316138D01*
G75*
G02*
X117863820Y-9023318I692820J-400000D01*
G01*
G37*
G36*
X119069205Y-5735530D02*
G01*
X120108435Y-6335530D01*
X119308435Y-7721170D01*
X118269205Y-7121170D01*
X119069205Y-5735530D01*
G37*
D31*
X85051000Y20955000D03*
D32*
X85051000Y18415000D03*
X87591000Y20955000D03*
X87591000Y18415000D03*
D31*
X101600000Y96200000D03*
D32*
X99060000Y96200000D03*
X96520000Y96200000D03*
G36*
X125998302Y-7522962D02*
G01*
X124678480Y-6760962D01*
X125440480Y-5441140D01*
X126760302Y-6203140D01*
X125998302Y-7522962D01*
G37*
G36*
X126998302Y-5790911D02*
G01*
X125678480Y-5028911D01*
X126440480Y-3709089D01*
X127760302Y-4471089D01*
X126998302Y-5790911D01*
G37*
G36*
X127998302Y-4058860D02*
G01*
X126678480Y-3296860D01*
X127440480Y-1977038D01*
X128760302Y-2739038D01*
X127998302Y-4058860D01*
G37*
D20*
X82461000Y105005500D03*
X87541000Y105005500D03*
X87541000Y99925500D03*
X85001000Y99925500D03*
X82461000Y99925500D03*
X92566000Y103805500D03*
X92566000Y101265500D03*
X92566000Y98725500D03*
X92566000Y96185500D03*
X92566000Y93645500D03*
X92566000Y91105500D03*
X92566000Y88565500D03*
X92566000Y86025500D03*
X92566000Y83485500D03*
X92566000Y80945500D03*
X92566000Y78405500D03*
X92566000Y75865500D03*
X77326000Y75865500D03*
X77326000Y78405500D03*
X77326000Y80945500D03*
X77326000Y83485500D03*
X77326000Y86025500D03*
X77326000Y88565500D03*
X77326000Y91105500D03*
X77326000Y93645500D03*
X77326000Y96185500D03*
X77326000Y98725500D03*
X77326000Y101265500D03*
X77326000Y103805500D03*
D21*
X3246000Y85200000D03*
D22*
X13826000Y85200000D03*
X3666000Y85200000D03*
D21*
X14246000Y85200000D03*
D23*
X8746000Y85200000D03*
D24*
X11266000Y89700000D03*
G36*
G01*
X13455903Y86667538D02*
X13455903Y86667538D01*
G75*
G02*
X11765305Y86815446I-771345J919253D01*
G01*
X10608287Y88194326D01*
G75*
G02*
X10756195Y89884924I919253J771345D01*
G01*
X10756195Y89884924D01*
G75*
G02*
X12446793Y89737016I771345J-919253D01*
G01*
X13603811Y88358136D01*
G75*
G02*
X13455903Y86667538I-919253J-771345D01*
G01*
G37*
G36*
G01*
X6735805Y89884924D02*
X6735805Y89884924D01*
G75*
G02*
X6883713Y88194326I-771345J-919253D01*
G01*
X5726695Y86815446D01*
G75*
G02*
X4036097Y86667538I-919253J771345D01*
G01*
X4036097Y86667538D01*
G75*
G02*
X3888189Y88358136I771345J919253D01*
G01*
X5045207Y89737016D01*
G75*
G02*
X6735805Y89884924I919253J-771345D01*
G01*
G37*
X6226000Y89700000D03*
D22*
X13826000Y66150000D03*
D21*
X14246000Y66150000D03*
X3246000Y66150000D03*
D22*
X3666000Y66150000D03*
D23*
X8746000Y66150000D03*
G36*
G01*
X13455903Y67617538D02*
X13455903Y67617538D01*
G75*
G02*
X11765305Y67765446I-771345J919253D01*
G01*
X10608287Y69144326D01*
G75*
G02*
X10756195Y70834924I919253J771345D01*
G01*
X10756195Y70834924D01*
G75*
G02*
X12446793Y70687016I771345J-919253D01*
G01*
X13603811Y69308136D01*
G75*
G02*
X13455903Y67617538I-919253J-771345D01*
G01*
G37*
D24*
X11266000Y70650000D03*
G36*
G01*
X6735805Y70834924D02*
X6735805Y70834924D01*
G75*
G02*
X6883713Y69144326I-771345J-919253D01*
G01*
X5726695Y67765446D01*
G75*
G02*
X4036097Y67617538I-919253J771345D01*
G01*
X4036097Y67617538D01*
G75*
G02*
X3888189Y69308136I771345J919253D01*
G01*
X5045207Y70687016D01*
G75*
G02*
X6735805Y70834924I919253J-771345D01*
G01*
G37*
X6226000Y70650000D03*
D23*
X8746000Y47100000D03*
D21*
X14246000Y47100000D03*
X3246000Y47100000D03*
D22*
X13826000Y47100000D03*
X3666000Y47100000D03*
G36*
G01*
X13455903Y48567538D02*
X13455903Y48567538D01*
G75*
G02*
X11765305Y48715446I-771345J919253D01*
G01*
X10608287Y50094326D01*
G75*
G02*
X10756195Y51784924I919253J771345D01*
G01*
X10756195Y51784924D01*
G75*
G02*
X12446793Y51637016I771345J-919253D01*
G01*
X13603811Y50258136D01*
G75*
G02*
X13455903Y48567538I-919253J-771345D01*
G01*
G37*
D24*
X11266000Y51600000D03*
X6226000Y51600000D03*
G36*
G01*
X6735805Y51784924D02*
X6735805Y51784924D01*
G75*
G02*
X6883713Y50094326I-771345J-919253D01*
G01*
X5726695Y48715446D01*
G75*
G02*
X4036097Y48567538I-919253J771345D01*
G01*
X4036097Y48567538D01*
G75*
G02*
X3888189Y50258136I771345J919253D01*
G01*
X5045207Y51637016D01*
G75*
G02*
X6735805Y51784924I919253J-771345D01*
G01*
G37*
D21*
X3246000Y28050000D03*
D22*
X13826000Y28050000D03*
D21*
X14246000Y28050000D03*
D23*
X8746000Y28050000D03*
D22*
X3666000Y28050000D03*
D24*
X11266000Y32550000D03*
G36*
G01*
X13455903Y29517538D02*
X13455903Y29517538D01*
G75*
G02*
X11765305Y29665446I-771345J919253D01*
G01*
X10608287Y31044326D01*
G75*
G02*
X10756195Y32734924I919253J771345D01*
G01*
X10756195Y32734924D01*
G75*
G02*
X12446793Y32587016I771345J-919253D01*
G01*
X13603811Y31208136D01*
G75*
G02*
X13455903Y29517538I-919253J-771345D01*
G01*
G37*
G36*
G01*
X6735805Y32734924D02*
X6735805Y32734924D01*
G75*
G02*
X6883713Y31044326I-771345J-919253D01*
G01*
X5726695Y29665446D01*
G75*
G02*
X4036097Y29517538I-919253J771345D01*
G01*
X4036097Y29517538D01*
G75*
G02*
X3888189Y31208136I771345J919253D01*
G01*
X5045207Y32587016D01*
G75*
G02*
X6735805Y32734924I919253J-771345D01*
G01*
G37*
X6226000Y32550000D03*
D21*
X41346000Y89962500D03*
X52346000Y89962500D03*
D22*
X41766000Y89962500D03*
X51926000Y89962500D03*
D23*
X46846000Y89962500D03*
G36*
G01*
X51555903Y91430038D02*
X51555903Y91430038D01*
G75*
G02*
X49865305Y91577946I-771345J919253D01*
G01*
X48708287Y92956826D01*
G75*
G02*
X48856195Y94647424I919253J771345D01*
G01*
X48856195Y94647424D01*
G75*
G02*
X50546793Y94499516I771345J-919253D01*
G01*
X51703811Y93120636D01*
G75*
G02*
X51555903Y91430038I-919253J-771345D01*
G01*
G37*
D24*
X49366000Y94462500D03*
G36*
G01*
X44835805Y94647424D02*
X44835805Y94647424D01*
G75*
G02*
X44983713Y92956826I-771345J-919253D01*
G01*
X43826695Y91577946D01*
G75*
G02*
X42136097Y91430038I-919253J771345D01*
G01*
X42136097Y91430038D01*
G75*
G02*
X41988189Y93120636I771345J919253D01*
G01*
X43145207Y94499516D01*
G75*
G02*
X44835805Y94647424I919253J-771345D01*
G01*
G37*
X44326000Y94462500D03*
D22*
X41766000Y70912500D03*
X51926000Y70912500D03*
D21*
X52346000Y70912500D03*
X41346000Y70912500D03*
D23*
X46846000Y70912500D03*
D24*
X49366000Y75412500D03*
G36*
G01*
X51555903Y72380038D02*
X51555903Y72380038D01*
G75*
G02*
X49865305Y72527946I-771345J919253D01*
G01*
X48708287Y73906826D01*
G75*
G02*
X48856195Y75597424I919253J771345D01*
G01*
X48856195Y75597424D01*
G75*
G02*
X50546793Y75449516I771345J-919253D01*
G01*
X51703811Y74070636D01*
G75*
G02*
X51555903Y72380038I-919253J-771345D01*
G01*
G37*
G36*
G01*
X44835805Y75597424D02*
X44835805Y75597424D01*
G75*
G02*
X44983713Y73906826I-771345J-919253D01*
G01*
X43826695Y72527946D01*
G75*
G02*
X42136097Y72380038I-919253J771345D01*
G01*
X42136097Y72380038D01*
G75*
G02*
X41988189Y74070636I771345J919253D01*
G01*
X43145207Y75449516D01*
G75*
G02*
X44835805Y75597424I919253J-771345D01*
G01*
G37*
X44326000Y75412500D03*
D21*
X52346000Y51862500D03*
X41346000Y51862500D03*
D22*
X41766000Y51862500D03*
X51926000Y51862500D03*
D23*
X46846000Y51862500D03*
D24*
X49366000Y56362500D03*
G36*
G01*
X51555903Y53330038D02*
X51555903Y53330038D01*
G75*
G02*
X49865305Y53477946I-771345J919253D01*
G01*
X48708287Y54856826D01*
G75*
G02*
X48856195Y56547424I919253J771345D01*
G01*
X48856195Y56547424D01*
G75*
G02*
X50546793Y56399516I771345J-919253D01*
G01*
X51703811Y55020636D01*
G75*
G02*
X51555903Y53330038I-919253J-771345D01*
G01*
G37*
X44326000Y56362500D03*
G36*
G01*
X44835805Y56547424D02*
X44835805Y56547424D01*
G75*
G02*
X44983713Y54856826I-771345J-919253D01*
G01*
X43826695Y53477946D01*
G75*
G02*
X42136097Y53330038I-919253J771345D01*
G01*
X42136097Y53330038D01*
G75*
G02*
X41988189Y55020636I771345J919253D01*
G01*
X43145207Y56399516D01*
G75*
G02*
X44835805Y56547424I919253J-771345D01*
G01*
G37*
D22*
X98916000Y68531250D03*
D23*
X103996000Y68531250D03*
D22*
X109076000Y68531250D03*
D21*
X98496000Y68531250D03*
X109496000Y68531250D03*
D24*
X106516000Y73031250D03*
G36*
G01*
X108705903Y69998788D02*
X108705903Y69998788D01*
G75*
G02*
X107015305Y70146696I-771345J919253D01*
G01*
X105858287Y71525576D01*
G75*
G02*
X106006195Y73216174I919253J771345D01*
G01*
X106006195Y73216174D01*
G75*
G02*
X107696793Y73068266I771345J-919253D01*
G01*
X108853811Y71689386D01*
G75*
G02*
X108705903Y69998788I-919253J-771345D01*
G01*
G37*
G36*
G01*
X101985805Y73216174D02*
X101985805Y73216174D01*
G75*
G02*
X102133713Y71525576I-771345J-919253D01*
G01*
X100976695Y70146696D01*
G75*
G02*
X99286097Y69998788I-919253J771345D01*
G01*
X99286097Y69998788D01*
G75*
G02*
X99138189Y71689386I771345J919253D01*
G01*
X100295207Y73068266D01*
G75*
G02*
X101985805Y73216174I919253J-771345D01*
G01*
G37*
X101476000Y73031250D03*
D22*
X98916000Y49481250D03*
X109076000Y49481250D03*
D21*
X109496000Y49481250D03*
D23*
X103996000Y49481250D03*
D21*
X98496000Y49481250D03*
D24*
X106516000Y53981250D03*
G36*
G01*
X108705903Y50948788D02*
X108705903Y50948788D01*
G75*
G02*
X107015305Y51096696I-771345J919253D01*
G01*
X105858287Y52475576D01*
G75*
G02*
X106006195Y54166174I919253J771345D01*
G01*
X106006195Y54166174D01*
G75*
G02*
X107696793Y54018266I771345J-919253D01*
G01*
X108853811Y52639386D01*
G75*
G02*
X108705903Y50948788I-919253J-771345D01*
G01*
G37*
X101476000Y53981250D03*
G36*
G01*
X101985805Y54166174D02*
X101985805Y54166174D01*
G75*
G02*
X102133713Y52475576I-771345J-919253D01*
G01*
X100976695Y51096696D01*
G75*
G02*
X99286097Y50948788I-919253J771345D01*
G01*
X99286097Y50948788D01*
G75*
G02*
X99138189Y52639386I771345J919253D01*
G01*
X100295207Y54018266D01*
G75*
G02*
X101985805Y54166174I919253J-771345D01*
G01*
G37*
D21*
X109496000Y30431250D03*
D22*
X98916000Y30431250D03*
D23*
X103996000Y30431250D03*
D22*
X109076000Y30431250D03*
D21*
X98496000Y30431250D03*
G36*
G01*
X108705903Y31898788D02*
X108705903Y31898788D01*
G75*
G02*
X107015305Y32046696I-771345J919253D01*
G01*
X105858287Y33425576D01*
G75*
G02*
X106006195Y35116174I919253J771345D01*
G01*
X106006195Y35116174D01*
G75*
G02*
X107696793Y34968266I771345J-919253D01*
G01*
X108853811Y33589386D01*
G75*
G02*
X108705903Y31898788I-919253J-771345D01*
G01*
G37*
D24*
X106516000Y34931250D03*
X101476000Y34931250D03*
G36*
G01*
X101985805Y35116174D02*
X101985805Y35116174D01*
G75*
G02*
X102133713Y33425576I-771345J-919253D01*
G01*
X100976695Y32046696D01*
G75*
G02*
X99286097Y31898788I-919253J771345D01*
G01*
X99286097Y31898788D01*
G75*
G02*
X99138189Y33589386I771345J919253D01*
G01*
X100295207Y34968266D01*
G75*
G02*
X101985805Y35116174I919253J-771345D01*
G01*
G37*
D23*
X8746000Y9000000D03*
D22*
X3666000Y9000000D03*
D21*
X14246000Y9000000D03*
X3246000Y9000000D03*
D22*
X13826000Y9000000D03*
D24*
X11266000Y13500000D03*
G36*
G01*
X13455903Y10467538D02*
X13455903Y10467538D01*
G75*
G02*
X11765305Y10615446I-771345J919253D01*
G01*
X10608287Y11994326D01*
G75*
G02*
X10756195Y13684924I919253J771345D01*
G01*
X10756195Y13684924D01*
G75*
G02*
X12446793Y13537016I771345J-919253D01*
G01*
X13603811Y12158136D01*
G75*
G02*
X13455903Y10467538I-919253J-771345D01*
G01*
G37*
G36*
G01*
X6735805Y13684924D02*
X6735805Y13684924D01*
G75*
G02*
X6883713Y11994326I-771345J-919253D01*
G01*
X5726695Y10615446D01*
G75*
G02*
X4036097Y10467538I-919253J771345D01*
G01*
X4036097Y10467538D01*
G75*
G02*
X3888189Y12158136I771345J919253D01*
G01*
X5045207Y13537016D01*
G75*
G02*
X6735805Y13684924I919253J-771345D01*
G01*
G37*
X6226000Y13500000D03*
D21*
X52346000Y13762500D03*
D23*
X46846000Y13762500D03*
D21*
X41346000Y13762500D03*
D22*
X41766000Y13762500D03*
X51926000Y13762500D03*
D24*
X49366000Y18262500D03*
G36*
G01*
X51555903Y15230038D02*
X51555903Y15230038D01*
G75*
G02*
X49865305Y15377946I-771345J919253D01*
G01*
X48708287Y16756826D01*
G75*
G02*
X48856195Y18447424I919253J771345D01*
G01*
X48856195Y18447424D01*
G75*
G02*
X50546793Y18299516I771345J-919253D01*
G01*
X51703811Y16920636D01*
G75*
G02*
X51555903Y15230038I-919253J-771345D01*
G01*
G37*
X44326000Y18262500D03*
G36*
G01*
X44835805Y18447424D02*
X44835805Y18447424D01*
G75*
G02*
X44983713Y16756826I-771345J-919253D01*
G01*
X43826695Y15377946D01*
G75*
G02*
X42136097Y15230038I-919253J771345D01*
G01*
X42136097Y15230038D01*
G75*
G02*
X41988189Y16920636I771345J919253D01*
G01*
X43145207Y18299516D01*
G75*
G02*
X44835805Y18447424I919253J-771345D01*
G01*
G37*
D22*
X60816000Y16143750D03*
D21*
X60396000Y16143750D03*
X71396000Y16143750D03*
D22*
X70976000Y16143750D03*
D23*
X65896000Y16143750D03*
D24*
X68416000Y20643750D03*
G36*
G01*
X70605903Y17611288D02*
X70605903Y17611288D01*
G75*
G02*
X68915305Y17759196I-771345J919253D01*
G01*
X67758287Y19138076D01*
G75*
G02*
X67906195Y20828674I919253J771345D01*
G01*
X67906195Y20828674D01*
G75*
G02*
X69596793Y20680766I771345J-919253D01*
G01*
X70753811Y19301886D01*
G75*
G02*
X70605903Y17611288I-919253J-771345D01*
G01*
G37*
X63376000Y20643750D03*
G36*
G01*
X63885805Y20828674D02*
X63885805Y20828674D01*
G75*
G02*
X64033713Y19138076I-771345J-919253D01*
G01*
X62876695Y17759196D01*
G75*
G02*
X61186097Y17611288I-919253J771345D01*
G01*
X61186097Y17611288D01*
G75*
G02*
X61038189Y19301886I771345J919253D01*
G01*
X62195207Y20680766D01*
G75*
G02*
X63885805Y20828674I919253J-771345D01*
G01*
G37*
D38*
X4935000Y74227500D03*
X1635000Y74227500D03*
X1635000Y79027500D03*
X4935000Y79027500D03*
X4935000Y55177500D03*
X1635000Y55177500D03*
X1635000Y59977500D03*
X4935000Y59977500D03*
X4935000Y36127500D03*
X1635000Y36127500D03*
X1635000Y40927500D03*
X4935000Y40927500D03*
X4935000Y17077500D03*
X1635000Y17077500D03*
X1635000Y21877500D03*
X4935000Y21877500D03*
D39*
X20671000Y4871500D03*
X20671000Y1571500D03*
X15871000Y1571500D03*
X15871000Y4871500D03*
X42811333Y4871500D03*
X42811333Y1571500D03*
X38011333Y1571500D03*
X38011333Y4871500D03*
X64951667Y4871500D03*
X64951667Y1571500D03*
X60151667Y1571500D03*
X60151667Y4871500D03*
X87092000Y4871500D03*
X87092000Y1571500D03*
X82292000Y1571500D03*
X82292000Y4871500D03*
G36*
X122984276Y8840384D02*
G01*
X122084276Y7281538D01*
X120871840Y7981538D01*
X121771840Y9540384D01*
X122984276Y8840384D01*
G37*
G36*
X125842160Y7190384D02*
G01*
X124942160Y5631538D01*
X123729724Y6331538D01*
X124629724Y7890384D01*
X125842160Y7190384D01*
G37*
G36*
X123442160Y3033462D02*
G01*
X122542160Y1474616D01*
X121329724Y2174616D01*
X122229724Y3733462D01*
X123442160Y3033462D01*
G37*
G36*
X120584276Y4683462D02*
G01*
X119684276Y3124616D01*
X118471840Y3824616D01*
X119371840Y5383462D01*
X120584276Y4683462D01*
G37*
D38*
X127238000Y32418500D03*
X130538000Y32418500D03*
X130538000Y27618500D03*
X127238000Y27618500D03*
X127238000Y53119500D03*
X130538000Y53119500D03*
X130538000Y48319500D03*
X127238000Y48319500D03*
X127238000Y71915500D03*
X130538000Y71915500D03*
X130538000Y67115500D03*
X127238000Y67115500D03*
M02*
