M48
; DRILL file {KiCad (5.99.0-7652-gaab3c936f0)} date Mon Dec 28 19:10:54 2020
; FORMAT={-:-/ absolute / inch / decimal}
; #@! TF.CreationDate,2020-12-28T19:10:54+00:00
; #@! TF.GenerationSoftware,Kicad,Pcbnew,(5.99.0-7652-gaab3c936f0)
; #@! TF.FileFunction,NonPlated,1,2,NPTH
FMAT,2
INCH
T1C0.0472
T2C0.0669
T3C0.0748
T4C0.1575
T5C0.1969
%
G90
G05
T1
X4.8602Y3.8937
X4.8602Y3.6181
X5.0413Y3.8937
X5.0413Y3.6181
T2
X0.1443Y3.3543
X0.1443Y2.6043
X0.1443Y1.8543
X0.1443Y1.1043
X0.1443Y0.3543
X0.5443Y3.3543
X0.5443Y2.6043
X0.5443Y1.8543
X0.5443Y1.1043
X0.5443Y0.3543
X0.8943Y3.3543
X0.8943Y2.6043
X0.8943Y1.8543
X0.8943Y1.1043
X0.8943Y0.3543
X1.2943Y3.3543
X1.2943Y2.6043
X1.2943Y1.8543
X1.2943Y1.1043
X1.2943Y0.3543
X1.6443Y3.5418
X1.6443Y2.7918
X1.6443Y2.0418
X1.6443Y1.2918
X1.6443Y0.5418
X2.0443Y3.5418
X2.0443Y2.7918
X2.0443Y2.0418
X2.0443Y1.2918
X2.0443Y0.5418
X2.3943Y3.6356
X2.3943Y2.8856
X2.3943Y2.1356
X2.3943Y1.3856
X2.3943Y0.6356
X2.6943Y0.5418
X2.7943Y3.6356
X2.7943Y2.8856
X2.7943Y2.1356
X2.7943Y1.3856
X2.7943Y0.6356
X3.0943Y0.5418
X3.1443Y3.5418
X3.1443Y2.7918
X3.1443Y2.0418
X3.1443Y1.2918
X3.5443Y3.5418
X3.5443Y2.7918
X3.5443Y2.0418
X3.5443Y1.2918
X3.6812Y0.1811
X3.8812Y0.5275
X3.8943Y3.4481
X3.8943Y2.6981
X3.8943Y1.9481
X3.8943Y1.1981
X4.2943Y3.4481
X4.2943Y2.6981
X4.2943Y1.9481
X4.2943Y1.1981
X4.3307Y-0.1939
X4.5307Y0.1525
X4.6443Y3.0731
X4.6443Y2.3231
X4.6443Y1.5731
X4.7057Y0.4557
X4.9057Y0.8021
X5.0443Y3.0731
X5.0443Y2.3231
X5.0443Y1.5731
T3
X0.1278Y3.3543
X0.1278Y2.6043
X0.1278Y1.8543
X0.1278Y1.1043
X0.1278Y0.3543
X0.5609Y3.3543
X0.5609Y2.6043
X0.5609Y1.8543
X0.5609Y1.1043
X0.5609Y0.3543
X0.8778Y3.3543
X0.8778Y2.6043
X0.8778Y1.8543
X0.8778Y1.1043
X0.8778Y0.3543
X1.3109Y3.3543
X1.3109Y2.6043
X1.3109Y1.8543
X1.3109Y1.1043
X1.3109Y0.3543
X1.6278Y3.5418
X1.6278Y2.7918
X1.6278Y2.0418
X1.6278Y1.2918
X1.6278Y0.5418
X2.0609Y3.5418
X2.0609Y2.7918
X2.0609Y2.0418
X2.0609Y1.2918
X2.0609Y0.5418
X2.3778Y3.6356
X2.3778Y2.8856
X2.3778Y2.1356
X2.3778Y1.3856
X2.3778Y0.6356
X2.6778Y0.5418
X2.8109Y3.6356
X2.8109Y2.8856
X2.8109Y2.1356
X2.8109Y1.3856
X2.8109Y0.6356
X3.1109Y0.5418
X3.1278Y3.5418
X3.1278Y2.7918
X3.1278Y2.0418
X3.1278Y1.2918
X3.5609Y3.5418
X3.5609Y2.7918
X3.5609Y2.0418
X3.5609Y1.2918
X3.673Y0.1668
X3.8778Y3.4481
X3.8778Y2.6981
X3.8778Y1.9481
X3.8778Y1.1981
X3.8895Y0.5419
X4.3109Y3.4481
X4.3109Y2.6981
X4.3109Y1.9481
X4.3109Y1.1981
X4.3225Y-0.2082
X4.539Y0.1669
X4.6278Y3.0731
X4.6278Y2.3231
X4.6278Y1.5731
X4.6975Y0.4413
X4.914Y0.8164
X5.0609Y3.0731
X5.0609Y2.3231
X5.0609Y1.5731
T4
X0.3443Y3.3543
X0.3443Y2.6043
X0.3443Y1.8543
X0.3443Y1.1043
X0.3443Y0.3543
X1.0943Y3.3543
X1.0943Y2.6043
X1.0943Y1.8543
X1.0943Y1.1043
X1.0943Y0.3543
X1.8443Y3.5418
X1.8443Y2.7918
X1.8443Y2.0418
X1.8443Y1.2918
X1.8443Y0.5418
X2.5943Y3.6356
X2.5943Y2.8856
X2.5943Y2.1356
X2.5943Y1.3856
X2.5943Y0.6356
X2.8943Y0.5418
X3.3443Y3.5418
X3.3443Y2.7918
X3.3443Y2.0418
X3.3443Y1.2918
X3.7812Y0.3543
X4.0943Y3.4481
X4.0943Y2.6981
X4.0943Y1.9481
X4.0943Y1.1981
X4.4307Y-0.0207
X4.8057Y0.6289
X4.8443Y3.0731
X4.8443Y2.3231
X4.8443Y1.5731
T5
X0.7193Y2.9768
X0.7193Y0.7168
X1.9743Y3.9568
X2.2193Y2.4168
X2.2393Y1.0168
X4.2343Y0.7268
X4.4693Y3.0768
T0
M30
