M48
; DRILL file {KiCad (5.99.0-7652-gaab3c936f0)} date Mon Dec 28 19:10:54 2020
; FORMAT={-:-/ absolute / inch / decimal}
; #@! TF.CreationDate,2020-12-28T19:10:54+00:00
; #@! TF.GenerationSoftware,Kicad,Pcbnew,(5.99.0-7652-gaab3c936f0)
; #@! TF.FileFunction,Plated,1,2,PTH
FMAT,2
INCH
T1C0.0157
T2C0.0197
T3C0.0236
T4C0.0315
T5C0.0320
T6C0.0350
T7C0.0390
T8C0.0394
T9C0.0429
T10C0.0591
T11C0.0596
T12C0.0709
%
G90
G05
T1
X0.0643Y2.9918
X0.0643Y2.8518
X0.0643Y2.2518
X0.0643Y1.5368
X0.0643Y0.9518
X0.0793Y2.2968
X0.0893Y1.3268
X0.0893Y0.5818
X0.0943Y2.4868
X0.0993Y2.0518
X0.1093Y3.0418
X0.1293Y3.2118
X0.1443Y2.1018
X0.1493Y0.7818
X0.1743Y1.5168
X0.1943Y2.9918
X0.1943Y1.6968
X0.1993Y3.2068
X0.1993Y3.0468
X0.2043Y0.7468
X0.2293Y3.2968
X0.5043Y0.0918
X0.5743Y3.6168
X0.5843Y0.9868
X0.5843Y0.6418
X0.6043Y3.1518
X0.6043Y2.4018
X0.6043Y1.6518
X0.673Y3.4033
X0.673Y3.3088
X0.673Y2.6483
X0.673Y2.5538
X0.673Y1.9033
X0.673Y1.8088
X0.673Y1.1733
X0.673Y1.0788
X0.6743Y2.2768
X0.6743Y1.5418
X0.7143Y0.0818
X0.7393Y0.1918
X0.7643Y3.421
X0.7643Y3.2927
X0.7643Y2.666
X0.7643Y2.5377
X0.7643Y1.921
X0.7643Y1.7927
X0.7643Y1.191
X0.7643Y1.0627
X0.7743Y0.8418
X0.8143Y1.1918
X0.8493Y0.9918
X0.8543Y0.9018
X0.9043Y0.0968
X1.0043Y3.7318
X1.0429Y0.7755
X1.0429Y0.6805
X1.0463Y3.0282
X1.0463Y2.2782
X1.0529Y1.5255
X1.0529Y1.4305
X1.1374Y0.7755
X1.1374Y0.6805
X1.1408Y3.0282
X1.1408Y2.2782
X1.1443Y0.9926
X1.1474Y1.5255
X1.1474Y1.4305
X1.2543Y3.2868
X1.2906Y3.7802
X1.2906Y3.6952
X1.3543Y0.8468
X1.3693Y3.7802
X1.3693Y3.6952
X1.3693Y0.0968
X1.4243Y3.421
X1.4243Y3.2927
X1.4243Y2.666
X1.4243Y2.5377
X1.4243Y1.921
X1.4243Y1.7927
X1.4243Y1.1718
X1.4243Y1.0435
X1.4243Y0.601
X1.4243Y0.4727
X1.4481Y3.7802
X1.4481Y3.6952
X1.5093Y2.666
X1.5093Y2.5377
X1.5143Y3.421
X1.5143Y3.2927
X1.5143Y1.921
X1.5143Y1.7927
X1.5143Y1.171
X1.5143Y1.0427
X1.5143Y0.601
X1.5143Y0.4727
X1.5443Y0.2518
X1.5693Y3.0568
X1.5743Y3.3368
X1.5743Y3.2168
X1.5743Y1.8418
X1.5743Y1.5918
X1.5993Y0.1018
X1.6393Y0.3418
X1.6443Y1.5468
X1.6843Y0.1268
X1.6893Y3.8618
X1.6993Y3.4368
X1.6993Y3.2768
X1.7093Y0.8168
X1.7643Y0.1918
X1.7963Y2.4632
X1.7963Y1.7132
X1.7963Y0.9632
X1.7963Y0.8732
X1.7979Y3.2105
X1.8908Y2.4632
X1.8908Y1.7132
X1.8908Y0.9632
X1.8908Y0.8732
X1.8924Y3.2105
X1.9693Y3.4368
X1.9743Y1.5968
X2.0993Y3.2768
X2.1643Y3.4018
X2.1743Y2.856
X2.1743Y2.7277
X2.1743Y2.0952
X2.1743Y1.9668
X2.1743Y1.466
X2.1743Y1.3377
X2.1743Y0.6868
X2.1743Y0.5585
X2.1949Y3.5368
X2.2043Y3.8018
X2.2593Y0.1868
X2.2743Y1.4668
X2.2743Y1.3385
X2.3543Y2.6368
X2.3743Y3.3818
X2.3862Y3.4394
X2.3918Y3.9439
X2.3918Y3.8258
X2.42Y3.28
X2.4343Y2.6818
X2.4443Y0.3668
X2.4643Y0.0968
X2.4707Y3.4239
X2.4793Y0.9118
X2.52Y3.28
X2.5463Y2.4632
X2.5463Y1.8082
X2.5479Y2.5555
X2.5593Y0.1268
X2.5613Y1.0582
X2.5613Y0.9632
X2.5633Y4.0567
X2.6181Y3.9961
X2.6286Y3.3307
X2.6408Y2.4632
X2.6408Y1.8082
X2.6424Y2.5555
X2.6543Y0.1918
X2.6558Y1.0582
X2.6558Y0.9632
X2.7143Y3.4468
X2.7699Y4.0397
X2.7818Y3.3001
X2.8277Y3.4433
X2.8643Y1.1018
X2.918Y1.1491
X2.918Y1.0546
X2.9243Y2.721
X2.9243Y2.5927
X2.9243Y2.0768
X2.9243Y1.9485
X2.9493Y3.4368
X2.9643Y3.3368
X2.9743Y3.9368
X3.0093Y1.0168
X3.0443Y0.8118
X3.0611Y0.1447
X3.0611Y0.0463
X3.0693Y1.0368
X3.1201Y0.3022
X3.1243Y3.1018
X3.1293Y3.3968
X3.1343Y0.1168
X3.1496Y3.8356
X3.1996Y0.9124
X3.2143Y0.3218
X3.2963Y2.3732
X3.2963Y1.7132
X3.2979Y2.4655
X3.2979Y1.6105
X3.3343Y0.5018
X3.3343Y0.4318
X3.3343Y0.3526
X3.3393Y0.1018
X3.3543Y0.2218
X3.3908Y2.3732
X3.3908Y1.7132
X3.3924Y2.4655
X3.3924Y1.6105
X3.4193Y0.5568
X3.4643Y0.2876
X3.5143Y0.1018
X3.5293Y3.4368
X3.5593Y2.2618
X3.5643Y3.0718
X3.5693Y0.1618
X3.5727Y0.8268
X3.5843Y3.3368
X3.6193Y0.6268
X3.6743Y2.6502
X3.6743Y2.5218
X3.6743Y2.0202
X3.6743Y1.8918
X3.6743Y1.261
X3.6743Y1.1327
X3.7143Y3.1368
X3.7143Y2.9268
X3.7193Y2.2768
X3.75Y3.9368
X3.7543Y3.496
X3.7543Y3.3677
X3.7643Y2.651
X3.7643Y2.5227
X3.7643Y1.261
X3.7643Y1.1327
X3.7693Y2.021
X3.7693Y1.8927
X3.7693Y1.5018
X3.7693Y0.1168
X3.7893Y2.9268
X3.8143Y3.3468
X3.8143Y3.1218
X3.8243Y0.0818
X3.8543Y2.8618
X3.8543Y2.7668
X3.8643Y3.3568
X3.8643Y3.0068
X3.875Y0.4411
X3.9043Y0.6518
X3.9393Y2.5211
X3.9543Y2.5918
X3.9593Y2.9718
X4.0155Y0.5877
X4.0272Y0.1445
X4.0443Y3.0068
X4.0463Y3.1232
X4.0463Y2.3732
X4.0463Y1.6182
X4.0463Y0.8982
X4.0914Y0.2556
X4.0945Y0.627
X4.1408Y3.1232
X4.1408Y2.3732
X4.1408Y1.6182
X4.1408Y0.8982
X4.1448Y-0.1706
X4.1693Y3.0418
X4.1693Y0.2718
X4.2028Y0.499
X4.2266Y-0.2178
X4.2643Y2.2768
X4.2743Y0.2718
X4.2793Y0.9668
X4.3012Y2.2215
X4.3093Y1.0468
X4.3111Y1.5128
X4.3307Y0.5286
X4.3436Y1.0918
X4.3529Y0.8181
X4.3593Y1.5618
X4.3693Y2.3318
X4.3796Y0.5716
X4.4095Y3.3042
X4.4193Y3.8484
X4.4243Y2.756
X4.4243Y2.6277
X4.4243Y2.166
X4.4243Y2.0377
X4.4243Y1.631
X4.4243Y1.5027
X4.4243Y0.9168
X4.4243Y0.7885
X4.4981Y0.44
X4.513Y2.7383
X4.513Y2.6438
X4.513Y2.1483
X4.513Y2.0538
X4.5143Y2.3768
X4.5157Y1.6149
X4.5157Y1.5204
X4.5374Y0.7943
X4.5529Y1.2505
X4.5529Y1.1605
X4.5643Y1.6818
X4.5643Y1.4068
X4.5693Y2.4218
X4.5693Y2.1218
X4.6474Y1.2505
X4.6474Y1.1605
X4.6925Y-0.2649
X4.7443Y0.3818
X4.7493Y0.9068
X4.7566Y-0.1537
X4.7593Y0.1318
X4.8003Y0.2318
X4.8043Y0.9268
X4.8443Y0.1818
X4.8693Y0.3218
X4.877Y-0.2095
X4.8843Y0.3718
X4.8933Y0.5578
X4.9164Y-0.1413
X4.9493Y2.7368
X4.9496Y-0.2552
X4.9558Y-0.0732
X4.989Y-0.187
X5.0093Y2.0168
X5.0193Y1.2118
X5.0283Y-0.1188
X5.0443Y0.9668
X5.0493Y2.9168
X5.0493Y2.7368
X5.0493Y1.3468
X5.0543Y0.3368
X5.0886Y3.1368
X5.0893Y1.1968
X5.1043Y2.5468
X5.1043Y2.0068
X5.1093Y2.1668
X5.1093Y1.8018
X5.1241Y1.1565
X5.1343Y2.7218
T2
X1.545Y3.9168
X1.6237Y3.9168
T4
X0.673Y3.5568
X0.673Y3.1568
X0.673Y2.8018
X0.673Y2.4018
X0.673Y2.0568
X0.673Y1.6568
X0.673Y1.3268
X0.673Y0.9268
X0.7643Y3.5568
X0.7643Y3.1568
X0.7643Y2.8018
X0.7643Y2.4018
X0.7643Y2.0568
X0.7643Y1.6568
X0.7643Y1.3268
X0.7643Y0.9268
X0.8893Y0.7755
X0.8893Y0.6805
X0.8943Y3.0282
X0.8943Y2.2782
X0.8993Y1.5255
X0.8993Y1.4305
X0.9743Y3.8018
X1.2893Y0.7755
X1.2893Y0.6805
X1.2943Y3.0282
X1.2943Y2.2782
X1.2993Y1.5255
X1.2993Y1.4305
X1.3683Y3.8713
X1.4243Y3.5568
X1.4243Y3.1568
X1.4243Y2.8018
X1.4243Y2.4018
X1.4243Y2.0568
X1.4243Y1.6568
X1.4243Y1.3077
X1.4243Y0.9077
X1.4243Y0.7368
X1.4243Y0.3368
X1.5093Y2.8018
X1.5093Y2.4018
X1.5143Y3.5568
X1.5143Y3.1568
X1.5143Y2.0568
X1.5143Y1.6568
X1.5143Y1.3068
X1.5143Y0.9068
X1.5143Y0.7368
X1.5143Y0.3368
X1.6443Y3.2105
X1.6443Y2.4632
X1.6443Y1.7132
X1.6443Y0.9632
X1.6443Y0.8732
X2.0443Y3.2105
X2.0443Y2.4632
X2.0443Y1.7132
X2.0443Y0.9632
X2.0443Y0.8732
X2.1743Y2.9918
X2.1743Y2.5918
X2.1743Y2.231
X2.1743Y1.831
X2.1743Y1.6018
X2.1743Y1.2018
X2.1743Y0.8227
X2.1743Y0.4227
X2.1843Y4.0168
X2.1843Y3.6168
X2.2743Y1.6027
X2.2743Y1.2027
X2.3943Y2.5555
X2.3943Y2.4632
X2.3943Y1.8082
X2.4093Y1.0582
X2.4093Y0.9632
X2.7943Y2.5555
X2.7943Y2.4632
X2.7943Y1.8082
X2.8093Y1.0582
X2.8093Y0.9632
X2.918Y1.3027
X2.918Y0.9027
X2.9243Y2.8568
X2.9243Y2.4568
X2.9243Y2.2127
X2.9243Y1.8127
X3.1443Y2.4655
X3.1443Y2.3732
X3.1443Y1.7132
X3.1443Y1.6105
X3.5443Y2.4655
X3.5443Y2.3732
X3.5443Y1.7132
X3.5443Y1.6105
X3.6743Y2.786
X3.6743Y2.386
X3.6743Y2.156
X3.6743Y1.756
X3.6743Y1.3968
X3.6743Y0.9968
X3.7543Y3.6318
X3.7543Y3.2318
X3.7643Y2.7868
X3.7643Y2.3868
X3.7643Y1.3968
X3.7643Y0.9968
X3.7693Y2.1568
X3.7693Y1.7568
X3.7867Y0.7197
X3.8943Y3.1232
X3.8943Y2.3732
X3.8943Y1.6182
X3.8943Y0.8982
X3.9593Y0.0268
X4.0118Y-0.0938
X4.1331Y0.5197
X4.1593Y0.3732
X4.2943Y3.1232
X4.2943Y2.3732
X4.2943Y1.6182
X4.2943Y0.8982
X4.3582Y-0.2938
X4.3993Y1.2505
X4.3993Y1.1605
X4.4243Y2.8918
X4.4243Y2.4918
X4.4243Y2.3018
X4.4243Y1.9018
X4.4243Y1.7668
X4.4243Y1.3668
X4.4243Y1.0527
X4.4243Y0.6527
X4.513Y2.8918
X4.513Y2.4918
X4.513Y2.3018
X4.513Y1.9018
X4.5157Y1.7668
X4.5157Y1.3668
X4.6246Y-0.3825
X4.7993Y1.2505
X4.7993Y1.1605
X4.8246Y-0.0361
T5
X2.2943Y4.0868
X2.2943Y3.9868
X2.2943Y3.8868
X2.2943Y3.7868
X2.2943Y3.6868
X2.2943Y3.5868
X2.2943Y3.4868
X2.2943Y3.3868
X2.2943Y3.2868
X2.2943Y3.1868
X2.2943Y3.0868
X2.2943Y2.9868
X2.8943Y4.0868
X2.8943Y3.9868
X2.8943Y3.8868
X2.8943Y3.7868
X2.8943Y3.6868
X2.8943Y3.5868
X2.8943Y3.4868
X2.8943Y3.3868
X2.8943Y3.2868
X2.8943Y3.1868
X2.8943Y3.0868
X2.8943Y2.9868
X3.0443Y4.0868
X3.0443Y3.9868
X3.0443Y3.8868
X3.0443Y3.7868
X3.0443Y3.6868
X3.0443Y3.5868
X3.0443Y3.4868
X3.0443Y3.3868
X3.0443Y3.2868
X3.0443Y3.1868
X3.0443Y3.0868
X3.0443Y2.9868
X3.6443Y4.0868
X3.6443Y3.9868
X3.6443Y3.8868
X3.6443Y3.7868
X3.6443Y3.6868
X3.6443Y3.5868
X3.6443Y3.4868
X3.6443Y3.3868
X3.6443Y3.2868
X3.6443Y3.1868
X3.6443Y3.0868
X3.6443Y2.9868
T6
X2.4985Y4.1341
X2.4985Y3.9341
X2.5985Y3.9341
X2.6985Y4.1341
X2.6985Y3.9341
X3.2465Y4.1341
X3.2465Y3.9341
X3.3465Y3.9341
X3.4465Y4.1341
X3.4465Y3.9341
T7
X0.2943Y3.1543
X0.2943Y2.4043
X0.2943Y1.6543
X0.2943Y0.9043
X0.2943Y0.1543
X0.3943Y3.1543
X0.3943Y2.4043
X0.3943Y1.6543
X0.3943Y0.9043
X0.3943Y0.1543
X1.0443Y3.1543
X1.0443Y2.4043
X1.0443Y1.6543
X1.0443Y0.9043
X1.0443Y0.1543
X1.1443Y3.1543
X1.1443Y2.4043
X1.1443Y1.6543
X1.1443Y0.9043
X1.1443Y0.1543
X1.7943Y3.3418
X1.7943Y2.5918
X1.7943Y1.8418
X1.7943Y1.0918
X1.7943Y0.3418
X1.8943Y3.3418
X1.8943Y2.5918
X1.8943Y1.8418
X1.8943Y1.0918
X1.8943Y0.3418
X2.5443Y3.4356
X2.5443Y2.6856
X2.5443Y1.9356
X2.5443Y1.1856
X2.5443Y0.4356
X2.6443Y3.4356
X2.6443Y2.6856
X2.6443Y1.9356
X2.6443Y1.1856
X2.6443Y0.4356
X2.8443Y0.7418
X2.9443Y0.7418
X3.2943Y3.3368
X3.2943Y2.5918
X3.2943Y1.8418
X3.2943Y1.0918
X3.3943Y3.3368
X3.3943Y2.5918
X3.3943Y1.8418
X3.3943Y1.0918
X3.9294Y0.211
X3.9794Y0.2976
X4.0443Y3.2481
X4.0443Y2.4981
X4.0443Y1.7481
X4.0443Y0.9981
X4.1443Y3.2481
X4.1443Y2.4981
X4.1443Y1.7481
X4.1443Y0.9981
X4.2325Y0.036
X4.2825Y0.1226
X4.6075Y0.6856
X4.6575Y0.7722
X4.7943Y2.8731
X4.7943Y2.1231
X4.7943Y1.3731
X4.8943Y2.8731
X4.8943Y2.1231
X4.8943Y1.3731
T8
X0.6031Y3.7402
X0.7031Y3.7402
X0.8031Y3.7402
X3.3485Y0.825
X3.3485Y0.725
X3.4485Y0.825
X3.4485Y0.725
X3.8Y3.7874
X3.9Y3.7874
X4.0Y3.7874
X4.1228Y3.7874
X4.2228Y3.7874
X4.3228Y3.7874
X4.9116Y-0.465
X4.9969Y-0.5142
X5.0821Y-0.5634
T9
X4.4571Y3.7244
X4.4571Y3.4744
X4.5571Y3.4744
X4.6571Y3.7244
X4.6571Y3.4744
T10
X0.1943Y3.4543
X0.1943Y2.7043
X0.1943Y1.9543
X0.1943Y1.2043
X0.1943Y0.4543
X0.4943Y3.4543
X0.4943Y2.7043
X0.4943Y1.9543
X0.4943Y1.2043
X0.4943Y0.4543
X0.9443Y3.4543
X0.9443Y2.7043
X0.9443Y1.9543
X0.9443Y1.2043
X0.9443Y0.4543
X1.2443Y3.4543
X1.2443Y2.7043
X1.2443Y1.9543
X1.2443Y1.2043
X1.2443Y0.4543
X1.6943Y3.6418
X1.6943Y2.8918
X1.6943Y2.1418
X1.6943Y1.3918
X1.6943Y0.6418
X1.9943Y3.6418
X1.9943Y2.8918
X1.9943Y2.1418
X1.9943Y1.3918
X1.9943Y0.6418
X2.4443Y3.7356
X2.4443Y2.9856
X2.4443Y2.2356
X2.4443Y1.4856
X2.4443Y0.7356
X2.7443Y3.7356
X2.7443Y2.9856
X2.7443Y2.2356
X2.7443Y1.4856
X2.7443Y0.7356
X2.7443Y0.4418
X3.0443Y0.4418
X3.1943Y3.6418
X3.1943Y2.8918
X3.1943Y2.1418
X3.1943Y1.3918
X3.4943Y3.6418
X3.4943Y2.8918
X3.4943Y2.1418
X3.4943Y1.3918
X3.6196Y0.2744
X3.7696Y0.5342
X3.9443Y3.5481
X3.9443Y2.7981
X3.9443Y2.0481
X3.9443Y1.2981
X4.2443Y3.5481
X4.2443Y2.7981
X4.2443Y2.0481
X4.2443Y1.2981
X4.4424Y-0.2006
X4.5924Y0.0592
X4.6943Y3.1731
X4.6943Y2.4231
X4.6943Y1.6731
X4.8174Y0.449
X4.9674Y0.7088
X4.9943Y3.1731
X4.9943Y2.4231
X4.9943Y1.6731
T3
G00X4.7697Y3.5236
M15
G01X4.7697Y3.5
M16
G05
G00X4.9508Y3.8425
M15
G01X4.9508Y3.8189
M16
G05
G00X4.9508Y3.7244
M15
G01X4.9508Y3.7008
M16
G05
G00X4.9508Y3.5669
M15
G01X4.9508Y3.5433
M16
G05
G00X5.1319Y3.5236
M15
G01X5.1319Y3.5
M16
G05
T11
G00X0.2451Y3.5111
M15
G01X0.2451Y3.5519
M16
G05
G00X0.2451Y2.7611
M15
G01X0.2451Y2.8019
M16
G05
G00X0.2451Y2.0111
M15
G01X0.2451Y2.0519
M16
G05
G00X0.2451Y1.2611
M15
G01X0.2451Y1.3019
M16
G05
G00X0.2451Y0.5111
M15
G01X0.2451Y0.5519
M16
G05
G00X0.4435Y3.5111
M15
G01X0.4435Y3.5519
M16
G05
G00X0.4435Y2.7611
M15
G01X0.4435Y2.8019
M16
G05
G00X0.4435Y2.0111
M15
G01X0.4435Y2.0519
M16
G05
G00X0.4435Y1.2611
M15
G01X0.4435Y1.3019
M16
G05
G00X0.4435Y0.5111
M15
G01X0.4435Y0.5519
M16
G05
G00X0.9951Y3.5519
M15
G01X0.9951Y3.5111
M16
G05
G00X0.9951Y2.8019
M15
G01X0.9951Y2.7611
M16
G05
G00X0.9951Y2.0519
M15
G01X0.9951Y2.0111
M16
G05
G00X0.9951Y1.3019
M15
G01X0.9951Y1.2611
M16
G05
G00X0.9951Y0.5519
M15
G01X0.9951Y0.5111
M16
G05
G00X1.1935Y3.5519
M15
G01X1.1935Y3.5111
M16
G05
G00X1.1935Y2.8019
M15
G01X1.1935Y2.7611
M16
G05
G00X1.1935Y2.0519
M15
G01X1.1935Y2.0111
M16
G05
G00X1.1935Y1.3019
M15
G01X1.1935Y1.2611
M16
G05
G00X1.1935Y0.5519
M15
G01X1.1935Y0.5111
M16
G05
G00X1.7451Y3.6986
M15
G01X1.7451Y3.7394
M16
G05
G00X1.7451Y2.9486
M15
G01X1.7451Y2.9894
M16
G05
G00X1.7451Y2.1986
M15
G01X1.7451Y2.2394
M16
G05
G00X1.7451Y1.4894
M15
G01X1.7451Y1.4486
M16
G05
G00X1.7451Y0.6986
M15
G01X1.7451Y0.7394
M16
G05
G00X1.9435Y3.6986
M15
G01X1.9435Y3.7394
M16
G05
G00X1.9435Y2.9486
M15
G01X1.9435Y2.9894
M16
G05
G00X1.9435Y2.1986
M15
G01X1.9435Y2.2394
M16
G05
G00X1.9435Y1.4894
M15
G01X1.9435Y1.4486
M16
G05
G00X1.9435Y0.6986
M15
G01X1.9435Y0.7394
M16
G05
G00X2.4951Y3.8332
M15
G01X2.4951Y3.7923
M16
G05
G00X2.4951Y3.0832
M15
G01X2.4951Y3.0423
M16
G05
G00X2.4951Y2.3332
M15
G01X2.4951Y2.2923
M16
G05
G00X2.4951Y1.5832
M15
G01X2.4951Y1.5423
M16
G05
G00X2.4951Y0.7923
M15
G01X2.4951Y0.8332
M16
G05
G00X2.6935Y3.8332
M15
G01X2.6935Y3.7923
M16
G05
G00X2.6935Y3.0832
M15
G01X2.6935Y3.0423
M16
G05
G00X2.6935Y2.3332
M15
G01X2.6935Y2.2923
M16
G05
G00X2.6935Y1.5832
M15
G01X2.6935Y1.5423
M16
G05
G00X2.6935Y0.7923
M15
G01X2.6935Y0.8332
M16
G05
G00X2.7951Y0.3443
M15
G01X2.7951Y0.3851
M16
G05
G00X2.9935Y0.3443
M15
G01X2.9935Y0.3851
M16
G05
G00X3.2451Y3.7394
M15
G01X3.2451Y3.6986
M16
G05
G00X3.2451Y2.9894
M15
G01X3.2451Y2.9486
M16
G05
G00X3.2451Y2.2394
M15
G01X3.2451Y2.1986
M16
G05
G00X3.2451Y1.4894
M15
G01X3.2451Y1.4486
M16
G05
G00X3.4435Y3.7394
M15
G01X3.4435Y3.6986
M16
G05
G00X3.4435Y2.9894
M15
G01X3.4435Y2.9486
M16
G05
G00X3.4435Y2.2394
M15
G01X3.4435Y2.1986
M16
G05
G00X3.4435Y1.4894
M15
G01X3.4435Y1.4486
M16
G05
G00X3.5605Y0.3672
M15
G01X3.5959Y0.3468
M16
G05
G00X3.6597Y0.5391
M15
G01X3.6951Y0.5186
M16
G05
G00X3.9951Y3.6457
M15
G01X3.9951Y3.6048
M16
G05
G00X3.9951Y2.8548
M15
G01X3.9951Y2.8957
M16
G05
G00X3.9951Y2.1048
M15
G01X3.9951Y2.1457
M16
G05
G00X3.9951Y1.3548
M15
G01X3.9951Y1.3957
M16
G05
G00X4.1935Y3.6457
M15
G01X4.1935Y3.6048
M16
G05
G00X4.1935Y2.8548
M15
G01X4.1935Y2.8957
M16
G05
G00X4.1935Y2.1048
M15
G01X4.1935Y2.1457
M16
G05
G00X4.1935Y1.3548
M15
G01X4.1935Y1.3957
M16
G05
G00X4.5522Y-0.2054
M15
G01X4.5169Y-0.185
M16
G05
G00X4.6515Y-0.0335
M15
G01X4.6161Y-0.0131
M16
G05
G00X4.7451Y3.2707
M15
G01X4.7451Y3.2298
M16
G05
G00X4.7451Y2.5207
M15
G01X4.7451Y2.4798
M16
G05
G00X4.7451Y1.7707
M15
G01X4.7451Y1.7298
M16
G05
G00X4.9272Y0.4442
M15
G01X4.8919Y0.4646
M16
G05
G00X4.9435Y3.2707
M15
G01X4.9435Y3.2298
M16
G05
G00X4.9435Y2.5207
M15
G01X4.9435Y2.4798
M16
G05
G00X4.9435Y1.7707
M15
G01X4.9435Y1.7298
M16
G05
G00X5.0265Y0.616
M15
G01X4.9911Y0.6364
M16
G05
T12
G00X4.8011Y-0.4989
M15
G01X4.807Y-0.4887
M16
G05
G00X5.108Y-0.6761
M15
G01X5.1139Y-0.6659
M16
G05
T0
M30
